<svg width="20" height="20" viewBox="0 0 20 20" fill="none" xmlns="http://www.w3.org/2000/svg">
<path d="M10.0007 9.83333C10.9236 9.83333 11.8259 9.55964 12.5933 9.04686C13.3607 8.53408 13.9589 7.80525 14.3121 6.95252C14.6653 6.0998 14.7577 5.16149 14.5776 4.25625C14.3976 3.351 13.9531 2.51948 13.3005 1.86684C12.6478 1.21419 11.8163 0.769735 10.9111 0.589671C10.0058 0.409606 9.06752 0.502022 8.21479 0.855231C7.36207 1.20844 6.63324 1.80658 6.12046 2.57401C5.60768 3.34144 5.33398 4.24369 5.33398 5.16667C5.33522 6.40397 5.82728 7.59023 6.70218 8.46514C7.57709 9.34004 8.76335 9.8321 10.0007 9.83333ZM10.0007 2.05556C10.616 2.05556 11.2175 2.23802 11.7291 2.57987C12.2407 2.92173 12.6395 3.40762 12.8749 3.9761C13.1104 4.54458 13.172 5.17012 13.052 5.77362C12.9319 6.37711 12.6356 6.93146 12.2005 7.36656C11.7654 7.80165 11.2111 8.09796 10.6076 8.218C10.0041 8.33804 9.37856 8.27643 8.81008 8.04096C8.2416 7.80549 7.75571 7.40673 7.41386 6.89511C7.072 6.38349 6.88954 5.78199 6.88954 5.16667C6.88954 4.34155 7.21732 3.55023 7.80076 2.96678C8.38421 2.38333 9.17553 2.05556 10.0007 2.05556Z" fill="#AFAFAF"/>
<path d="M10 11.3887C8.14412 11.3907 6.36483 12.1289 5.05253 13.4412C3.74022 14.7535 3.00206 16.5328 3 18.3887C3 18.595 3.08194 18.7928 3.22781 18.9386C3.37367 19.0845 3.5715 19.1665 3.77778 19.1665C3.98406 19.1665 4.18189 19.0845 4.32775 18.9386C4.47361 18.7928 4.55556 18.595 4.55556 18.3887C4.55556 16.9447 5.12916 15.5599 6.1502 14.5389C7.17123 13.5178 8.55604 12.9442 10 12.9442C11.444 12.9442 12.8288 13.5178 13.8498 14.5389C14.8708 15.5599 15.4444 16.9447 15.4444 18.3887C15.4444 18.595 15.5264 18.7928 15.6722 18.9386C15.8181 19.0845 16.0159 19.1665 16.2222 19.1665C16.4285 19.1665 16.6263 19.0845 16.7722 18.9386C16.9181 18.7928 17 18.595 17 18.3887C16.9979 16.5328 16.2598 14.7535 14.9475 13.4412C13.6352 12.1289 11.8559 11.3907 10 11.3887Z" fill="#AFAFAF"/>
</svg>
