<svg width="20" height="20" viewBox="0 0 20 20" fill="none" xmlns="http://www.w3.org/2000/svg">
<g clip-path="url(#clip0_24530_152806)">
<mask id="mask0_24530_152806" style="mask-type:luminance" maskUnits="userSpaceOnUse" x="0" y="0" width="20" height="20">
<path d="M0 0H20V20H0V0Z" fill="white"/>
</mask>
<g mask="url(#mask0_24530_152806)">
<path d="M6.08979 13.2632C5.77501 13.1215 5.40501 13.262 5.26338 13.5767C5.12174 13.8915 5.2621 14.2615 5.57688 14.4031L7.24355 15.153C7.55833 15.2947 7.92833 15.1543 8.06997 14.8395C8.2116 14.5247 8.07123 14.1548 7.75646 14.0131L6.08979 13.2632Z" fill="#AFAFAF"/>
<path fill-rule="evenodd" clip-rule="evenodd" d="M11.4932 1.38001C10.5464 0.939739 9.45358 0.939739 8.50675 1.38L3.09006 3.89865C1.84071 4.47956 1.04166 5.73231 1.04166 7.11011V12.9556C1.04166 14.344 1.85286 15.6043 3.11656 16.1793L8.53325 18.6439C9.46508 19.0679 10.5349 19.0679 11.4667 18.6439L16.8834 16.1793C18.1472 15.6043 18.9583 14.344 18.9583 12.9556V7.11011C18.9583 5.73231 18.1592 4.47956 16.9099 3.89865L11.4932 1.38001ZM9.03375 2.51346C9.64641 2.22859 10.3536 2.22859 10.9662 2.51346L16.3829 5.03211C16.7726 5.21331 17.0946 5.49555 17.3236 5.83917L14.8407 7.01526L7.285 3.32661L9.03375 2.51346ZM5.82566 4.00517L3.6171 5.03211C3.22739 5.21331 2.9054 5.49555 2.67639 5.83916L10 9.30821L13.3947 7.70026L5.82566 4.00517ZM2.29271 7.04056L9.37533 10.3955L9.37583 17.6253C9.26541 17.594 9.15683 17.5543 9.05091 17.5061L3.63425 15.0415C2.81656 14.6695 2.29166 13.854 2.29166 12.9556V7.11011C2.29166 7.08687 2.29201 7.06369 2.29271 7.04056ZM10.6258 17.6248C10.7357 17.5936 10.8437 17.5541 10.9491 17.5061L16.3657 15.0415C17.1834 14.6695 17.7083 13.854 17.7083 12.9556V7.11011C17.7083 7.08688 17.708 7.0637 17.7072 7.04058L10.6253 10.3951L10.6258 17.6248Z" fill="#AFAFAF"/>
</g>
</g>
<defs>
<clipPath id="clip0_24530_152806">
<rect width="20" height="20" fill="white"/>
</clipPath>
</defs>
</svg>
