<svg width="22" height="22" viewBox="0 0 22 22" fill="none" xmlns="http://www.w3.org/2000/svg">
<g clip-path="url(#clip0_24530_156207)">
<path d="M13.4152 2.75C13.4152 2.75 14.4465 5.5 12.7277 6.1875C11.2771 4.30237 12.2517 0.34375 7.5715 0.34375C7.5715 0.34375 9.98531 3.22231 8.08953 6.74884C7.01084 5.68322 7.04247 4.61759 7.04247 4.61759C5.70732 5.71721 4.65349 7.11922 3.96834 8.70742C3.2832 10.2956 2.98647 12.0242 3.10275 13.75C3.10275 15.8469 3.93573 17.8579 5.41843 19.3406C6.90114 20.8233 8.91213 21.6562 11.009 21.6562C13.1059 21.6562 15.1169 20.8233 16.5996 19.3406C18.0823 17.8579 18.9152 15.8469 18.9152 13.75C18.9309 11.6127 18.4408 9.50191 17.4849 7.59016C16.529 5.67841 15.1345 4.01987 13.4152 2.75Z" fill="#FF786E"/>
<path d="M11.5253 21.6377C13.5284 21.5068 15.4066 20.6189 16.7791 19.1541C18.1516 17.6893 18.9155 15.7573 18.9159 13.75C18.9271 11.8957 18.5596 10.0588 17.836 8.35153C17.1123 6.64431 16.0477 5.1028 14.7074 3.82144C14.7129 3.86063 14.7181 3.90016 14.7229 3.94038C14.7563 4.22223 14.7297 4.50797 14.6448 4.77879C14.5598 5.04961 14.4185 5.29937 14.2301 5.51165C14.0417 5.72392 13.8105 5.8939 13.5516 6.01038C13.2928 6.12686 13.0123 6.18722 12.7284 6.18747C11.4047 4.46872 12.0997 1.02091 8.67219 0.432068C9.22034 1.17481 9.58784 2.03508 9.74555 2.94461C9.90325 3.85415 9.84682 4.78793 9.58072 5.67185C9.47821 5.98599 9.27868 6.25951 9.01084 6.45304C8.743 6.64657 8.42066 6.75013 8.09022 6.74882C7.69864 6.3726 7.3961 5.91362 7.20472 5.40544C6.13816 6.50449 5.31389 7.81495 4.78509 9.25225C4.2563 10.6896 4.03473 12.2218 4.13469 13.75C4.13513 15.7573 4.89907 17.6893 6.27155 19.1541C7.64402 20.6189 9.52228 21.5068 11.5253 21.6377Z" fill="#FF5050"/>
<path d="M6.19664 2.75001C5.4373 2.75001 4.82164 1.98036 4.82164 1.03126C4.82276 0.933447 4.83057 0.835823 4.84502 0.739075C4.51609 0.87055 4.23706 1.1025 4.04769 1.40186C3.85832 1.70122 3.76827 2.05272 3.79039 2.40626C3.79039 3.35536 4.40605 4.12501 5.16539 4.12501C5.84464 4.12501 6.4053 3.50626 6.51702 2.69845C6.41332 2.73119 6.30538 2.74856 6.19664 2.75001Z" fill="#FF786E"/>
<path d="M4.83955 1.25592C4.6002 1.59134 4.47346 1.99406 4.47758 2.40611C4.45686 2.75518 4.54491 3.10209 4.72961 3.39903C4.9143 3.69596 5.18655 3.92829 5.50883 4.06401C5.78676 3.95195 6.02814 3.76494 6.20608 3.52382C6.38403 3.28269 6.49156 2.99691 6.51671 2.6983C6.41301 2.73104 6.30507 2.74841 6.19633 2.74986C5.49886 2.74986 4.92858 2.09673 4.83955 1.25592Z" fill="#FF5050"/>
<path d="M11 18.5625C13.6579 18.5625 15.8125 16.4079 15.8125 13.75C15.8125 11.0921 13.6579 8.9375 11 8.9375C8.34213 8.9375 6.1875 11.0921 6.1875 13.75C6.1875 16.4079 8.34213 18.5625 11 18.5625Z" fill="#E6F0FF"/>
<path d="M11.6884 9.62501C10.7782 9.62521 9.88671 9.88353 9.11742 10.37C8.34813 10.8564 7.73256 11.5511 7.34215 12.3733C6.95174 13.1955 6.8025 14.1115 6.91175 15.0151C7.021 15.9187 7.38425 16.7728 7.95936 17.4783C8.88315 18.2308 10.0532 18.6139 11.2432 18.5533C12.4331 18.4928 13.5583 17.993 14.401 17.1507C15.2437 16.3084 15.7439 15.1834 15.8049 13.9935C15.8659 12.8035 15.4833 11.6333 14.7312 10.7092C13.873 10.0065 12.7976 9.6233 11.6884 9.62501Z" fill="#F5FAFF"/>
<path d="M11.3438 13.4062H10.6562V11C10.6562 10.9088 10.6925 10.8214 10.7569 10.7569C10.8214 10.6925 10.9088 10.6562 11 10.6562C11.0912 10.6562 11.1786 10.6925 11.2431 10.7569C11.3075 10.8214 11.3438 10.9088 11.3438 11V13.4062Z" fill="#3F4D56"/>
<path d="M13.4062 14.103H11.3438V13.4155H13.4062C13.4974 13.4155 13.5849 13.4517 13.6493 13.5162C13.7138 13.5807 13.75 13.6681 13.75 13.7593C13.75 13.8504 13.7138 13.9379 13.6493 14.0023C13.5849 14.0668 13.4974 14.103 13.4062 14.103Z" fill="#3F4D56"/>
<path d="M11 9.96875C10.9088 9.96875 10.8214 9.93253 10.7569 9.86807C10.6925 9.8036 10.6562 9.71617 10.6562 9.625V8.59375H11.3438V9.625C11.3438 9.71617 11.3075 9.8036 11.2431 9.86807C11.1786 9.93253 11.0912 9.96875 11 9.96875Z" fill="#3F4D56"/>
<path d="M11.3438 18.9062H10.6562V17.875C10.6562 17.7838 10.6925 17.6964 10.7569 17.6319C10.8214 17.5675 10.9088 17.5312 11 17.5312C11.0912 17.5312 11.1786 17.5675 11.2431 17.6319C11.3075 17.6964 11.3438 17.7838 11.3438 17.875V18.9062Z" fill="#3F4D56"/>
<path d="M8.64062 10.3493L8.125 9.45557L8.72037 9.11182L9.236 10.0056C9.28158 10.0845 9.29393 10.1783 9.27034 10.2664C9.24675 10.3545 9.18914 10.4295 9.11019 10.4751C9.03124 10.5207 8.93741 10.5331 8.84935 10.5095C8.76129 10.4859 8.68621 10.4283 8.64062 10.3493Z" fill="#3F4D56"/>
<path d="M13.2804 18.3869L12.7648 17.4932C12.7192 17.4142 12.7069 17.3204 12.7305 17.2323C12.7541 17.1443 12.8117 17.0692 12.8906 17.0236C12.9696 16.978 13.0634 16.9657 13.1515 16.9893C13.2395 17.0128 13.3146 17.0705 13.3602 17.1494L13.8758 18.0432L13.2804 18.3869Z" fill="#3F4D56"/>
<path d="M7.25508 11.9851L6.36133 11.4695L6.70508 10.8741L7.59883 11.3898C7.67778 11.4354 7.73539 11.5104 7.75898 11.5985C7.78258 11.6866 7.77022 11.7804 7.72464 11.8593C7.67906 11.9383 7.60397 11.9959 7.51592 12.0195C7.42786 12.0431 7.33403 12.0307 7.25508 11.9851Z" fill="#3F4D56"/>
<path d="M15.2941 16.6258L14.4004 16.1102C14.3214 16.0646 14.2638 15.9895 14.2402 15.9015C14.2166 15.8134 14.229 15.7196 14.2746 15.6406C14.3202 15.5617 14.3952 15.5041 14.4833 15.4805C14.5714 15.4569 14.6652 15.4692 14.7441 15.5148L15.6379 16.0304L15.2941 16.6258Z" fill="#3F4D56"/>
<path d="M6.875 14.0938H5.84375V13.4062H6.875C6.96617 13.4062 7.0536 13.4425 7.11807 13.5069C7.18253 13.5714 7.21875 13.6588 7.21875 13.75C7.21875 13.8412 7.18253 13.9286 7.11807 13.9931C7.0536 14.0575 6.96617 14.0938 6.875 14.0938Z" fill="#3F4D56"/>
<path d="M16.1562 14.0938H15.125C15.0338 14.0938 14.9464 14.0575 14.8819 13.9931C14.8175 13.9286 14.7812 13.8412 14.7812 13.75C14.7812 13.6588 14.8175 13.5714 14.8819 13.5069C14.9464 13.4425 15.0338 13.4062 15.125 13.4062H16.1562V14.0938Z" fill="#3F4D56"/>
<path d="M6.70703 16.6258L6.36328 16.0304L7.25703 15.5148C7.33598 15.4692 7.42981 15.4569 7.51787 15.4805C7.60593 15.5041 7.68101 15.5617 7.72659 15.6406C7.77218 15.7196 7.78453 15.8134 7.76093 15.9015C7.73734 15.9895 7.67973 16.0646 7.60078 16.1102L6.70703 16.6258Z" fill="#3F4D56"/>
<path d="M14.2746 11.8593C14.229 11.7804 14.2166 11.6866 14.2402 11.5985C14.2638 11.5104 14.3214 11.4354 14.4004 11.3898L15.2941 10.8741L15.6379 11.4695L14.7441 11.9851C14.6652 12.0307 14.5714 12.0431 14.4833 12.0195C14.3952 11.9959 14.3202 11.9383 14.2746 11.8593Z" fill="#3F4D56"/>
<path d="M8.72037 18.3869L8.125 18.0432L8.64062 17.1494C8.68621 17.0705 8.76129 17.0128 8.84935 16.9893C8.93741 16.9657 9.03124 16.978 9.11019 17.0236C9.18914 17.0692 9.24675 17.1443 9.27034 17.2323C9.29393 17.3204 9.28158 17.4142 9.236 17.4932L8.72037 18.3869Z" fill="#3F4D56"/>
<path d="M12.8906 10.4751C12.8117 10.4295 12.7541 10.3545 12.7305 10.2664C12.7069 10.1783 12.7192 10.0845 12.7648 10.0056L13.2804 9.11182L13.8758 9.45557L13.3602 10.3493C13.3146 10.4283 13.2395 10.4859 13.1515 10.5095C13.0634 10.5331 12.9696 10.5207 12.8906 10.4751Z" fill="#3F4D56"/>
<path d="M11 7.5625C9.77623 7.5625 8.57994 7.92539 7.56241 8.60528C6.54488 9.28517 5.75182 10.2515 5.2835 11.3821C4.81518 12.5128 4.69265 13.7569 4.93139 14.9571C5.17014 16.1574 5.75944 17.2599 6.62478 18.1252C7.49012 18.9906 8.59262 19.5799 9.79288 19.8186C10.9931 20.0574 12.2372 19.9348 13.3679 19.4665C14.4985 18.9982 15.4648 18.2051 16.1447 17.1876C16.8246 16.1701 17.1875 14.9738 17.1875 13.75C17.1875 12.109 16.5356 10.5352 15.3752 9.37478C14.2148 8.2144 12.641 7.5625 11 7.5625ZM11 18.5625C10.0482 18.5625 9.11773 18.2803 8.32632 17.7514C7.53491 17.2226 6.91808 16.471 6.55383 15.5917C6.18959 14.7123 6.09428 13.7447 6.27997 12.8111C6.46566 11.8776 6.92401 11.0201 7.59705 10.347C8.27009 9.67401 9.1276 9.21566 10.0611 9.02997C10.9947 8.84428 11.9623 8.93958 12.8417 9.30383C13.721 9.66808 14.4726 10.2849 15.0014 11.0763C15.5303 11.8677 15.8125 12.7982 15.8125 13.75C15.8125 15.0264 15.3055 16.2504 14.403 17.153C13.5004 18.0555 12.2764 18.5625 11 18.5625Z" fill="#FFD246"/>
<path d="M11.6875 8.25C10.5052 8.24917 9.34746 8.58733 8.35149 9.2244C7.35552 9.86146 6.56308 10.7707 6.0681 11.8444C5.57311 12.9181 5.39634 14.1112 5.55872 15.2823C5.72111 16.4533 6.21585 17.5533 6.9843 18.4518C8.16692 19.4646 9.68816 19.994 11.2441 19.934C12.8 19.874 14.2759 19.2292 15.3771 18.1284C16.4783 17.0276 17.1236 15.5518 17.184 13.9959C17.2445 12.44 16.7156 10.9186 15.7032 9.73569C14.5854 8.77606 13.1607 8.24894 11.6875 8.25ZM11 18.5625C10.0482 18.5625 9.11772 18.2803 8.32631 17.7514C7.53489 17.2226 6.91806 16.471 6.55382 15.5917C6.18957 14.7123 6.09427 13.7447 6.27996 12.8111C6.46565 11.8776 6.924 11.0201 7.59704 10.3471C8.27008 9.67401 9.12758 9.21566 10.0611 9.02997C10.9946 8.84428 11.9623 8.93958 12.8417 9.30383C13.721 9.66808 14.4726 10.2849 15.0014 11.0763C15.5302 11.8677 15.8125 12.7982 15.8125 13.75C15.8125 15.0264 15.3055 16.2504 14.4029 17.153C13.5004 18.0555 12.2763 18.5625 11 18.5625Z" fill="#FFBE37"/>
<path d="M11 14.6094C11.4746 14.6094 11.8594 14.2246 11.8594 13.75C11.8594 13.2754 11.4746 12.8906 11 12.8906C10.5254 12.8906 10.1406 13.2754 10.1406 13.75C10.1406 14.2246 10.5254 14.6094 11 14.6094Z" fill="#5A6978"/>
</g>
<defs>
<clipPath id="clip0_24530_156207">
<rect width="22" height="22" fill="white"/>
</clipPath>
</defs>
</svg>
