<svg width="65" height="15" viewBox="0 0 65 15" fill="none" xmlns="http://www.w3.org/2000/svg">
<path d="M0 10C0 5.28595 0 2.92893 1.46447 1.46447C2.92893 0 5.28595 0 10 0H65V5C65 9.71405 65 12.0711 63.5355 13.5355C62.0711 15 59.714 15 55 15H0V10Z" fill="#00AA6D"/>
<path d="M13.4759 3.72727H14.5767V8.51065C14.5767 9.01965 14.4571 9.47064 14.218 9.86364C13.9789 10.2543 13.6428 10.562 13.2095 10.7869C12.7763 11.0095 12.2685 11.1207 11.6861 11.1207C11.1061 11.1207 10.5994 11.0095 10.1662 10.7869C9.73295 10.562 9.39678 10.2543 9.15767 9.86364C8.91856 9.47064 8.79901 9.01965 8.79901 8.51065V3.72727H9.89631V8.42188C9.89631 8.75095 9.96851 9.04332 10.1129 9.29901C10.2597 9.55469 10.4669 9.75592 10.7344 9.9027C11.0019 10.0471 11.3191 10.1193 11.6861 10.1193C12.0554 10.1193 12.3738 10.0471 12.6413 9.9027C12.9112 9.75592 13.1172 9.55469 13.2592 9.29901C13.4036 9.04332 13.4759 8.75095 13.4759 8.42188V3.72727ZM16.0868 13.0455V5.54545H17.1238V6.42969H17.2125C17.2741 6.31605 17.3629 6.18466 17.4789 6.03551C17.5949 5.88636 17.7559 5.75616 17.9618 5.64489C18.1678 5.53125 18.44 5.47443 18.7786 5.47443C19.2189 5.47443 19.6119 5.5857 19.9576 5.80824C20.3032 6.03078 20.5743 6.35156 20.7708 6.7706C20.9696 7.18963 21.0691 7.69389 21.0691 8.28338C21.0691 8.87287 20.9708 9.37831 20.7743 9.79972C20.5778 10.2187 20.3079 10.5419 19.9647 10.7692C19.6214 10.9941 19.2296 11.1065 18.7892 11.1065C18.4578 11.1065 18.1867 11.0509 17.976 10.9396C17.7677 10.8284 17.6043 10.6982 17.486 10.549C17.3676 10.3999 17.2765 10.2673 17.2125 10.1513H17.1486V13.0455H16.0868ZM17.1273 8.27273C17.1273 8.65625 17.1829 8.99242 17.2942 9.28125C17.4055 9.57008 17.5665 9.79616 17.7772 9.95952C17.9879 10.1205 18.2459 10.201 18.5513 10.201C18.8685 10.201 19.1337 10.117 19.3468 9.94886C19.5598 9.77841 19.7208 9.54759 19.8297 9.25639C19.941 8.9652 19.9966 8.63731 19.9966 8.27273C19.9966 7.91288 19.9422 7.58973 19.8333 7.30327C19.7267 7.01681 19.5658 6.79072 19.3503 6.625C19.1373 6.45928 18.8709 6.37642 18.5513 6.37642C18.2435 6.37642 17.9831 6.45573 17.7701 6.61435C17.5594 6.77296 17.3996 6.99432 17.2907 7.27841C17.1818 7.5625 17.1273 7.89394 17.1273 8.27273ZM24.5563 11.1101C24.0283 11.1101 23.5738 10.9905 23.1926 10.7514C22.8139 10.5099 22.5227 10.1773 22.3191 9.75355C22.1155 9.32978 22.0137 8.84446 22.0137 8.29759C22.0137 7.74361 22.1178 7.25473 22.3262 6.83097C22.5345 6.40483 22.8281 6.07221 23.2069 5.8331C23.5856 5.59399 24.0319 5.47443 24.5456 5.47443C24.9599 5.47443 25.3292 5.55137 25.6536 5.70526C25.9779 5.85677 26.2395 6.06984 26.4384 6.34446C26.6396 6.61908 26.7592 6.93987 26.7971 7.30682H25.7637C25.7069 7.05114 25.5766 6.83097 25.373 6.64631C25.1718 6.46165 24.9019 6.36932 24.5634 6.36932C24.2675 6.36932 24.0082 6.44744 23.7857 6.60369C23.5655 6.75758 23.3939 6.97775 23.2708 7.2642C23.1477 7.5483 23.0861 7.88447 23.0861 8.27273C23.0861 8.67045 23.1465 9.01373 23.2672 9.30256C23.388 9.59138 23.5584 9.8151 23.7786 9.97372C24.0011 10.1323 24.2627 10.2116 24.5634 10.2116C24.7646 10.2116 24.9469 10.175 25.1103 10.1016C25.276 10.0258 25.4145 9.91809 25.5257 9.77841C25.6394 9.63873 25.7187 9.47064 25.7637 9.27415H26.7971C26.7592 9.62689 26.6444 9.94176 26.4526 10.2188C26.2608 10.4957 26.004 10.7135 25.682 10.8722C25.3624 11.0308 24.9872 11.1101 24.5563 11.1101ZM30.2301 11.1101C29.7188 11.1101 29.2725 10.9929 28.8913 10.7585C28.5102 10.5241 28.2143 10.1963 28.0036 9.77486C27.7929 9.35346 27.6875 8.86103 27.6875 8.29759C27.6875 7.73177 27.7929 7.23698 28.0036 6.81321C28.2143 6.38944 28.5102 6.06037 28.8913 5.82599C29.2725 5.59162 29.7188 5.47443 30.2301 5.47443C30.7415 5.47443 31.1877 5.59162 31.5689 5.82599C31.95 6.06037 32.246 6.38944 32.4567 6.81321C32.6674 7.23698 32.7727 7.73177 32.7727 8.29759C32.7727 8.86103 32.6674 9.35346 32.4567 9.77486C32.246 10.1963 31.95 10.5241 31.5689 10.7585C31.1877 10.9929 30.7415 11.1101 30.2301 11.1101ZM30.2337 10.2188C30.5651 10.2188 30.8397 10.1312 31.0575 9.95597C31.2753 9.78078 31.4363 9.54759 31.5405 9.25639C31.647 8.9652 31.7003 8.64441 31.7003 8.29403C31.7003 7.94602 31.647 7.62642 31.5405 7.33523C31.4363 7.04167 31.2753 6.80611 31.0575 6.62855C30.8397 6.45099 30.5651 6.36222 30.2337 6.36222C29.8999 6.36222 29.6229 6.45099 29.4027 6.62855C29.1849 6.80611 29.0227 7.04167 28.9162 7.33523C28.812 7.62642 28.7599 7.94602 28.7599 8.29403C28.7599 8.64441 28.812 8.9652 28.9162 9.25639C29.0227 9.54759 29.1849 9.78078 29.4027 9.95597C29.6229 10.1312 29.8999 10.2188 30.2337 10.2188ZM33.9579 11V5.54545H34.9771V6.43324H35.0446C35.1582 6.13258 35.344 5.8982 35.6021 5.73011C35.8601 5.55966 36.1691 5.47443 36.5289 5.47443C36.8935 5.47443 37.1989 5.55966 37.4451 5.73011C37.6937 5.90057 37.8772 6.13494 37.9956 6.43324H38.0524C38.1826 6.14205 38.3897 5.91004 38.6738 5.73722C38.9579 5.56203 39.2965 5.47443 39.6895 5.47443C40.1842 5.47443 40.5879 5.6295 40.9004 5.93963C41.2153 6.24976 41.3727 6.71733 41.3727 7.34233V11H40.3109V7.44176C40.3109 7.07244 40.2103 6.80492 40.0091 6.6392C39.8078 6.47348 39.5675 6.39062 39.2882 6.39062C38.9425 6.39062 38.6738 6.49716 38.4821 6.71023C38.2903 6.92093 38.1944 7.192 38.1944 7.52344V11H37.1362V7.37429C37.1362 7.07836 37.0439 6.84044 36.8592 6.66051C36.6745 6.48059 36.4342 6.39062 36.1383 6.39062C35.9371 6.39062 35.7512 6.44389 35.5808 6.55043C35.4127 6.65459 35.2766 6.80019 35.1724 6.98722C35.0706 7.17424 35.0197 7.39086 35.0197 7.63707V11H33.9579ZM42.7958 11V5.54545H43.8576V11H42.7958ZM43.332 4.70384C43.1474 4.70384 42.9888 4.64228 42.8562 4.51918C42.726 4.3937 42.6609 4.24455 42.6609 4.07173C42.6609 3.89654 42.726 3.7474 42.8562 3.62429C42.9888 3.49882 43.1474 3.43608 43.332 3.43608C43.5167 3.43608 43.6741 3.49882 43.8043 3.62429C43.9369 3.7474 44.0032 3.89654 44.0032 4.07173C44.0032 4.24455 43.9369 4.3937 43.8043 4.51918C43.6741 4.64228 43.5167 4.70384 43.332 4.70384ZM46.3478 7.76136V11H45.286V5.54545H46.3052V6.43324H46.3727C46.4982 6.14441 46.6947 5.91241 46.9622 5.73722C47.2321 5.56203 47.5718 5.47443 47.9814 5.47443C48.353 5.47443 48.6786 5.55256 48.9579 5.70881C49.2373 5.86269 49.4539 6.09233 49.6078 6.39773C49.7617 6.70312 49.8386 7.08073 49.8386 7.53054V11H48.7768V7.65838C48.7768 7.26302 48.6738 6.95407 48.4679 6.73153C48.2619 6.50663 47.979 6.39418 47.6191 6.39418C47.3729 6.39418 47.1539 6.44744 46.9622 6.55398C46.7728 6.66051 46.6225 6.81676 46.5112 7.02273C46.4023 7.22633 46.3478 7.47254 46.3478 7.76136ZM53.5495 13.1591C53.1163 13.1591 52.7434 13.1023 52.4309 12.9886C52.1208 12.875 51.8675 12.7247 51.671 12.5376C51.4745 12.3506 51.3277 12.1458 51.2306 11.9233L52.1433 11.5469C52.2072 11.651 52.2924 11.7611 52.399 11.8771C52.5079 11.9955 52.6547 12.0961 52.8393 12.179C53.0263 12.2618 53.2666 12.3033 53.5602 12.3033C53.9627 12.3033 54.2953 12.205 54.5581 12.0085C54.8208 11.8144 54.9522 11.5043 54.9522 11.0781V10.0057H54.8848C54.8208 10.1217 54.7285 10.2507 54.6078 10.3928C54.4894 10.5348 54.3261 10.6579 54.1177 10.7621C53.9094 10.8662 53.6383 10.9183 53.3045 10.9183C52.8736 10.9183 52.4854 10.8177 52.1397 10.6165C51.7965 10.4129 51.5242 10.1134 51.323 9.71804C51.1241 9.32031 51.0247 8.83144 51.0247 8.25142C51.0247 7.6714 51.1229 7.17424 51.3194 6.75994C51.5183 6.34564 51.7905 6.02841 52.1362 5.80824C52.4818 5.5857 52.8736 5.47443 53.3116 5.47443C53.6502 5.47443 53.9236 5.53125 54.1319 5.64489C54.3403 5.75616 54.5024 5.88636 54.6184 6.03551C54.7368 6.18466 54.8279 6.31605 54.8919 6.42969H54.97V5.54545H56.0105V11.1207C56.0105 11.5895 55.9016 11.9742 55.6838 12.2749C55.466 12.5755 55.1712 12.7981 54.7995 12.9425C54.4302 13.0869 54.0136 13.1591 53.5495 13.1591ZM53.5389 10.0376C53.8443 10.0376 54.1023 9.96662 54.313 9.82457C54.5261 9.68016 54.6871 9.4742 54.796 9.20668C54.9073 8.93679 54.9629 8.61364 54.9629 8.23722C54.9629 7.87027 54.9084 7.54711 54.7995 7.26776C54.6906 6.9884 54.5308 6.7706 54.3201 6.61435C54.1094 6.45573 53.849 6.37642 53.5389 6.37642C53.2193 6.37642 52.9529 6.45928 52.7399 6.625C52.5268 6.78835 52.3658 7.01089 52.2569 7.29261C52.1504 7.57434 52.0971 7.8892 52.0971 8.23722C52.0971 8.5947 52.1516 8.90838 52.2605 9.17827C52.3694 9.44815 52.5304 9.65885 52.7434 9.81037C52.9589 9.96188 53.224 10.0376 53.5389 10.0376Z" fill="white"/>
</svg>
