<svg width="20" height="20" viewBox="0 0 20 20" fill="none" xmlns="http://www.w3.org/2000/svg">
<path fill-rule="evenodd" clip-rule="evenodd" d="M14.6625 8.51805C14.5864 8.51805 14.5245 8.45609 14.5245 8.38004C14.5245 8.30395 14.5865 8.24203 14.6625 8.24203C14.7386 8.24203 14.8005 8.30398 14.8005 8.38004C14.8006 8.45609 14.7386 8.51805 14.6625 8.51805ZM14.6625 7.06191C13.9353 7.06191 13.3438 7.65348 13.3438 8.38004C13.3438 9.10684 13.9353 9.69879 14.6625 9.69879C15.3897 9.69879 15.9813 9.1068 15.9813 8.38004C15.9813 7.65344 15.3897 7.06191 14.6625 7.06191ZM10.0007 8.51805C9.92459 8.51805 9.86267 8.45609 9.86267 8.38004C9.86267 8.30395 9.92463 8.24203 10.0007 8.24203C10.0765 8.24203 10.1387 8.30398 10.1387 8.38004C10.1387 8.45609 10.0765 8.51805 10.0007 8.51805ZM10.0007 7.06191C9.27345 7.06191 8.68193 7.65348 8.68193 8.38004C8.68193 9.10684 9.27349 9.69879 10.0007 9.69879C10.7275 9.69879 11.3194 9.1068 11.3194 8.38004C11.3194 7.65344 10.7275 7.06191 10.0007 7.06191ZM5.33884 8.51805C5.26232 8.51805 5.20084 8.45609 5.20084 8.38004C5.20084 8.30395 5.26236 8.24203 5.33884 8.24203C5.41494 8.24203 5.47685 8.30398 5.47685 8.38004C5.47685 8.45609 5.4149 8.51805 5.33884 8.51805ZM5.33884 7.06191C4.61162 7.06191 4.01986 7.65348 4.01986 8.38004C4.01986 9.10684 4.61162 9.69879 5.33884 9.69879C6.06564 9.69879 6.65759 9.1068 6.65759 8.38004C6.65759 7.65344 6.06564 7.06191 5.33884 7.06191ZM18.0817 17.2616V5.08578C18.0817 3.60051 16.8731 2.39383 15.388 2.39383H4.6131C3.12779 2.39383 1.91963 3.60051 1.91963 5.08578V12.2698C1.91963 13.7547 3.12779 14.9633 4.6131 14.9633H14.3175C14.7283 14.9633 15.0995 15.1164 15.3906 15.4061L17.4996 17.5033C17.6038 17.6071 17.7356 17.6328 17.8712 17.5768C18.0067 17.5203 18.0817 17.4086 18.0817 17.2616ZM15.388 1.21289H4.6131C2.47666 1.21289 0.738922 2.95109 0.738922 5.08578V12.2698C0.738922 14.4061 2.4767 16.144 4.6131 16.144H14.3175C14.4176 16.144 14.4872 16.1727 14.5582 16.2432L16.667 18.3407C16.9617 18.6339 17.3404 18.7875 17.7307 18.7875C17.9289 18.7875 18.13 18.7479 18.3248 18.6669C18.903 18.4266 19.2625 17.8878 19.2625 17.2615V5.08578C19.2624 2.95109 17.5245 1.21289 15.388 1.21289Z" fill="#1455AC"/>
</svg>
