<svg width="375" height="321" viewBox="0 0 375 321" fill="none" xmlns="http://www.w3.org/2000/svg">
<g filter="url(#filter0_d_14134_7197)">
<g clip-path="url(#clip0_14134_7197)">
<g opacity="0.2" clip-path="url(#clip1_14134_7197)">
<path d="M123.926 87.9069C123.619 89.1905 122.194 95.3985 122.828 103.371C122.978 105.26 123.348 107.313 124.064 109.659C125.105 113.067 128.906 123.731 140.166 132.209C140.913 132.772 141.671 133.308 142.44 133.818H243.259C246.625 131.307 249.004 128.807 249.989 127.76C251.617 126.029 252.647 124.679 253.406 123.501C256.061 119.376 257.896 116.307 258.264 115.599C262.089 108.245 274.543 101.814 284.309 93.2682C289.337 88.8687 295.55 83.4329 299.591 74.7742C300.635 71.7986 301.841 67.5598 302.389 62.3813C302.831 58.2068 303.459 51.6348 300.99 43.5537C298.47 35.3031 294.058 29.854 292.704 28.2532C290.457 25.5973 287.757 22.405 283.018 19.6736C278.431 17.03 277.082 17.7847 264.077 13.3818C257.387 11.1166 254.926 9.96328 253.638 9.3303C250.801 7.93487 248.662 6.50053 243.682 3.33188C237.319 -0.716612 233.047 -3.97465 232 -4.60134C221.882 -10.6571 203.907 -13.7133 194.582 -13.9345C165.669 -14.6203 116.149 1.99984 111.827 29.3144C108.834 48.2276 127.216 74.1323 123.926 87.9069Z" fill="#FDEBD4"/>
<path d="M286.448 5.98179C284.795 -5.26437 270.383 -13.6581 258.261 -16.7057C250.651 -18.619 238.959 -19.1141 238.272 -12.0354C238.162 -10.8934 238.38 -9.74863 238.864 -8.68081C243.449 1.43222 256.006 7.47481 267.576 11.5667C276.446 14.7038 288.19 17.8315 286.448 5.98179Z" fill="#FDEBD4"/>
<path d="M172.972 35.9169C173.282 34.5495 171.815 32.656 170.087 31.8633C167.914 30.8662 165.894 31.8708 165.635 32.0052C165.556 31.4443 165.279 30.0455 164.131 28.8569C163.817 28.5317 162.094 26.7473 159.796 27.2585C158.171 27.6199 156.876 28.9913 156.463 30.7535C156.359 30.4573 156.078 29.798 155.399 29.3431C155.215 29.22 154.927 29.017 154.544 28.9962C153.668 28.9487 152.987 29.8165 152.773 30.1101C152.66 25.3262 148.912 21.5043 144.49 21.3218C140.532 21.1584 136.822 23.9447 135.758 28.0577C135.384 27.8976 134.833 27.6966 134.146 27.5708C133.208 27.3994 130.848 26.9678 129.258 28.4236C127.874 29.6909 127.888 31.6423 127.902 32.093C127.447 31.7897 126.424 31.2053 125.114 31.2924C123.113 31.4254 121.882 33.0272 121.344 33.728C121.089 34.0596 119.743 35.8127 119.897 36.9561C120.647 42.5096 157.6 39.5547 162.887 39.1319C166.596 38.8354 172.434 38.2907 172.972 35.9169Z" fill="white"/>
<path d="M254.313 43.2238C254.079 42.1909 255.186 40.7606 256.492 40.1618C258.134 39.4086 259.659 40.1675 259.855 40.269C259.915 39.8453 260.124 38.7887 260.991 37.8908C261.228 37.6452 262.53 36.2972 264.266 36.6834C265.493 36.9564 266.472 37.9924 266.783 39.3235C266.862 39.0997 267.074 38.6016 267.587 38.258C267.726 38.1651 267.944 38.0117 268.233 37.996C268.895 37.9602 269.409 38.6157 269.571 38.8375C269.656 35.2238 272.488 32.3367 275.827 32.1989C278.817 32.0754 281.62 34.1802 282.424 37.2871C282.706 37.1662 283.122 37.0143 283.642 36.9193C284.35 36.7898 286.132 36.4638 287.334 37.5635C288.379 38.5208 288.369 39.9948 288.358 40.3353C288.701 40.1062 289.474 39.6648 290.464 39.7306C291.976 39.831 292.905 41.041 293.312 41.5704C293.504 41.8209 294.522 43.1451 294.405 44.0088C293.838 48.2038 265.925 45.9718 261.931 45.6524C259.129 45.4283 254.719 45.0169 254.313 43.2238Z" fill="white"/>
<path d="M265.008 135.036H273.057C273.93 131.759 274.568 128.347 276.097 125.627C279.136 120.222 285.995 116.111 284.813 109.537C284.441 107.466 283.263 105.346 282.975 103.284C282.404 99.1979 285.348 96.0389 286.613 92.4C289.459 84.2114 285.533 73.5196 287.535 65.5066C283.606 69.2948 279.678 73.0829 275.75 76.871C272.889 79.6293 269.917 82.6851 270.413 86.6868C270.682 88.8632 271.969 91.0927 272.697 93.3015C273.905 96.9627 273.536 100.597 271.662 103.488C269.873 106.247 266.778 108.328 265.482 111.311C263.78 115.229 265.409 120.075 265.84 124.579C266.186 128.197 265.748 131.656 265.008 135.036Z" fill="#417971"/>
<path d="M265.008 135.036H273.057C273.93 131.759 274.568 128.347 276.097 125.627C279.136 120.222 285.995 116.111 284.813 109.537C284.441 107.466 283.263 105.346 282.975 103.284C282.404 99.1979 285.348 96.0389 286.613 92.4C289.459 84.2114 285.533 73.5196 287.535 65.5066C283.606 69.2948 279.678 73.0829 275.75 76.871C272.889 79.6293 269.917 82.6851 270.413 86.6868C270.682 88.8632 271.969 91.0927 272.697 93.3015C273.905 96.9627 273.536 100.597 271.662 103.488C269.873 106.247 266.778 108.328 265.482 111.311C263.78 115.229 265.409 120.075 265.84 124.579C266.186 128.197 265.748 131.656 265.008 135.036Z" fill="#7E9C61"/>
<path d="M265.422 133.179C265.41 133.179 265.398 133.178 265.386 133.174C265.312 133.155 265.268 133.078 265.288 133.004C265.37 132.691 265.45 132.37 265.528 132.06C265.737 131.226 265.953 130.364 266.235 129.51C266.263 129.424 266.278 129.32 266.294 129.209C266.31 129.097 266.326 128.981 266.359 128.876C266.368 128.813 266.405 128.756 266.444 128.697C266.458 128.677 266.479 128.644 266.486 128.628C266.487 128.623 266.488 128.617 266.489 128.612C266.677 127.816 266.935 127.051 267.184 126.312C267.365 125.773 267.553 125.215 267.715 124.643C267.715 124.642 267.716 124.64 267.716 124.638C267.753 124.526 267.807 124.436 267.858 124.35C267.904 124.273 267.947 124.201 267.974 124.118C269.289 120.255 270.98 116.807 272.771 113.158C272.999 112.693 273.228 112.227 273.456 111.758C273.474 111.722 273.474 111.699 273.474 111.657C273.474 111.602 273.474 111.527 273.521 111.433C275.542 107.115 276.866 102.306 277.565 96.7314C277.724 95.2655 277.808 93.7929 277.889 92.3689C278.006 90.3289 278.126 88.2195 278.468 86.0733C278.961 83.3034 279.556 80.964 280.342 78.7088C281.988 73.9824 284.371 69.5123 287.423 65.4225C287.469 65.361 287.556 65.3487 287.617 65.395C287.678 65.4413 287.69 65.5286 287.644 65.5901C284.609 69.657 282.24 74.1019 280.603 78.8011C279.822 81.042 279.23 83.3676 278.74 86.1201C278.401 88.2497 278.281 90.3519 278.165 92.3848C278.084 93.8124 277.999 95.2886 277.84 96.764C277.136 102.37 275.805 107.207 273.77 111.554C273.751 111.593 273.751 111.616 273.751 111.657C273.751 111.712 273.751 111.788 273.704 111.882C273.475 112.35 273.247 112.817 273.019 113.281C271.232 116.923 269.545 120.362 268.236 124.207C268.199 124.318 268.146 124.407 268.095 124.494C268.05 124.57 268.007 124.641 267.98 124.723C267.816 125.3 267.628 125.86 267.445 126.401C267.188 127.165 266.945 127.887 266.761 128.665C266.754 128.731 266.715 128.79 266.674 128.852C266.661 128.872 266.639 128.904 266.632 128.92C266.631 128.93 266.629 128.939 266.626 128.948C266.598 129.034 266.583 129.138 266.567 129.249C266.551 129.367 266.533 129.488 266.497 129.598C266.218 130.442 266.003 131.299 265.796 132.128C265.718 132.439 265.637 132.761 265.555 133.075C265.539 133.138 265.483 133.179 265.422 133.179ZM266.631 128.924C266.631 128.924 266.631 128.924 266.631 128.924Z" fill="#2B2B2B"/>
<path d="M269.244 135.036C270.705 132.817 272.035 130.537 273.145 128.155C274.365 125.537 275.344 122.763 277.533 120.662C281.88 116.489 290.519 115.419 293.509 110.48C295.237 107.624 294.755 103.908 296.149 100.901C296.983 99.1028 298.462 97.6156 299.635 95.9784C301.865 92.8667 303.519 89.2849 304.085 85.6251C302.104 87.285 302.728 87.9745 300.436 89.3931C297.128 91.4401 293.821 93.4872 290.513 95.5342C281.766 100.947 272.691 106.756 270.007 115.588C269.042 118.764 268.954 122.208 268.469 125.533C267.989 128.823 267.112 132.004 265.859 135.035L269.244 135.036Z" fill="#708A54"/>
<path d="M278.46 135.036C280.783 134.353 282.875 133.446 284.31 131.868C286.552 129.401 286.789 125.662 288.732 122.982C289.894 121.38 291.629 120.208 293.093 118.83C295.876 116.21 298.184 113.017 299.439 109.536C297.178 110.78 297.659 111.578 295.138 112.524C291.501 113.889 287.864 115.255 284.227 116.62C274.61 120.231 264.595 124.166 260.272 132.311C259.808 133.186 259.416 134.1 259.064 135.036L278.46 135.036Z" fill="#7E9C61"/>
<path d="M270.449 131.03C270.445 131.03 270.442 131.029 270.438 131.029C270.362 131.023 270.305 130.956 270.311 130.879C270.625 126.892 271.521 123.015 272.974 119.353C274.542 115.404 276.423 112.552 277.404 111.203C278.922 109.118 280.476 107.641 281.725 106.454C282.302 105.906 282.8 105.432 283.197 104.992C286.155 101.708 289.806 99.0917 293.336 96.5611C296.384 94.377 299.535 92.1185 302.227 89.441C302.281 89.3868 302.369 89.3875 302.422 89.4423C302.476 89.4971 302.475 89.5853 302.421 89.6394C299.713 92.3327 296.553 94.5979 293.496 96.7884C289.978 99.3102 286.339 101.918 283.402 105.179C282.998 105.627 282.496 106.104 281.914 106.657C280.674 107.836 279.13 109.303 277.627 111.368C276.653 112.706 274.787 115.536 273.231 119.457C271.788 123.092 270.898 126.942 270.587 130.901C270.581 130.974 270.52 131.03 270.449 131.03Z" fill="#2B2B2B"/>
<path d="M260.593 133.675C260.523 133.675 260.463 133.621 260.456 133.549C260.448 133.472 260.504 133.404 260.58 133.397C265.42 132.922 270.328 131.033 275.166 127.784C276.979 126.566 278.728 125.193 280.42 123.864C281.871 122.726 283.37 121.548 284.905 120.472C288.209 118.156 291.782 116.229 295.525 114.744C295.597 114.716 295.677 114.751 295.704 114.822C295.732 114.894 295.697 114.975 295.626 115.003C291.903 116.481 288.349 118.398 285.063 120.701C283.534 121.773 282.037 122.948 280.59 124.084C278.894 125.416 277.14 126.793 275.319 128.016C270.443 131.291 265.493 133.195 260.607 133.674C260.602 133.675 260.598 133.675 260.593 133.675Z" fill="#2B2B2B"/>
<path d="M127.686 96.1939C128.951 99.8328 131.895 102.992 131.324 107.078C131.037 109.14 129.858 111.26 129.486 113.331C128.304 119.905 135.164 124.016 138.202 129.421C138.407 129.785 138.595 130.161 138.77 130.547H148.342C148.352 129.829 148.389 129.104 148.459 128.373C148.891 123.869 150.519 119.023 148.817 115.105C147.522 112.122 144.426 110.041 142.637 107.282C140.764 104.391 140.394 100.757 141.602 97.0955C142.331 94.8867 143.617 92.6572 143.887 90.4808C144.382 86.4791 141.41 83.4233 138.55 80.665C134.621 76.8768 130.693 73.0887 126.765 69.3005C128.767 77.3135 124.841 88.0053 127.686 96.1939Z" fill="#417971"/>
<path d="M127.686 96.1939C128.951 99.8328 131.895 102.992 131.324 107.078C131.037 109.14 129.858 111.26 129.486 113.331C128.304 119.905 135.164 124.016 138.202 129.421C138.407 129.785 138.595 130.161 138.77 130.547H148.342C148.352 129.829 148.389 129.104 148.459 128.373C148.891 123.869 150.519 119.023 148.817 115.105C147.522 112.122 144.426 110.041 142.637 107.282C140.764 104.391 140.394 100.757 141.602 97.0955C142.331 94.8867 143.617 92.6572 143.887 90.4808C144.382 86.4791 141.41 83.4233 138.55 80.665C134.621 76.8768 130.693 73.0887 126.765 69.3005C128.767 77.3135 124.841 88.0053 127.686 96.1939Z" fill="#7E9C61"/>
<path d="M146.828 129.823C146.77 129.823 146.715 129.786 146.696 129.727C146.649 129.58 146.605 129.422 146.562 129.269C146.501 129.048 146.438 128.82 146.36 128.612C146.359 128.609 146.358 128.605 146.357 128.601C146.297 128.39 146.19 128.193 146.087 128.003C146.046 127.926 146.003 127.847 145.964 127.769C145.961 127.763 145.959 127.758 145.957 127.752C144.723 124.207 143.079 120.814 141.49 117.534C141.182 116.898 140.863 116.24 140.552 115.59C140.539 115.563 140.535 115.532 140.541 115.502C140.571 115.35 140.523 115.255 140.449 115.112C140.439 115.092 140.429 115.072 140.418 115.051C138.613 111.287 137.437 107.2 136.604 101.796C136.603 101.789 136.603 101.781 136.603 101.774C136.603 101.669 136.592 101.574 136.581 101.474C136.57 101.373 136.559 101.269 136.558 101.153C136.423 100.195 136.333 99.2852 136.246 98.36C136.246 98.3582 136.245 98.3564 136.245 98.3545C136.22 97.899 136.197 97.4466 136.173 96.9963C136.07 95.004 135.972 93.1223 135.754 91.1463C135.534 89.6372 135.272 88.2638 134.907 86.698C134.344 84.509 133.674 82.1533 132.591 79.779C132.556 79.7086 132.556 79.6481 132.556 79.6081C132.556 79.5799 132.556 79.5727 132.548 79.5576C131.738 77.7602 130.822 75.8274 129.603 73.841C129.553 73.7653 129.526 73.6983 129.502 73.6391C129.481 73.5858 129.463 73.5399 129.426 73.4843C129.38 73.414 129.336 73.3466 129.294 73.2816C129.174 73.0953 129.07 72.9343 128.942 72.7724C128.936 72.7648 128.93 72.7564 128.926 72.7477C128.899 72.6937 128.886 72.6528 128.874 72.6167C128.864 72.5877 128.856 72.5625 128.84 72.5301C128.15 71.5064 127.436 70.448 126.654 69.3833C126.609 69.3214 126.622 69.2341 126.683 69.1883C126.744 69.1425 126.831 69.1554 126.876 69.2173C127.664 70.2893 128.381 71.3529 129.074 72.3814C129.078 72.3866 129.081 72.3919 129.084 72.3975C129.11 72.4515 129.124 72.4924 129.136 72.5286C129.145 72.5561 129.153 72.5804 129.167 72.6106C129.3 72.7791 129.41 72.9493 129.526 73.1294C129.568 73.1937 129.61 73.2602 129.656 73.3297C129.709 73.4094 129.736 73.4764 129.759 73.5356C129.78 73.5888 129.799 73.6348 129.835 73.6904C131.065 75.694 131.986 77.6365 132.797 79.4377C132.832 79.5075 132.832 79.568 132.832 79.6081C132.832 79.6362 132.832 79.6434 132.84 79.6585C133.934 82.0566 134.609 84.4266 135.176 86.6312C135.543 88.2079 135.806 89.5885 136.028 91.1107C136.247 93.0995 136.345 94.9853 136.449 96.9817C136.473 97.4309 136.496 97.8821 136.521 98.3364C136.608 99.2604 136.698 100.169 136.833 101.123C136.834 101.13 136.835 101.136 136.835 101.143C136.835 101.248 136.845 101.343 136.856 101.443C136.867 101.544 136.879 101.647 136.879 101.763C137.707 107.134 138.875 111.194 140.666 114.928C140.676 114.946 140.685 114.965 140.695 114.984C140.771 115.133 140.85 115.287 140.82 115.509C141.125 116.145 141.436 116.788 141.738 117.411C143.33 120.697 144.975 124.094 146.215 127.652C146.25 127.723 146.289 127.794 146.33 127.869C146.439 128.071 146.552 128.28 146.621 128.52C146.702 128.737 146.766 128.969 146.828 129.194C146.872 129.351 146.913 129.499 146.959 129.641C146.983 129.714 146.943 129.793 146.871 129.816C146.856 129.821 146.842 129.823 146.828 129.823Z" fill="#2B2B2B"/>
<path d="M140.521 130.548H146.028C145.957 130.143 145.891 129.736 145.831 129.328C145.346 126.003 145.258 122.559 144.293 119.383C141.609 110.55 132.533 104.742 123.787 99.3289C120.479 97.2819 117.172 95.2348 113.864 93.1878C111.571 91.7691 112.196 91.0797 110.215 89.4198C110.781 93.0796 112.435 96.6614 114.665 99.7731C115.838 101.41 117.316 102.897 118.15 104.696C119.545 107.703 119.063 111.418 120.791 114.274C123.78 119.214 132.42 120.284 136.767 124.456C138.567 126.185 139.55 128.37 140.521 130.548Z" fill="#708A54"/>
<path d="M143.63 131.81C143.558 131.81 143.498 131.755 143.492 131.681C143.255 128.49 142.515 125.429 141.292 122.583C139.873 119.281 138.1 116.999 136.675 115.165C135.1 113.138 133.572 111.641 132.344 110.439C131.775 109.882 131.284 109.401 130.898 108.973C127.961 105.712 124.322 103.104 120.804 100.583C117.747 98.3919 114.587 96.1268 111.879 93.4333C111.825 93.3793 111.824 93.291 111.878 93.2362C111.931 93.1814 112.019 93.1807 112.073 93.2349C114.765 95.9125 117.916 98.1711 120.964 100.355C124.494 102.886 128.145 105.502 131.103 108.786C131.482 109.207 131.971 109.685 132.537 110.239C133.77 111.447 135.306 112.951 136.893 114.993C138.327 116.84 140.112 119.137 141.545 122.472C142.781 125.347 143.529 128.438 143.768 131.661C143.773 131.737 143.716 131.804 143.64 131.81C143.637 131.81 143.633 131.81 143.63 131.81Z" fill="#2B2B2B"/>
<path d="M137.214 127.355C131.055 127.353 124.476 127.452 119.389 130.278C114.303 133.105 112.723 141.089 127.617 143.595C144.597 146.451 160.297 148.249 177.494 149.573C185.219 150.168 192.952 150.763 200.71 150.915C209.901 151.096 219.092 150.655 228.27 150.215C248.761 149.231 269.61 148.188 288.835 142.334C296.21 140.088 303.66 132.42 293.68 128.044C286.315 124.815 270.236 126.145 262.196 126.143C235.379 126.135 209.521 126.15 182.704 126.143C167.633 126.138 152.285 127.359 137.214 127.355Z" fill="#F2C285"/>
<path d="M196.034 49.8049H186.123V55.1917H196.034V49.8049Z" fill="#808080"/>
<path d="M191.109 133.571C212.159 133.571 229.223 116.362 229.223 95.1331C229.223 73.9044 212.159 56.6952 191.109 56.6952C170.06 56.6952 152.996 73.9044 152.996 95.1331C152.996 116.362 170.06 133.571 191.109 133.571Z" fill="white"/>
<path d="M205.593 134.303C210.612 132.412 215.168 129.593 219.132 125.923C223.097 122.253 226.272 117.916 228.568 113.034C230.946 107.978 232.273 102.557 232.512 96.9207C232.752 91.2846 231.889 85.7688 229.948 80.5266C228.074 75.4643 225.278 70.8701 221.639 66.8718C218 62.8735 213.7 59.6717 208.86 57.3557C203.846 54.9573 198.471 53.6192 192.882 53.3778C187.294 53.1365 181.825 54.0064 176.627 55.9639C171.607 57.8542 167.052 60.6735 163.087 64.3436C159.122 68.0136 155.948 72.3499 153.652 77.2322C151.274 82.288 149.946 87.7092 149.707 93.3453C149.468 98.9818 150.331 104.498 152.272 109.739C154.145 114.802 156.941 119.396 160.58 123.395C164.219 127.393 168.519 130.595 173.36 132.911C178.373 135.309 183.749 136.647 189.337 136.889C194.926 137.13 200.395 136.26 205.593 134.303ZM153.031 93.4888C153.93 72.3135 171.744 55.8237 192.74 56.7303C213.737 57.6369 230.087 75.6019 229.188 96.7772C228.289 117.952 210.476 134.442 189.479 133.536C168.483 132.629 152.133 114.664 153.031 93.4888Z" fill="#0F3E62"/>
<path d="M205.593 134.303C210.612 132.412 215.168 129.593 219.132 125.923C223.097 122.253 226.272 117.916 228.568 113.034C230.946 107.978 232.273 102.557 232.512 96.9207C232.752 91.2846 231.889 85.7688 229.948 80.5266C228.074 75.4643 225.278 70.8701 221.639 66.8718C218 62.8735 213.7 59.6717 208.86 57.3557C203.846 54.9573 198.471 53.6192 192.882 53.3778C187.294 53.1365 181.825 54.0064 176.627 55.9639C171.607 57.8542 167.052 60.6735 163.087 64.3436C159.122 68.0136 155.948 72.3499 153.652 77.2322C151.274 82.288 149.946 87.7092 149.707 93.3453C149.468 98.9818 150.331 104.498 152.272 109.739C154.145 114.802 156.941 119.396 160.58 123.395C164.219 127.393 168.519 130.595 173.36 132.911C178.373 135.309 183.749 136.647 189.337 136.889C194.926 137.13 200.395 136.26 205.593 134.303ZM153.031 93.4888C153.93 72.3135 171.744 55.8237 192.74 56.7303C213.737 57.6369 230.087 75.6019 229.188 96.7772C228.289 117.952 210.476 134.442 189.479 133.536C168.483 132.629 152.133 114.664 153.031 93.4888Z" fill="#837D7D"/>
<path d="M178.801 69.0895L179.983 68.5563L191.639 94.8382L213.174 101.342L212.803 102.593L190.699 95.9177L178.801 69.0895Z" fill="#837D7D"/>
<path d="M218.446 95.6622L218.391 96.9669L227.112 97.3437L227.168 96.039L218.446 95.6622Z" fill="#837D7D"/>
<path d="M155.651 92.9515L155.596 94.2562L164.317 94.633L164.373 93.3283L155.651 92.9515Z" fill="#837D7D"/>
<path d="M191.999 59.0439L191.625 67.8398L192.919 67.8957L193.292 59.0998L191.999 59.0439Z" fill="#837D7D"/>
<path d="M189.305 122.365L188.932 131.16L190.225 131.216L190.599 122.42L189.305 122.365Z" fill="#837D7D"/>
<path d="M209.78 114.687L208.826 115.571L214.729 122.056L215.683 121.173L209.78 114.687Z" fill="#837D7D"/>
<path d="M167.501 67.8487L166.547 68.7318L172.45 75.2176L173.404 74.3344L167.501 67.8487Z" fill="#837D7D"/>
<path d="M170.138 113.339L163.707 119.292L164.583 120.254L171.014 114.301L170.138 113.339Z" fill="#837D7D"/>
<path d="M216.613 69.9687L210.182 75.9219L211.057 76.884L217.488 70.9308L216.613 69.9687Z" fill="#837D7D"/>
<path d="M195.005 98.6917C196.945 96.7355 196.945 93.5638 195.005 91.6076C193.066 89.6513 189.921 89.6513 187.981 91.6076C186.041 93.5638 186.041 96.7355 187.981 98.6917C189.921 100.648 193.066 100.648 195.005 98.6917Z" fill="#837D7D"/>
<path d="M193.788 97.4646C195.056 96.1857 195.056 94.1124 193.788 92.8335C192.52 91.5547 190.464 91.5547 189.196 92.8335C187.928 94.1124 187.928 96.1857 189.196 97.4646C190.464 98.7434 192.52 98.7434 193.788 97.4646Z" fill="white"/>
<path d="M188.345 94.3363C188.396 94.1337 188.467 93.9366 188.556 93.746C188.736 93.3633 188.985 93.0234 189.296 92.7357C189.607 92.4479 189.964 92.2269 190.357 92.0787C190.765 91.9253 191.194 91.8571 191.632 91.876C192.07 91.8949 192.491 91.9998 192.884 92.1877C193.264 92.3693 193.601 92.6203 193.886 92.9338C194.171 93.2473 194.39 93.6074 194.537 94.0042C194.689 94.4151 194.757 94.8474 194.738 95.2893C194.72 95.7312 194.616 96.1561 194.429 96.5524C194.249 96.9351 194 97.275 193.689 97.5628C193.379 97.8505 193.021 98.0715 192.628 98.2198C192.221 98.3731 191.792 98.4413 191.354 98.4223C190.916 98.4035 190.494 98.2986 190.101 98.1106C189.722 97.9291 189.385 97.6781 189.1 97.3647C188.814 97.0511 188.595 96.691 188.448 96.2942C188.296 95.8833 188.228 95.451 188.247 95.0091C188.257 94.7797 188.29 94.5548 188.345 94.3363ZM194.638 95.9614C194.693 95.743 194.726 95.5184 194.735 95.2892C194.754 94.8477 194.687 94.4158 194.535 94.0053C194.388 93.6089 194.169 93.2491 193.884 92.9359C193.599 92.6227 193.262 92.3719 192.883 92.1905C192.49 92.0028 192.069 91.8979 191.632 91.879C191.194 91.8601 190.766 91.9283 190.358 92.0815C189.965 92.2296 189.609 92.4505 189.298 92.7379C188.988 93.0253 188.739 93.365 188.559 93.7473C188.373 94.1432 188.269 94.5677 188.25 95.0093C188.231 95.4508 188.299 95.8827 188.451 96.2932C188.598 96.6896 188.817 97.0494 189.102 97.3626C189.387 97.6758 189.723 97.9266 190.103 98.1079C190.495 98.2957 190.916 98.4005 191.354 98.4194C191.792 98.4383 192.22 98.3702 192.627 98.2169C193.02 98.0689 193.377 97.8481 193.687 97.5606C193.998 97.2731 194.246 96.9335 194.426 96.5511C194.516 96.3608 194.587 96.1637 194.638 95.9614Z" fill="#0F3E62"/>
<path d="M202.444 42.6224H179.773V51.4807H202.444V42.6224Z" fill="#837D7D"/>
<path d="M260.542 28.8647H208.275C206.198 28.8647 204.514 30.5631 204.514 32.6581V135.625C204.514 137.903 206.345 139.75 208.604 139.75H260.542C262.801 139.75 264.632 137.903 264.632 135.625V32.9896C264.632 30.7115 262.801 28.8647 260.542 28.8647Z" fill="#808080"/>
<path d="M260.782 33.3921H208.365C208.002 33.3921 207.709 33.6881 207.709 34.0533V134.92C207.709 135.286 208.002 135.582 208.365 135.582H260.782C261.144 135.582 261.438 135.286 261.438 134.92V34.0533C261.438 33.6881 261.144 33.3921 260.782 33.3921Z" fill="#E6E6E6"/>
<path d="M240.815 31.8643H228.332V32.2175H240.815V31.8643Z" fill="black"/>
<path d="M204.369 104.418H204.711V33.1114C204.711 32.0208 205.122 30.9956 205.868 30.2247C206.614 29.4543 207.605 29.0302 208.659 29.0302C208.66 29.0302 208.661 29.0302 208.662 29.0302L226.314 29.0419L226.314 28.6887L208.662 28.677C208.661 28.677 208.66 28.677 208.659 28.677C207.514 28.677 206.437 29.1378 205.627 29.9748C204.816 30.8125 204.369 31.9264 204.369 33.1115L204.369 104.418Z" fill="black"/>
<path d="M255.924 94.1381L213.192 94.0557C211.501 94.0524 210.133 92.729 210.137 91.0998L210.188 66.3222C210.191 64.693 211.565 63.375 213.256 63.3782L255.988 63.4606C257.679 63.4638 259.046 64.7872 259.043 66.4164L258.992 91.1939C258.988 92.8232 257.615 94.1413 255.924 94.1381Z" fill="white"/>
<path d="M216.627 92.1307L229.988 74.4624L239.737 85.2703L244.631 80.9641L252.158 92.1992L216.627 92.1307Z" fill="#C5C5C5"/>
<path d="M255.924 126.818L213.192 126.736C211.501 126.733 210.133 125.409 210.137 123.78L210.188 99.0027C210.191 97.3734 211.565 96.0554 213.256 96.0586L255.988 96.141C257.679 96.1443 259.046 97.4676 259.043 99.0968L258.992 123.874C258.988 125.504 257.615 126.822 255.924 126.818Z" fill="white"/>
<path d="M216.627 124.811L229.988 107.143L239.737 117.951L244.631 113.644L252.158 124.88L216.627 124.811Z" fill="#C5C5C5"/>
<path d="M217.076 42.0965C217.076 41.4054 217.179 40.8255 217.384 40.3565C217.536 40.011 217.745 39.7009 218.01 39.4263C218.274 39.1518 218.564 38.9482 218.879 38.8155C219.299 38.6366 219.782 38.5471 220.329 38.5471C221.321 38.5471 222.114 38.8572 222.709 39.4773C223.303 40.0973 223.601 40.9597 223.601 42.0641C223.601 43.1593 223.306 44.0162 222.715 44.6346C222.125 45.2532 221.336 45.5625 220.348 45.5625C219.347 45.5625 218.552 45.2547 217.962 44.6392C217.371 44.0239 217.076 43.1763 217.076 42.0965ZM218.476 42.0502C218.476 42.8184 218.652 43.4008 219.003 43.7972C219.355 44.1936 219.802 44.3918 220.343 44.3918C220.885 44.3918 221.329 44.1951 221.676 43.8018C222.023 43.4084 222.197 42.8184 222.197 42.0317C222.197 41.2543 222.028 40.6743 221.69 40.2917C221.352 39.9092 220.903 39.7179 220.343 39.7179C219.784 39.7179 219.332 39.9116 218.99 40.2987C218.647 40.6859 218.476 41.2697 218.476 42.0502Z" fill="#48695F"/>
<path d="M224.676 45.4471V38.6631H225.997L228.75 43.1935V38.6631H230.012V45.4471H228.649L225.938 41.0232V45.4471H224.676Z" fill="#48695F"/>
<path d="M231.484 45.4471V38.7186H232.843V44.3041H236.22V45.4471L231.484 45.4471Z" fill="#48695F"/>
<path d="M237.146 45.4471V38.6631H238.505V45.4471H237.146Z" fill="#48695F"/>
<path d="M239.812 45.4471V38.6631H241.134L243.887 43.1935V38.6631H245.149V45.4471H243.786L241.074 41.0232V45.4471H239.812Z" fill="#48695F"/>
<path d="M246.584 45.4471V38.6631H251.572V39.8107H247.942V41.3147H251.319V42.4577H247.942V44.3041H251.7V45.4471H246.584Z" fill="#48695F"/>
<path d="M219.765 56.8193H218.288L217.7 55.2783H215.012L214.456 56.8193H213.016L215.636 50.0353H217.072L219.765 56.8193ZM217.265 54.1353L216.338 51.6179L215.429 54.1353H217.265Z" fill="#48695F"/>
<path d="M220.477 50.0354H221.835V53.7096C221.835 54.2927 221.852 54.6707 221.885 54.8434C221.943 55.1211 222.082 55.3439 222.3 55.512C222.519 55.6803 222.818 55.7642 223.197 55.7642C223.583 55.7642 223.873 55.6849 224.069 55.5259C224.265 55.367 224.383 55.1719 224.423 54.9405C224.462 54.7092 224.482 54.3251 224.482 53.7883V50.0353H225.84V53.5985C225.84 54.413 225.804 54.9884 225.73 55.3246C225.657 55.6609 225.522 55.9447 225.324 56.1761C225.127 56.4075 224.863 56.5919 224.533 56.7291C224.202 56.8664 223.771 56.9351 223.239 56.9351C222.596 56.9351 222.109 56.8602 221.777 56.7106C221.445 56.561 221.183 56.3667 220.99 56.1276C220.798 55.8885 220.671 55.6378 220.61 55.3756C220.521 54.9869 220.477 54.4131 220.477 53.6541V50.0354Z" fill="#48695F"/>
<path d="M231.576 54.3255L232.893 54.7466C232.691 55.487 232.355 56.037 231.886 56.3963C231.416 56.7557 230.82 56.9354 230.098 56.9354C229.205 56.9354 228.471 56.6277 227.896 56.0122C227.321 55.3968 227.033 54.5553 227.033 53.4879C227.033 52.3588 227.322 51.4819 227.9 50.8571C228.479 50.2324 229.239 49.92 230.181 49.92C231.004 49.92 231.672 50.1653 232.186 50.6558C232.492 50.9458 232.721 51.3623 232.874 51.9053L231.53 52.2291C231.45 51.8775 231.284 51.5998 231.032 51.3962C230.78 51.1926 230.473 51.0908 230.112 51.0908C229.613 51.0908 229.209 51.2712 228.898 51.6322C228.588 51.9931 228.433 52.5778 228.433 53.386C228.433 54.2437 228.586 54.8546 228.892 55.2186C229.197 55.5826 229.595 55.7646 230.085 55.7646C230.445 55.7646 230.756 55.649 231.016 55.4176C231.276 55.1862 231.463 54.8222 231.576 54.3255Z" fill="#48695F"/>
<path d="M235.572 56.8193V51.1829H233.576V50.0353H238.922V51.1829H236.93V56.8193H235.572Z" fill="#48695F"/>
<path d="M239.758 56.8193V50.0353H241.116V56.8193H239.758Z" fill="#48695F"/>
<path d="M242.135 53.4694C242.135 52.7783 242.237 52.1984 242.442 51.7294C242.595 51.3839 242.804 51.0739 243.069 50.7992C243.333 50.5247 243.623 50.3211 243.938 50.1884C244.357 50.0095 244.84 49.92 245.388 49.92C246.379 49.92 247.172 50.2301 247.767 50.8502C248.362 51.4703 248.66 52.3326 248.66 53.437C248.66 54.5322 248.364 55.3891 247.774 56.0076C247.184 56.6262 246.394 56.9354 245.406 56.9354C244.406 56.9354 243.611 56.6276 243.02 56.0122C242.43 55.3968 242.135 54.5492 242.135 53.4694ZM243.534 53.4231C243.534 54.1913 243.71 54.7736 244.062 55.17C244.414 55.5665 244.86 55.7646 245.402 55.7646C245.943 55.7646 246.387 55.568 246.735 55.1746C247.082 54.7813 247.256 54.1913 247.256 53.4046C247.256 52.6271 247.086 52.0472 246.749 51.6646C246.41 51.2821 245.962 51.0908 245.402 51.0908C244.842 51.0908 244.391 51.2844 244.048 51.6715C243.706 52.0588 243.534 52.6426 243.534 53.4231Z" fill="#48695F"/>
<path d="M249.732 56.8193V50.0353H251.054L253.807 54.5657V50.0353H255.069V56.8193H253.706L250.994 52.3953V56.8193H249.732Z" fill="#48695F"/>
<path d="M216.146 112.732L213.766 111.785L212.164 116.175L214.553 117.101C214.553 117.101 217.258 118 216.692 119.552L219.314 112.366C218.748 113.918 216.146 112.732 216.146 112.732Z" fill="#905210"/>
<path d="M217.975 120.055L220.597 112.869L219.315 112.366L216.693 119.552L217.975 120.055Z" fill="#E09850"/>
<path d="M256.086 131.768C249.757 129.102 225.916 118.408 223.308 117.383C220.699 116.358 219.121 116.912 219.121 116.912L217.975 120.056C217.975 120.056 219.694 119.112 222.303 120.137C224.912 121.162 248.591 132.298 254.898 135.024C261.205 137.75 272.125 139.704 272.125 139.704L273.13 136.95C273.13 136.95 262.415 134.435 256.086 131.768Z" fill="#B67635"/>
<path d="M257.817 127.021C251.351 124.73 226.5 116.807 223.891 115.782C221.283 114.757 220.596 112.869 220.596 112.869L219.121 116.912C219.121 116.912 220.699 116.358 223.307 117.383C225.916 118.407 249.756 129.102 256.086 131.768C262.415 134.434 273.13 136.95 273.13 136.95L273.714 135.349C273.714 135.349 264.284 129.311 257.817 127.021Z" fill="#B67635"/>
<path d="M265.14 129.36L261.878 138.302C261.852 138.371 261.778 138.406 261.711 138.38L260.289 137.821C260.222 137.795 260.188 137.718 260.213 137.649L263.476 128.706C263.501 128.637 263.576 128.602 263.643 128.629L265.065 129.187C265.131 129.213 265.165 129.291 265.14 129.36Z" fill="#E09850"/>
<path d="M242.402 121.185L239.622 128.806C239.597 128.875 239.522 128.91 239.456 128.883L238.096 128.349C238.029 128.323 237.995 128.246 238.02 128.177L240.8 120.556C240.825 120.487 240.9 120.452 240.967 120.479L242.327 121.013C242.394 121.039 242.428 121.116 242.402 121.185Z" fill="#E09850"/>
<path d="M216.956 110.741L213.888 119.15C213.835 119.296 213.677 119.369 213.536 119.314L207.119 116.794L210.38 107.856L216.797 110.376C216.938 110.431 217.009 110.595 216.956 110.741Z" fill="#905210"/>
<path d="M213.72 100.175L212.679 98.3684L205.941 95.7137L202.701 94.4371L200.687 93.6434L198.753 94.2782C199.944 96.5075 197.677 96.8782 196.674 96.9357L201.889 98.9838L202.053 99.0485L205.164 100.27L205.329 100.335L213.542 103.56C212.817 102.805 211.438 101.009 213.72 100.175Z" fill="#905210"/>
<path d="M206.747 122.184L198.533 118.959L198.369 118.894L195.258 117.672L195.093 117.608L189.879 115.56C190.594 116.292 192.056 118.127 189.74 118.979L190.784 120.784L192.801 121.573L196.043 122.843L202.786 125.483L204.719 124.843C203.541 122.651 205.722 122.253 206.747 122.184Z" fill="#905210"/>
<path d="M198.407 94.1434L213.719 100.176C214.116 100.332 214.531 100.202 214.647 99.8851L197.899 93.2869C197.783 93.6037 198.011 93.9872 198.407 94.1434Z" fill="#B67635"/>
<path d="M197.925 93.2135L197.898 93.2868L214.646 99.885L214.673 99.8118C214.789 99.4949 214.561 99.1113 214.165 98.9552L198.853 92.9225C198.456 92.7663 198.041 92.8966 197.925 93.2135Z" fill="#905210"/>
<path d="M189.396 118.844L204.72 124.843C205.117 124.999 205.345 125.382 205.23 125.699L188.469 119.137C188.584 118.82 188.999 118.689 189.396 118.844Z" fill="#B67635"/>
<path d="M188.442 119.211L188.469 119.137L205.23 125.699L205.203 125.773C205.088 126.09 204.672 126.221 204.276 126.065L188.952 120.066C188.555 119.911 188.327 119.528 188.442 119.211Z" fill="#905210"/>
<path d="M206.543 91.5408L207.94 92.0912L206.543 91.5408Z" fill="#804C54"/>
<path d="M190.559 125.103L193.817 126.379C193.824 126.363 193.834 126.349 193.84 126.333L190.559 125.103Z" fill="#804C54"/>
<path d="M193.816 126.378L190.554 125.101L188.208 124.182C187.964 124.852 188.252 125.588 188.849 125.915C188.872 125.928 188.895 125.94 188.918 125.951C188.947 125.965 188.972 125.983 189.002 125.994L200.462 130.481C201.165 130.756 201.949 130.391 202.213 129.666L193.816 126.378Z" fill="#B67635"/>
<path d="M203.266 90.2602L206.54 91.5502C206.541 91.547 206.541 91.5439 206.542 91.5408L203.268 90.2507C203.267 90.2539 203.267 90.257 203.266 90.2602Z" fill="#B96B5B"/>
<path d="M190.559 125.092C190.558 125.095 190.556 125.098 190.555 125.101L193.832 126.384C193.833 126.381 193.835 126.378 193.836 126.375L190.559 125.092Z" fill="#B96B5B"/>
<path d="M187.405 123.858L190.559 125.093L187.404 123.858C187.405 123.858 187.404 123.858 187.405 123.858Z" fill="#B96B5B"/>
<path d="M215.638 95.1238L207.94 92.0909L206.542 91.5405C206.541 91.5435 206.541 91.5467 206.54 91.5498L203.266 90.2598C203.265 90.2611 203.265 90.2622 203.265 90.2635L200.078 89.0078C199.08 88.6903 198.005 89.2135 197.631 90.235L197.631 90.2351C197.242 91.2997 197.762 92.492 198.793 92.8982L200.686 93.6437C200.686 93.6437 203.11 94.5679 202.7 94.4374L205.94 95.714L212.678 98.3687L214.227 98.9788C215.258 99.385 216.409 98.8513 216.799 97.7867C217.189 96.7223 216.669 95.53 215.638 95.1238Z" fill="#B67635"/>
<path d="M200.078 89.0083L203.265 90.264C203.265 90.2628 203.266 90.2616 203.266 90.2603L200.114 89.0184C200.102 89.0144 200.09 89.0122 200.078 89.0083Z" fill="#B96B5B"/>
<path d="M200.923 89.3266L200.203 89.0429C200.173 89.0312 200.143 89.0279 200.113 89.0178L203.265 90.2597C203.266 90.2565 203.266 90.2534 203.267 90.2502L200.923 89.3266Z" fill="#B96B5B"/>
<path d="M214.127 93.0266L202.676 88.5151C202.646 88.5032 202.615 88.4992 202.584 88.4896C202.56 88.4817 202.535 88.4749 202.51 88.4687C201.854 88.3042 201.169 88.6585 200.924 89.3269L203.268 90.2505L206.543 91.5406L207.94 92.0911L214.918 94.8404C215.183 94.1153 214.829 93.3032 214.127 93.0266Z" fill="#B67635"/>
<path d="M213.707 103.626L213.542 103.561L205.329 100.335L205.164 100.271L202.054 99.0491L201.889 98.9844L196.674 96.9363L196.213 96.7554C195.485 96.4692 194.672 96.8471 194.397 97.5992C194.157 98.2575 194.409 98.9842 194.964 99.3472L192.931 104.92L192.785 105.319L190.137 112.579C189.489 112.469 188.837 112.841 188.597 113.499C188.322 114.251 188.69 115.093 189.419 115.379L189.88 115.56L195.094 117.608L195.259 117.673L198.37 118.894L198.535 118.959L206.748 122.185L206.913 122.249C207.641 122.535 208.454 122.158 208.728 121.406C208.969 120.747 208.716 120.021 208.161 119.658L210.81 112.398L210.955 111.999L212.989 106.426C213.636 106.535 214.289 106.164 214.529 105.506C214.803 104.754 214.435 103.912 213.707 103.626Z" fill="#B67635"/>
<path d="M187.488 123.901L190.554 125.102C190.556 125.098 190.558 125.096 190.559 125.093L187.404 123.858C187.433 123.871 187.458 123.889 187.488 123.901Z" fill="#B96B5B"/>
<path d="M187.371 123.84C187.382 123.845 187.392 123.852 187.404 123.857L190.558 125.092C190.559 125.091 190.559 125.09 190.56 125.089L187.371 123.84Z" fill="#B96B5B"/>
<path d="M204.336 126.089L202.786 125.482L196.043 122.842L192.801 121.573L190.785 120.783L188.89 120.042C187.858 119.638 186.708 120.174 186.321 121.239C185.949 122.262 186.42 123.393 187.371 123.84C187.371 123.84 187.371 123.84 187.371 123.84L190.56 125.089C190.559 125.09 190.559 125.091 190.558 125.092L193.835 126.375C193.834 126.378 193.832 126.38 193.831 126.384L202.933 129.947C203.965 130.351 205.116 129.815 205.503 128.75C205.891 127.684 205.368 126.493 204.336 126.089Z" fill="#B67635"/>
<path d="M206.711 103.992L201.521 101.954L198.973 100.953L194.953 99.3746L192.93 104.92L192.785 105.319L190.146 112.551L194.166 114.129L196.714 115.13L201.904 117.168L208.171 119.63L210.809 112.398L210.955 111.999L212.978 106.454L206.711 103.992Z" fill="#B67635"/>
<path d="M215.206 95.0933C215.189 95.0933 215.172 95.0902 215.156 95.0837L200.063 89.1475C199.992 89.1195 199.956 89.0387 199.984 88.967C200.012 88.8952 200.092 88.8597 200.163 88.8878L215.256 94.824C215.327 94.852 215.363 94.9328 215.335 95.0045C215.313 95.0596 215.261 95.0933 215.206 95.0933Z" fill="#202020"/>
<path d="M212.982 106.595C212.965 106.595 212.948 106.592 212.932 106.585L194.949 99.5226C194.878 99.4946 194.843 99.4139 194.871 99.3421C194.898 99.2704 194.979 99.2349 195.05 99.2628L213.032 106.325C213.103 106.353 213.138 106.434 213.111 106.506C213.089 106.561 213.037 106.595 212.982 106.595Z" fill="#202020"/>
<path d="M208.161 119.833C208.144 119.833 208.127 119.829 208.11 119.823L190.086 112.708C190.015 112.68 189.98 112.599 190.008 112.527C190.035 112.456 190.116 112.42 190.187 112.448L208.211 119.563C208.282 119.591 208.317 119.672 208.289 119.744C208.268 119.799 208.216 119.833 208.161 119.833Z" fill="#202020"/>
<path d="M214.119 118.653C214.103 118.653 214.087 118.65 214.071 118.645C213.999 118.618 213.963 118.538 213.989 118.466L216.825 110.692C216.851 110.62 216.931 110.583 217.002 110.61C217.074 110.636 217.111 110.716 217.084 110.789L214.248 118.562C214.228 118.618 214.175 118.653 214.119 118.653Z" fill="#202020"/>
<path d="M199.295 128.663C199.279 128.663 199.262 128.659 199.245 128.653L187.321 123.97C187.249 123.942 187.214 123.861 187.242 123.79C187.27 123.718 187.35 123.682 187.421 123.71L199.346 128.393C199.417 128.421 199.452 128.502 199.424 128.574C199.403 128.629 199.351 128.663 199.295 128.663Z" fill="#202020"/>
<path d="M262.527 136.663C262.511 136.663 262.495 136.66 262.479 136.654C262.408 136.627 262.371 136.547 262.397 136.475L265.011 129.312C265.037 129.239 265.116 129.202 265.188 129.229C265.26 129.255 265.296 129.336 265.27 129.408L262.657 136.571C262.636 136.628 262.583 136.663 262.527 136.663Z" fill="#202020"/>
<path d="M222.636 139.586H172.979C171.881 139.586 171.14 138.527 171.572 137.576L172.706 135.075L175.542 128.817C175.783 128.286 176.337 127.941 176.95 127.941H218.665C219.278 127.941 219.832 128.286 220.073 128.817L222.91 135.075L224.043 137.576C224.475 138.527 223.734 139.586 222.636 139.586Z" fill="#905210"/>
<path d="M222.636 139.586H172.979C171.881 139.586 171.14 138.528 171.572 137.576L172.706 135.075H222.91L224.043 137.576C224.475 138.528 223.734 139.586 222.636 139.586Z" fill="#75400A"/>
<path d="M117.528 79.5558C116.113 80 115.756 80.3601 115.316 81.7867C114.875 80.3601 114.518 80 113.104 79.5558C114.518 79.1116 114.875 78.7515 115.316 77.325C115.756 78.7515 116.113 79.1116 117.528 79.5558Z" fill="url(#paint0_linear_14134_7197)"/>
<path d="M203.285 18.0071C201.871 18.4513 201.514 18.8114 201.073 20.238C200.633 18.8114 200.276 18.4513 198.861 18.0071C200.276 17.5629 200.633 17.2028 201.073 15.7762C201.514 17.2028 201.871 17.5629 203.285 18.0071Z" fill="url(#paint1_linear_14134_7197)"/>
<path d="M286.448 19.0852C285.153 19.4918 284.826 19.8215 284.423 21.1273C284.02 19.8215 283.693 19.4918 282.398 19.0852C283.693 18.6785 284.02 18.3489 284.423 17.0431C284.826 18.349 285.153 18.6786 286.448 19.0852Z" fill="url(#paint2_linear_14134_7197)"/>
<path d="M301.193 56.0868C299.451 56.6339 299.011 57.0775 298.469 58.8344C297.926 57.0775 297.486 56.6339 295.744 56.0868C297.486 55.5397 297.926 55.0962 298.469 53.3392C299.011 55.0962 299.451 55.5397 301.193 56.0868Z" fill="url(#paint3_linear_14134_7197)"/>
<path d="M239.842 17.0429C237.545 17.7645 236.965 18.3494 236.249 20.6666C235.534 18.3494 234.954 17.7645 232.656 17.0429C234.954 16.3214 235.534 15.7365 236.249 13.4193C236.965 15.7365 237.545 16.3214 239.842 17.0429Z" fill="url(#paint4_linear_14134_7197)"/>
<path d="M159.219 72.1932C159.223 71.679 159.508 70.8147 160.355 70.4003C162.663 69.2712 169.291 65.1279 171.616 64.2038C171.807 64.1043 171.724 64.2241 171.87 64.1537C172.014 65.0788 173.16 66.4545 173.262 66.6378C172.13 67.5419 164.611 75.251 161.386 75.7189C159.871 75.9387 159.208 73.4277 159.219 72.1932Z" fill="#F59979"/>
<path d="M158.162 73.9894C158.162 73.9894 155.631 71.1837 154.467 68.1024C155.073 67.7244 159.331 65.2585 159.331 65.2585C159.331 65.2585 160.204 67.6898 162.581 70.4652C163.737 71.6834 164.007 73.3457 163.325 74.4764C162.709 75.4996 161.554 75.688 161.43 75.706C160.207 75.8855 158.902 75.2124 158.162 73.9894Z" fill="#F59979"/>
<path d="M153.704 56.4242C155.721 59.1611 157.741 62.0261 159.749 65.022C160.415 66.0152 161.067 67.0038 161.705 67.9872C162.001 68.442 161.918 69.0466 161.512 69.4044L161.505 69.4107C161.083 69.8087 160.528 70.4348 160.097 71.3253C159.267 73.0376 159.415 74.652 159.518 75.3297C159.124 75.5864 158.607 75.8292 158.181 75.6464C157.859 75.5082 157.713 75.182 157.672 75.0861C157.167 73.9329 153.462 71.8366 151.421 68.2692C149.983 65.7544 149.776 63.2141 147.945 62.4244C147.825 62.3726 147.622 62.2959 147.535 62.0979C147.089 61.0862 150.406 58.6054 153.704 56.4242Z" fill="#AB4F47"/>
<path d="M157.629 74.8661C157.622 74.8661 157.615 74.8656 157.608 74.8646C157.533 74.8533 157.481 74.7823 157.492 74.7062C157.505 74.6171 157.817 72.5181 158.083 71.9439C158.115 71.8742 158.197 71.8441 158.267 71.8766C158.336 71.9092 158.366 71.9921 158.333 72.0619C158.084 72.5997 157.768 74.7259 157.765 74.7473C157.755 74.8164 157.696 74.8661 157.629 74.8661Z" fill="#302626"/>
<path d="M170.861 68.7734C170.124 69.4017 168.6 65.7331 168.6 65.7331L174.695 61.7039L176.729 63.6324C176.729 63.6324 171.885 67.9006 170.861 68.7734Z" fill="#F59979"/>
<path d="M181.995 62.6952C182.036 62.8065 182.123 62.8941 182.132 63.0207C183.184 62.8223 185.075 61.803 184.979 61.401C184.857 61.1063 183.881 61.6462 181.758 62.0948C181.967 62.284 181.897 62.4277 181.995 62.6952Z" fill="#F59979"/>
<path d="M173.949 62.6934C173.949 62.6934 174.857 60.7187 177.082 60.5842C177.549 60.5206 178.202 60.4173 179.763 60.4711C180.534 60.4976 181.321 60.2702 181.899 60.3258C182.134 60.3537 182.858 60.8637 181.541 61.3422C181.513 61.3522 181.484 61.361 181.455 61.3668C181.267 61.4056 180.008 61.782 179.417 61.8199C179.435 61.8054 178.579 63.52 178.579 63.52C178.579 63.52 178.111 63.5883 176.349 63.9726C176.286 63.9649 173.949 62.6934 173.949 62.6934Z" fill="#F59979"/>
<path d="M182.783 62.001C181.98 61.9608 181.236 61.8115 180.496 61.6887C180.41 61.6745 179.28 61.4225 179.25 61.4818C179.25 61.4818 178.179 63.3736 178.19 63.5902C179.263 63.4062 181.896 63.2174 182.743 62.8499C182.759 62.8429 182.7 62.2083 182.783 62.001Z" fill="#F59979"/>
<path d="M178.638 62.2508C178.586 62.2508 178.535 62.2201 178.512 62.1684C178.481 62.0983 178.512 62.0158 178.582 61.9842C179.087 61.7552 180.374 61.5003 180.429 61.4895C180.504 61.4749 180.576 61.5241 180.591 61.5996C180.606 61.6752 180.557 61.7484 180.482 61.7631C180.469 61.7657 179.171 62.0226 178.695 62.2386C178.677 62.2468 178.657 62.2508 178.638 62.2508Z" fill="#302626"/>
<path d="M176.242 64.1002C176.214 64.1002 176.185 64.0991 176.155 64.0968C175.979 64.0832 175.812 64.0427 175.686 64.009L174.493 63.6903C174.42 63.6707 174.376 63.5943 174.395 63.5199C174.415 63.4455 174.49 63.401 174.564 63.4209L175.756 63.7395C175.871 63.7702 176.023 63.807 176.176 63.8188C176.306 63.8292 176.403 63.8081 176.515 63.7838C176.542 63.778 176.57 63.7721 176.598 63.7665L178.127 63.4645C178.202 63.4497 178.274 63.4989 178.289 63.5745C178.304 63.65 178.255 63.7233 178.18 63.738L176.651 64.0401C176.624 64.0454 176.598 64.0509 176.573 64.0565C176.472 64.0781 176.369 64.1002 176.242 64.1002Z" fill="#302626"/>
<path d="M153.141 80.9613C152.812 80.6311 146.045 77.6084 146.045 77.6084C145.591 76.7284 142.867 80.6612 142.093 86.7493C141.243 93.439 145.229 109.423 145.801 112.778C146.456 116.613 155.241 113.451 155.17 112.077C154.708 103.123 154.292 88.4186 153.141 80.9613Z" fill="#48695F"/>
<path d="M151.685 139.28C151.684 139.279 151.683 139.278 151.682 139.277C151.684 139.281 151.685 139.281 151.685 139.28Z" fill="#F59979"/>
<path d="M153.857 135.84C153.659 134.441 153.504 127.608 153.504 127.608L149.279 128.739L149.864 137.956C149.864 137.956 150.111 137.976 150.489 137.971C150.547 138.388 150.598 138.774 150.591 138.79C151.822 140.291 156 138.14 156 138.14C154.245 137.72 153.909 136.161 153.857 135.84Z" fill="#F59979"/>
<path d="M149.799 136.924C149.799 136.924 149.802 138.76 150.007 140.085C150.024 140.195 150.101 140.282 150.201 140.308C150.779 140.455 152.811 140.937 155.566 141.073C156.034 141.049 158.616 141.279 159.605 140.72C159.778 140.622 159.87 140.413 159.84 140.199C159.746 139.535 159.404 138.775 156.001 138.139C153.684 138.906 151.086 138.73 149.799 136.924Z" fill="#302626"/>
<path d="M145.801 112.778C146.079 116.235 148.399 129.433 148.94 134.571C152.489 135.298 152.479 134.773 155.479 133.803C155.733 127.822 155.383 114.597 155.056 109.765C154.599 103.018 145.535 109.488 145.801 112.778Z" fill="#48695F"/>
<path d="M151.129 135.046C151.02 135.046 150.915 135.043 150.816 135.039C149.634 134.994 148.92 134.713 148.89 134.701C148.819 134.673 148.784 134.592 148.812 134.52C148.841 134.449 148.921 134.414 148.992 134.442C149.026 134.456 151.821 135.524 155.417 133.679C155.485 133.644 155.568 133.671 155.603 133.74C155.637 133.809 155.61 133.892 155.542 133.927C153.78 134.832 152.215 135.046 151.129 135.046Z" fill="#07242B"/>
<path d="M146.402 81.0689C146.118 80.6993 139.786 76.8338 139.786 76.8338C139.447 75.9029 136.25 79.4548 134.715 85.3943C133.028 91.9208 134.385 108.127 134.53 111.528C134.696 115.416 143.854 112.838 143.957 111.466C144.627 102.525 146.605 88.6134 146.402 81.0689Z" fill="#48695F"/>
<path d="M137.611 138.729C137.61 138.728 137.608 138.727 137.607 138.725C137.609 138.73 137.61 138.73 137.611 138.729Z" fill="#F59979"/>
<path d="M140.941 135.853C140.774 134.45 140.77 127.615 140.77 127.615L136.521 128.651L136.901 137.878C136.901 137.878 137.148 137.904 137.526 137.907C137.575 138.325 137.618 138.713 137.61 138.728C138.808 140.257 143.032 138.2 143.032 138.2C141.287 137.741 140.985 136.175 140.941 135.853Z" fill="#F59979"/>
<path d="M136.859 136.846C136.859 136.846 136.821 138.681 136.997 140.011C137.011 140.121 137.086 140.21 137.186 140.238C137.76 140.398 139.782 140.926 142.533 141.124C143.001 141.11 145.577 141.398 146.578 140.862C146.753 140.768 146.85 140.561 146.825 140.347C146.745 139.68 146.42 138.912 143.032 138.201C140.699 138.914 138.106 138.681 136.859 136.846Z" fill="#302626"/>
<path d="M134.53 111.528C134.371 114.993 135.592 128.54 135.482 133.706C138.91 134.881 138.967 134.36 142.064 133.782C143.07 127.882 143.819 113.768 144.103 108.932C144.5 102.181 134.681 108.231 134.53 111.528Z" fill="#48695F"/>
<path d="M144.363 106.72C144.357 106.72 144.351 106.719 144.344 106.718C144.268 106.708 144.216 106.638 144.226 106.561C144.332 105.774 145.777 92.4534 145.792 92.319C145.795 92.2837 145.812 92.2513 145.839 92.2283L147.411 90.8701C147.469 90.82 147.556 90.8268 147.606 90.8852C147.656 90.9436 147.649 91.0316 147.591 91.0817L146.061 92.404C145.959 93.3437 144.603 105.834 144.5 106.599C144.49 106.669 144.431 106.72 144.363 106.72Z" fill="#07242B"/>
<path d="M136.674 87.8264C136.665 87.8264 136.657 87.8255 136.648 87.8239L134.324 87.3849C134.249 87.3707 134.199 87.2979 134.213 87.2222C134.227 87.1466 134.3 87.0969 134.375 87.1109L136.563 87.5243L136.802 86.2358L134.717 85.842C134.642 85.8278 134.593 85.7549 134.607 85.6793C134.621 85.6036 134.693 85.5539 134.768 85.5679L136.989 85.9875C137.025 85.9943 137.057 86.0153 137.078 86.0457C137.098 86.0763 137.106 86.1138 137.099 86.1501L136.809 87.7126C136.797 87.7796 136.739 87.8264 136.674 87.8264Z" fill="#07242B"/>
<path d="M138.74 134.597C138.19 134.597 137.71 134.542 137.313 134.469C136.135 134.252 135.441 133.843 135.412 133.826C135.346 133.786 135.324 133.701 135.363 133.635C135.402 133.568 135.487 133.546 135.552 133.586C135.559 133.59 136.242 133.99 137.375 134.197C138.419 134.387 140.072 134.447 142.012 133.652C142.083 133.623 142.164 133.658 142.192 133.729C142.221 133.8 142.187 133.882 142.116 133.91C140.844 134.432 139.69 134.597 138.74 134.597Z" fill="#07242B"/>
<path d="M137.923 51.5525C137.397 54.6545 136.114 58.9544 137.887 61.9887C141.601 63.9735 142.961 63.0581 146.887 61.5444C147.531 61.2961 148.153 60.9928 148.773 60.69C150.103 60.0413 151.432 59.3926 152.761 58.744C153.053 58.6012 153.385 58.4041 153.416 58.0777C153.432 57.899 153.35 57.7278 153.269 57.5675C152.495 56.0223 151.547 54.898 150.886 53.1216C150.532 52.1709 150.135 51.066 149.85 50.0921C149.577 49.1606 149.44 48.1952 149.289 47.2359C149.055 45.7544 148.549 42.7233 147.657 40.9589C146.981 39.6227 146.704 40.2232 145.424 39.4587C144.145 38.6941 142.473 38.5148 141.162 39.223C140.338 39.668 139.714 40.399 139.002 40.9935C138.55 41.3706 138.149 41.6312 137.985 42.2253C137.471 44.0883 137.95 46.3241 138.047 48.2186C138.104 49.3306 138.109 50.4518 137.923 51.5525Z" fill="#302626"/>
<path d="M154.936 58.5101C153.418 55.4677 150.432 53.9297 147.727 53.8769C147.169 53.8661 145.595 54.6293 143.453 54.993C141.297 54.7254 138.877 54.4261 138.865 54.4296C135.237 55.5745 134.2 55.6714 132.394 57.7105C132.095 58.049 133.928 61.8327 134.247 63.3228C134.683 65.3574 135.971 78.573 135.965 80.6414C140.933 83.0568 152.051 80.952 152.444 80.7193C152.04 74.9811 152.98 65.9602 153.422 62.4492C153.596 61.0634 155.118 58.8755 154.936 58.5101Z" fill="#AB4F47"/>
<path d="M141.244 52.8516L140.682 46.329L145.158 47.9378L145.563 52.8355C145.565 52.8689 145.57 52.9018 145.576 52.9342C145.651 53.3174 146.014 53.7078 146.401 53.7228L148.28 53.9414C148.28 53.9414 145.135 59.2094 138.689 54.4844C139.611 54.1316 140.206 53.9767 140.733 53.7385C141.073 53.5846 141.276 53.2263 141.244 52.8516Z" fill="#F59979"/>
<path d="M140.816 47.8849L141.069 50.8186C142.67 51.8868 144.669 51.3765 145.426 51.1814L145.158 47.9383L141.445 46.6035C141.296 47.054 140.989 47.4153 140.816 47.8849Z" fill="#DD7A5C"/>
<path d="M143.708 56.5083C142.776 56.5083 141.675 56.2918 140.403 55.7049C140.334 55.6729 140.303 55.5901 140.335 55.5201C140.367 55.4501 140.449 55.4194 140.518 55.4514C142.661 56.4404 144.634 56.4869 146.224 55.5856C147.422 54.906 147.99 53.9268 147.995 53.917C148.033 53.8503 148.118 53.8273 148.184 53.8656C148.25 53.904 148.273 53.9891 148.235 54.0559C148.211 54.0987 147.624 55.1119 146.359 55.8286C145.721 56.1903 144.839 56.5083 143.708 56.5083Z" fill="#07242B"/>
<path d="M141.613 61.1491C142.227 60.792 143.46 61.7891 144.369 63.3761C144.413 63.4539 144.456 63.5318 144.498 63.6094C144.532 63.5285 144.568 63.4472 144.606 63.3658C145.377 61.7064 146.521 60.6066 147.163 60.9096C147.804 61.2125 147.699 62.8033 146.928 64.4628C146.307 65.8001 145.444 66.7737 144.796 66.9429C144.747 66.9581 144.695 66.9664 144.64 66.9682C144.586 66.9712 144.533 66.9673 144.483 66.9564C143.823 66.8437 142.88 65.9481 142.148 64.6693C141.239 63.0822 141 61.5063 141.613 61.1491Z" fill="white"/>
<path d="M134.497 65.0744C134.421 65.0744 134.359 65.0128 134.358 64.9363C134.358 64.8968 134.316 60.9778 133.484 59.6454C133.443 59.5803 133.463 59.4943 133.527 59.4532C133.592 59.4122 133.677 59.4317 133.718 59.4969C134.592 60.896 134.634 64.7697 134.635 64.9339C134.636 65.0109 134.574 65.0738 134.498 65.0744C134.497 65.0744 134.497 65.0744 134.497 65.0744Z" fill="#07242B"/>
<path d="M146.503 39.3153C146.087 38.8725 145.549 38.5494 144.972 38.3662C144.533 38.2265 144.069 38.1789 143.609 38.1492C142.998 38.1098 141.61 37.9423 139.798 39.1855C138.478 40.0917 138.048 41.5305 137.97 42.4585C137.84 44.0081 138.269 45.603 139.176 46.8609C140.083 48.1189 141.462 49.0256 142.974 49.3337C143.553 49.4516 147.231 46.6851 147.732 45.623C147.966 45.1273 149.207 42.1977 146.503 39.3153Z" fill="#302626"/>
<path d="M139.333 45.1765C139.447 48.2673 141.065 50.4509 142.555 50.604C145.541 50.911 146.716 48.2414 146.849 44.9698C146.975 41.8793 144.891 40.0519 142.771 40.1318C140.652 40.2117 139.218 42.0856 139.333 45.1765Z" fill="#F59979"/>
<path d="M141.263 45.3125C141.268 45.5207 141.185 45.6916 141.079 45.6942C140.972 45.6967 140.882 45.5299 140.877 45.3217C140.872 45.1135 140.955 44.9427 141.061 44.9401C141.167 44.9376 141.258 45.1043 141.263 45.3125Z" fill="#302626"/>
<path d="M144.58 44.8949C144.609 45.1011 144.719 45.2556 144.824 45.2401C144.93 45.2247 144.991 45.0451 144.961 44.839C144.932 44.6329 144.822 44.4783 144.717 44.4937C144.611 44.5092 144.55 44.6888 144.58 44.8949Z" fill="#302626"/>
<path d="M146.653 44.976C146.653 44.976 147.867 43.8443 148.512 44.8184C148.69 45.0874 148.754 45.4203 148.699 45.7388C148.582 46.4145 148.063 47.4482 146.389 47.1847C146.39 47.2613 146.653 44.976 146.653 44.976Z" fill="#F59979"/>
<path d="M146.876 46.5169C146.855 46.5169 146.833 46.5118 146.813 46.501C146.745 46.4654 146.719 46.3813 146.754 46.3129C147.245 45.3642 148.157 45.2464 148.195 45.2419C148.271 45.2331 148.34 45.2877 148.348 45.3641C148.357 45.4405 148.303 45.5096 148.228 45.5187C148.193 45.523 147.42 45.6287 146.999 46.4419C146.974 46.4896 146.926 46.5169 146.876 46.5169Z" fill="#07242B"/>
<path d="M147.784 46.2691C147.749 46.2691 147.714 46.256 147.687 46.2298L147.325 45.8756C147.27 45.822 147.269 45.7338 147.322 45.6785C147.375 45.6232 147.463 45.6218 147.518 45.6754L147.88 46.0296C147.935 46.0832 147.936 46.1714 147.883 46.2267C147.856 46.2549 147.82 46.2691 147.784 46.2691Z" fill="#07242B"/>
<path d="M139.577 45.3555C139.577 45.3555 138.32 44.2728 137.713 45.2717C137.546 45.5474 137.495 45.8828 137.562 46.1989C137.705 46.8694 138.265 47.8817 139.927 47.5522C139.929 47.6288 139.577 45.3555 139.577 45.3555Z" fill="#F59979"/>
<path d="M139.407 46.9039C139.359 46.9039 139.313 46.8788 139.287 46.8338C138.832 46.0319 138.032 45.9606 138.024 45.96C137.948 45.9541 137.891 45.887 137.897 45.8103C137.903 45.7336 137.97 45.6759 138.045 45.6821C138.084 45.6851 139 45.7668 139.527 46.6953C139.565 46.7621 139.542 46.8472 139.476 46.8855C139.454 46.898 139.431 46.9039 139.407 46.9039Z" fill="#07242B"/>
<path d="M138.492 46.6919C138.457 46.6919 138.423 46.6792 138.396 46.6534C138.341 46.6003 138.339 46.512 138.392 46.4563L138.74 46.0881C138.792 46.0324 138.88 46.0303 138.935 46.0834C138.99 46.1365 138.993 46.2248 138.94 46.2805L138.592 46.6487C138.565 46.6774 138.528 46.6919 138.492 46.6919Z" fill="#07242B"/>
<path d="M146.854 44.8138C145.709 41.7712 142.224 41.331 142.258 40.1827C143.051 40.0812 143.513 39.1947 144.307 39.0933C144.572 39.0593 144.842 39.0255 145.106 39.0684C145.465 39.1267 145.787 39.3229 146.075 39.5478C146.612 39.9684 147.06 40.5041 147.381 41.1089C147.542 41.4124 147.673 41.74 147.694 42.0834C147.735 42.7428 147.372 43.3591 147.297 44.0154C147.237 44.5331 147.104 44.6628 146.854 44.8138Z" fill="#302626"/>
<path d="M142.875 47.0733C142.798 47.0733 142.737 47.0112 142.736 46.9343C142.736 46.8574 142.798 46.7948 142.874 46.7945C143.01 46.7941 143.144 46.7705 143.273 46.7242C143.357 46.694 143.408 46.6597 143.424 46.6222C143.452 46.562 143.407 46.4621 143.366 46.3818C143.323 46.2991 143.279 46.2173 143.234 46.1356C143.138 45.9591 143.038 45.7766 142.957 45.5851C142.813 45.2434 142.758 44.9387 142.789 44.6536C142.797 44.5771 142.865 44.5222 142.941 44.53C143.017 44.5384 143.072 44.6071 143.063 44.6836C143.038 44.9201 143.086 45.1793 143.212 45.4759C143.287 45.6546 143.383 45.8308 143.476 46.0012C143.522 46.0848 143.567 46.1684 143.611 46.2529C143.656 46.3405 143.762 46.5458 143.676 46.7375C143.626 46.848 143.525 46.9295 143.366 46.9868C143.208 47.0437 143.043 47.0728 142.875 47.0734C142.875 47.0733 142.875 47.0733 142.875 47.0733Z" fill="#07242B"/>
<path d="M142.509 40.1993C142.509 40.1993 139.641 42.13 139.17 45.0786C139.17 45.0783 136.849 39.6606 142.713 39.2969L142.509 40.1993Z" fill="#302626"/>
<path d="M149.534 48.7264C150.251 51.4428 151.442 53.8449 152.517 56.7747C153.309 58.9321 152.008 62.3105 151.958 64.7903C150.894 65.3815 147.993 65.219 146.934 64.6185C146.568 59.9312 145.439 57.4693 145.59 50.9872C145.93 51.0586 146.367 50.2187 146.643 50.0062C147.337 49.4724 148.699 48.9818 149.534 48.7264Z" fill="#302626"/>
<path d="M151.68 63.6298C151.658 63.6298 151.635 63.6241 151.613 63.6123C151.547 63.575 151.523 63.4902 151.56 63.4228C151.687 63.192 151.822 62.9623 151.966 62.7191C152.883 61.1643 153.923 59.4021 153.028 56.6844C152.708 55.7131 152.063 54.724 151.381 53.6768C150.556 52.4113 149.703 51.1028 149.469 49.8155C149.455 49.7398 149.505 49.6672 149.58 49.6533C149.655 49.6396 149.727 49.6896 149.741 49.7652C149.965 50.9968 150.802 52.2814 151.612 53.5236C152.274 54.5397 152.959 55.5905 153.29 56.5964C154.225 59.4351 153.104 61.3351 152.203 62.8616C152.061 63.1029 151.926 63.3309 151.801 63.558C151.776 63.6039 151.729 63.6298 151.68 63.6298Z" fill="#07242B"/>
<path d="M142.098 48.0511C142.098 48.0511 143.6 47.8995 144.248 47.7775C144.248 47.7775 143.643 50.282 142.098 48.0511Z" fill="white"/>
<path d="M140.027 44.5743C139.99 44.5743 139.952 44.5591 139.925 44.5291C139.873 44.4724 139.877 44.3842 139.933 44.3322C139.964 44.3043 140.685 43.6514 141.771 43.8892C141.846 43.9055 141.893 43.9797 141.877 44.055C141.861 44.1303 141.787 44.1779 141.712 44.1616C140.765 43.954 140.127 44.5318 140.12 44.5377C140.094 44.5622 140.06 44.5743 140.027 44.5743Z" fill="#07242B"/>
<path d="M145.604 43.9511C145.576 43.9511 145.549 43.943 145.525 43.9262C144.888 43.4804 144.13 43.8 144.123 43.8033C144.053 43.8336 143.971 43.801 143.941 43.7305C143.911 43.6599 143.943 43.5781 144.013 43.5474C144.049 43.5315 144.917 43.1613 145.683 43.6972C145.745 43.7411 145.761 43.828 145.717 43.8912C145.69 43.9301 145.647 43.9511 145.604 43.9511Z" fill="#07242B"/>
<path d="M152.556 70.1934C152.55 70.1934 152.544 70.1929 152.538 70.1922C152.462 70.182 152.409 70.112 152.419 70.0357C152.464 69.6944 153.525 61.6677 154.237 60.7725C154.284 60.7124 154.371 60.7029 154.431 60.7509C154.49 60.799 154.5 60.8867 154.452 60.9468C153.902 61.6398 152.996 67.769 152.693 70.0723C152.684 70.1423 152.625 70.1934 152.556 70.1934Z" fill="#07242B"/>
<path d="M144.163 81.8151C142.833 81.8151 141.66 81.7422 140.686 81.6449C137.754 81.3521 135.943 80.78 135.925 80.7743C135.852 80.751 135.812 80.6728 135.835 80.5994C135.858 80.526 135.935 80.4854 136.008 80.5086C136.026 80.5143 137.817 81.079 140.722 81.3684C143.402 81.6355 147.606 81.716 152.414 80.5836C152.488 80.566 152.563 80.6127 152.58 80.6877C152.597 80.7626 152.551 80.8376 152.477 80.8551C149.376 81.5854 146.523 81.8151 144.163 81.8151Z" fill="#07242B"/>
<path d="M128.11 71.086C128.497 70.6718 128.787 70.3088 129.784 70.6152C132.501 71.4502 141.374 74.0193 143.952 75.0343C144.182 75.0989 144.025 75.1328 144.197 75.1869C143.622 76.0472 143.527 78.0353 143.473 78.2615C141.878 78.1365 130.074 78.1913 127.383 75.7666C125.653 74.2077 127.18 72.0805 128.11 71.086Z" fill="#F59979"/>
<path d="M150.766 76.3838C150.422 76.2616 149.315 75.8634 148.412 75.4765C148.078 75.3335 147.737 75.2098 147.391 75.1017C146.48 74.8173 144.632 74.2936 144.059 75.182C144.013 75.2538 144.674 77.4672 147.621 77.2057C147.629 77.2124 147.399 76.59 149.153 76.883C149.465 76.9792 150.824 77.1503 150.897 76.6188C150.912 76.5116 150.855 76.4151 150.766 76.3838Z" fill="#F59979"/>
<path d="M126.595 73.8219C126.577 73.8164 126.56 73.8104 126.542 73.8038C126.334 73.7247 126.159 73.5039 126.21 73.2849C126.227 73.2108 126.268 73.1429 126.277 73.0674C126.29 72.9583 126.234 72.8542 126.213 72.7464C126.156 72.4496 126.365 72.1773 126.487 71.9013C126.698 71.4242 126.653 70.8891 126.772 70.3897C126.902 69.8467 127.052 69.2936 127.206 68.755C127.66 67.1698 128.246 65.6231 128.908 64.1151C129.923 61.8019 130.908 59.3711 132.596 57.4652C132.901 57.1214 133.37 56.6785 133.817 56.5809C136.582 55.977 139.528 57.5496 139.437 60.3658C139.383 62.0181 138.486 63.6919 137.752 65.1256C136.813 66.9617 135.844 68.8386 134.397 70.308C134.282 70.4244 134.158 70.5866 134.227 70.7353C134.272 70.8334 134.385 70.8788 134.454 70.9614C134.643 71.186 134.42 71.538 134.153 71.6591C132.889 72.2337 131.51 72.6228 130.193 73.048C129.576 73.247 128.959 73.443 128.329 73.5993C127.839 73.7213 127.11 73.9819 126.595 73.8219Z" fill="#AB4F47"/>
<path d="M135.031 69.7427C135.024 69.7427 135.016 69.7421 135.008 69.7408C134.933 69.7282 134.882 69.6564 134.895 69.5804C134.904 69.5207 135.864 63.5728 134.535 60.7404C134.502 60.6709 134.532 60.5878 134.601 60.5548C134.67 60.5219 134.752 60.5516 134.785 60.6212C136.151 63.5326 135.208 69.3787 135.167 69.6262C135.156 69.6944 135.097 69.7427 135.031 69.7427Z" fill="#07242B"/>
<path d="M131.195 71.4503C131.132 71.4503 131.075 71.4063 131.06 71.3416C131.043 71.2666 131.09 71.1919 131.164 71.175L134.107 70.5038C134.181 70.4868 134.255 70.534 134.272 70.609C134.289 70.6841 134.242 70.7587 134.167 70.7757L131.225 71.4469C131.215 71.4492 131.205 71.4503 131.195 71.4503Z" fill="#07242B"/>
<path d="M144.447 74.9918C144.447 74.9918 147.12 75.2821 148.331 76.0286C148.012 77.1419 147.65 79.4437 146.484 80.2973C145.338 80.0742 144.535 79.6715 143.208 78.1263C142.644 78.4051 141.83 75.1524 143.362 75.0388C144.031 74.9891 144.447 74.9918 144.447 74.9918Z" fill="#F59979"/>
<path d="M147.974 75.8817C147.97 75.8683 147.968 75.8607 147.968 75.8607C147.968 75.8607 147.973 75.8629 147.982 75.867L147.994 75.8459C147.994 75.8459 148.042 75.8775 148.122 75.9314C148.893 76.2888 152.3 77.9039 152.098 78.4521C152.016 78.5975 151.703 78.6138 151.099 78.4512C151.793 78.7818 152.336 79.1233 152.287 79.3671C152.233 79.5138 152.057 79.6101 151.571 79.5561C151.86 79.7142 152.037 79.8691 152.017 80.0074C151.964 80.1813 151.743 80.2972 151.049 80.214C151.144 80.2847 151.197 80.3576 151.195 80.432C151.141 80.7182 150.832 81.0188 148.61 80.6798C146.967 80.5277 145.615 80.0361 145.615 80.0361L147.974 75.8817Z" fill="#F59979"/>
<path d="M151.573 79.6957C151.558 79.6957 151.543 79.6933 151.529 79.6883L148.139 78.5319C148.067 78.5072 148.028 78.4281 148.052 78.3551C148.077 78.2822 148.155 78.2431 148.227 78.2678L151.617 79.4242C151.69 79.4488 151.728 79.5279 151.704 79.6009C151.684 79.659 151.631 79.6957 151.573 79.6957Z" fill="#07242B"/>
<path d="M151.05 80.3533C151.04 80.3533 151.03 80.3522 151.02 80.35C150.919 80.3279 148.523 79.8029 147.854 79.5563C147.783 79.5299 147.746 79.4498 147.772 79.3775C147.798 79.3052 147.878 79.2682 147.949 79.2945C148.6 79.5346 151.054 80.0722 151.079 80.0776C151.154 80.0939 151.201 80.1681 151.185 80.2433C151.171 80.3087 151.113 80.3533 151.05 80.3533Z" fill="#07242B"/>
<path d="M151.204 78.6649C151.187 78.6649 151.169 78.6615 151.152 78.6545L148.709 77.6442C148.638 77.615 148.604 77.5336 148.633 77.4624C148.662 77.3911 148.743 77.3572 148.814 77.3863L151.257 78.3965C151.327 78.4258 151.361 78.5072 151.332 78.5784C151.31 78.6323 151.258 78.6649 151.204 78.6649Z" fill="#07242B"/>
<path d="M189.473 35.5958H163.211C159.506 35.5958 156.502 32.5665 156.502 28.8298V16.7819C156.502 13.0452 159.506 10.0159 163.211 10.0159H189.473C193.178 10.0159 196.182 13.0451 196.182 16.7819V28.8298C196.182 32.5666 193.178 35.5958 189.473 35.5958Z" fill="#708A54"/>
<path d="M164.824 17.1631H169.148C170.003 17.1631 170.642 17.1991 171.062 17.271C171.483 17.343 171.859 17.493 172.191 17.7211C172.523 17.9493 172.8 18.2531 173.021 18.6326C173.242 19.0121 173.353 19.4375 173.353 19.9087C173.353 20.4196 173.216 20.8884 172.944 21.3149C172.671 21.7416 172.3 22.0615 171.833 22.2748C172.492 22.4682 172.999 22.7982 173.353 23.2644C173.707 23.7307 173.884 24.2789 173.884 24.9088C173.884 25.4049 173.77 25.8873 173.541 26.356C173.312 26.8248 173 27.1994 172.604 27.4796C172.208 27.7599 171.72 27.9323 171.14 27.9967C170.775 28.0365 169.898 28.0612 168.506 28.0711H164.824V17.1631ZM167.008 18.9786V21.501H168.439C169.29 21.501 169.819 21.4887 170.026 21.4638C170.399 21.4191 170.693 21.2889 170.907 21.0732C171.121 20.8574 171.228 20.5735 171.228 20.2212C171.228 19.8839 171.136 19.6099 170.951 19.399C170.767 19.1882 170.493 19.0605 170.129 19.0158C169.912 18.9911 169.29 18.9786 168.262 18.9786L167.008 18.9786ZM167.008 23.3165V26.2333H169.03C169.816 26.2333 170.316 26.2109 170.527 26.1663C170.852 26.1068 171.116 25.9617 171.32 25.731C171.524 25.5004 171.627 25.1916 171.627 24.8047C171.627 24.4773 171.548 24.1995 171.39 23.9713C171.233 23.7432 171.006 23.5769 170.708 23.4728C170.41 23.3686 169.765 23.3166 168.771 23.3166L167.008 23.3165Z" fill="white"/>
<path d="M175.662 28.0711V17.1631H177.846V28.0711H175.662Z" fill="white"/>
<path d="M179.92 17.1631H183.911C184.811 17.1631 185.498 17.2326 185.97 17.3714C186.604 17.56 187.148 17.8948 187.6 18.3759C188.053 18.8571 188.397 19.4462 188.633 20.1431C188.869 20.84 188.987 21.6994 188.987 22.7212C188.987 23.6191 188.877 24.393 188.655 25.0428C188.385 25.8365 187.999 26.4788 187.497 26.9699C187.118 27.342 186.607 27.6321 185.962 27.8405C185.48 27.9943 184.836 28.0711 184.029 28.0711H179.92L179.92 17.1631ZM182.104 19.0083V26.2332H183.734C184.344 26.2332 184.784 26.1986 185.055 26.129C185.409 26.0398 185.703 25.8885 185.937 25.6752C186.17 25.4619 186.361 25.1109 186.508 24.6223C186.656 24.1337 186.73 23.4678 186.73 22.6245C186.73 21.7812 186.656 21.1339 186.508 20.6824C186.361 20.2311 186.154 19.8788 185.889 19.6258C185.623 19.3728 185.286 19.2017 184.878 19.1125C184.573 19.043 183.975 19.0083 183.085 19.0083L182.104 19.0083Z" fill="white"/>
<path d="M157.72 29.3549C159.56 30.7915 161.4 32.2281 163.24 33.6647C161.103 35.8197 158.967 37.9746 156.83 40.1296C157.127 36.538 157.424 32.9465 157.72 29.3549Z" fill="#708A54"/>
</g>
</g>
</g>
<defs>
<filter id="filter0_d_14134_7197" x="-15" y="0" width="390" height="338" filterUnits="userSpaceOnUse" color-interpolation-filters="sRGB">
<feFlood flood-opacity="0" result="BackgroundImageFix"/>
<feColorMatrix in="SourceAlpha" type="matrix" values="0 0 0 0 0 0 0 0 0 0 0 0 0 0 0 0 0 0 127 0" result="hardAlpha"/>
<feOffset dy="2"/>
<feGaussianBlur stdDeviation="7.5"/>
<feComposite in2="hardAlpha" operator="out"/>
<feColorMatrix type="matrix" values="0 0 0 0 0 0 0 0 0 0 0 0 0 0 0 0 0 0 0.03 0"/>
<feBlend mode="normal" in2="BackgroundImageFix" result="effect1_dropShadow_14134_7197"/>
<feBlend mode="normal" in="SourceGraphic" in2="effect1_dropShadow_14134_7197" result="shape"/>
</filter>
<linearGradient id="paint0_linear_14134_7197" x1="113.104" y1="79.5558" x2="117.528" y2="79.5558" gradientUnits="userSpaceOnUse">
<stop stop-color="#F4C467"/>
<stop offset="1" stop-color="#F4B267"/>
</linearGradient>
<linearGradient id="paint1_linear_14134_7197" x1="198.861" y1="18.0071" x2="203.285" y2="18.0071" gradientUnits="userSpaceOnUse">
<stop stop-color="#F4C467"/>
<stop offset="1" stop-color="#F4B267"/>
</linearGradient>
<linearGradient id="paint2_linear_14134_7197" x1="282.398" y1="19.0852" x2="286.448" y2="19.0852" gradientUnits="userSpaceOnUse">
<stop stop-color="#F4C467"/>
<stop offset="1" stop-color="#F4B267"/>
</linearGradient>
<linearGradient id="paint3_linear_14134_7197" x1="295.744" y1="56.0868" x2="301.193" y2="56.0868" gradientUnits="userSpaceOnUse">
<stop stop-color="#F4C467"/>
<stop offset="1" stop-color="#F4B267"/>
</linearGradient>
<linearGradient id="paint4_linear_14134_7197" x1="232.656" y1="17.0429" x2="239.842" y2="17.0429" gradientUnits="userSpaceOnUse">
<stop stop-color="#F4C467"/>
<stop offset="1" stop-color="#F4B267"/>
</linearGradient>
<clipPath id="clip0_14134_7197">
<rect width="360" height="308" fill="white" transform="translate(0 13)"/>
</clipPath>
<clipPath id="clip1_14134_7197">
<rect width="360" height="177" fill="white" transform="translate(30 -20)"/>
</clipPath>
</defs>
</svg>
