<svg width="20" height="20" viewBox="0 0 20 20" fill="none" xmlns="http://www.w3.org/2000/svg">
<g clip-path="url(#clip0_24530_152832)">
<path d="M19.1667 18.3333H4.16667C3.50363 18.3333 2.86774 18.0699 2.3989 17.6011C1.93006 17.1323 1.66667 16.4964 1.66667 15.8333V0.833333C1.66667 0.61232 1.57887 0.400358 1.42259 0.244078C1.26631 0.0877974 1.05435 0 0.833333 0C0.61232 0 0.400358 0.0877974 0.244078 0.244078C0.0877974 0.400358 0 0.61232 0 0.833333L0 15.8333C0.00132321 16.938 0.440735 17.997 1.22185 18.7782C2.00296 19.5593 3.062 19.9987 4.16667 20H19.1667C19.3877 20 19.5996 19.9122 19.7559 19.7559C19.9122 19.5996 20 19.3877 20 19.1667C20 18.9457 19.9122 18.7337 19.7559 18.5774C19.5996 18.4211 19.3877 18.3333 19.1667 18.3333Z" fill="#AFAFAF"/>
<path d="M5 16.6665C5.22101 16.6665 5.43297 16.5787 5.58925 16.4224C5.74553 16.2661 5.83333 16.0542 5.83333 15.8332V9.99984C5.83333 9.77882 5.74553 9.56686 5.58925 9.41058C5.43297 9.2543 5.22101 9.1665 5 9.1665C4.77898 9.1665 4.56702 9.2543 4.41074 9.41058C4.25446 9.56686 4.16666 9.77882 4.16666 9.99984V15.8332C4.16666 16.0542 4.25446 16.2661 4.41074 16.4224C4.56702 16.5787 4.77898 16.6665 5 16.6665Z" fill="#AFAFAF"/>
<path d="M8.33334 8.33333V15.8333C8.33334 16.0543 8.42113 16.2663 8.57741 16.4226C8.73369 16.5789 8.94566 16.6667 9.16667 16.6667C9.38768 16.6667 9.59964 16.5789 9.75592 16.4226C9.91221 16.2663 10 16.0543 10 15.8333V8.33333C10 8.11232 9.91221 7.90036 9.75592 7.74408C9.59964 7.5878 9.38768 7.5 9.16667 7.5C8.94566 7.5 8.73369 7.5878 8.57741 7.74408C8.42113 7.90036 8.33334 8.11232 8.33334 8.33333Z" fill="#AFAFAF"/>
<path d="M12.5 10.8333V15.8333C12.5 16.0543 12.5878 16.2663 12.7441 16.4226C12.9004 16.5789 13.1123 16.6667 13.3333 16.6667C13.5543 16.6667 13.7663 16.5789 13.9226 16.4226C14.0789 16.2663 14.1667 16.0543 14.1667 15.8333V10.8333C14.1667 10.6123 14.0789 10.4004 13.9226 10.2441C13.7663 10.0878 13.5543 10 13.3333 10C13.1123 10 12.9004 10.0878 12.7441 10.2441C12.5878 10.4004 12.5 10.6123 12.5 10.8333Z" fill="#AFAFAF"/>
<path d="M16.6667 7.49984V15.8332C16.6667 16.0542 16.7545 16.2661 16.9107 16.4224C17.067 16.5787 17.279 16.6665 17.5 16.6665C17.721 16.6665 17.933 16.5787 18.0893 16.4224C18.2455 16.2661 18.3333 16.0542 18.3333 15.8332V7.49984C18.3333 7.27882 18.2455 7.06686 18.0893 6.91058C17.933 6.7543 17.721 6.6665 17.5 6.6665C17.279 6.6665 17.067 6.7543 16.9107 6.91058C16.7545 7.06686 16.6667 7.27882 16.6667 7.49984Z" fill="#AFAFAF"/>
<path d="M5 7.50001C5.221 7.49997 5.43293 7.41214 5.58917 7.25585L8.5775 4.26751C8.73634 4.1162 8.9473 4.0318 9.16667 4.0318C9.38604 4.0318 9.597 4.1162 9.75584 4.26751L11.5658 6.07751C12.0347 6.54619 12.6704 6.80948 13.3333 6.80948C13.9962 6.80948 14.632 6.54619 15.1008 6.07751L19.7558 1.42251C19.9076 1.26535 19.9916 1.05484 19.9897 0.836346C19.9878 0.617849 19.9002 0.408838 19.7457 0.254332C19.5912 0.0998249 19.3822 0.0121841 19.1637 0.0102854C18.9452 0.00838673 18.7347 0.0923821 18.5775 0.24418L13.9225 4.89835C13.7662 5.05457 13.5543 5.14234 13.3333 5.14234C13.1124 5.14234 12.9004 5.05457 12.7442 4.89835L10.9342 3.08918C10.4654 2.6205 9.82958 2.35721 9.16667 2.35721C8.50376 2.35721 7.86799 2.6205 7.39917 3.08918L4.41084 6.07751C4.29433 6.19406 4.21499 6.34253 4.18285 6.50415C4.15071 6.66578 4.16721 6.83331 4.23027 6.98556C4.29333 7.13781 4.40011 7.26794 4.53712 7.35952C4.67413 7.45109 4.83521 7.49998 5 7.50001Z" fill="#AFAFAF"/>
</g>
<defs>
<clipPath id="clip0_24530_152832">
<rect width="20" height="20" fill="white"/>
</clipPath>
</defs>
</svg>
