<svg width="74" height="237" viewBox="0 0 74 237" fill="none" xmlns="http://www.w3.org/2000/svg" xmlns:xlink="http://www.w3.org/1999/xlink">
<path d="M0 5C0 2.23858 2.23858 0 5 0H69C71.7614 0 74 2.23858 74 5V232C74 234.761 71.7614 237 69 237H5C2.23858 237 0 234.761 0 232V5Z" fill="url(#paint0_linear_24530_155467)"/>
<path d="M0 5C0 2.23858 2.23858 0 5 0H69C71.7614 0 74 2.23858 74 5V232C74 234.761 71.7614 237 69 237H5C2.23858 237 0 234.761 0 232V5Z" fill="url(#pattern0_24530_155467)"/>
<g clip-path="url(#clip0_24530_155467)">
<path d="M64 91.5H10V145.5H64V91.5Z" fill="#FEF6F4"/>
<path d="M36.9978 118.5L25.3333 91.5H15.0684L36.9978 118.5Z" fill="#F6EEE4"/>
<path d="M10 106.042L36.9974 118.5L10 95.5151V106.042Z" fill="#F6EEE4"/>
<path d="M41.072 145.5L36.9977 118.5L36.9976 118.5L13.7891 145.5H24.3826L36.9976 118.5L33.5469 145.5H41.072Z" fill="#F6EEE4"/>
<path d="M36.9976 118.501L10 112.778V120.233L36.9976 118.501Z" fill="#F6EEE4"/>
<path d="M32.9238 91.5L36.9981 118.5L36.9982 118.5L60.2068 91.5H49.6133L36.9982 118.5L40.4489 91.5H32.9238Z" fill="#F6EEE4"/>
<path d="M36.9982 118.5L48.6626 145.5H58.9277L36.9982 118.5Z" fill="#F6EEE4"/>
<path d="M36.998 118.5L64.0003 124.223V116.767L36.998 118.5Z" fill="#F6EEE4"/>
<path d="M64 130.96L36.998 118.5L64 141.489V130.96Z" fill="#F6EEE4"/>
<path d="M64.0005 99.6555L36.998 118.499L64.0005 109.059V99.6555Z" fill="#F6EEE4"/>
<path d="M36.9979 118.5L10 127.94V137.341L36.9979 118.5Z" fill="#F6EEE4"/>
<path d="M44.5918 103.966L58.6084 104.609L56.974 113.029" stroke="#14152C" stroke-width="3" stroke-miterlimit="10" stroke-linecap="round" stroke-linejoin="round"/>
<path d="M19.2812 128.458L20.6185 132.172L27.3049 132.767" stroke="#14152C" stroke-width="3" stroke-miterlimit="10" stroke-linecap="round" stroke-linejoin="round"/>
<path d="M42.3839 103.492L32.4961 101.907L33.6338 104.137L42.3839 103.492Z" fill="#14152C"/>
<path d="M22.4102 104.137L42.3839 103.492L42.5819 105.377L22.4102 104.137Z" fill="#FCC005"/>
<path d="M56.4897 105.377L22.4085 104.137L22.0918 107.421L56.4897 105.377Z" fill="#14152C"/>
<path d="M58.2988 114.785L54.1879 113.166L53.7422 116.138L58.2988 114.785Z" fill="#EF791C"/>
<path d="M14.0547 115.205L18.1799 113.667L18.5761 115.205H14.0547Z" fill="#EF791C"/>
<path d="M28.5313 133.656L38.0761 136.231L36.7531 132.368L28.5313 133.656Z" fill="black"/>
<path d="M49.3325 132.814L28.5304 133.656L28.0352 131.08L49.3325 132.814Z" fill="#FCC005"/>
<path d="M21.3008 130.833L49.334 132.814L50.0274 128.901L21.3008 130.833Z" fill="#14152C"/>
<path d="M15.7773 106.192L21.2998 130.833L52.3662 129.811L56.4901 105.377L15.7773 106.192Z" fill="#FCC005"/>
<path d="M14.0547 115.205L16.4731 127.213L57.1169 126.667L58.2981 114.785L14.0547 115.205Z" fill="#14152C"/>
<path d="M18.8086 110.47C18.8086 108.81 20.0826 107.644 21.8198 107.644C22.7388 107.644 23.4889 107.935 24.0192 108.467C24.1502 108.599 24.1451 108.813 24.0066 108.937L23.3321 109.539C23.205 109.653 23.0139 109.645 22.8909 109.527C22.6175 109.265 22.2992 109.119 21.9125 109.119C21.1558 109.119 20.6462 109.644 20.6462 110.47C20.6462 111.296 21.1558 111.821 21.9125 111.821C22.2992 111.821 22.6175 111.675 22.8909 111.413C23.014 111.295 23.2051 111.287 23.3322 111.401L24.0067 112.003C24.1452 112.126 24.1503 112.341 24.0193 112.472C23.4889 113.005 22.7389 113.296 21.8198 113.296C20.0826 113.296 18.8086 112.13 18.8086 110.47Z" fill="#EF791C"/>
<path d="M24.4375 110.47C24.4375 108.833 25.7269 107.644 27.4874 107.644C29.2479 107.644 30.5373 108.833 30.5373 110.47C30.5373 112.107 29.2479 113.296 27.4874 113.296C25.7269 113.296 24.4375 112.107 24.4375 110.47ZM28.6997 110.47C28.6997 109.628 28.1592 109.119 27.4874 109.119C26.8157 109.119 26.2751 109.628 26.2751 110.47C26.2751 111.311 26.8156 111.821 27.4874 111.821C28.1592 111.821 28.6997 111.311 28.6997 110.47Z" fill="#EF791C"/>
<path d="M36.0269 112.853L36.0208 111.867C36.0187 111.541 35.5888 111.425 35.4224 111.705L34.9334 112.528C34.8754 112.626 34.7704 112.686 34.6567 112.686H34.2159C34.1045 112.686 34.0012 112.628 33.9424 112.534L33.4584 111.753C33.2876 111.478 32.8632 111.599 32.8632 111.923V112.851C32.8632 113.028 32.7191 113.172 32.5415 113.172H31.5249C31.3472 113.172 31.2031 113.028 31.2031 112.851V108.089C31.2031 107.911 31.3472 107.767 31.5249 107.767H32.5206C32.6327 107.767 32.7367 107.826 32.7952 107.921L34.1833 110.192C34.3096 110.399 34.6104 110.397 34.7343 110.189L36.0821 107.924C36.1401 107.827 36.2452 107.767 36.3586 107.767H37.3528C37.5301 107.767 37.6741 107.911 37.6745 108.088L37.6881 112.85C37.6886 113.028 37.5443 113.172 37.3664 113.172H36.3487C36.1718 113.172 36.028 113.029 36.0269 112.853Z" fill="#EF791C"/>
<path d="M38.8901 107.767H40.0688C40.2465 107.767 40.3905 107.911 40.3905 108.089V112.851C40.3905 113.028 40.2465 113.172 40.0688 113.172H38.8901C38.7124 113.172 38.5684 113.028 38.5684 112.851V108.089C38.5684 107.911 38.7123 107.767 38.8901 107.767Z" fill="#EF791C"/>
<path d="M46.5992 108.089V112.851C46.5992 113.028 46.4552 113.172 46.2775 113.172H45.2516C45.1564 113.172 45.066 113.13 45.0048 113.057L43.6161 111.397C43.4232 111.166 43.0476 111.302 43.0476 111.603V112.85C43.0476 113.028 42.9035 113.172 42.7258 113.172H41.5933C41.4157 113.172 41.2716 113.028 41.2716 112.85V108.089C41.2716 107.911 41.4157 107.767 41.5933 107.767H42.6192C42.7145 107.767 42.8049 107.809 42.866 107.883L44.2549 109.543C44.4478 109.774 44.8234 109.637 44.8234 109.337V108.089C44.8234 107.911 44.9675 107.767 45.1451 107.767H46.2774C46.4552 107.767 46.5992 107.911 46.5992 108.089Z" fill="#EF791C"/>
<path d="M51.3767 110.323H52.316C52.4937 110.323 52.6378 110.467 52.6378 110.645V112.432C52.6378 112.546 52.5769 112.652 52.4788 112.71C51.8403 113.093 51.0157 113.296 50.2828 113.296C48.5379 113.296 47.2638 112.13 47.2638 110.47C47.2638 108.81 48.5379 107.644 50.3214 107.644C51.2412 107.644 52.0056 107.92 52.5502 108.428C52.6895 108.558 52.6862 108.78 52.5433 108.906L51.8543 109.513C51.7318 109.621 51.5488 109.618 51.4264 109.51C51.1338 109.25 50.8019 109.119 50.4143 109.119C49.6112 109.119 49.1016 109.636 49.1016 110.47C49.1016 111.281 49.6112 111.821 50.391 111.821C50.5334 111.821 50.6726 111.806 50.8127 111.771C50.9554 111.735 51.0551 111.605 51.0551 111.458V110.645C51.0548 110.467 51.1989 110.323 51.3767 110.323Z" fill="#EF791C"/>
<path d="M19.1641 110.47C19.1641 108.81 20.438 107.644 22.1753 107.644C23.0944 107.644 23.8443 107.935 24.3747 108.467C24.5057 108.599 24.5008 108.813 24.3622 108.937L23.6876 109.539C23.5605 109.653 23.3695 109.645 23.2465 109.527C22.9731 109.265 22.6547 109.119 22.2681 109.119C21.5113 109.119 21.0018 109.644 21.0018 110.47C21.0018 111.296 21.5113 111.821 22.2681 111.821C22.6547 111.821 22.9731 111.675 23.2465 111.413C23.3695 111.295 23.5606 111.287 23.6876 111.401L24.3622 112.003C24.5007 112.126 24.5057 112.341 24.3747 112.472C23.8443 113.005 23.0944 113.296 22.1753 113.296C20.4381 113.296 19.1641 112.13 19.1641 110.47Z" fill="#14152C"/>
<path d="M24.793 110.47C24.793 108.833 26.0824 107.644 27.8429 107.644C29.6034 107.644 30.8928 108.833 30.8928 110.47C30.8928 112.107 29.6034 113.296 27.8429 113.296C26.0824 113.296 24.793 112.107 24.793 110.47ZM29.0552 110.47C29.0552 109.628 28.5146 109.119 27.8429 109.119C27.1711 109.119 26.6306 109.628 26.6306 110.47C26.6306 111.311 27.171 111.821 27.8429 111.821C28.5146 111.821 29.0552 111.311 29.0552 110.47Z" fill="#14152C"/>
<path d="M36.3824 112.853L36.3763 111.867C36.3742 111.541 35.9444 111.425 35.7778 111.705L35.2889 112.528C35.2309 112.626 35.1258 112.686 35.0122 112.686H34.5714C34.46 112.686 34.3567 112.628 34.2979 112.534L33.8139 111.753C33.6431 111.478 33.2187 111.599 33.2187 111.923V112.851C33.2187 113.028 33.0746 113.172 32.8969 113.172H31.8803C31.7027 113.172 31.5586 113.028 31.5586 112.851V108.089C31.5586 107.911 31.7027 107.767 31.8803 107.767H32.8761C32.9882 107.767 33.0922 107.826 33.1506 107.921L34.5387 110.192C34.6651 110.399 34.9659 110.397 35.0898 110.189L36.4375 107.924C36.4955 107.827 36.6006 107.767 36.714 107.767H37.7081C37.8854 107.767 38.0294 107.911 38.0298 108.088L38.0435 112.85C38.044 113.028 37.8998 113.172 37.7217 113.172H36.704C36.5272 113.172 36.3835 113.029 36.3824 112.853Z" fill="#14152C"/>
<path d="M39.2456 107.767H40.4243C40.6019 107.767 40.746 107.911 40.746 108.089V112.851C40.746 113.028 40.6019 113.172 40.4243 113.172H39.2456C39.0679 113.172 38.9238 113.028 38.9238 112.851V108.089C38.9238 107.911 39.0679 107.767 39.2456 107.767Z" fill="#14152C"/>
<path d="M46.9547 108.089V112.851C46.9547 113.028 46.8106 113.172 46.633 113.172H45.6071C45.5118 113.172 45.4214 113.13 45.3603 113.057L43.9715 111.397C43.7787 111.166 43.403 111.302 43.403 111.603V112.85C43.403 113.028 43.259 113.172 43.0813 113.172H41.9488C41.7711 113.172 41.6271 113.028 41.6271 112.85V108.089C41.6271 107.911 41.7711 107.767 41.9488 107.767H42.9747C43.07 107.767 43.1604 107.809 43.2215 107.883L44.6104 109.543C44.8032 109.774 45.1789 109.637 45.1789 109.337V108.089C45.1789 107.911 45.3229 107.767 45.5006 107.767H46.633C46.8108 107.767 46.9547 107.911 46.9547 108.089Z" fill="#14152C"/>
<path d="M51.7321 110.323H52.6715C52.8492 110.323 52.9932 110.467 52.9932 110.645V112.432C52.9932 112.546 52.9323 112.652 52.8343 112.71C52.1958 113.093 51.3712 113.296 50.6383 113.296C48.8933 113.296 47.6193 112.13 47.6193 110.47C47.6193 108.81 48.8933 107.644 50.6769 107.644C51.5967 107.644 52.3611 107.92 52.9056 108.428C53.045 108.558 53.0416 108.78 52.8987 108.906L52.2098 109.513C52.0872 109.621 51.9043 109.618 51.7819 109.51C51.4892 109.25 51.1573 109.119 50.7697 109.119C49.9666 109.119 49.4571 109.636 49.4571 110.47C49.4571 111.281 49.9666 111.821 50.7465 111.821C50.8889 111.821 51.0281 111.806 51.1681 111.771C51.3108 111.735 51.4106 111.605 51.4106 111.458V110.645C51.4104 110.467 51.5545 110.323 51.7321 110.323Z" fill="#14152C"/>
<path d="M21.241 123.496L21.7689 122.301C21.8486 122.121 22.0618 122.041 22.2393 122.127C22.8932 122.444 23.6817 122.639 24.3842 122.639C25.0986 122.639 25.3545 122.49 25.3545 122.234C25.3545 121.296 21.228 122.053 21.228 119.27C21.228 117.884 22.3903 116.754 24.7041 116.754C25.584 116.754 26.4885 116.918 27.2229 117.254C27.392 117.331 27.466 117.532 27.3946 117.704L26.9026 118.889C26.827 119.071 26.6165 119.152 26.4358 119.073C25.8205 118.804 25.2362 118.673 24.6827 118.673C23.947 118.673 23.7125 118.886 23.7125 119.142C23.7125 120.038 27.8389 119.291 27.8389 122.042C27.8389 123.407 26.6766 124.559 24.3628 124.559C23.2686 124.559 22.1661 124.321 21.4081 123.953C21.2383 123.871 21.1647 123.669 21.241 123.496Z" fill="#E94B49"/>
<path d="M27.9766 120.656C27.9766 118.396 29.7573 116.754 32.1883 116.754C34.6194 116.754 36.4001 118.396 36.4001 120.656C36.4001 122.917 34.6194 124.559 32.1883 124.559C29.7573 124.559 27.9766 122.917 27.9766 120.656ZM33.8625 120.656C33.8625 119.494 33.1161 118.79 32.1883 118.79C31.2606 118.79 30.5143 119.494 30.5143 120.656C30.5143 121.818 31.2607 122.522 32.1883 122.522C33.1161 122.522 33.8625 121.818 33.8625 120.656Z" fill="#E94B49"/>
<path d="M36.6523 120.656C36.6523 118.396 38.433 116.754 40.8642 116.754C43.2953 116.754 45.076 118.396 45.076 120.656C45.076 122.917 43.2953 124.559 40.8642 124.559C38.433 124.559 36.6523 122.917 36.6523 120.656ZM42.5382 120.656C42.5382 119.494 41.7918 118.79 40.8642 118.79C39.9366 118.79 39.1902 119.494 39.1902 120.656C39.1902 121.818 39.9366 122.522 40.8642 122.522C41.7918 122.522 42.5382 121.818 42.5382 120.656Z" fill="#E94B49"/>
<path d="M52.7518 117.274V124.038C52.7518 124.231 52.5951 124.388 52.4018 124.388H50.8468C50.7431 124.388 50.6448 124.342 50.5783 124.263L48.4655 121.737C48.2557 121.486 47.8469 121.634 47.8469 121.961V124.038C47.8469 124.231 47.6902 124.388 47.4969 124.388H45.7446C45.5512 124.388 45.3945 124.231 45.3945 124.038V117.274C45.3945 117.081 45.5512 116.924 45.7446 116.924H47.2995C47.4032 116.924 47.5015 116.97 47.568 117.05L49.6808 119.575C49.8907 119.826 50.2995 119.678 50.2995 119.351V117.274C50.2995 117.081 50.4562 116.924 50.6495 116.924H52.4018C52.5951 116.924 52.7518 117.081 52.7518 117.274Z" fill="#E94B49"/>
<path d="M20.575 124.016L21.1029 122.822C21.1826 122.641 21.3958 122.561 21.5732 122.648C22.2271 122.964 23.0156 123.16 23.7181 123.16C24.4325 123.16 24.6884 123.01 24.6884 122.754C24.6884 121.816 20.5619 122.573 20.5619 119.79C20.5619 118.404 21.7241 117.274 24.038 117.274C24.9179 117.274 25.8224 117.438 26.5568 117.774C26.7259 117.851 26.7999 118.052 26.7285 118.224L26.2365 119.409C26.1609 119.591 25.9504 119.672 25.7697 119.593C25.1544 119.324 24.5701 119.193 24.0166 119.193C23.2808 119.193 23.0463 119.406 23.0463 119.662C23.0463 120.558 27.1728 119.812 27.1728 122.563C27.1728 123.927 26.0106 125.079 23.6967 125.079C22.6025 125.079 21.5 124.841 20.742 124.473C20.5723 124.391 20.4987 124.189 20.575 124.016Z" fill="#FCC005"/>
<path d="M27.3105 121.176C27.3105 118.916 29.0913 117.274 31.5223 117.274C33.9534 117.274 35.7342 118.916 35.7342 121.176C35.7342 123.437 33.9535 125.079 31.5223 125.079C29.0911 125.079 27.3105 123.437 27.3105 121.176ZM33.1964 121.176C33.1964 120.014 32.4501 119.31 31.5223 119.31C30.5947 119.31 29.8483 120.014 29.8483 121.176C29.8483 122.339 30.5947 123.043 31.5223 123.043C32.4501 123.043 33.1964 122.339 33.1964 121.176Z" fill="#FCC005"/>
<path d="M35.9863 121.176C35.9863 118.916 37.767 117.274 40.1982 117.274C42.6293 117.274 44.41 118.916 44.41 121.176C44.41 123.437 42.6293 125.079 40.1982 125.079C37.767 125.079 35.9863 123.437 35.9863 121.176ZM41.8722 121.176C41.8722 120.014 41.1258 119.31 40.1982 119.31C39.2705 119.31 38.5242 120.014 38.5242 121.176C38.5242 122.339 39.2706 123.043 40.1982 123.043C41.1258 123.043 41.8722 122.339 41.8722 121.176Z" fill="#FCC005"/>
<path d="M52.0858 117.795V124.558C52.0858 124.752 51.9291 124.908 51.7358 124.908H50.1808C50.0771 124.908 49.9788 124.863 49.9123 124.783L47.7995 122.257C47.5897 122.006 47.1809 122.155 47.1809 122.482V124.558C47.1809 124.752 47.0242 124.908 46.8308 124.908H45.0785C44.8852 124.908 44.7285 124.752 44.7285 124.558V117.795C44.7285 117.601 44.8852 117.445 45.0785 117.445H46.6335C46.7372 117.445 46.8355 117.491 46.902 117.57L49.0148 120.096C49.2247 120.347 49.6334 120.198 49.6334 119.871V117.795C49.6334 117.601 49.7902 117.445 49.9835 117.445H51.7358C51.9291 117.444 52.0858 117.601 52.0858 117.795Z" fill="#FCC005"/>
<path d="M20.903 123.675L21.4309 122.48C21.5106 122.3 21.7238 122.22 21.9012 122.306C22.5551 122.623 23.3436 122.818 24.0461 122.818C24.7605 122.818 25.0164 122.669 25.0164 122.413C25.0164 121.475 20.8899 122.232 20.8899 119.449C20.8899 118.063 22.0522 116.932 24.366 116.932C25.2459 116.932 26.1504 117.097 26.8848 117.433C27.0539 117.51 27.1279 117.711 27.0565 117.883L26.5645 119.068C26.4889 119.25 26.2784 119.331 26.0977 119.252C25.4824 118.983 24.8981 118.852 24.3446 118.852C23.6089 118.852 23.3743 119.065 23.3743 119.321C23.3743 120.217 27.5008 119.47 27.5008 122.221C27.5008 123.586 26.3386 124.738 24.0247 124.738C22.9305 124.738 21.8281 124.5 21.07 124.132C20.9003 124.049 20.8267 123.847 20.903 123.675Z" fill="white"/>
<path d="M27.6385 120.835C27.6385 118.574 29.4193 116.932 31.8503 116.932C34.2814 116.932 36.0622 118.574 36.0622 120.835C36.0622 123.095 34.2815 124.738 31.8503 124.738C29.4193 124.738 27.6385 123.095 27.6385 120.835ZM33.5244 120.835C33.5244 119.673 32.7781 118.969 31.8503 118.969C30.9226 118.969 30.1763 119.673 30.1763 120.835C30.1763 121.997 30.9227 122.701 31.8503 122.701C32.7781 122.701 33.5244 121.997 33.5244 120.835Z" fill="white"/>
<path d="M36.3141 120.835C36.3141 118.574 38.0949 116.932 40.5259 116.932C42.957 116.932 44.7377 118.574 44.7377 120.835C44.7377 123.095 42.957 124.738 40.5259 124.738C38.0947 124.738 36.3141 123.095 36.3141 120.835ZM42.2 120.835C42.2 119.673 41.4537 118.969 40.526 118.969C39.5984 118.969 38.852 119.673 38.852 120.835C38.852 121.997 39.5984 122.701 40.526 122.701C41.4537 122.701 42.2 121.997 42.2 120.835Z" fill="white"/>
<path d="M52.4138 117.453V124.217C52.4138 124.41 52.2571 124.567 52.0638 124.567H50.5088C50.4051 124.567 50.3068 124.521 50.2403 124.442L48.1275 121.916C47.9177 121.665 47.5089 121.813 47.5089 122.14V124.217C47.5089 124.41 47.3522 124.567 47.1588 124.567H45.4065C45.2132 124.567 45.0565 124.41 45.0565 124.217V117.453C45.0565 117.26 45.2132 117.103 45.4065 117.103H46.9615C47.0652 117.103 47.1635 117.149 47.23 117.229L49.3428 119.754C49.5527 120.005 49.9614 119.857 49.9614 119.53V117.453C49.9614 117.26 50.1182 117.103 50.3115 117.103H52.0638C52.2571 117.103 52.4138 117.26 52.4138 117.453Z" fill="white"/>
<path d="M52.9302 126.724L20.4766 127.16L20.8812 128.965L52.9302 126.724Z" fill="#EF791C"/>
<path d="M23.3442 128.92C23.3056 128.794 23.2388 128.685 23.1437 128.594C23.0922 128.556 23.0407 128.518 22.9893 128.48C22.8708 128.415 22.7438 128.384 22.6085 128.387C22.5051 128.385 22.4093 128.409 22.3211 128.458C22.2289 128.49 22.1496 128.544 22.0834 128.618C22.0119 128.688 21.962 128.77 21.9339 128.863C21.889 128.954 21.8698 129.05 21.876 129.154C21.8865 129.22 21.897 129.286 21.9075 129.352C21.946 129.479 22.0129 129.587 22.1079 129.679C22.1594 129.717 22.2109 129.755 22.2623 129.793C22.3808 129.858 22.5078 129.889 22.6432 129.886C22.7465 129.888 22.8423 129.864 22.9305 129.815C23.0228 129.783 23.102 129.729 23.1683 129.654C23.2399 129.585 23.2896 129.503 23.3177 129.409C23.3627 129.319 23.3819 129.222 23.3756 129.119C23.3651 129.053 23.3547 128.986 23.3442 128.92Z" fill="#EF791C"/>
<path d="M27.2506 128.799C27.212 128.672 27.1451 128.564 27.0501 128.472C26.9986 128.434 26.9471 128.396 26.8957 128.359C26.7772 128.293 26.6502 128.262 26.5149 128.265C26.4115 128.263 26.3157 128.287 26.2275 128.336C26.1352 128.369 26.056 128.422 25.9898 128.497C25.9182 128.566 25.8684 128.648 25.8403 128.742C25.7954 128.832 25.7761 128.929 25.7824 129.032C25.7929 129.098 25.8034 129.165 25.8138 129.231C25.8524 129.357 25.9192 129.466 26.0143 129.557C26.0658 129.595 26.1173 129.633 26.1687 129.671C26.2872 129.736 26.4142 129.767 26.5495 129.765C26.6529 129.766 26.7487 129.742 26.8369 129.693C26.9291 129.661 27.0084 129.607 27.0746 129.533C27.1461 129.463 27.196 129.382 27.2241 129.288C27.269 129.197 27.2882 129.101 27.282 128.997C27.2715 128.931 27.261 128.865 27.2506 128.799Z" fill="#EF791C"/>
<path d="M31.1588 128.677C31.1202 128.551 31.0533 128.442 30.9583 128.351C30.9068 128.313 30.8554 128.275 30.8039 128.237C30.6854 128.172 30.5584 128.141 30.4231 128.143C30.3197 128.142 30.2239 128.166 30.1357 128.215C30.0434 128.247 29.9642 128.301 29.898 128.375C29.8265 128.445 29.7766 128.526 29.7485 128.62C29.7037 128.711 29.6843 128.807 29.6906 128.911C29.7011 128.977 29.7116 129.043 29.722 129.109C29.7606 129.235 29.8274 129.344 29.9225 129.436C29.974 129.474 30.0255 129.511 30.0769 129.549C30.1954 129.615 30.3224 129.646 30.4577 129.643C30.5611 129.645 30.6569 129.621 30.7451 129.572C30.8373 129.539 30.9166 129.486 30.9828 129.411C31.0543 129.342 31.1042 129.26 31.1323 129.166C31.1772 129.076 31.1964 128.979 31.1902 128.876C31.1797 128.809 31.1692 128.743 31.1588 128.677Z" fill="#EF791C"/>
<path d="M34.9908 128.556C34.9522 128.429 34.8854 128.32 34.7903 128.229C34.7388 128.191 34.6874 128.153 34.6359 128.115C34.5174 128.05 34.3904 128.019 34.2551 128.022C34.1517 128.02 34.0559 128.044 33.9677 128.093C33.8755 128.125 33.7962 128.179 33.73 128.254C33.6585 128.323 33.6086 128.405 33.5805 128.499C33.5357 128.589 33.5164 128.686 33.5226 128.789C33.5331 128.855 33.5436 128.922 33.5541 128.988C33.5926 129.114 33.6595 129.223 33.7545 129.314C33.806 129.352 33.8574 129.39 33.9089 129.428C34.0274 129.493 34.1544 129.524 34.2898 129.521C34.3931 129.523 34.4889 129.499 34.5771 129.45C34.6694 129.418 34.7487 129.364 34.8149 129.29C34.8864 129.22 34.9362 129.138 34.9643 129.045C35.0093 128.954 35.0285 128.857 35.0222 128.754C35.0117 128.688 35.0013 128.622 34.9908 128.556Z" fill="#EF791C"/>
<path d="M38.897 128.434C38.8585 128.308 38.7916 128.199 38.6966 128.108C38.6451 128.07 38.5937 128.032 38.5422 127.994C38.4237 127.929 38.2967 127.898 38.1613 127.9C38.058 127.899 37.9622 127.923 37.874 127.972C37.7817 128.004 37.7025 128.058 37.6362 128.132C37.5646 128.202 37.5149 128.283 37.4868 128.377C37.4418 128.468 37.4226 128.564 37.4289 128.668C37.4394 128.734 37.4498 128.8 37.4603 128.866C37.4989 128.992 37.5657 129.101 37.6608 129.193C37.7123 129.231 37.7637 129.268 37.8152 129.306C37.9337 129.371 38.0607 129.403 38.196 129.4C38.2994 129.402 38.3952 129.378 38.4834 129.329C38.5756 129.296 38.6549 129.243 38.7211 129.168C38.7927 129.098 38.8425 129.017 38.8706 128.923C38.9155 128.833 38.9347 128.736 38.9285 128.633C38.918 128.566 38.9075 128.5 38.897 128.434Z" fill="#EF791C"/>
<path d="M42.8033 128.313C42.7647 128.186 42.6979 128.078 42.6028 127.986C42.5513 127.948 42.4998 127.91 42.4484 127.872C42.3299 127.807 42.2029 127.776 42.0676 127.779C41.9642 127.777 41.8684 127.801 41.7802 127.85C41.688 127.883 41.6087 127.936 41.5425 128.011C41.4709 128.08 41.4211 128.162 41.393 128.256C41.3481 128.346 41.3289 128.443 41.3351 128.546C41.3456 128.612 41.3561 128.678 41.3666 128.745C41.4051 128.871 41.472 128.98 41.567 129.071C41.6185 129.109 41.6699 129.147 41.7215 129.185C41.8399 129.25 41.9669 129.281 42.1023 129.278C42.2056 129.28 42.3014 129.256 42.3897 129.207C42.4819 129.175 42.5612 129.121 42.6274 129.047C42.699 128.977 42.7488 128.895 42.7768 128.802C42.8218 128.711 42.841 128.614 42.8347 128.511C42.8242 128.445 42.8138 128.379 42.8033 128.313Z" fill="#EF791C"/>
<path d="M46.7115 128.191C46.6729 128.065 46.6061 127.956 46.511 127.865C46.4595 127.827 46.4081 127.789 46.3566 127.751C46.2381 127.686 46.1111 127.654 45.9758 127.657C45.8724 127.656 45.7766 127.679 45.6884 127.728C45.5962 127.761 45.5169 127.814 45.4507 127.889C45.3792 127.959 45.3293 128.04 45.3012 128.134C45.2564 128.224 45.2371 128.321 45.2433 128.424C45.2538 128.491 45.2643 128.557 45.2748 128.623C45.3133 128.749 45.3802 128.858 45.4752 128.949C45.5267 128.987 45.5781 129.025 45.6297 129.063C45.7481 129.128 45.8751 129.16 46.0105 129.157C46.1138 129.158 46.2096 129.135 46.2979 129.086C46.3901 129.053 46.4694 129 46.5356 128.925C46.6072 128.855 46.6569 128.774 46.685 128.68C46.73 128.59 46.7492 128.493 46.7429 128.39C46.7324 128.324 46.722 128.257 46.7115 128.191Z" fill="#EF791C"/>
<path d="M50.6177 128.069C50.5792 127.943 50.5123 127.834 50.4173 127.743C50.3658 127.705 50.3144 127.667 50.2629 127.629C50.1444 127.564 50.0174 127.533 49.882 127.536C49.7787 127.534 49.6829 127.558 49.5947 127.607C49.5024 127.639 49.4232 127.693 49.357 127.768C49.2853 127.837 49.2356 127.919 49.2075 128.013C49.1626 128.103 49.1433 128.2 49.1496 128.303C49.1601 128.369 49.1705 128.435 49.181 128.502C49.2196 128.628 49.2864 128.737 49.3815 128.828C49.433 128.866 49.4844 128.904 49.5359 128.942C49.6544 129.007 49.7814 129.038 49.9167 129.035C50.0201 129.037 50.1159 129.013 50.2041 128.964C50.2963 128.932 50.3756 128.878 50.4418 128.803C50.5134 128.734 50.5632 128.652 50.5913 128.559C50.6362 128.468 50.6554 128.371 50.6492 128.268C50.6387 128.202 50.6282 128.136 50.6177 128.069Z" fill="#EF791C"/>
<path d="M23.6414 128.821C23.6029 128.695 23.536 128.586 23.441 128.495C23.3895 128.457 23.338 128.419 23.2865 128.381C23.1681 128.316 23.041 128.285 22.9057 128.288C22.8024 128.286 22.7066 128.31 22.6183 128.359C22.5261 128.391 22.4468 128.445 22.3806 128.519C22.3091 128.589 22.2592 128.671 22.2312 128.764C22.1863 128.855 22.167 128.951 22.1733 129.055C22.1837 129.121 22.1942 129.187 22.2047 129.253C22.2433 129.38 22.3101 129.488 22.4051 129.58C22.4567 129.618 22.5081 129.656 22.5596 129.694C22.6782 129.759 22.8051 129.79 22.9404 129.787C23.0437 129.789 23.1395 129.765 23.2278 129.716C23.32 129.684 23.3993 129.63 23.4655 129.555C23.537 129.486 23.5869 129.404 23.615 129.31C23.6599 129.22 23.6791 129.123 23.6728 129.02C23.6624 128.954 23.6519 128.887 23.6414 128.821Z" fill="white"/>
<path d="M27.5474 128.7C27.5089 128.573 27.442 128.465 27.347 128.373C27.2955 128.335 27.2441 128.297 27.1925 128.26C27.0741 128.194 26.9471 128.163 26.8117 128.166C26.7084 128.164 26.6126 128.188 26.5243 128.237C26.4321 128.27 26.3528 128.323 26.2866 128.398C26.215 128.467 26.1652 128.549 26.1372 128.643C26.0922 128.733 26.073 128.83 26.0793 128.933C26.0898 128.999 26.1002 129.066 26.1107 129.132C26.1493 129.258 26.2161 129.367 26.3112 129.458C26.3627 129.496 26.4141 129.534 26.4656 129.572C26.5841 129.637 26.7111 129.668 26.8464 129.666C26.9498 129.667 27.0456 129.643 27.1338 129.594C27.226 129.562 27.3053 129.508 27.3715 129.434C27.443 129.364 27.4929 129.283 27.521 129.189C27.5659 129.099 27.5851 129.002 27.5789 128.898C27.5684 128.832 27.5579 128.766 27.5474 128.7Z" fill="#E94B49"/>
<path d="M31.4556 128.578C31.4171 128.452 31.3502 128.343 31.2552 128.252C31.2037 128.214 31.1523 128.176 31.1007 128.138C30.9823 128.073 30.8553 128.042 30.7199 128.044C30.6166 128.043 30.5208 128.067 30.4326 128.116C30.3403 128.148 30.261 128.202 30.1948 128.276C30.1233 128.346 30.0734 128.427 30.0454 128.521C30.0004 128.612 29.9812 128.708 29.9875 128.812C29.998 128.878 30.0084 128.944 30.0189 129.01C30.0575 129.136 30.1243 129.245 30.2194 129.337C30.2709 129.375 30.3223 129.412 30.3738 129.45C30.4923 129.516 30.6193 129.547 30.7546 129.544C30.858 129.546 30.9538 129.522 31.042 129.473C31.1342 129.44 31.2135 129.387 31.2797 129.312C31.3513 129.243 31.4011 129.161 31.4292 129.067C31.4741 128.977 31.4933 128.88 31.4871 128.777C31.4766 128.71 31.4661 128.644 31.4556 128.578Z" fill="white"/>
<path d="M35.2875 128.457C35.2489 128.33 35.1821 128.221 35.087 128.13C35.0355 128.092 34.9841 128.054 34.9326 128.016C34.8141 127.951 34.6871 127.92 34.5518 127.923C34.4484 127.921 34.3526 127.945 34.2644 127.994C34.1722 128.026 34.0929 128.08 34.0267 128.155C33.9552 128.224 33.9053 128.306 33.8772 128.4C33.8324 128.49 33.8131 128.587 33.8193 128.69C33.8298 128.756 33.8403 128.823 33.8508 128.889C33.8893 129.015 33.9562 129.124 34.0512 129.215C34.1027 129.253 34.1541 129.291 34.2056 129.329C34.3241 129.394 34.4511 129.425 34.5864 129.422C34.6898 129.424 34.7856 129.4 34.8738 129.351C34.9661 129.319 35.0453 129.265 35.1115 129.191C35.183 129.121 35.2329 129.039 35.261 128.946C35.3059 128.855 35.3252 128.758 35.3189 128.655C35.3084 128.589 35.298 128.523 35.2875 128.457Z" fill="#E94B49"/>
<path d="M39.1939 128.335C39.1554 128.209 39.0885 128.1 38.9935 128.009C38.9419 127.971 38.8904 127.933 38.839 127.895C38.7205 127.83 38.5935 127.799 38.4582 127.801C38.3549 127.8 38.2591 127.824 38.1708 127.873C38.0786 127.905 37.9993 127.959 37.9331 128.033C37.8615 128.103 37.8117 128.184 37.7836 128.278C37.7388 128.369 37.7195 128.465 37.7258 128.569C37.7362 128.635 37.7467 128.701 37.7572 128.767C37.7957 128.893 37.8626 129.002 37.9576 129.094C38.0092 129.132 38.0606 129.169 38.1121 129.207C38.2307 129.272 38.3576 129.304 38.4929 129.301C38.5962 129.303 38.692 129.279 38.7803 129.23C38.8725 129.197 38.9518 129.144 39.018 129.069C39.0896 128.999 39.1394 128.918 39.1675 128.824C39.2124 128.734 39.2316 128.637 39.2253 128.534C39.2149 128.467 39.2044 128.401 39.1939 128.335Z" fill="white"/>
<path d="M43.1002 128.213C43.0616 128.087 42.9948 127.978 42.8997 127.887C42.8482 127.849 42.7968 127.811 42.7453 127.773C42.6268 127.708 42.4998 127.677 42.3645 127.68C42.2611 127.678 42.1653 127.702 42.0771 127.751C41.9848 127.783 41.9056 127.837 41.8394 127.911C41.7678 127.981 41.718 128.063 41.6899 128.156C41.645 128.247 41.6257 128.344 41.632 128.447C41.6425 128.513 41.653 128.579 41.6634 128.645C41.702 128.772 41.7688 128.88 41.8639 128.972C41.9154 129.01 41.9668 129.048 42.0183 129.086C42.1368 129.151 42.2638 129.182 42.3991 129.179C42.5025 129.181 42.5983 129.157 42.6865 129.108C42.7788 129.076 42.858 129.022 42.9242 128.947C42.9958 128.878 43.0456 128.796 43.0737 128.702C43.1186 128.612 43.1379 128.515 43.1316 128.412C43.1211 128.346 43.1106 128.28 43.1002 128.213Z" fill="#E94B49"/>
<path d="M47.0084 128.092C46.9698 127.966 46.903 127.857 46.8079 127.766C46.7564 127.728 46.705 127.69 46.6535 127.652C46.535 127.587 46.408 127.555 46.2727 127.558C46.1693 127.557 46.0735 127.58 45.9853 127.629C45.893 127.662 45.8138 127.715 45.7476 127.79C45.676 127.86 45.6262 127.941 45.5981 128.035C45.5533 128.125 45.5339 128.222 45.5402 128.325C45.5507 128.392 45.5612 128.458 45.5716 128.524C45.6102 128.65 45.677 128.759 45.7721 128.85C45.8236 128.888 45.875 128.926 45.9265 128.964C46.045 129.029 46.172 129.061 46.3073 129.058C46.4107 129.059 46.5065 129.036 46.5947 128.987C46.687 128.954 46.7662 128.901 46.8324 128.826C46.904 128.756 46.9538 128.675 46.9819 128.581C47.0268 128.491 47.0461 128.394 47.0398 128.291C47.0293 128.224 47.0188 128.158 47.0084 128.092Z" fill="white"/>
<path d="M50.9147 127.97C50.8761 127.844 50.8093 127.735 50.7142 127.644C50.6627 127.606 50.6113 127.568 50.5598 127.53C50.4413 127.465 50.3143 127.434 50.179 127.437C50.0756 127.435 49.9798 127.459 49.8916 127.508C49.7994 127.54 49.7201 127.594 49.6539 127.668C49.5824 127.738 49.5325 127.82 49.5044 127.913C49.4596 128.004 49.4403 128.1 49.4465 128.204C49.457 128.27 49.4675 128.336 49.4779 128.402C49.5165 128.529 49.5834 128.637 49.6784 128.729C49.7299 128.767 49.7813 128.805 49.8328 128.843C49.9513 128.908 50.0783 128.939 50.2136 128.936C50.317 128.938 50.4128 128.914 50.501 128.865C50.5933 128.832 50.6725 128.779 50.7387 128.704C50.8103 128.635 50.8601 128.553 50.8882 128.459C50.9331 128.369 50.9524 128.272 50.9461 128.169C50.9356 128.103 50.9252 128.037 50.9147 127.97Z" fill="#E94B49"/>
<path d="M27.308 128.613C27.2939 128.586 27.2727 128.562 27.2545 128.54C27.2472 128.531 27.239 128.523 27.2301 128.516C27.2087 128.498 27.1838 128.476 27.1578 128.463C27.1317 128.449 27.1038 128.436 27.0752 128.428C27.0606 128.424 27.0455 128.423 27.0304 128.421C27.0197 128.418 27.0089 128.417 26.9981 128.417C26.9574 128.417 26.9195 128.427 26.8844 128.447C26.8824 128.448 26.8806 128.449 26.8788 128.45C26.8556 128.462 26.8342 128.48 26.8154 128.497C26.7902 128.522 26.7728 128.552 26.7632 128.586C26.7548 128.613 26.7536 128.64 26.7597 128.667C26.7608 128.694 26.7688 128.719 26.7837 128.743C26.8018 128.773 26.826 128.797 26.8564 128.815C26.8572 128.816 26.8578 128.816 26.8587 128.817C26.8598 128.818 26.8606 128.818 26.8617 128.819C26.8719 128.829 26.8839 128.836 26.8967 128.842C26.9007 128.851 26.9047 128.861 26.9087 128.87C26.9092 128.871 26.9099 128.872 26.9104 128.873C26.9112 128.875 26.9119 128.876 26.9127 128.877C26.9152 128.883 26.9173 128.889 26.9206 128.894C26.9325 128.909 26.9443 128.924 26.9562 128.94C26.9703 128.955 26.986 128.967 27.0035 128.976C27.0388 128.997 27.0768 129.007 27.1177 129.007C27.1585 129.007 27.1965 128.997 27.2318 128.976C27.2478 128.965 27.2636 128.952 27.2789 128.94C27.3072 128.911 27.3268 128.878 27.3376 128.839C27.338 128.837 27.3384 128.835 27.3389 128.833C27.3432 128.808 27.3471 128.783 27.3487 128.758C27.3518 128.706 27.3315 128.657 27.308 128.613Z" fill="#EE726B"/>
<path d="M35.1792 128.443C35.172 128.407 35.1551 128.373 35.1409 128.341C35.1348 128.327 35.1277 128.313 35.1191 128.301C35.0899 128.258 35.0636 128.224 35.0179 128.198C35.0114 128.195 35.0048 128.191 34.998 128.188C34.9396 128.162 34.9085 128.148 34.8443 128.144C34.8033 128.144 34.765 128.155 34.7296 128.175C34.7032 128.19 34.6819 128.209 34.6659 128.234C34.6458 128.256 34.6323 128.282 34.6253 128.311C34.6145 128.351 34.6145 128.391 34.6253 128.432C34.6339 128.453 34.6422 128.471 34.6517 128.49C34.6603 128.514 34.6688 128.537 34.6827 128.557C34.6847 128.56 34.6859 128.564 34.6877 128.567C34.6887 128.57 34.6902 128.574 34.691 128.577C34.7029 128.62 34.7246 128.658 34.7561 128.689C34.7876 128.72 34.8249 128.742 34.8677 128.754C34.8693 128.754 34.8717 128.755 34.8735 128.755C34.8739 128.755 34.8743 128.755 34.8748 128.756C34.8945 128.762 34.9143 128.763 34.934 128.763C34.9349 128.763 34.9364 128.763 34.9373 128.763C34.9367 128.763 34.9361 128.763 34.9355 128.763C34.9467 128.762 34.9578 128.762 34.9691 128.76C34.9862 128.76 35.0022 128.755 35.0174 128.748C35.0337 128.742 35.055 128.733 35.0627 128.729C35.0638 128.728 35.0648 128.727 35.066 128.726C35.0733 128.722 35.0798 128.716 35.0863 128.71C35.0955 128.703 35.1048 128.696 35.114 128.689C35.1387 128.666 35.1561 128.639 35.1664 128.607C35.1778 128.588 35.1835 128.566 35.1836 128.544C35.1913 128.51 35.1898 128.477 35.1792 128.443Z" fill="#EE726B"/>
<path d="M42.997 128.163C42.9943 128.137 42.9908 128.111 42.9865 128.085C42.9842 128.078 42.9608 128.021 42.9566 128.014C42.9557 128.013 42.9549 128.012 42.954 128.01C42.938 127.988 42.9209 127.967 42.9039 127.945C42.9019 127.943 42.9 127.941 42.8979 127.938C42.8936 127.934 42.889 127.929 42.8841 127.925C42.8634 127.907 42.8407 127.891 42.8189 127.874C42.8162 127.872 42.8134 127.87 42.8106 127.868C42.7987 127.86 42.7908 127.859 42.7727 127.851C42.7262 127.832 42.7473 127.838 42.6966 127.831C42.6823 127.829 42.6652 127.826 42.6496 127.825C42.6437 127.825 42.6377 127.825 42.6317 127.825C42.6303 127.825 42.6288 127.825 42.6274 127.825C42.6145 127.827 42.6018 127.828 42.5891 127.831C42.5638 127.831 42.5401 127.837 42.5182 127.85C42.4705 127.87 42.4789 127.866 42.4271 127.909C42.4264 127.909 42.4258 127.91 42.4251 127.91C42.4219 127.913 42.4189 127.916 42.416 127.919C42.3908 127.943 42.3728 127.97 42.3624 128.003C42.3461 128.034 42.3386 128.067 42.34 128.103C42.3431 128.126 42.3462 128.149 42.3493 128.172C42.3564 128.197 42.3678 128.22 42.3815 128.241C42.38 128.24 42.3785 128.238 42.3769 128.236C42.3794 128.239 42.3815 128.242 42.3834 128.246C42.3836 128.247 42.3839 128.247 42.3841 128.248C42.4007 128.278 42.4235 128.303 42.4515 128.322C42.4452 128.317 42.439 128.313 42.4328 128.308C42.4366 128.311 42.4401 128.314 42.4436 128.317C42.466 128.339 42.4694 128.351 42.5117 128.372C42.5129 128.373 42.5139 128.374 42.5151 128.374C42.5198 128.378 42.5249 128.382 42.5325 128.388C42.5414 128.398 42.5518 128.406 42.5637 128.411C42.5866 128.421 42.6096 128.431 42.6325 128.44C42.6382 128.441 42.644 128.442 42.6498 128.443C42.6692 128.447 42.6895 128.449 42.7223 128.453C42.7708 128.453 42.8161 128.44 42.858 128.416C42.8984 128.392 42.9304 128.36 42.9543 128.319C42.9669 128.296 42.9763 128.273 42.9827 128.249C42.984 128.246 42.9854 128.242 42.9868 128.239C42.9902 128.214 42.9935 128.188 42.997 128.163Z" fill="#EE726B"/>
<path d="M50.7376 127.911C50.7368 127.908 50.7358 127.904 50.7348 127.901C50.7313 127.888 50.7263 127.876 50.7199 127.864C50.7152 127.852 50.7101 127.84 50.7046 127.828C50.7031 127.825 50.7015 127.822 50.6998 127.82C50.6823 127.789 50.6568 127.759 50.6356 127.732C50.6332 127.729 50.6308 127.726 50.6284 127.723C50.609 127.709 50.5897 127.694 50.5704 127.679C50.5472 127.667 50.5236 127.658 50.4995 127.649C50.4938 127.646 50.4882 127.644 50.4822 127.643C50.4119 127.622 50.3249 127.629 50.262 127.67C50.2609 127.671 50.26 127.672 50.2589 127.672C50.2402 127.685 50.2223 127.699 50.205 127.714C50.1727 127.746 50.1503 127.785 50.1379 127.829C50.1377 127.83 50.1375 127.831 50.1373 127.833C50.1341 127.849 50.1279 127.891 50.1271 127.908C50.1249 127.963 50.146 128.012 50.1715 128.059C50.1858 128.085 50.2003 128.111 50.225 128.131C50.2302 128.135 50.2353 128.14 50.2403 128.144C50.2495 128.153 50.2569 128.162 50.2655 128.171C50.3016 128.209 50.3468 128.238 50.3976 128.252C50.4223 128.259 50.4472 128.263 50.4724 128.261C50.5101 128.263 50.5453 128.255 50.5779 128.238C50.6118 128.227 50.6412 128.208 50.666 128.181C50.6817 128.163 50.6962 128.144 50.7097 128.125C50.7347 128.081 50.7473 128.035 50.7474 127.985C50.7443 127.96 50.741 127.936 50.7376 127.911Z" fill="#EE726B"/>
<path d="M22.675 108.138C22.6666 108.119 22.6567 108.102 22.6452 108.085C22.6308 108.064 22.6146 108.043 22.5986 108.024C22.5822 108.003 22.5602 107.988 22.5372 107.975C22.4814 107.945 22.4162 107.916 22.3517 107.938C22.3373 107.944 22.323 107.95 22.3086 107.956C22.2875 107.968 22.2707 107.983 22.2579 108.003C22.2467 108.014 22.239 108.027 22.2347 108.043C22.2234 108.064 22.2182 108.088 22.2192 108.112C22.2159 108.151 22.2322 108.188 22.252 108.22C22.2565 108.227 22.2609 108.235 22.2648 108.243C22.2747 108.262 22.286 108.277 22.2999 108.294C22.3092 108.307 22.3184 108.32 22.3259 108.335C22.3381 108.358 22.3475 108.378 22.3694 108.397C22.3766 108.403 22.3839 108.409 22.3908 108.416C22.4395 108.46 22.5041 108.481 22.5693 108.463C22.6279 108.447 22.6846 108.396 22.6974 108.335C22.7025 108.31 22.7056 108.285 22.708 108.26C22.7125 108.215 22.6933 108.177 22.675 108.138Z" fill="white"/>
<path d="M20.195 110.882C20.1895 110.858 20.1788 110.838 20.1631 110.821C20.1504 110.801 20.1338 110.786 20.113 110.775C20.0851 110.759 20.0551 110.751 20.0228 110.75C19.9915 110.754 19.96 110.757 19.9291 110.764C19.8949 110.771 19.8637 110.785 19.8353 110.806C19.8283 110.811 19.8211 110.816 19.814 110.821C19.81 110.823 19.806 110.826 19.802 110.829C19.785 110.84 19.7637 110.854 19.7495 110.869C19.743 110.875 19.7373 110.883 19.7314 110.891C19.7202 110.905 19.7089 110.92 19.6977 110.935C19.6905 110.952 19.6832 110.969 19.676 110.986C19.6694 111.006 19.6682 111.03 19.6696 111.053C19.6694 111.056 19.6683 111.059 19.6682 111.063C19.6681 111.066 19.6695 111.07 19.6696 111.073C19.6687 111.085 19.6684 111.096 19.6695 111.108C19.6695 111.117 19.6707 111.125 19.6729 111.133C19.673 111.134 19.673 111.135 19.6731 111.135V111.134C19.6786 111.155 19.6896 111.173 19.7055 111.188C19.7046 111.187 19.7038 111.187 19.7029 111.186C19.7043 111.188 19.7058 111.189 19.7072 111.19C19.7108 111.193 19.7141 111.196 19.718 111.198C19.7305 111.208 19.7437 111.217 19.758 111.222C19.7589 111.223 19.7597 111.224 19.7607 111.224C19.774 111.23 19.7907 111.238 19.8052 111.243C19.8217 111.249 19.8388 111.253 19.8553 111.255C19.8872 111.26 19.914 111.26 19.9465 111.25C19.9509 111.248 19.9552 111.247 19.9595 111.245C19.9784 111.238 20.0032 111.23 20.0205 111.22C20.0421 111.207 20.0619 111.188 20.0812 111.172C20.0886 111.165 20.0958 111.159 20.1029 111.153C20.1094 111.147 20.1159 111.141 20.122 111.135C20.1539 111.104 20.1691 111.066 20.1837 111.025C20.1893 111.009 20.1927 110.993 20.1952 110.977C20.2035 110.945 20.2035 110.913 20.195 110.882Z" fill="white"/>
<path d="M22.4892 112.513C22.4801 112.485 22.4651 112.454 22.4506 112.427C22.436 112.4 22.4177 112.368 22.3955 112.348C22.3727 112.327 22.346 112.31 22.319 112.295C22.263 112.264 22.1953 112.268 22.1447 112.307C22.1225 112.324 22.1072 112.344 22.0963 112.37C22.0838 112.399 22.0757 112.441 22.0884 112.472C22.1003 112.501 22.1065 112.535 22.1228 112.562C22.1337 112.58 22.1466 112.596 22.1569 112.615C22.1667 112.632 22.1745 112.65 22.1863 112.667C22.1921 112.675 22.1975 112.683 22.2029 112.691C22.2116 112.705 22.2221 112.721 22.2338 112.732C22.2368 112.735 22.2407 112.737 22.2441 112.74C22.2517 112.746 22.2592 112.752 22.2665 112.758C22.2764 112.767 22.2851 112.775 22.2971 112.783C22.3131 112.792 22.325 112.795 22.3386 112.797C22.3551 112.799 22.3715 112.801 22.388 112.795C22.4264 112.783 22.4531 112.755 22.4708 112.72C22.4893 112.682 22.5035 112.648 22.5016 112.605C22.5001 112.575 22.4982 112.542 22.4892 112.513Z" fill="white"/>
<path d="M22.359 112.8C22.3508 112.799 22.3452 112.798 22.3389 112.797C22.3359 112.796 22.3331 112.796 22.3301 112.796C22.3398 112.797 22.3494 112.798 22.359 112.8Z" fill="white"/>
<path d="M25.8616 110.133C25.8602 110.128 25.8584 110.123 25.8567 110.118C25.8431 110.08 25.8286 110.046 25.7995 110.016C25.7752 109.991 25.7466 109.97 25.7189 109.949C25.7017 109.936 25.6839 109.923 25.6651 109.913C25.6438 109.901 25.6193 109.888 25.5968 109.882C25.5725 109.875 25.5477 109.874 25.523 109.875C25.5015 109.876 25.4731 109.878 25.4545 109.883C25.418 109.893 25.3997 109.91 25.3709 109.933C25.3527 109.951 25.3402 109.973 25.3333 109.998C25.3264 110.024 25.3264 110.049 25.3333 110.075C25.3344 110.079 25.3354 110.082 25.3364 110.085C25.3466 110.117 25.3613 110.141 25.3834 110.165C25.3915 110.174 25.3993 110.184 25.4067 110.193C25.4059 110.192 25.405 110.191 25.4042 110.19C25.4069 110.193 25.4093 110.196 25.4122 110.199C25.4242 110.211 25.4414 110.224 25.4563 110.232C25.4632 110.236 25.4701 110.24 25.4768 110.244C25.4821 110.247 25.487 110.251 25.4921 110.254C25.5033 110.264 25.5146 110.273 25.5251 110.284C25.5627 110.322 25.6399 110.364 25.6921 110.361C25.6955 110.36 25.699 110.36 25.7025 110.36C25.7336 110.356 25.7574 110.352 25.7846 110.338C25.8262 110.316 25.8485 110.274 25.8624 110.231L25.8687 110.184C25.8677 110.167 25.8653 110.15 25.8616 110.133Z" fill="white"/>
<path d="M28.6042 108.395C28.5967 108.37 28.582 108.349 28.5612 108.333C28.5395 108.316 28.5164 108.309 28.4886 108.307C28.4758 108.307 28.4634 108.309 28.4512 108.312C28.4509 108.312 28.4506 108.312 28.4506 108.312C28.4431 108.312 28.4355 108.313 28.4281 108.315C28.4136 108.315 28.4001 108.318 28.3877 108.325C28.3741 108.329 28.3623 108.336 28.3523 108.346C28.3459 108.351 28.3395 108.356 28.3332 108.361C28.3323 108.362 28.3314 108.362 28.3304 108.363C28.3136 108.375 28.2964 108.387 28.2784 108.398C28.2661 108.405 28.2516 108.416 28.241 108.426C28.2381 108.429 28.236 108.431 28.2335 108.434C28.2301 108.438 28.2266 108.442 28.2231 108.447C28.2149 108.456 28.2064 108.465 28.1976 108.474C28.1899 108.484 28.1821 108.494 28.1745 108.504C28.1637 108.521 28.1578 108.539 28.157 108.559C28.1534 108.572 28.1534 108.585 28.157 108.598C28.1578 108.618 28.1637 108.636 28.1745 108.653C28.1883 108.675 28.2061 108.692 28.2275 108.706C28.2444 108.717 28.2627 108.723 28.2824 108.724C28.302 108.728 28.3217 108.727 28.3412 108.721C28.3593 108.719 28.3771 108.715 28.3948 108.711C28.4387 108.701 28.4733 108.671 28.5065 108.642C28.52 108.63 28.5329 108.618 28.5451 108.605C28.5511 108.598 28.5569 108.592 28.5624 108.585C28.5823 108.565 28.596 108.542 28.6037 108.515C28.6072 108.5 28.6092 108.485 28.6094 108.469C28.6095 108.465 28.6077 108.461 28.6074 108.456C28.61 108.436 28.6102 108.416 28.6042 108.395Z" fill="white"/>
<path d="M29.5453 111.937C29.5345 111.904 29.5182 111.872 29.4916 111.849C29.4872 111.845 29.4829 111.842 29.4785 111.838C29.4584 111.822 29.4378 111.806 29.4168 111.79C29.3881 111.77 29.3514 111.763 29.3166 111.761C29.3115 111.76 29.3063 111.76 29.3013 111.76C29.2915 111.76 29.2819 111.76 29.2722 111.76C29.217 111.762 29.1664 111.789 29.1381 111.837C29.1093 111.886 29.1113 111.945 29.1381 111.994C29.144 112.005 29.1495 112.016 29.1547 112.027C29.1561 112.03 29.1573 112.033 29.1587 112.036C29.1682 112.048 29.1777 112.061 29.1873 112.073C29.1949 112.081 29.2045 112.087 29.2138 112.094C29.247 112.121 29.2776 112.152 29.3216 112.161C29.3539 112.17 29.386 112.17 29.4183 112.161C29.4491 112.153 29.4759 112.137 29.4986 112.115C29.5429 112.07 29.5651 111.998 29.5453 111.937Z" fill="white"/>
<path d="M27.4058 112.445C27.4049 112.425 27.399 112.406 27.3881 112.389C27.3679 112.355 27.3375 112.334 27.3002 112.321C27.2462 112.302 27.1926 112.329 27.1466 112.355C27.1157 112.373 27.0976 112.398 27.0761 112.424C27.0693 112.432 27.0625 112.441 27.0558 112.449C27.0443 112.463 27.0318 112.478 27.0224 112.493C27.0142 112.507 27.0071 112.529 26.9999 112.547C26.9899 112.571 26.9845 112.584 26.9844 112.615C26.9841 112.676 27.0165 112.735 27.0692 112.766C27.1097 112.79 27.1557 112.794 27.2005 112.784C27.233 112.776 27.2601 112.757 27.2836 112.735C27.2902 112.728 27.2968 112.722 27.3032 112.715C27.3291 112.689 27.3449 112.659 27.3623 112.627C27.3667 112.619 27.3712 112.611 27.3757 112.603C27.3851 112.586 27.3935 112.568 27.3984 112.549C27.4023 112.534 27.4035 112.513 27.4054 112.496C27.4063 112.487 27.4076 112.478 27.4083 112.469C27.4091 112.461 27.4084 112.453 27.4058 112.445Z" fill="white"/>
<path d="M32.8532 108.968C32.8502 108.959 32.8472 108.95 32.8442 108.94C32.8406 108.929 32.8366 108.92 32.832 108.909C32.8254 108.889 32.814 108.871 32.7979 108.856C32.7958 108.853 32.7935 108.851 32.7912 108.848C32.7834 108.839 32.7755 108.83 32.7675 108.821C32.7599 108.813 32.7513 108.806 32.7423 108.799C32.724 108.785 32.7057 108.771 32.6873 108.757C32.6728 108.745 32.6592 108.733 32.6432 108.724C32.6276 108.715 32.6061 108.708 32.5883 108.701C32.5779 108.696 32.5676 108.692 32.5573 108.688C32.5431 108.686 32.5289 108.684 32.5147 108.682C32.5004 108.684 32.4863 108.686 32.472 108.688C32.4382 108.697 32.4099 108.718 32.3887 108.745C32.3788 108.755 32.3719 108.767 32.3681 108.781C32.3609 108.793 32.3572 108.807 32.3572 108.821C32.3529 108.853 32.3558 108.896 32.3762 108.923C32.383 108.932 32.3898 108.941 32.3965 108.95C32.4112 108.97 32.4244 108.992 32.4438 109.007C32.4622 109.022 32.4804 109.036 32.4988 109.05C32.518 109.065 32.5358 109.082 32.5575 109.093C32.5681 109.099 32.5788 109.104 32.5895 109.11C32.6049 109.117 32.6215 109.126 32.638 109.131C32.6539 109.136 32.6757 109.136 32.6939 109.138C32.7034 109.138 32.7129 109.139 32.7224 109.139C32.8082 109.145 32.8795 109.048 32.8532 108.968Z" fill="white"/>
<path d="M35.1641 111.203C35.1618 111.191 35.1603 111.179 35.1573 111.168C35.1494 111.138 35.1306 111.112 35.109 111.091C35.0886 111.072 35.064 111.06 35.036 111.056C35.0055 111.052 34.9832 111.059 34.955 111.071C34.9156 111.089 34.8918 111.123 34.8697 111.159C34.8491 111.191 34.8393 111.225 34.8307 111.262C34.8251 111.286 34.8196 111.309 34.814 111.333C34.8049 111.371 34.8035 111.409 34.8142 111.447C34.8173 111.458 34.8206 111.47 34.8249 111.481C34.8321 111.507 34.8451 111.529 34.8637 111.548C34.8826 111.567 34.9049 111.58 34.9305 111.587C34.9806 111.601 35.0418 111.587 35.0777 111.548C35.0933 111.531 35.1066 111.511 35.1209 111.493C35.1355 111.474 35.1472 111.449 35.1505 111.426C35.1539 111.4 35.1574 111.375 35.1608 111.35C35.1625 111.338 35.1642 111.326 35.1658 111.314C35.1683 111.296 35.1726 111.278 35.1723 111.259C35.172 111.24 35.1677 111.221 35.1641 111.203Z" fill="white"/>
<path d="M32.7646 111.93C32.7633 111.92 32.7619 111.91 32.7606 111.901C32.7541 111.877 32.7397 111.857 32.7206 111.842C32.6837 111.814 32.6373 111.813 32.5964 111.834C32.592 111.836 32.5876 111.838 32.5833 111.84C32.5636 111.844 32.5453 111.849 32.5266 111.861C32.5155 111.868 32.5043 111.875 32.4932 111.882C32.4716 111.896 32.4498 111.91 32.4317 111.928C32.422 111.938 32.413 111.948 32.4038 111.958C32.3945 111.968 32.3852 111.978 32.3759 111.989C32.3713 111.994 32.3665 111.999 32.362 112.004C32.3512 112.015 32.3415 112.028 32.3328 112.041C32.3266 112.055 32.3204 112.07 32.3145 112.085C32.3048 112.108 32.2969 112.126 32.2969 112.154C32.2969 112.174 32.2981 112.197 32.3034 112.214C32.3153 112.253 32.3475 112.292 32.3896 112.3C32.4085 112.304 32.4277 112.306 32.4469 112.305C32.4602 112.303 32.4735 112.301 32.4867 112.299C32.4987 112.294 32.5106 112.289 32.5226 112.284C32.5255 112.283 32.5284 112.281 32.5313 112.28C32.5372 112.277 32.5431 112.274 32.5489 112.271C32.5851 112.252 32.6112 112.219 32.6382 112.189C32.6474 112.179 32.6569 112.169 32.666 112.159C32.6841 112.138 32.6969 112.118 32.7091 112.095C32.7153 112.083 32.7215 112.071 32.7277 112.059C32.7395 112.036 32.7469 112.013 32.7493 111.987C32.753 111.978 32.7567 111.969 32.7604 111.96L32.7646 111.93Z" fill="white"/>
<path d="M37.1541 109.419C37.148 109.399 37.1376 109.379 37.1282 109.36C37.1241 109.352 37.1201 109.344 37.116 109.335C37.1062 109.316 37.094 109.297 37.0776 109.282C37.071 109.276 37.064 109.271 37.0571 109.265C37.045 109.255 37.033 109.244 37.0193 109.237C37.007 109.23 36.9899 109.224 36.9756 109.218C36.9266 109.198 36.8668 109.216 36.83 109.252C36.7855 109.295 36.7781 109.368 36.7964 109.425C36.803 109.446 36.8091 109.467 36.8199 109.486C36.8306 109.505 36.8459 109.521 36.8602 109.538C36.8795 109.56 36.8982 109.586 36.9258 109.598C36.9334 109.602 36.9411 109.605 36.9486 109.608C36.9607 109.613 36.9728 109.618 36.9849 109.623C37.0033 109.629 37.0216 109.63 37.04 109.626C37.0466 109.625 37.0532 109.624 37.0595 109.623C37.0823 109.617 37.1021 109.605 37.1189 109.588C37.1363 109.571 37.1474 109.55 37.1549 109.527C37.1601 109.511 37.1599 109.496 37.1599 109.48C37.1599 109.46 37.1604 109.439 37.1541 109.419Z" fill="white"/>
<path d="M39.9429 111.3C39.9348 111.289 39.9268 111.279 39.9187 111.268C39.9046 111.253 39.8881 111.243 39.8689 111.236C39.8568 111.229 39.8438 111.226 39.8299 111.226C39.8162 111.222 39.8025 111.222 39.7888 111.226C39.7748 111.226 39.7618 111.229 39.7498 111.236C39.7353 111.241 39.7228 111.249 39.7112 111.259C39.7092 111.26 39.7072 111.262 39.7051 111.263C39.6799 111.28 39.6672 111.292 39.6524 111.311C39.6403 111.326 39.6264 111.339 39.6119 111.351C39.5945 111.363 39.5771 111.374 39.5615 111.389C39.5559 111.394 39.5503 111.4 39.5445 111.405C39.5231 111.424 39.5042 111.456 39.4979 111.484C39.4915 111.512 39.4891 111.544 39.498 111.572C39.5066 111.599 39.5197 111.626 39.5407 111.645C39.5626 111.666 39.5873 111.681 39.6165 111.689C39.6507 111.699 39.679 111.695 39.7131 111.688C39.7207 111.687 39.7284 111.685 39.736 111.683C39.7792 111.67 39.8138 111.641 39.8475 111.613C39.8607 111.602 39.873 111.589 39.8841 111.576C39.903 111.554 39.9221 111.53 39.9375 111.505C39.9601 111.467 39.9657 111.421 39.9639 111.378C39.963 111.351 39.9564 111.323 39.9429 111.3Z" fill="white"/>
<path d="M40.1853 109.341C40.1853 109.306 40.1766 109.286 40.1626 109.256C40.1581 109.246 40.1535 109.236 40.1488 109.226C40.1433 109.215 40.1377 109.203 40.1322 109.191C40.1221 109.17 40.1071 109.153 40.0921 109.135C40.0849 109.126 40.0776 109.117 40.0704 109.108C40.0567 109.092 40.0391 109.08 40.0209 109.068C39.9975 109.053 39.9678 109.043 39.9398 109.044C39.9101 109.045 39.8756 109.052 39.8555 109.076C39.843 109.091 39.8313 109.106 39.8236 109.124C39.8138 109.148 39.8109 109.172 39.8104 109.198C39.8099 109.23 39.8207 109.264 39.8306 109.294C39.8414 109.328 39.8586 109.356 39.8762 109.386C39.8817 109.395 39.8869 109.405 39.8926 109.414C39.9133 109.446 39.9445 109.472 39.9804 109.485C39.9861 109.489 39.9916 109.492 39.9972 109.496C40.0335 109.518 40.0822 109.517 40.1186 109.496C40.1564 109.474 40.1764 109.435 40.1781 109.392C40.1782 109.39 40.1782 109.387 40.1783 109.385C40.1829 109.37 40.1853 109.354 40.1853 109.341Z" fill="white"/>
<path d="M42.5835 108.574C42.5748 108.559 42.5628 108.546 42.5512 108.533C42.5499 108.531 42.5485 108.53 42.5471 108.528C42.5305 108.511 42.5109 108.5 42.4884 108.494C42.4745 108.49 42.4608 108.489 42.447 108.49C42.4446 108.49 42.4422 108.49 42.4399 108.49C42.4252 108.492 42.4056 108.494 42.3914 108.497C42.361 108.504 42.334 108.523 42.3123 108.545C42.3042 108.553 42.2954 108.56 42.2865 108.567C42.2802 108.572 42.2739 108.577 42.2687 108.582C42.2576 108.593 42.2488 108.606 42.24 108.619C42.2324 108.628 42.2249 108.637 42.2166 108.646C42.1934 108.669 42.1773 108.697 42.1684 108.729C42.167 108.734 42.1672 108.739 42.1662 108.745C42.1657 108.746 42.1648 108.747 42.1644 108.749C42.1562 108.779 42.1562 108.81 42.1644 108.84C42.1697 108.863 42.1799 108.882 42.1951 108.899C42.2072 108.917 42.2233 108.932 42.2434 108.943C42.2702 108.959 42.2991 108.966 42.3301 108.966C42.3319 108.966 42.3335 108.966 42.3352 108.966C42.3483 108.967 42.3612 108.966 42.3743 108.963C42.3913 108.963 42.407 108.959 42.4217 108.95C42.4451 108.943 42.4651 108.93 42.4821 108.911C42.497 108.899 42.5109 108.886 42.5238 108.872C42.5401 108.854 42.5579 108.834 42.5696 108.814C42.5816 108.793 42.5891 108.77 42.5946 108.747C42.5967 108.738 42.5983 108.73 42.5997 108.721C42.6026 108.703 42.6073 108.68 42.6074 108.665C42.6078 108.632 42.6004 108.603 42.5835 108.574Z" fill="white"/>
<path d="M42.9964 111.19C42.9868 111.154 42.9641 111.128 42.9413 111.1C42.9335 111.091 42.926 111.081 42.9178 111.072C42.9026 111.054 42.8802 111.042 42.8615 111.027C42.8435 111.013 42.8262 110.997 42.8055 110.988C42.765 110.97 42.7215 110.944 42.6768 110.946C42.6404 110.947 42.5993 110.961 42.5739 110.989C42.5663 110.998 42.5588 111.008 42.5511 111.018C42.5379 111.041 42.5314 111.065 42.5312 111.091C42.5355 111.124 42.5366 111.144 42.5543 111.173C42.5573 111.178 42.5605 111.183 42.5636 111.188C42.5692 111.196 42.5747 111.205 42.5801 111.214C42.5936 111.235 42.6087 111.254 42.6267 111.271C42.6345 111.279 42.6423 111.286 42.65 111.294C42.6764 111.319 42.7048 111.34 42.7361 111.359C42.7561 111.37 42.7754 111.381 42.7987 111.387C42.8238 111.394 42.8423 111.393 42.8658 111.392C42.9008 111.39 42.9389 111.378 42.9636 111.351C42.9869 111.326 43.0077 111.289 43.0041 111.254C43.0021 111.233 43.0015 111.209 42.9964 111.19Z" fill="white"/>
<path d="M44.7023 110.264C44.7006 110.252 44.6988 110.239 44.6971 110.226C44.6922 110.215 44.6874 110.203 44.6826 110.192C44.6752 110.182 44.6676 110.172 44.6602 110.163C44.6471 110.149 44.6317 110.139 44.6138 110.133C44.6026 110.126 44.5905 110.123 44.5776 110.123C44.5648 110.12 44.5521 110.12 44.5393 110.123C44.5264 110.123 44.5143 110.126 44.503 110.133C44.4852 110.139 44.4698 110.149 44.4567 110.163C44.4502 110.169 44.4433 110.175 44.4361 110.181C44.4189 110.195 44.4045 110.209 44.3916 110.232C44.3906 110.233 44.3894 110.235 44.3884 110.236C44.3832 110.242 44.3782 110.248 44.3725 110.253L44.3477 110.285C44.3424 110.298 44.3371 110.31 44.3317 110.323C44.3296 110.331 44.3261 110.359 44.3262 110.367C44.3262 110.371 44.3288 110.39 44.3307 110.401C44.3311 110.408 44.3319 110.414 44.3337 110.421C44.339 110.44 44.3513 110.459 44.3661 110.473C44.3772 110.483 44.3895 110.492 44.4019 110.5C44.4137 110.509 44.4278 110.514 44.4416 110.517C44.4549 110.523 44.4691 110.525 44.4843 110.523C44.5062 110.524 44.5265 110.52 44.5453 110.51C44.5575 110.505 44.566 110.501 44.5759 110.494C44.6022 110.475 44.6292 110.455 44.6497 110.429C44.6593 110.417 44.6701 110.405 44.6783 110.392C44.6969 110.364 44.6979 110.339 44.7018 110.306C44.7023 110.302 44.7027 110.297 44.7029 110.293C44.7036 110.283 44.7033 110.274 44.7023 110.264Z" fill="white"/>
<path d="M46.1966 111.877C46.1932 111.863 46.1874 111.849 46.1792 111.837C46.1749 111.83 46.1702 111.823 46.1657 111.817C46.1649 111.816 46.1643 111.815 46.1636 111.814C46.1483 111.788 46.1276 111.767 46.1016 111.752C46.0984 111.749 46.0952 111.747 46.0919 111.745C46.0853 111.74 46.0787 111.735 46.0723 111.731C46.0474 111.714 46.0265 111.698 45.9955 111.69C45.9696 111.683 45.94 111.684 45.913 111.682C45.8878 111.682 45.8644 111.688 45.8425 111.701C45.8263 111.71 45.8133 111.722 45.8034 111.737C45.7911 111.75 45.7828 111.766 45.7785 111.784C45.7719 111.809 45.7719 111.834 45.7785 111.859C45.7844 111.878 45.7904 111.897 45.7983 111.916C45.8084 111.94 45.8167 111.957 45.8379 111.976C45.8408 111.978 45.8439 111.981 45.847 111.984C45.853 111.989 45.8591 111.994 45.8651 111.999C45.8712 112.005 45.8772 112.01 45.8833 112.015C45.8863 112.018 45.8893 112.02 45.8924 112.023C45.9081 112.04 45.9267 112.052 45.9481 112.059C45.9559 112.062 45.9639 112.066 45.9721 112.069C45.9792 112.071 45.9862 112.074 45.9932 112.076C46.0219 112.086 46.054 112.084 46.0832 112.078C46.0971 112.073 46.1105 112.067 46.1233 112.06C46.1419 112.05 46.1567 112.037 46.1679 112.02C46.182 112.004 46.1915 111.986 46.1965 111.965C46.1984 111.958 46.1995 111.95 46.1997 111.942C46.2042 111.921 46.2033 111.899 46.1966 111.877Z" fill="white"/>
<path d="M46.361 108.357C46.3299 108.349 46.3013 108.356 46.2707 108.36C46.282 108.359 46.2931 108.357 46.3042 108.356C46.29 108.358 46.2739 108.358 46.26 108.362C46.247 108.366 46.2333 108.373 46.2216 108.379C46.2127 108.385 46.2038 108.39 46.1946 108.395C46.1797 108.403 46.1642 108.41 46.1487 108.417C46.1391 108.42 46.1296 108.425 46.1209 108.43C46.1139 108.435 46.107 108.439 46.1 108.444C46.0852 108.453 46.0701 108.462 46.0546 108.47C46.0337 108.481 46.0149 108.492 45.9998 108.511C45.9918 108.52 45.9822 108.53 45.9759 108.54C45.9597 108.568 45.9629 108.597 45.9751 108.625C45.984 108.645 46.0059 108.658 46.0252 108.667C46.0465 108.678 46.0672 108.685 46.0911 108.685C46.0984 108.685 46.1057 108.685 46.1129 108.684C46.1273 108.683 46.1417 108.682 46.1559 108.68C46.1799 108.677 46.2071 108.675 46.2307 108.668C46.2672 108.658 46.3046 108.636 46.3372 108.616C46.3667 108.598 46.3934 108.578 46.412 108.548C46.4282 108.521 46.44 108.494 46.4415 108.462C46.4434 108.415 46.4058 108.369 46.361 108.357Z" fill="white"/>
<path d="M51.8031 108.498C51.7943 108.481 51.7848 108.464 51.7738 108.448C51.7531 108.417 51.7337 108.398 51.7043 108.378C51.7005 108.375 51.6965 108.372 51.6926 108.37C51.6853 108.365 51.6779 108.361 51.6704 108.356C51.6627 108.352 51.6549 108.348 51.6471 108.344C51.6097 108.324 51.5683 108.317 51.527 108.328C51.5063 108.333 51.4725 108.349 51.4587 108.367C51.4534 108.374 51.4383 108.392 51.4339 108.399C51.4165 108.429 51.4113 108.463 51.4154 108.497C51.4154 108.496 51.4153 108.496 51.4153 108.496C51.4154 108.496 51.4154 108.497 51.4154 108.497C51.4155 108.498 51.4153 108.498 51.4154 108.499C51.4155 108.5 51.4157 108.501 51.4158 108.502C51.4171 108.514 51.4182 108.525 51.419 108.537C51.42 108.554 51.4217 108.575 51.426 108.592C51.4299 108.606 51.438 108.622 51.4447 108.637C51.4496 108.65 51.4547 108.662 51.4589 108.675C51.4605 108.68 51.462 108.685 51.4638 108.69C51.4763 108.727 51.4927 108.752 51.5175 108.781C51.5226 108.787 51.5279 108.792 51.533 108.799C51.5651 108.838 51.6171 108.859 51.6672 108.859C51.715 108.859 51.7561 108.839 51.7907 108.808C51.8378 108.765 51.8461 108.701 51.8487 108.641C51.851 108.59 51.8258 108.543 51.8031 108.498Z" fill="white"/>
<path d="M49.5514 108.906C49.5351 108.843 49.4901 108.807 49.4353 108.782C49.3986 108.766 49.3885 108.761 49.3537 108.757C49.3401 108.755 49.3272 108.753 49.3137 108.752C49.2994 108.751 49.2852 108.75 49.2709 108.749C49.2143 108.745 49.1559 108.751 49.1067 108.783C49.0972 108.789 49.0876 108.795 49.0783 108.801C49.0156 108.843 48.9798 108.915 48.9999 108.991C49.0129 109.04 49.0453 109.073 49.0861 109.099C49.0955 109.105 49.1049 109.112 49.1145 109.118C49.1666 109.149 49.2272 109.149 49.2852 109.145C49.2982 109.144 49.3113 109.143 49.3244 109.142C49.345 109.141 49.3665 109.14 49.3863 109.134C49.4049 109.129 49.4251 109.118 49.4437 109.109C49.4671 109.099 49.4875 109.089 49.5062 109.069C49.5475 109.024 49.567 108.966 49.5514 108.906Z" fill="white"/>
<path d="M49.4325 111.771C49.4271 111.758 49.4217 111.746 49.4163 111.733C49.3985 111.703 49.3713 111.681 49.3396 111.667C49.3122 111.656 49.2858 111.652 49.2564 111.656C49.22 111.661 49.1922 111.676 49.1643 111.7C49.1407 111.721 49.1197 111.742 49.1067 111.772C49.0982 111.791 49.0894 111.811 49.0806 111.83C49.0643 111.865 49.0559 111.883 49.0548 111.923C49.0547 111.928 49.0547 111.932 49.0547 111.937C49.0543 111.959 49.0561 111.98 49.0605 112.002C49.065 112.024 49.0689 112.046 49.0793 112.065C49.08 112.072 49.0806 112.078 49.0809 112.085C49.0821 112.111 49.1041 112.126 49.129 112.122C49.1379 112.12 49.1466 112.117 49.1554 112.115C49.1819 112.117 49.2088 112.109 49.2339 112.101C49.2546 112.094 49.2734 112.085 49.2916 112.073C49.2956 112.071 49.2997 112.068 49.3037 112.066C49.3343 112.046 49.3505 112.028 49.3702 111.997C49.3817 111.98 49.393 111.962 49.4042 111.944C49.4069 111.94 49.4097 111.935 49.412 111.931C49.4287 111.901 49.4337 111.871 49.4366 111.837C49.4372 111.829 49.4377 111.821 49.4382 111.814C49.4362 111.8 49.4343 111.785 49.4325 111.771Z" fill="white"/>
<path d="M52.4528 111.653C52.4518 111.645 52.4517 111.637 52.4499 111.629C52.4448 111.606 52.4355 111.591 52.4243 111.574C52.4096 111.551 52.3939 111.527 52.3728 111.51C52.3514 111.491 52.3301 111.473 52.3087 111.455C52.2876 111.437 52.2662 111.418 52.242 111.405C52.2305 111.398 52.2188 111.392 52.2073 111.386C52.2014 111.382 52.1957 111.379 52.1898 111.376C52.1529 111.358 52.1343 111.353 52.093 111.35C52.0819 111.349 52.0708 111.349 52.0596 111.348C52.0123 111.346 51.9679 111.372 51.9401 111.408C51.9096 111.448 51.9021 111.492 51.9129 111.541C51.9152 111.552 51.9173 111.563 51.9201 111.574C51.9307 111.614 51.9544 111.643 51.98 111.675C51.9971 111.696 52.0129 111.717 52.0338 111.735C52.0543 111.752 52.0749 111.77 52.0954 111.787C52.1159 111.805 52.1357 111.823 52.1605 111.833C52.173 111.839 52.1856 111.844 52.1981 111.849C52.2225 111.86 52.2471 111.864 52.2729 111.863C52.3313 111.871 52.3903 111.851 52.4273 111.803C52.4468 111.778 52.4555 111.753 52.4596 111.723C52.4629 111.698 52.4598 111.675 52.4528 111.653Z" fill="white"/>
<path d="M15.7773 106.192L16.0527 107.421L56.4901 105.377L15.7773 106.192Z" fill="#FFE38F"/>
<path d="M22.4102 104.137L42.4365 103.993L42.3839 103.492L22.4102 104.137Z" fill="#FFE38F"/>
<path d="M21.3008 130.833L52.4777 129.157L52.3672 129.811L21.3008 130.833Z" fill="#FFE38F"/>
<path d="M28.5313 133.656L28.4003 132.974L49.3334 132.814L28.5313 133.656Z" fill="#FFE38F"/>
<path d="M58.2981 114.785L58.1636 116.138L14.0547 115.205L58.2981 114.785Z" fill="#3A3D56"/>
<path d="M22.4095 104.137L22.3438 104.819L45.7736 104.987L22.4095 104.137Z" fill="#3A3D56"/>
<path d="M32.4961 101.907L32.8146 102.531L40.9616 103.264L32.4961 101.907Z" fill="#3A3D56"/>
<path d="M49.3337 132.814L32.2305 131.605L49.4408 132.209L49.3337 132.814Z" fill="#3A3D56"/>
<path d="M38.0762 136.231L30.0682 134.07L37.8363 135.531L38.0762 136.231Z" fill="#3A3D56"/>
<path d="M30.9605 101.932L30.4756 101.841L30.1259 102.19L30.0624 101.7L29.6232 101.475L30.0689 101.264L30.1472 100.777L30.4863 101.135L30.9738 101.059L30.7376 101.492L30.9605 101.932Z" fill="#FCC005"/>
<path d="M44.3338 101.709L44.2718 100.915L43.582 100.516L44.3186 100.211L44.4852 99.4315L45.0024 100.038L45.7953 99.9555L45.3784 100.635L45.7017 101.363L44.9268 101.177L44.3338 101.709Z" fill="#FCC005"/>
<path d="M14.7631 108.516L14.2007 108.424L13.8064 108.835L13.7199 108.272L13.207 108.024L13.7159 107.768L13.7933 107.204L14.1942 107.608L14.7549 107.508L14.4939 108.014L14.7631 108.516Z" fill="#FCC005"/>
<path d="M60.0082 109.659L59.7703 108.731L58.8711 108.401L59.68 107.888L59.7161 106.931L60.4539 107.541L61.3755 107.28L61.0226 108.17L61.5561 108.966L60.6001 108.906L60.0082 109.659Z" fill="#FCC005"/>
<path d="M59.9352 111.442L59.3841 111.329L58.9785 111.718L58.916 111.159L58.4199 110.894L58.9322 110.662L59.0313 110.108L59.4105 110.523L59.9678 110.447L59.6898 110.936L59.9352 111.442Z" fill="#FCC005"/>
<path d="M14.0213 119.63L13.2037 119.868L12.9366 120.677L12.4572 119.973L11.6055 119.969L12.1268 119.295L11.8675 118.484L12.6692 118.772L13.3606 118.274L13.3347 119.126L14.0213 119.63Z" fill="#FCC005"/>
<path d="M16.1752 129.198L15.5794 129.217L15.2572 129.718L15.055 129.158L14.4785 129.006L14.9494 128.641L14.9152 128.046L15.4084 128.38L15.9638 128.164L15.7977 128.736L16.1752 129.198Z" fill="#FCC005"/>
<path d="M18.5532 131.427L17.6684 131.863L17.5265 132.84L16.8378 132.133L15.8652 132.3L16.3245 131.427L15.8652 130.553L16.8378 130.72L17.5265 130.014L17.6684 130.99L18.5532 131.427Z" fill="#FCC005"/>
<path d="M34.1547 138.262L33.14 138.212L32.5241 139.02L32.2575 138.04L31.2988 137.704L32.1488 137.147L32.1722 136.132L32.9641 136.768L33.9373 136.476L33.5768 137.426L34.1547 138.262Z" fill="#FCC005"/>
<path d="M52.0605 134.695L51.286 135.133L51.2071 136.019L50.5519 135.417L49.685 135.616L50.0546 134.807L49.5977 134.044L50.4812 134.145L51.0658 133.475L51.2423 134.347L52.0605 134.695Z" fill="#FCC005"/>
<path d="M57.855 128.752L57.3045 128.529L56.8084 128.855L56.8508 128.263L56.3867 127.892L56.9634 127.749L57.1729 127.193L57.4867 127.697L58.0802 127.725L57.6975 128.179L57.855 128.752Z" fill="#FCC005"/>
<path d="M17.2819 134.798C17.1878 134.809 17.0994 134.819 17.0086 134.849C16.904 134.884 16.8034 134.938 16.7064 134.99C16.5124 135.095 16.3228 135.244 16.1511 135.382C15.9944 135.507 15.8361 135.631 15.6778 135.755C15.67 135.761 15.6668 135.763 15.6652 135.764C15.6319 135.79 15.5984 135.815 15.5661 135.842C15.5256 135.875 15.4848 135.91 15.446 135.945C15.3955 135.992 15.3551 136.046 15.3143 136.101C15.2547 136.181 15.2332 136.262 15.2236 136.362C15.2107 136.495 15.3377 136.67 15.4739 136.691C15.5814 136.707 15.6648 136.706 15.7658 136.663C15.819 136.641 15.8724 136.621 15.921 136.589C16.0239 136.523 16.1215 136.445 16.2159 136.367C16.3749 136.236 16.5328 136.103 16.6898 135.97C16.9993 135.706 17.3212 135.383 17.4204 134.979C17.4403 134.898 17.3785 134.786 17.2819 134.798Z" fill="#E1D0BB"/>
<path d="M22.5547 136.947C22.3616 137.07 22.2211 137.257 22.0773 137.431C21.9265 137.615 21.7781 137.799 21.6342 137.987C21.3644 138.342 21.0746 138.684 20.82 139.049C20.6889 139.237 20.5058 139.5 20.6416 139.729C20.8033 140.003 21.1303 139.791 21.2897 139.636C21.6157 139.32 21.8751 138.916 22.1467 138.553C22.2957 138.354 22.4418 138.155 22.5794 137.948C22.7218 137.733 22.8944 137.51 22.9597 137.258C23.0176 137.034 22.7629 136.814 22.5547 136.947Z" fill="#E1D0BB"/>
<path d="M26.3643 139.036C26.3999 138.965 26.3863 138.864 26.3487 138.8C26.3035 138.723 26.2211 138.676 26.1322 138.673C25.9328 138.632 25.7907 138.827 25.6844 138.966C25.6068 139.068 25.5447 139.178 25.4798 139.288C25.4042 139.417 25.3219 139.542 25.2659 139.681C25.2545 139.709 25.2413 139.738 25.2329 139.767C25.2205 139.87 25.2178 139.885 25.2248 139.813C25.215 139.847 25.2093 139.882 25.2079 139.917C25.2026 140.011 25.2214 140.103 25.2848 140.173C25.3094 140.215 25.3519 140.241 25.4004 140.245C25.4965 140.27 25.5905 140.237 25.6727 140.184C25.7015 140.165 25.7279 140.144 25.7517 140.12C25.6976 140.159 25.7095 140.149 25.7875 140.09C25.809 140.068 25.8275 140.043 25.8465 140.019C25.9347 139.908 25.9998 139.783 26.0705 139.661C26.13 139.558 26.1964 139.457 26.2433 139.348C26.2763 139.271 26.3126 139.196 26.3375 139.116C26.341 139.104 26.3447 139.092 26.3489 139.08C26.3525 139.071 26.3567 139.061 26.3616 139.049C26.3629 139.045 26.3633 139.04 26.3643 139.036Z" fill="#E1D0BB"/>
<path d="M32.0672 140.451C31.9188 140.309 31.6802 140.34 31.5728 140.515C31.4623 140.695 31.4175 140.948 31.365 141.151C31.3051 141.383 31.2548 141.618 31.2024 141.851C31.15 142.085 31.0977 142.319 31.0453 142.552C30.9891 142.804 30.925 143.059 30.9129 143.317C30.907 143.444 30.9359 143.597 30.9906 143.712C31.0249 143.785 31.0857 143.896 31.1663 143.926C31.3503 143.993 31.5768 143.697 31.6499 143.57C31.7738 143.354 31.8135 143.074 31.8653 142.834L32.0169 142.131C32.075 141.862 32.1344 141.593 32.1838 141.322C32.2353 141.039 32.3013 140.675 32.0672 140.451Z" fill="#E1D0BB"/>
<path d="M38.3366 140.716C38.317 140.581 38.2834 140.448 38.249 140.315C38.226 140.226 38.1922 140.141 38.1539 140.058C38.141 140.03 38.1279 140.004 38.112 139.978C38.1024 139.96 38.0917 139.943 38.0798 139.926C38.0356 139.867 38.023 139.851 38.0419 139.878C37.996 139.81 37.915 139.745 37.8261 139.755C37.8048 139.757 37.7837 139.759 37.7625 139.763C37.7615 139.763 37.7607 139.763 37.7597 139.764C37.6426 139.804 37.5917 139.888 37.5762 140.005C37.5723 139.984 37.5698 139.989 37.5689 140.021L37.5586 140.097C37.5544 140.133 37.5507 140.17 37.5495 140.206C37.5476 140.269 37.5497 140.331 37.556 140.393C37.5692 140.524 37.5752 140.655 37.5881 140.785C37.6005 140.912 37.6082 141.038 37.6173 141.165C37.6217 141.224 37.6342 141.284 37.6351 141.343C37.636 141.407 37.642 141.462 37.6578 141.513C37.6603 141.531 37.6629 141.549 37.6657 141.567C37.6804 141.663 37.7691 141.741 37.8526 141.776C37.9516 141.818 38.0445 141.807 38.1397 141.76C38.171 141.745 38.1994 141.722 38.225 141.697C38.4974 141.493 38.3798 141.014 38.3366 140.716Z" fill="#E1D0BB"/>
<path d="M45.2359 141.877C45.2022 141.721 45.1543 141.572 45.1044 141.421C45.0022 141.111 44.8874 140.807 44.762 140.507C44.6325 140.196 44.4919 139.896 44.3311 139.6C44.2555 139.461 44.1664 139.331 44.0778 139.2C43.9883 139.068 43.8564 138.916 43.6915 138.88C43.5907 138.858 43.5147 138.911 43.477 139.002C43.4176 139.146 43.458 139.328 43.5045 139.468C43.5511 139.609 43.5934 139.751 43.6457 139.889C43.757 140.184 43.866 140.48 43.9749 140.775C44.0811 141.064 44.1813 141.356 44.2762 141.649C44.3225 141.792 44.3652 141.935 44.4185 142.076C44.4869 142.256 44.5649 142.497 44.7577 142.58C44.9315 142.654 45.0859 142.62 45.1999 142.464C45.3193 142.301 45.2755 142.059 45.2359 141.877Z" fill="#E1D0BB"/>
<path d="M49.6637 139.287C49.6594 139.255 49.6551 139.223 49.6508 139.191C49.6477 139.175 49.6433 139.159 49.6385 139.144C49.611 139.058 49.5644 138.976 49.5219 138.897C49.4464 138.756 49.3452 138.625 49.2445 138.501C49.161 138.399 49.0769 138.296 48.9762 138.21C48.9139 138.157 48.8506 138.097 48.7813 138.053C48.7548 138.037 48.7262 138.022 48.6982 138.008C48.6642 137.992 48.6331 137.979 48.5956 137.973C48.5914 137.974 48.5412 137.969 48.5427 137.97C48.4171 137.922 48.305 138.05 48.316 138.168C48.3028 138.315 48.3756 138.443 48.4436 138.575C48.5029 138.689 48.5704 138.797 48.6348 138.909C48.697 139.017 48.7567 139.128 48.8231 139.233C48.8564 139.286 48.8909 139.339 48.9251 139.391C48.9842 139.481 49.0431 139.55 49.1277 139.6C49.1421 139.61 49.1569 139.617 49.1718 139.625C49.2653 139.698 49.4058 139.72 49.5095 139.654C49.5984 139.596 49.6414 139.515 49.6496 139.421C49.6497 139.421 49.6498 139.421 49.6499 139.421L49.6619 139.331C49.6582 139.348 49.6547 139.366 49.651 139.383C49.6551 139.351 49.6594 139.319 49.6637 139.287Z" fill="#E1D0BB"/>
<path d="M48.5938 137.973C48.5944 137.973 48.595 137.974 48.5956 137.974C48.5966 137.974 48.5962 137.974 48.5938 137.973Z" fill="#E1D0BB"/>
<path d="M55.8828 137.969C55.6805 137.793 55.4714 137.625 55.2627 137.457C55.0484 137.284 54.8251 137.119 54.5927 136.971C54.436 136.872 54.0138 136.566 53.8655 136.819C53.7313 137.048 54.0606 137.335 54.1984 137.482C54.3752 137.671 54.5637 137.852 54.7567 138.024C54.945 138.193 55.1312 138.364 55.3221 138.53C55.4345 138.627 55.5434 138.731 55.668 138.813C55.6969 138.832 55.7267 138.855 55.7573 138.871C55.7498 138.867 55.8134 138.897 55.836 138.908C55.9188 138.947 56.0083 138.981 56.1078 138.977C56.2514 138.971 56.4039 138.851 56.3912 138.693C56.3668 138.39 56.1122 138.169 55.8828 137.969Z" fill="#E1D0BB"/>
<path d="M55.8357 138.909C55.8352 138.908 55.8345 138.908 55.834 138.908C55.8516 138.916 55.8479 138.914 55.8357 138.909Z" fill="#E1D0BB"/>
<path d="M58.3591 134.559C58.3567 134.56 58.3555 134.56 58.3555 134.56C58.3764 134.553 58.3714 134.554 58.3591 134.559Z" fill="#E1D0BB"/>
<path d="M58.4802 134.441C58.4783 134.433 58.4759 134.425 58.4737 134.417C58.4888 134.254 58.3558 134.113 58.2336 134.008C58.0929 133.888 57.9289 133.787 57.7698 133.692C57.6155 133.601 57.4607 133.509 57.2941 133.441C57.1996 133.403 57.1209 133.384 57.0292 133.373C56.9566 133.364 56.8407 133.363 56.8182 133.455C56.779 133.616 56.9506 133.799 57.0608 133.899C57.1994 134.024 57.3485 134.133 57.5001 134.241C57.6343 134.337 57.7789 134.43 57.9301 134.496C58.028 134.539 58.1285 134.576 58.2365 134.58C58.2633 134.581 58.2925 134.58 58.3184 134.573C58.3208 134.573 58.3453 134.564 58.3593 134.559C58.3687 134.555 58.3963 134.543 58.415 134.531C58.418 134.531 58.4223 134.531 58.4303 134.529C58.4686 134.521 58.4895 134.476 58.4802 134.441Z" fill="#E1D0BB"/>
<path d="M57.3375 102.287C57.4317 102.276 57.52 102.266 57.6108 102.236C57.7154 102.201 57.816 102.147 57.913 102.095C58.107 101.989 58.2966 101.841 58.4684 101.703C58.6251 101.578 58.7832 101.454 58.9416 101.33C58.9494 101.324 58.9526 101.322 58.9543 101.32C58.9875 101.295 59.021 101.27 59.0533 101.243C59.0938 101.21 59.1346 101.175 59.1734 101.14C59.224 101.093 59.2642 101.039 59.3051 100.984C59.3648 100.903 59.3863 100.822 59.3959 100.723C59.4087 100.59 59.2817 100.415 59.1455 100.394C59.0381 100.378 58.9546 100.379 58.8536 100.422C58.8005 100.444 58.747 100.464 58.6984 100.496C58.5955 100.562 58.498 100.64 58.4036 100.718C58.2445 100.849 58.0866 100.981 57.9297 101.115C57.6201 101.379 57.2982 101.702 57.199 102.106C57.1792 102.187 57.2408 102.299 57.3375 102.287Z" fill="#E1D0BB"/>
<path d="M52.0637 100.138C52.2568 100.015 52.3973 99.8284 52.541 99.6537C52.6918 99.4703 52.8403 99.2864 52.9842 99.0975C53.254 98.7434 53.5438 98.401 53.7984 98.036C53.9295 97.848 54.1126 97.5849 53.9769 97.3555C53.8152 97.0821 53.4882 97.294 53.3288 97.4486C53.0027 97.7649 52.7434 98.1689 52.4718 98.5318C52.3228 98.7307 52.1767 98.9303 52.0391 99.1373C51.8967 99.3517 51.7241 99.5745 51.6588 99.827C51.6007 100.051 51.8555 100.271 52.0637 100.138Z" fill="#E1D0BB"/>
<path d="M48.2532 98.0489C48.2175 98.1202 48.2311 98.2209 48.2687 98.2849C48.314 98.3623 48.3964 98.4087 48.4853 98.4122C48.6846 98.4528 48.8268 98.2581 48.933 98.1186C49.0107 98.0166 49.0728 97.9069 49.1377 97.7965C49.2133 97.668 49.2956 97.5425 49.3515 97.4039C49.363 97.3756 49.3762 97.3469 49.3846 97.3174C49.397 97.2149 49.3997 97.1997 49.3927 97.2719C49.4025 97.2379 49.4081 97.2031 49.4095 97.1674C49.4148 97.0736 49.396 96.9817 49.3326 96.9121C49.3081 96.8698 49.2656 96.8432 49.2171 96.8397C49.121 96.8144 49.027 96.8475 48.9448 96.9008C48.916 96.9193 48.8896 96.9407 48.8657 96.9651C48.92 96.9259 48.908 96.9358 48.83 96.9946C48.8085 97.0164 48.7899 97.042 48.7709 97.0659C48.6828 97.1765 48.6177 97.3014 48.5469 97.4235C48.4874 97.5262 48.4211 97.6274 48.3741 97.7366C48.3412 97.8133 48.3049 97.8891 48.28 97.9687C48.2765 97.981 48.2727 97.9931 48.2686 98.0052C48.2649 98.014 48.2607 98.0239 48.2559 98.0355C48.2546 98.0402 48.2542 98.0445 48.2532 98.0489Z" fill="#E1D0BB"/>
<path d="M42.5509 96.6339C42.6993 96.7763 42.938 96.7453 43.0453 96.5702C43.1558 96.3901 43.2006 96.1364 43.2532 95.9334C43.3132 95.7015 43.3635 95.4673 43.4159 95.2336C43.4683 94.9998 43.5206 94.7661 43.5729 94.5324C43.6292 94.2813 43.6932 94.026 43.7053 93.7677C43.7113 93.6406 43.6823 93.4877 43.6277 93.3723C43.5933 93.2998 43.5325 93.1885 43.4519 93.159C43.268 93.0915 43.0414 93.3875 42.9683 93.515C42.8444 93.731 42.8047 94.0111 42.753 94.251L42.6013 94.9538C42.5432 95.223 42.4838 95.4916 42.4345 95.7626C42.3829 96.0459 42.3169 96.4095 42.5509 96.6339Z" fill="#E1D0BB"/>
<path d="M36.2813 96.3687C36.301 96.5042 36.3346 96.6373 36.3689 96.7697C36.3919 96.8586 36.4257 96.9435 36.464 97.027C36.4769 97.0551 36.4902 97.0807 36.5059 97.1072C36.5156 97.1251 36.5263 97.1421 36.5381 97.1585C36.5823 97.218 36.5949 97.2341 36.576 97.2066C36.6219 97.2747 36.7029 97.34 36.7918 97.3304C36.8131 97.3283 36.8343 97.3256 36.8554 97.3224C36.8564 97.3221 36.8573 97.3217 36.8582 97.3214C36.9753 97.2811 37.0262 97.1974 37.0417 97.0805C37.0456 97.1014 37.0481 97.0961 37.0491 97.0644L37.0594 96.9876C37.0637 96.9516 37.0673 96.9151 37.0684 96.8789C37.0704 96.8164 37.0682 96.754 37.0619 96.6919C37.0486 96.5613 37.0427 96.4301 37.0299 96.2995C37.0174 96.1731 37.0098 96.0469 37.0006 95.9203C36.9963 95.8612 36.9837 95.8014 36.9829 95.7422C36.9819 95.6775 36.976 95.6231 36.9601 95.5723C36.9576 95.5542 36.955 95.5361 36.9522 95.5179C36.9375 95.422 36.8488 95.344 36.7654 95.3088C36.6663 95.267 36.5734 95.2784 36.4782 95.325C36.447 95.3404 36.4186 95.3629 36.393 95.3878C36.1205 95.5921 36.2381 96.0709 36.2813 96.3687Z" fill="#E1D0BB"/>
<path d="M29.3813 95.2081C29.415 95.3636 29.4628 95.5133 29.5127 95.6643C29.615 95.9736 29.7298 96.2775 29.8552 96.5782C29.9847 96.8889 30.1253 97.1888 30.2861 97.4846C30.3616 97.6235 30.4507 97.7539 30.5394 97.8848C30.6289 98.017 30.7608 98.1686 30.9256 98.2048C31.0263 98.2269 31.1024 98.1742 31.1401 98.083C31.1995 97.939 31.1591 97.7572 31.1125 97.6165C31.066 97.4759 31.0236 97.3342 30.9714 97.1957C30.86 96.9011 30.751 96.6053 30.6422 96.3097C30.5358 96.0208 30.4358 95.729 30.3407 95.4361C30.2944 95.293 30.2518 95.1495 30.1984 95.0088C30.13 94.8287 30.0521 94.5875 29.8593 94.5051C29.6854 94.4307 29.5311 94.4649 29.417 94.6211C29.298 94.7842 29.3417 95.0255 29.3813 95.2081Z" fill="#E1D0BB"/>
<path d="M24.9531 97.7979C24.9574 97.8301 24.9618 97.8622 24.9661 97.8944C24.9692 97.91 24.9735 97.9263 24.9784 97.9414C25.0058 98.0272 25.0525 98.1086 25.0949 98.1878C25.1704 98.3286 25.2716 98.4603 25.3724 98.5838C25.4559 98.6862 25.54 98.7891 25.6407 98.8751C25.703 98.9284 25.7663 98.988 25.8356 99.0315C25.8621 99.0481 25.8907 99.0627 25.9188 99.0765C25.9528 99.0933 25.9839 99.1062 26.0214 99.1115C26.0255 99.1114 26.0758 99.1155 26.0743 99.115C26.1999 99.1631 26.312 99.0346 26.3011 98.9169C26.3142 98.7699 26.2415 98.6416 26.1735 98.5103C26.1143 98.3957 26.0467 98.2875 25.9823 98.1758C25.92 98.0679 25.8604 97.9571 25.794 97.8518C25.7606 97.7989 25.7262 97.7464 25.692 97.6941C25.6329 97.6037 25.574 97.5348 25.4893 97.4853C25.475 97.4754 25.4602 97.4679 25.4453 97.4601C25.3518 97.3869 25.2112 97.3645 25.1076 97.4314C25.0187 97.4887 24.9757 97.5699 24.9675 97.6636C24.9674 97.6638 24.9673 97.6641 24.9672 97.6644L24.9552 97.7541C24.9588 97.7366 24.9624 97.7192 24.9661 97.7017C24.9618 97.7335 24.9574 97.7657 24.9531 97.7979Z" fill="#E1D0BB"/>
<path d="M26.0238 99.1119C26.0231 99.1119 26.0225 99.1115 26.0219 99.1115C26.0211 99.1114 26.0215 99.1115 26.0238 99.1119Z" fill="#E1D0BB"/>
<path d="M18.7356 99.1158C18.9378 99.2917 19.1469 99.4595 19.3557 99.6277C19.57 99.8004 19.7933 99.9662 20.0256 100.114C20.1823 100.213 20.6046 100.519 20.7529 100.266C20.887 100.037 20.5577 99.7502 20.4199 99.6026C20.2431 99.4133 20.0547 99.2332 19.8617 99.0605C19.6733 98.8919 19.4871 98.7209 19.2963 98.555C19.1839 98.4573 19.0749 98.3542 18.9504 98.272C18.9214 98.2528 18.8916 98.2296 18.8612 98.2136C18.8687 98.2176 18.8051 98.1874 18.7824 98.1766C18.6996 98.1375 18.6102 98.104 18.5107 98.1081C18.3671 98.1142 18.2146 98.2334 18.2273 98.3915C18.2516 98.6945 18.5062 98.9164 18.7356 99.1158Z" fill="#E1D0BB"/>
<path d="M18.7837 98.1775C18.7843 98.1778 18.785 98.1781 18.7855 98.1783C18.7678 98.1699 18.7716 98.1718 18.7837 98.1775Z" fill="#E1D0BB"/>
<path d="M16.2601 102.526C16.2623 102.525 16.2635 102.525 16.2635 102.525C16.2437 102.532 16.2485 102.531 16.2601 102.526Z" fill="#E1D0BB"/>
<path d="M16.1389 102.644C16.1408 102.652 16.1432 102.66 16.1453 102.668C16.1303 102.83 16.2633 102.972 16.3855 103.076C16.5262 103.197 16.6902 103.298 16.8493 103.392C17.0036 103.484 17.1584 103.576 17.325 103.644C17.4195 103.682 17.4982 103.7 17.5898 103.712C17.6625 103.721 17.7784 103.722 17.8009 103.63C17.8401 103.469 17.6685 103.285 17.5583 103.186C17.4196 103.061 17.2706 102.952 17.119 102.843C16.9848 102.747 16.8402 102.655 16.689 102.589C16.5911 102.546 16.4906 102.509 16.3826 102.505C16.3558 102.504 16.3266 102.504 16.3006 102.511C16.2983 102.512 16.2738 102.521 16.2598 102.526C16.2504 102.53 16.2228 102.542 16.2042 102.553C16.2012 102.554 16.1969 102.554 16.1889 102.556C16.1506 102.564 16.1297 102.609 16.1389 102.644Z" fill="#E1D0BB"/>
</g>
<defs>
<linearGradient id="paint0_linear_24530_155467" x1="-1.03677e-07" y1="4.01695" x2="82.2542" y2="6.70285" gradientUnits="userSpaceOnUse">
<stop stop-color="#E9EEFE"/>
<stop offset="1" stop-color="#F3F2FD"/>
</linearGradient>
<clipPath id="clip0_24530_155467">
<rect x="10" y="91.5" width="54" height="54" rx="27" fill="white"/>
</clipPath>
<pattern id="pattern0_24530_155467" patternUnits="userSpaceOnUse" patternTransform="matrix(37.8345 0 0 53.6352 33.9005 116.114)" preserveAspectRatio="none" viewBox="2.13818 1.38782 25.5638 36.24" width="1" height="1">
<use xlink:href="#pattern0_24530_155467_inner" transform="translate(-25.5638 0)"/>
<g id="pattern0_24530_155467_inner">
<path d="M6.24179 1.57573C7.00131 1.03737 8.01978 1.73781 7.78881 2.63967L7.12077 5.2481C7.00746 5.69055 6.60876 6 6.15204 6H3.14008C2.16538 6 1.7666 4.74781 2.5618 4.18416L6.24179 1.57573Z" fill="white"/>
</g>
<use xlink:href="#pattern0_24530_155467_inner" transform="translate(-12.7819 18.12)"/>
<use xlink:href="#pattern0_24530_155467_inner" transform="translate(12.7819 18.12)"/>
</pattern></defs>
</svg>
