<svg width="42" height="15" viewBox="0 0 42 15" fill="none" xmlns="http://www.w3.org/2000/svg">
<path d="M0 10C0 5.28595 0 2.92893 1.46447 1.46447C2.92893 0 5.28595 0 10 0H42V5C42 9.71405 42 12.0711 40.5355 13.5355C39.0711 15 36.714 15 32 15H0V10Z" fill="#EF2A16"/>
<path d="M11.799 11V3.72727H12.8963V10.0554H16.1918V11H11.799ZM17.3583 11V5.54545H18.4201V11H17.3583ZM17.8945 4.70384C17.7099 4.70384 17.5513 4.64228 17.4187 4.51918C17.2885 4.3937 17.2234 4.24455 17.2234 4.07173C17.2234 3.89654 17.2885 3.7474 17.4187 3.62429C17.5513 3.49882 17.7099 3.43608 17.8945 3.43608C18.0792 3.43608 18.2366 3.49882 18.3668 3.62429C18.4994 3.7474 18.5657 3.89654 18.5657 4.07173C18.5657 4.24455 18.4994 4.3937 18.3668 4.51918C18.2366 4.64228 18.0792 4.70384 17.8945 4.70384ZM24.5147 5.54545L22.5368 11H21.4004L19.4189 5.54545H20.5588L21.9402 9.7429H21.997L23.3748 5.54545H24.5147ZM27.6779 11.1101C27.1405 11.1101 26.6777 10.9953 26.2894 10.7656C25.9035 10.5336 25.6052 10.2081 25.3945 9.78906C25.1862 9.36766 25.082 8.87405 25.082 8.30824C25.082 7.74953 25.1862 7.2571 25.3945 6.83097C25.6052 6.40483 25.8988 6.07221 26.2752 5.8331C26.654 5.59399 27.0967 5.47443 27.6033 5.47443C27.9111 5.47443 28.2094 5.52533 28.4982 5.62713C28.7871 5.72893 29.0463 5.88873 29.2759 6.10653C29.5056 6.32434 29.6867 6.60724 29.8192 6.95526C29.9518 7.3009 30.0181 7.72112 30.0181 8.21591V8.59233H25.6822V7.79688H28.9776C28.9776 7.51752 28.9208 7.27012 28.8072 7.05469C28.6935 6.83688 28.5337 6.66525 28.3278 6.53977C28.1242 6.4143 27.8851 6.35156 27.6104 6.35156C27.3121 6.35156 27.0517 6.42495 26.8292 6.57173C26.609 6.71615 26.4386 6.90554 26.3178 7.13991C26.1995 7.37192 26.1403 7.62405 26.1403 7.89631V8.51776C26.1403 8.88234 26.2042 9.19247 26.332 9.44815C26.4622 9.70384 26.6433 9.89915 26.8754 10.0341C27.1074 10.1667 27.3784 10.233 27.6886 10.233C27.8898 10.233 28.0733 10.2045 28.239 10.1477C28.4047 10.0885 28.5479 10.0009 28.6687 9.88494C28.7894 9.76894 28.8817 9.62571 28.9457 9.45526L29.9506 9.63636C29.8701 9.93229 29.7257 10.1915 29.5174 10.4141C29.3114 10.6342 29.0522 10.8059 28.7397 10.929C28.4296 11.0497 28.0756 11.1101 27.6779 11.1101Z" fill="white"/>
</svg>
