<svg width="18" height="18" viewBox="0 0 18 18" fill="none" xmlns="http://www.w3.org/2000/svg">
<path fill-rule="evenodd" clip-rule="evenodd" d="M10.1098 8.99609V16.7516H8.63672V8.99609C8.87578 9.0418 9.12187 9.06641 9.37148 9.06641C9.62109 9.06641 9.87422 9.0418 10.1098 8.99609Z" fill="#965F00"/>
<path fill-rule="evenodd" clip-rule="evenodd" d="M10.8125 10.7367C11.3082 10.7156 11.3434 11.6543 10.8477 11.6719L11.0867 11.6648C11.5824 11.6473 11.6176 12.5824 11.1219 12.6L10.8828 12.6105C11.3715 12.593 11.4137 13.507 10.9355 13.5457C10.7633 13.5527 10.5418 13.5703 10.4539 13.5633C10.9426 13.5457 10.9848 14.4598 10.5066 14.4984C9.87031 14.5547 9.10391 14.734 8.46406 14.8535L6.57617 14.6566L6.25625 14.5969L5.66211 11.4539L5.83789 11.4117C7.30742 10.3781 6.57969 10.1602 8.63633 10.0723V10.6312L10.8125 10.7367Z" fill="#FAD1A2"/>
<path fill-rule="evenodd" clip-rule="evenodd" d="M4.67578 11.3535L5.61578 11.1757L6.32199 14.908L5.382 15.0858L4.67578 11.3535Z" fill="#A15030"/>
<path d="M8.8196 13.8559C8.72468 13.863 8.64031 13.7891 8.63328 13.6942C8.62624 13.5993 8.70007 13.5149 8.795 13.5079L10.4368 13.3954C10.5317 13.3884 10.6161 13.4622 10.6231 13.5571C10.6302 13.652 10.5563 13.7364 10.4614 13.7434L8.8196 13.8559ZM9.31882 11.9434C9.2239 11.9505 9.13953 11.8766 9.13249 11.7782C9.12546 11.6833 9.19929 11.5989 9.29773 11.5919L10.8376 11.5005C10.9325 11.4934 11.0169 11.5673 11.0239 11.6657C11.0309 11.7606 10.9571 11.845 10.8587 11.852L9.31882 11.9434ZM9.27664 12.8083C9.1782 12.8083 9.10085 12.7309 9.10085 12.636C9.10085 12.5411 9.1782 12.4602 9.27312 12.4602L10.8833 12.4391C10.9782 12.4391 11.0591 12.5165 11.0591 12.6114C11.0591 12.7063 10.9817 12.7872 10.8868 12.7872L9.27664 12.8083Z" fill="#CCAA84"/>
<path fill-rule="evenodd" clip-rule="evenodd" d="M9.37518 9.0668C11.5338 9.0668 13.2951 7.30547 13.2951 5.14688C13.2916 2.9918 11.5338 1.23047 9.37518 1.23047C7.21659 1.23047 5.45526 2.9918 5.45526 5.15039C5.45526 7.30547 7.21659 9.0668 9.37518 9.0668Z" fill="#EF8700"/>
<path fill-rule="evenodd" clip-rule="evenodd" d="M9.37479 8.35273C11.1396 8.35273 12.5775 6.91484 12.5775 5.15C12.5775 3.38516 11.1396 1.94727 9.37479 1.94727C7.60995 1.94727 6.17206 3.38516 6.17206 5.15C6.17206 6.91133 7.60995 8.35273 9.37479 8.35273Z" fill="white"/>
<path fill-rule="evenodd" clip-rule="evenodd" d="M7.80331 2.84062C7.90526 2.77031 8.01073 2.70352 8.12323 2.64727C8.56971 2.41172 9.07948 2.27812 9.62089 2.27812C9.93026 2.27812 10.2291 2.32031 10.5139 2.40469C10.7775 2.48203 11.0307 2.59102 11.2627 2.73164C11.3646 2.79492 11.4666 2.86172 11.5615 2.93555C11.7478 3.07617 11.9166 3.23789 12.0678 3.41719L12.0713 3.4207C12.0713 3.4207 12.0713 3.41719 12.0678 3.41719C11.9201 3.18867 11.7443 2.98125 11.5474 2.79844C11.4947 2.74922 11.442 2.70352 11.3857 2.66133C11.1291 2.45391 10.8373 2.28516 10.5209 2.16211C10.1658 2.025 9.77909 1.95117 9.37479 1.95117C8.9705 1.95117 8.58378 2.025 8.2287 2.16211C7.91229 2.28516 7.62401 2.45039 7.36386 2.66133C7.30761 2.70703 7.25487 2.75273 7.20214 2.79844C7.00526 2.97773 6.82948 3.18516 6.68182 3.41016C6.35839 3.90937 6.17206 4.50703 6.17206 5.14688C6.17206 5.93438 6.45682 6.65156 6.9244 7.21055C6.60096 6.71133 6.41464 6.11719 6.41464 5.47734C6.41464 4.38398 6.96307 3.41719 7.80331 2.84062Z" fill="white"/>
<path d="M8.16797 6.19258C8.16797 6.09766 8.24531 6.0168 8.34375 6.0168C8.43867 6.0168 8.51953 6.09414 8.51953 6.19258C8.51953 6.36133 8.63203 6.51602 8.81133 6.63555C8.97305 6.74453 9.19102 6.81836 9.43359 6.84297V5.51055C8.77969 5.40508 8.16797 5.25742 8.16797 4.52969C8.16797 4.23789 8.34023 3.97773 8.61797 3.79492C8.83594 3.65078 9.11719 3.55586 9.43359 3.53125V3.14453C9.43359 3.04961 9.51094 2.96875 9.60938 2.96875C9.70781 2.96875 9.78516 3.04609 9.78516 3.14453V3.53125C10.098 3.55586 10.3828 3.6543 10.6008 3.79492C10.8785 3.97773 11.0508 4.23789 11.0508 4.52969C11.0508 4.62461 10.9734 4.70547 10.875 4.70547C10.7766 4.70547 10.6992 4.62813 10.6992 4.52969C10.6992 4.36094 10.5902 4.20625 10.4109 4.08672C10.2492 3.97773 10.0312 3.90391 9.78867 3.88281V5.21523C10.4426 5.3207 11.0508 5.46836 11.0508 6.19609C11.0508 6.48789 10.8785 6.74805 10.6008 6.93086C10.3828 7.075 10.1016 7.16992 9.78516 7.19805V7.58477C9.78516 7.67969 9.70781 7.76055 9.60938 7.76055C9.51445 7.76055 9.43359 7.6832 9.43359 7.58477V7.19805C9.1207 7.16992 8.83594 7.075 8.61797 6.93086C8.34023 6.74453 8.16797 6.48438 8.16797 6.19258ZM9.78516 6.84297C10.0277 6.81836 10.2422 6.74453 10.4074 6.63555C10.5867 6.51953 10.6957 6.36133 10.6957 6.19258C10.6957 5.76719 10.2668 5.64766 9.78516 5.5668V6.84297ZM9.43359 3.8793C9.19102 3.90391 8.97305 3.97773 8.81133 4.0832C8.63203 4.20273 8.51953 4.35742 8.51953 4.52617C8.51953 4.95156 8.94844 5.07109 9.43359 5.15195V3.8793Z" fill="#FFDCBE"/>
<path d="M7.93359 5.9793C7.93359 5.88438 8.01094 5.80352 8.10938 5.80352C8.2043 5.80352 8.28516 5.88086 8.28516 5.9793C8.28516 6.14805 8.39414 6.30273 8.57695 6.42227C8.73867 6.53125 8.95312 6.60508 9.19922 6.62969V5.29727C8.54531 5.1918 7.93359 5.04414 7.93359 4.31641C7.93359 4.02461 8.10586 3.76445 8.38359 3.58164C8.60156 3.4375 8.88281 3.34258 9.19922 3.31445V2.92773C9.19922 2.8293 9.27656 2.75195 9.375 2.75195C9.47344 2.75195 9.55078 2.8293 9.55078 2.92773V3.31445C9.86367 3.33906 10.1484 3.4375 10.3664 3.58164C10.6441 3.76445 10.8164 4.02461 10.8164 4.31641C10.8164 4.41484 10.7391 4.49219 10.6406 4.49219C10.5457 4.49219 10.4648 4.41484 10.4648 4.31641C10.4648 4.14766 10.3559 3.99297 10.173 3.87344C10.0113 3.76797 9.79688 3.69063 9.55078 3.66953V5.00195C10.2047 5.10742 10.8164 5.25508 10.8164 5.98281C10.8164 6.27461 10.6441 6.53477 10.3664 6.71758C10.1484 6.86172 9.86719 6.95664 9.55078 6.98477V7.37148C9.55078 7.46641 9.47344 7.54727 9.375 7.54727C9.27656 7.54727 9.19922 7.46992 9.19922 7.37148V6.98477C8.88633 6.95664 8.60156 6.86172 8.38359 6.71758C8.10586 6.53125 7.93359 6.27461 7.93359 5.9793ZM9.55078 6.62969C9.79336 6.60508 10.0113 6.53125 10.173 6.42227C10.3523 6.30625 10.4648 6.14805 10.4648 5.9793C10.4648 5.55391 10.0359 5.43438 9.55078 5.35352V6.62969ZM9.19922 3.66602C8.95664 3.69063 8.73867 3.76445 8.57695 3.86992C8.39766 3.98945 8.28516 4.14414 8.28516 4.31289C8.28516 4.73828 8.71406 4.85781 9.19922 4.93867V3.66602Z" fill="#FD7804"/>
</svg>
