<svg width="75" height="15" viewBox="0 0 75 15" fill="none" xmlns="http://www.w3.org/2000/svg">
<path d="M0 0H65C69.714 0 72.0711 0 73.5355 1.46447C75 2.92893 75 5.28595 75 10V15H0V0Z" fill="url(#paint0_linear_25481_1495)"/>
<path d="M14.34 10.3203H10.45V3.62031H14.2C15.48 3.62031 16.25 4.21031 16.25 5.27031C16.25 6.06031 15.81 6.65031 14.79 6.77031V6.84031C15.93 6.97031 16.49 7.59031 16.49 8.47031C16.49 9.62031 15.72 10.3203 14.34 10.3203ZM11.52 4.59031V6.43031H14.05C14.8 6.43031 15.18 6.14031 15.18 5.51031C15.18 4.88031 14.83 4.59031 14.08 4.59031H11.52ZM11.52 7.32031V9.35031H14.22C15.02 9.35031 15.41 9.05031 15.41 8.32031C15.41 7.62031 15.01 7.32031 14.22 7.32031H11.52ZM19.6895 10.4203C18.0595 10.4203 16.9895 9.50031 16.9895 7.84031C16.9895 6.29031 18.0495 5.25031 19.6695 5.25031C21.2095 5.25031 22.2595 6.10031 22.2595 7.61031C22.2595 7.79031 22.2495 7.93031 22.2195 8.08031H17.9995C18.0395 9.04031 18.5095 9.55031 19.6595 9.55031C20.6995 9.55031 21.1295 9.21031 21.1295 8.62031V8.54031H22.2095V8.63031C22.2095 9.69031 21.1695 10.4203 19.6895 10.4203ZM19.6495 6.10031C18.5495 6.10031 18.0695 6.59031 18.0095 7.48031H21.2395V7.46031C21.2395 6.54031 20.7095 6.10031 19.6495 6.10031ZM25.4184 10.4203C23.8184 10.4203 22.9084 9.79031 22.9084 8.64031V8.61031H23.9884V8.69031C23.9884 9.34031 24.3784 9.55031 25.4184 9.55031C26.3884 9.55031 26.6784 9.35031 26.6784 8.91031C26.6784 8.50031 26.4384 8.37031 25.7284 8.27031L24.3684 8.09031C23.4284 7.97031 22.8584 7.57031 22.8584 6.74031C22.8584 5.87031 23.6484 5.25031 25.1784 5.25031C26.6984 5.25031 27.6184 5.86031 27.6184 7.04031V7.07031H26.5484V7.01031C26.5484 6.42031 26.2484 6.11031 25.1484 6.11031C24.2384 6.11031 23.9184 6.31031 23.9184 6.78031C23.9184 7.17031 24.1184 7.31031 24.8684 7.41031L26.0184 7.57031C27.1984 7.72031 27.7384 8.12031 27.7384 8.94031C27.7384 9.87031 26.8184 10.4203 25.4184 10.4203ZM31.7776 10.3203H30.6376C29.5676 10.3203 28.9076 9.85031 28.9076 8.64031V6.25031H28.0676V5.35031H28.9076V4.26031H29.9776V5.35031H31.7776V6.25031H29.9776V8.58031C29.9776 9.19031 30.2576 9.35031 30.8776 9.35031H31.7776V10.3203ZM36.9721 10.4203C34.9721 10.4203 33.9521 9.54031 33.9521 8.13031V8.07031H35.0321V8.23031C35.0321 9.03031 35.5021 9.43031 36.9721 9.43031C38.2521 9.43031 38.7021 9.15031 38.7021 8.52031C38.7021 7.94031 38.3621 7.72031 37.5121 7.56031L35.8721 7.29031C34.7421 7.09031 33.9421 6.57031 33.9421 5.47031C33.9421 4.50031 34.7421 3.52031 36.8221 3.52031C38.7821 3.52031 39.6721 4.50031 39.6721 5.81031V5.87031H38.6021V5.74031C38.6021 4.92031 38.1121 4.51031 36.7221 4.51031C35.5021 4.51031 35.0221 4.81031 35.0221 5.41031C35.0221 5.99031 35.3621 6.18031 36.1521 6.35031L37.7821 6.63031C39.1221 6.87031 39.7821 7.48031 39.7821 8.46031C39.7821 9.48031 38.9521 10.4203 36.9721 10.4203ZM43.0488 10.4203C41.4188 10.4203 40.3488 9.50031 40.3488 7.84031C40.3488 6.29031 41.4088 5.25031 43.0288 5.25031C44.5688 5.25031 45.6188 6.10031 45.6188 7.61031C45.6188 7.79031 45.6088 7.93031 45.5788 8.08031H41.3588C41.3988 9.04031 41.8688 9.55031 43.0188 9.55031C44.0588 9.55031 44.4888 9.21031 44.4888 8.62031V8.54031H45.5688V8.63031C45.5688 9.69031 44.5288 10.4203 43.0488 10.4203ZM43.0088 6.10031C41.9088 6.10031 41.4288 6.59031 41.3688 7.48031H44.5988V7.46031C44.5988 6.54031 44.0688 6.10031 43.0088 6.10031ZM47.5077 10.3203H46.4277V3.62031H47.5077V10.3203ZM49.5878 10.3203H48.5078V3.62031H49.5878V10.3203ZM51.6679 4.77031H50.5879V3.62031H51.6679V4.77031ZM51.6679 10.3203H50.5879V5.35031H51.6679V10.3203ZM53.748 10.3203H52.668V5.35031H53.658V6.89031H53.728C53.878 6.05031 54.538 5.25031 55.798 5.25031C57.178 5.25031 57.858 6.18031 57.858 7.33031V10.3203H56.778V7.62031C56.778 6.69031 56.358 6.22031 55.328 6.22031C54.238 6.22031 53.748 6.78031 53.748 7.86031V10.3203ZM60.9803 9.87031C59.5003 9.87031 58.6203 8.94031 58.6203 7.56031C58.6203 6.18031 59.5403 5.25031 61.0503 5.25031C62.0903 5.25031 62.8703 5.72031 63.0503 6.59031H63.1103V5.35031H64.1003V9.74031C64.1003 11.4103 63.0603 12.1203 61.4303 12.1203C59.9603 12.1203 58.9403 11.4303 58.9403 10.2303H60.0103C60.0103 10.9503 60.4303 11.2203 61.4903 11.2203C62.6203 11.2203 63.0303 10.9103 63.0303 9.80031V8.58031H62.9603C62.7803 9.33031 62.1103 9.87031 60.9803 9.87031ZM59.7103 7.56031C59.7103 8.58031 60.3103 8.94031 61.3303 8.94031C62.4303 8.94031 63.0303 8.48031 63.0303 7.60031V7.46031C63.0303 6.62031 62.4103 6.19031 61.3603 6.19031C60.3203 6.19031 59.7103 6.54031 59.7103 7.56031Z" fill="white"/>
<defs>
<linearGradient id="paint0_linear_25481_1495" x1="-4.6528e-07" y1="9.23869" x2="67.2926" y2="9.17039" gradientUnits="userSpaceOnUse">
<stop stop-color="#026AEB"/>
<stop offset="1" stop-color="#4E0FD3"/>
</linearGradient>
</defs>
</svg>
