<svg width="20" height="20" viewBox="0 0 20 20" fill="none" xmlns="http://www.w3.org/2000/svg">
<path d="M15.8333 1.6665H4.16667C1.86667 1.6665 0 3.53317 0 5.83317V14.1665C0 16.4665 1.86667 18.3332 4.16667 18.3332H15.8333C18.1333 18.3332 20 16.4665 20 14.1665V5.83317C20 3.53317 18.1333 1.6665 15.8333 1.6665ZM4.16667 3.33317H15.8333C17.2083 3.33317 18.3333 4.45817 18.3333 5.83317H1.66667C1.66667 4.45817 2.79167 3.33317 4.16667 3.33317ZM15.8333 16.6665H4.16667C2.79167 16.6665 1.66667 15.5415 1.66667 14.1665V7.49984H18.3333V14.1665C18.3333 15.5415 17.2083 16.6665 15.8333 16.6665ZM8.33333 9.99984C8.33333 10.4582 7.95833 10.8332 7.5 10.8332H6.66667V14.1665C6.66667 14.6248 6.29167 14.9998 5.83333 14.9998C5.375 14.9998 5 14.6248 5 14.1665V10.8332H4.16667C3.70833 10.8332 3.33333 10.4582 3.33333 9.99984C3.33333 9.5415 3.70833 9.1665 4.16667 9.1665H7.5C7.95833 9.1665 8.33333 9.5415 8.33333 9.99984ZM16.6667 9.99984C16.6667 10.4582 16.2917 10.8332 15.8333 10.8332H10.8333C10.375 10.8332 10 10.4582 10 9.99984C10 9.5415 10.375 9.1665 10.8333 9.1665H15.8333C16.2917 9.1665 16.6667 9.5415 16.6667 9.99984ZM16.6667 13.3332C16.6667 13.7915 16.2917 14.1665 15.8333 14.1665H10.8333C10.375 14.1665 10 13.7915 10 13.3332C10 12.8748 10.375 12.4998 10.8333 12.4998H15.8333C16.2917 12.4998 16.6667 12.8748 16.6667 13.3332Z" fill="#AFAFAF"/>
</svg>
