<svg width="20" height="20" viewBox="0 0 20 20" fill="none" xmlns="http://www.w3.org/2000/svg">
<g clip-path="url(#clip0_28682_17814)">
<path d="M20 4.16648C20 2.32815 18.505 0.833151 16.6667 0.833151C14.8283 0.833151 13.3333 2.32815 13.3333 4.16648C13.3333 5.71648 14.3975 7.02315 15.8333 7.39398V12.4998C15.8333 13.8782 14.7117 14.9998 13.3333 14.9998H10.5258L12.3617 13.164C12.6875 12.8382 12.6875 12.3115 12.3617 11.9857C12.0358 11.6598 11.5092 11.6598 11.1833 11.9857L9.06583 14.1032C8.60833 14.5598 8.33333 14.9998 8.33333 15.8332C8.33333 16.6665 8.58083 17.154 9.06583 17.639L11.1833 19.7565C11.3458 19.919 11.5592 20.0007 11.7725 20.0007C11.9858 20.0007 12.1992 19.919 12.3617 19.7565C12.6875 19.4307 12.6875 18.904 12.3617 18.5782L10.4508 16.6673H13.3333C15.6308 16.6673 17.5 14.7982 17.5 12.5007V7.39482C18.9358 7.02398 20 5.71648 20 4.16648ZM16.6667 5.83315C15.7475 5.83315 15 5.08565 15 4.16648C15 3.24732 15.7475 2.49982 16.6667 2.49982C17.5858 2.49982 18.3333 3.24732 18.3333 4.16648C18.3333 5.08565 17.5858 5.83315 16.6667 5.83315ZM11.0033 5.93482C11.4758 5.46232 11.7358 4.83482 11.7358 4.16648C11.7358 3.49815 11.4758 2.87065 11.0033 2.39898L8.88583 0.281484C8.56 -0.044349 8.03333 -0.044349 7.7075 0.281484C7.38167 0.607318 7.38167 1.13398 7.7075 1.45982L9.58 3.33315H6.66667C4.36917 3.33315 2.5 5.20232 2.5 7.49982V12.6057C1.06417 12.9765 0 14.2832 0 15.8332C0 17.6715 1.495 19.1665 3.33333 19.1665C5.17167 19.1665 6.66667 17.6715 6.66667 15.8332C6.66667 14.2832 5.6025 12.9765 4.16667 12.6057V7.49982C4.16667 6.12148 5.28833 4.99982 6.66667 4.99982H9.58083L7.7075 6.87315C7.38167 7.19898 7.38167 7.72565 7.7075 8.05148C7.87 8.21398 8.08333 8.29565 8.29667 8.29565C8.51 8.29565 8.72333 8.21398 8.88583 8.05148L11.0033 5.93482ZM5 15.8332C5 16.7523 4.2525 17.4998 3.33333 17.4998C2.41417 17.4998 1.66667 16.7523 1.66667 15.8332C1.66667 14.914 2.41417 14.1665 3.33333 14.1665C4.2525 14.1665 5 14.914 5 15.8332Z" fill="#AFAFAF"/>
</g>
<defs>
<clipPath id="clip0_28682_17814">
<rect width="20" height="20" fill="white"/>
</clipPath>
</defs>
</svg>
