<svg width="20" height="20" viewBox="0 0 20 20" fill="none" xmlns="http://www.w3.org/2000/svg">
<g clip-path="url(#clip0_24530_152851)">
<path d="M18.5605 11.4858C18.6847 11.2433 18.7697 10.9792 18.8088 10.7008C18.903 10.0392 18.7347 9.38083 18.3338 8.84583C17.5072 7.74499 15.9363 7.51999 14.8338 8.34666C14.4113 8.66333 14.0855 9.05333 13.8338 9.45999C13.5822 9.05416 13.2563 8.66333 12.8338 8.34666C12.2997 7.94666 11.6413 7.77749 10.9805 7.87166C10.3197 7.96583 9.73465 8.31166 9.33299 8.84666C8.93299 9.38083 8.76382 10.0392 8.85882 10.7008C8.89882 10.9783 8.98299 11.2425 9.10715 11.4858C7.96299 12.0142 7.16715 13.1725 7.16715 14.5142V16.1808C7.16715 16.7875 7.33049 17.3567 7.61465 17.8475H4.66715C3.28882 17.8475 2.16715 16.7258 2.16715 15.3475V7.01416C2.16715 5.63583 3.28882 4.51416 4.66715 4.51416H9.66715C10.8088 4.51416 11.8038 5.28499 12.0888 6.38833C12.2038 6.83416 12.6563 7.10166 13.1038 6.98833C13.5497 6.87333 13.8172 6.41833 13.703 5.97333C13.2297 4.13249 11.5697 2.84749 9.66799 2.84749H9.17966L10.2572 1.76999C10.583 1.44416 10.583 0.917493 10.2572 0.59166C9.93132 0.265827 9.40465 0.265827 9.07882 0.59166L8.00132 1.66916V0.347493C8.00132 -0.11334 7.62799 -0.48584 7.16799 -0.48584C6.70799 -0.48584 6.33465 -0.11334 6.33465 0.347493V1.66916L5.25715 0.59166C4.93132 0.265827 4.40465 0.265827 4.07882 0.59166C3.75299 0.917493 3.75299 1.44416 4.07882 1.76999L5.15632 2.84749H4.66799C2.36965 2.84749 0.500488 4.71666 0.500488 7.01416V15.3475C0.500488 17.645 2.36965 19.5142 4.66715 19.5142H17.1672C19.0055 19.5142 20.5005 18.0192 20.5005 16.1808V14.5142C20.5005 13.1733 19.7047 12.015 18.5605 11.4858ZM15.8338 9.68083C16.0113 9.54749 16.2297 9.48999 16.4522 9.52249C16.6722 9.55416 16.8672 9.66999 17.0005 9.84749C17.1347 10.0258 17.1905 10.2458 17.1588 10.4658C17.1272 10.6858 17.0122 10.8808 16.833 11.015C16.7488 11.0775 16.6547 11.1333 16.553 11.1808H14.8647C15.0297 10.6725 15.3222 10.0642 15.8338 9.68083ZM10.6672 9.84749C10.8013 9.66916 10.9963 9.55333 11.2163 9.52166C11.4363 9.48999 11.6555 9.54666 11.8347 9.67999C12.3463 10.0633 12.6388 10.6717 12.8038 11.18H11.1163C11.0138 11.1325 10.9188 11.0767 10.8338 11.0125C10.6563 10.88 10.5405 10.6842 10.5088 10.465C10.4772 10.2442 10.5338 10.025 10.6672 9.84749ZM8.83382 16.1808V14.5142C8.83382 13.595 9.58132 12.8475 10.5005 12.8475H13.0005V17.8475H10.5005C9.58132 17.8475 8.83382 17.1 8.83382 16.1808ZM18.8338 16.1808C18.8338 17.1 18.0863 17.8475 17.1672 17.8475H14.6672L14.6647 12.8475H17.1672C18.0863 12.8475 18.8338 13.595 18.8338 14.5142V16.1808Z" fill="#AFB1B5"/>
</g>
<defs>
<clipPath id="clip0_24530_152851">
<rect width="20" height="20" fill="white"/>
</clipPath>
</defs>
</svg>
