<svg width="20" height="20" viewBox="0 0 20 20" fill="none" xmlns="http://www.w3.org/2000/svg">
<g clip-path="url(#clip0_28546_16694)">
<path d="M7.53174 8.88916C7.10025 8.88916 6.75049 8.53939 6.75049 8.10791V7.68162C6.75049 6.81529 7.18885 6.0465 7.89447 5.67518C8.15264 5.53939 8.31299 5.27412 8.31299 4.98291C8.31299 4.55213 7.96252 4.20166 7.53174 4.20166C7.10096 4.20166 6.75049 4.55213 6.75049 4.98291C6.75049 5.41439 6.40072 5.76416 5.96924 5.76416C5.53775 5.76416 5.18799 5.41439 5.18799 4.98291C5.18799 3.69057 6.23939 2.63916 7.53174 2.63916C8.82408 2.63916 9.87549 3.69057 9.87549 4.98291C9.87549 5.85607 9.39522 6.65119 8.62205 7.05799C8.43721 7.15525 8.31299 7.40588 8.31299 7.68166V8.10791C8.31299 8.53939 7.96322 8.88916 7.53174 8.88916Z" fill="#AFAFAF"/>
<path d="M7.53174 12.0142C7.96321 12.0142 8.31299 11.6644 8.31299 11.2329C8.31299 10.8014 7.96321 10.4517 7.53174 10.4517C7.10027 10.4517 6.75049 10.8014 6.75049 11.2329C6.75049 11.6644 7.10027 12.0142 7.53174 12.0142Z" fill="#AFAFAF"/>
<path d="M4.40674 16.7017C3.97525 16.7017 3.62549 16.3519 3.62549 15.9204V15.0607C1.84475 14.6977 0.500488 13.1193 0.500488 11.2329V3.42041C0.500488 1.2665 2.25283 -0.48584 4.40674 -0.48584H10.6567C12.8106 -0.48584 14.563 1.2665 14.563 3.42041V11.2329C14.563 13.3868 12.8106 15.1392 10.6567 15.1392H7.51557C6.78197 16.1128 5.62834 16.7017 4.40674 16.7017ZM4.40674 1.07666C3.11439 1.07666 2.06299 2.12807 2.06299 3.42041V11.2329C2.06299 12.5253 3.11439 13.5767 4.40674 13.5767C4.83822 13.5767 5.18799 13.9264 5.18799 14.3579V15.0044C5.69775 14.8218 6.13451 14.4608 6.42307 13.9649C6.56299 13.7246 6.82014 13.5767 7.0983 13.5767H10.6567C11.9491 13.5767 13.0005 12.5253 13.0005 11.2329V3.42041C13.0005 2.12807 11.9491 1.07666 10.6567 1.07666H4.40674Z" fill="#AFAFAF"/>
<path d="M16.5942 19.5142C15.3726 19.5142 14.219 18.9253 13.4854 17.9517H10.3442C9.91275 17.9517 9.56299 17.6019 9.56299 17.1704C9.56299 16.7389 9.91275 16.3892 10.3442 16.3892H13.9027C14.1808 16.3892 14.438 16.5371 14.5779 16.7774C14.8665 17.2732 15.3032 17.6343 15.813 17.8169V17.1704C15.813 16.7389 16.1628 16.3892 16.5942 16.3892C17.8866 16.3892 18.938 15.3378 18.938 14.0454V6.23291C18.938 4.94057 17.8866 3.88916 16.5942 3.88916C16.1628 3.88916 15.813 3.53939 15.813 3.10791C15.813 2.67643 16.1628 2.32666 16.5942 2.32666C18.7481 2.32666 20.5005 4.079 20.5005 6.23291V14.0454C20.5005 15.9318 19.1562 17.5102 17.3755 17.8732V18.7329C17.3755 19.1644 17.0257 19.5142 16.5942 19.5142Z" fill="#AFAFAF"/>
</g>
<defs>
<clipPath id="clip0_28546_16694">
<rect width="20" height="20" fill="white"/>
</clipPath>
</defs>
</svg>
