<svg width="20" height="20" viewBox="0 0 20 20" fill="none" xmlns="http://www.w3.org/2000/svg">
<path fill-rule="evenodd" clip-rule="evenodd" d="M15 9.9987C16.8409 9.9987 18.3333 8.50628 18.3333 6.66536C18.3333 4.82441 16.8409 3.33203 15 3.33203C13.4468 3.33203 12.1417 4.39434 11.7717 5.83203H2.49999C2.03976 5.83203 1.66666 6.20513 1.66666 6.66536C1.66666 7.12561 2.03976 7.4987 2.49999 7.4987H11.7717C12.1417 8.93637 13.4468 9.9987 15 9.9987ZM13.3333 6.66536C13.3333 7.58584 14.0795 8.33203 15 8.33203C15.9205 8.33203 16.6667 7.58584 16.6667 6.66536C16.6667 5.74489 15.9205 4.9987 15 4.9987C14.0795 4.9987 13.3333 5.74489 13.3333 6.66536ZM1.66666 13.332C1.66666 11.4911 3.15904 9.9987 4.99999 9.9987C6.55319 9.9987 7.85827 11.061 8.22831 12.4987H17.5C17.9602 12.4987 18.3333 12.8718 18.3333 13.332C18.3333 13.7923 17.9602 14.1654 17.5 14.1654H8.22831C7.85827 15.603 6.55319 16.6654 4.99999 16.6654C3.15904 16.6654 1.66666 15.1729 1.66666 13.332ZM6.66666 13.332C6.66666 12.4115 5.92046 11.6654 4.99999 11.6654C4.07951 11.6654 3.33332 12.4115 3.33332 13.332C3.33332 14.2525 4.07951 14.9987 4.99999 14.9987C5.92046 14.9987 6.66666 14.2525 6.66666 13.332Z" fill="#1455AC"/>
</svg>
