<svg width="58" height="10" viewBox="0 0 58 10" fill="none" xmlns="http://www.w3.org/2000/svg">
<g clip-path="url(#clip0_29212_2812)">
<path d="M4.80208 0.954904C4.82034 0.918012 4.84855 0.886959 4.88352 0.865247C4.91849 0.843536 4.95883 0.832031 5 0.832031C5.04116 0.832031 5.0815 0.843536 5.11648 0.865247C5.15145 0.886959 5.17965 0.918012 5.19791 0.954904L6.16041 2.90449C6.22382 3.03281 6.31742 3.14382 6.43317 3.22801C6.54893 3.31219 6.68338 3.36703 6.825 3.38782L8.9775 3.70282C9.01828 3.70873 9.0566 3.72593 9.08812 3.75249C9.11964 3.77904 9.14309 3.81388 9.15584 3.85307C9.16858 3.89226 9.17011 3.93424 9.16024 3.97425C9.15037 4.01426 9.12951 4.05072 9.1 4.07949L7.54333 5.59532C7.44067 5.69536 7.36386 5.81885 7.31951 5.95517C7.27516 6.09148 7.26461 6.23652 7.28875 6.37782L7.65625 8.51949C7.66345 8.56025 7.65904 8.60222 7.64354 8.6406C7.62803 8.67899 7.60205 8.71224 7.56856 8.73657C7.53506 8.7609 7.49541 8.77532 7.45411 8.77819C7.41281 8.78107 7.37154 8.77227 7.335 8.75282L5.41083 7.74115C5.28405 7.67458 5.14299 7.6398 4.99979 7.6398C4.85659 7.6398 4.71553 7.67458 4.58875 7.74115L2.665 8.75282C2.62847 8.77216 2.58725 8.78086 2.54602 8.77793C2.50479 8.775 2.46521 8.76055 2.43179 8.73624C2.39836 8.71193 2.37243 8.67873 2.35694 8.64041C2.34145 8.60209 2.33702 8.5602 2.34416 8.51949L2.71125 6.37824C2.7355 6.23688 2.72499 6.09174 2.68064 5.95534C2.63629 5.81894 2.55942 5.69538 2.45666 5.59532L0.899997 4.0799C0.870245 4.05117 0.849161 4.01465 0.839148 3.97452C0.829135 3.93438 0.830596 3.89224 0.843363 3.8529C0.856131 3.81356 0.879692 3.77859 0.911362 3.75198C0.943033 3.72537 0.98154 3.70819 1.0225 3.7024L3.17458 3.38782C3.31635 3.36719 3.45099 3.31243 3.56691 3.22823C3.68282 3.14404 3.77654 3.03293 3.84 2.90449L4.80208 0.954904Z" fill="#FBBF24" stroke="#FBBF24" stroke-width="0.833333" stroke-linecap="round" stroke-linejoin="round"/>
</g>
<g clip-path="url(#clip1_29212_2812)">
<path d="M16.8021 0.954904C16.8203 0.918012 16.8485 0.886959 16.8835 0.865247C16.9185 0.843536 16.9588 0.832031 17 0.832031C17.0412 0.832031 17.0815 0.843536 17.1165 0.865247C17.1514 0.886959 17.1797 0.918012 17.1979 0.954904L18.1604 2.90449C18.2238 3.03281 18.3174 3.14382 18.4332 3.22801C18.5489 3.31219 18.6834 3.36703 18.825 3.38782L20.9775 3.70282C21.0183 3.70873 21.0566 3.72593 21.0881 3.75249C21.1196 3.77904 21.1431 3.81388 21.1558 3.85307C21.1686 3.89226 21.1701 3.93424 21.1602 3.97425C21.1504 4.01426 21.1295 4.05072 21.1 4.07949L19.5433 5.59532C19.4407 5.69536 19.3639 5.81885 19.3195 5.95517C19.2752 6.09148 19.2646 6.23652 19.2887 6.37782L19.6562 8.51949C19.6634 8.56025 19.659 8.60222 19.6435 8.6406C19.628 8.67899 19.6021 8.71224 19.5686 8.73657C19.5351 8.7609 19.4954 8.77532 19.4541 8.77819C19.4128 8.78107 19.3715 8.77227 19.335 8.75282L17.4108 7.74115C17.284 7.67458 17.143 7.6398 16.9998 7.6398C16.8566 7.6398 16.7155 7.67458 16.5887 7.74115L14.665 8.75282C14.6285 8.77216 14.5872 8.78086 14.546 8.77793C14.5048 8.775 14.4652 8.76055 14.4318 8.73624C14.3984 8.71193 14.3724 8.67873 14.3569 8.64041C14.3414 8.60209 14.337 8.5602 14.3442 8.51949L14.7112 6.37824C14.7355 6.23688 14.725 6.09174 14.6806 5.95534C14.6363 5.81894 14.5594 5.69538 14.4567 5.59532L12.9 4.0799C12.8702 4.05117 12.8492 4.01465 12.8391 3.97452C12.8291 3.93438 12.8306 3.89224 12.8434 3.8529C12.8561 3.81356 12.8797 3.77859 12.9114 3.75198C12.943 3.72537 12.9815 3.70819 13.0225 3.7024L15.1746 3.38782C15.3164 3.36719 15.451 3.31243 15.5669 3.22823C15.6828 3.14404 15.7765 3.03293 15.84 2.90449L16.8021 0.954904Z" fill="#FBBF24" stroke="#FBBF24" stroke-width="0.833333" stroke-linecap="round" stroke-linejoin="round"/>
</g>
<g clip-path="url(#clip2_29212_2812)">
<path d="M28.8021 0.954904C28.8203 0.918012 28.8485 0.886959 28.8835 0.865247C28.9185 0.843536 28.9588 0.832031 29 0.832031C29.0412 0.832031 29.0815 0.843536 29.1165 0.865247C29.1514 0.886959 29.1797 0.918012 29.1979 0.954904L30.1604 2.90449C30.2238 3.03281 30.3174 3.14382 30.4332 3.22801C30.5489 3.31219 30.6834 3.36703 30.825 3.38782L32.9775 3.70282C33.0183 3.70873 33.0566 3.72593 33.0881 3.75249C33.1196 3.77904 33.1431 3.81388 33.1558 3.85307C33.1686 3.89226 33.1701 3.93424 33.1602 3.97425C33.1504 4.01426 33.1295 4.05072 33.1 4.07949L31.5433 5.59532C31.4407 5.69536 31.3639 5.81885 31.3195 5.95517C31.2752 6.09148 31.2646 6.23652 31.2887 6.37782L31.6562 8.51949C31.6634 8.56025 31.659 8.60222 31.6435 8.6406C31.628 8.67899 31.6021 8.71224 31.5686 8.73657C31.5351 8.7609 31.4954 8.77532 31.4541 8.77819C31.4128 8.78107 31.3715 8.77227 31.335 8.75282L29.4108 7.74115C29.284 7.67458 29.143 7.6398 28.9998 7.6398C28.8566 7.6398 28.7155 7.67458 28.5887 7.74115L26.665 8.75282C26.6285 8.77216 26.5872 8.78086 26.546 8.77793C26.5048 8.775 26.4652 8.76055 26.4318 8.73624C26.3984 8.71193 26.3724 8.67873 26.3569 8.64041C26.3414 8.60209 26.337 8.5602 26.3442 8.51949L26.7112 6.37824C26.7355 6.23688 26.725 6.09174 26.6806 5.95534C26.6363 5.81894 26.5594 5.69538 26.4567 5.59532L24.9 4.0799C24.8702 4.05117 24.8492 4.01465 24.8391 3.97452C24.8291 3.93438 24.8306 3.89224 24.8434 3.8529C24.8561 3.81356 24.8797 3.77859 24.9114 3.75198C24.943 3.72537 24.9815 3.70819 25.0225 3.7024L27.1746 3.38782C27.3164 3.36719 27.451 3.31243 27.5669 3.22823C27.6828 3.14404 27.7765 3.03293 27.84 2.90449L28.8021 0.954904Z" fill="#FBBF24" stroke="#FBBF24" stroke-width="0.833333" stroke-linecap="round" stroke-linejoin="round"/>
</g>
<g clip-path="url(#clip3_29212_2812)">
<path d="M40.8021 0.954904C40.8203 0.918012 40.8485 0.886959 40.8835 0.865247C40.9185 0.843536 40.9588 0.832031 41 0.832031C41.0412 0.832031 41.0815 0.843536 41.1165 0.865247C41.1514 0.886959 41.1797 0.918012 41.1979 0.954904L42.1604 2.90449C42.2238 3.03281 42.3174 3.14382 42.4332 3.22801C42.5489 3.31219 42.6834 3.36703 42.825 3.38782L44.9775 3.70282C45.0183 3.70873 45.0566 3.72593 45.0881 3.75249C45.1196 3.77904 45.1431 3.81388 45.1558 3.85307C45.1686 3.89226 45.1701 3.93424 45.1602 3.97425C45.1504 4.01426 45.1295 4.05072 45.1 4.07949L43.5433 5.59532C43.4407 5.69536 43.3639 5.81885 43.3195 5.95517C43.2752 6.09148 43.2646 6.23652 43.2887 6.37782L43.6562 8.51949C43.6634 8.56025 43.659 8.60222 43.6435 8.6406C43.628 8.67899 43.6021 8.71224 43.5686 8.73657C43.5351 8.7609 43.4954 8.77532 43.4541 8.77819C43.4128 8.78107 43.3715 8.77227 43.335 8.75282L41.4108 7.74115C41.284 7.67458 41.143 7.6398 40.9998 7.6398C40.8566 7.6398 40.7155 7.67458 40.5887 7.74115L38.665 8.75282C38.6285 8.77216 38.5872 8.78086 38.546 8.77793C38.5048 8.775 38.4652 8.76055 38.4318 8.73624C38.3984 8.71193 38.3724 8.67873 38.3569 8.64041C38.3414 8.60209 38.337 8.5602 38.3442 8.51949L38.7112 6.37824C38.7355 6.23688 38.725 6.09174 38.6806 5.95534C38.6363 5.81894 38.5594 5.69538 38.4567 5.59532L36.9 4.0799C36.8702 4.05117 36.8492 4.01465 36.8391 3.97452C36.8291 3.93438 36.8306 3.89224 36.8434 3.8529C36.8561 3.81356 36.8797 3.77859 36.9114 3.75198C36.943 3.72537 36.9815 3.70819 37.0225 3.7024L39.1746 3.38782C39.3164 3.36719 39.451 3.31243 39.5669 3.22823C39.6828 3.14404 39.7765 3.03293 39.84 2.90449L40.8021 0.954904Z" fill="#FBBF24" stroke="#FBBF24" stroke-width="0.833333" stroke-linecap="round" stroke-linejoin="round"/>
</g>
<g clip-path="url(#clip4_29212_2812)">
<path d="M52.8021 0.954904C52.8203 0.918012 52.8485 0.886959 52.8835 0.865247C52.9185 0.843536 52.9588 0.832031 53 0.832031C53.0412 0.832031 53.0815 0.843536 53.1165 0.865247C53.1514 0.886959 53.1797 0.918012 53.1979 0.954904L54.1604 2.90449C54.2238 3.03281 54.3174 3.14382 54.4332 3.22801C54.5489 3.31219 54.6834 3.36703 54.825 3.38782L56.9775 3.70282C57.0183 3.70873 57.0566 3.72593 57.0881 3.75249C57.1196 3.77904 57.1431 3.81388 57.1558 3.85307C57.1686 3.89226 57.1701 3.93424 57.1602 3.97425C57.1504 4.01426 57.1295 4.05072 57.1 4.07949L55.5433 5.59532C55.4407 5.69536 55.3639 5.81885 55.3195 5.95517C55.2752 6.09148 55.2646 6.23652 55.2887 6.37782L55.6562 8.51949C55.6634 8.56025 55.659 8.60222 55.6435 8.6406C55.628 8.67899 55.6021 8.71224 55.5686 8.73657C55.5351 8.7609 55.4954 8.77532 55.4541 8.77819C55.4128 8.78107 55.3715 8.77227 55.335 8.75282L53.4108 7.74115C53.284 7.67458 53.143 7.6398 52.9998 7.6398C52.8566 7.6398 52.7155 7.67458 52.5887 7.74115L50.665 8.75282C50.6285 8.77216 50.5872 8.78086 50.546 8.77793C50.5048 8.775 50.4652 8.76055 50.4318 8.73624C50.3984 8.71193 50.3724 8.67873 50.3569 8.64041C50.3414 8.60209 50.337 8.5602 50.3442 8.51949L50.7112 6.37824C50.7355 6.23688 50.725 6.09174 50.6806 5.95534C50.6363 5.81894 50.5594 5.69538 50.4567 5.59532L48.9 4.0799C48.8702 4.05117 48.8492 4.01465 48.8391 3.97452C48.8291 3.93438 48.8306 3.89224 48.8434 3.8529C48.8561 3.81356 48.8797 3.77859 48.9114 3.75198C48.943 3.72537 48.9815 3.70819 49.0225 3.7024L51.1746 3.38782C51.3164 3.36719 51.451 3.31243 51.5669 3.22823C51.6828 3.14404 51.7765 3.03293 51.84 2.90449L52.8021 0.954904Z" fill="#FBBF24" stroke="#FBBF24" stroke-width="0.833333" stroke-linecap="round" stroke-linejoin="round"/>
</g>
<defs>
<clipPath id="clip0_29212_2812">
<rect width="10" height="10" fill="white"/>
</clipPath>
<clipPath id="clip1_29212_2812">
<rect width="10" height="10" fill="white" transform="translate(12)"/>
</clipPath>
<clipPath id="clip2_29212_2812">
<rect width="10" height="10" fill="white" transform="translate(24)"/>
</clipPath>
<clipPath id="clip3_29212_2812">
<rect width="10" height="10" fill="white" transform="translate(36)"/>
</clipPath>
<clipPath id="clip4_29212_2812">
<rect width="10" height="10" fill="white" transform="translate(48)"/>
</clipPath>
</defs>
</svg>
