<svg xmlns="http://www.w3.org/2000/svg" width="150" height="194" fill="none" xmlns:v="https://vecta.io/nano"><g clip-path="url(#A)"><rect width="150" height="194" rx="5" fill="#1455ac"/><g opacity=".15" clip-path="url(#B)"><path d="M32.444 192.468l-16.933 4.284 9.443-28.691-19.776 5.003-9.158 41.77 14.585-3.69-5.828 38.298 27.668-56.974z" fill="#ffdd09"/><path d="M10.122 171.813l-4.944 1.251-9.158 41.77 4.944-1.251 9.158-41.77z" fill="#fff"/><path d="M26.265 194.032L5.514 236.763l-1.973 12.992 27.668-56.974-4.944 1.251z" fill="#fd9808"/><path d="M5.091 250.678c-.247.063-.494.125-.649.033-.588-.246-.992-.801-.87-1.358l5.493-36.503-12.731 3.221c-.371.093-.928-.029-1.269-.337a1.16 1.16 0 0 1-.313-1.236l9.158-41.77c.153-.433.462-.775.956-.9l19.776-5.003c.494-.125.928.028 1.269.337a1.16 1.16 0 0 1 .313 1.236l-8.676 26.524 14.585-3.69c.494-.125.928.028 1.3.46s.374.958.22 1.391L5.986 250.057c-.185.31-.524.527-.895.621zm-7.404-37.58l12.607-3.189c.371-.094.804.059 1.114.244.341.308.435.679.405 1.081l-4.491 30.068 22.842-46.941-14.337 3.627c-.494.125-.928-.028-1.269-.337s-.466-.802-.313-1.235l8.8-26.556-16.809 4.253-8.548 38.985z" fill="#1455ac"/></g><g opacity=".15" clip-path="url(#C)"><path d="M102.444 145.468l-16.933 4.284 9.443-28.691-19.776 5.003-9.158 41.77 14.585-3.69-5.829 38.298 27.668-56.974z" fill="#ffdd09"/><path d="M80.122 124.813l-4.944 1.251-9.158 41.77 4.944-1.251 9.158-41.77z" fill="#fff"/><path d="M96.265 147.032l-20.751 42.731-1.973 12.992 27.668-56.974-4.944 1.251z" fill="#fd9808"/><path d="M75.091 203.678c-.247.063-.494.125-.649.033-.588-.246-.992-.801-.87-1.358l5.493-36.503-12.731 3.221c-.371.093-.928-.029-1.269-.337a1.16 1.16 0 0 1-.313-1.236l9.158-41.77c.153-.433.462-.775.956-.9l19.776-5.003c.494-.125.928.028 1.269.337a1.16 1.16 0 0 1 .313 1.236l-8.676 26.524 14.585-3.69c.494-.125.927.028 1.3.46s.373.958.22 1.391l-27.668 56.974c-.184.31-.524.527-.895.621zm-7.404-37.58l12.607-3.189c.371-.094.804.059 1.114.244.341.308.435.679.405 1.081l-4.491 30.068 22.841-46.941-14.337 3.627c-.494.125-.928-.028-1.269-.337s-.466-.802-.313-1.235l8.799-26.556-16.809 4.253-8.548 38.985z" fill="#1455ac"/></g><g opacity=".15" clip-path="url(#D)"><path d="M145.651 164.359l-7.38 1.867 4.116-12.505-8.619 2.181-3.991 18.204 6.356-1.608-2.54 16.691 12.058-24.83z" fill="#ffdd09"/><path d="M135.923 155.357l-2.155.545-3.991 18.204 2.154-.545 3.992-18.204z" fill="#fff"/><path d="M142.958 165.04l-9.044 18.623-.86 5.663 12.059-24.831-2.155.545z" fill="#fd9808"/><path d="M133.729 189.728c-.107.027-.215.054-.282.014-.257-.107-.433-.349-.379-.592l2.394-15.909-5.549 1.404c-.161.041-.404-.012-.553-.147s-.203-.349-.136-.538l3.992-18.205c.066-.189.201-.337.416-.392l8.619-2.18c.215-.055.404.012.553.146s.203.35.136.539l-3.781 11.56 6.356-1.608c.216-.055.405.012.567.2s.163.418.096.607l-12.058 24.83c-.081.135-.229.23-.391.271zm-3.226-16.378l5.494-1.39c.162-.041.351.025.486.106a.54.54 0 0 1 .176.471l-1.957 13.105 9.955-20.459-6.249 1.581c-.215.055-.404-.012-.553-.146s-.203-.35-.136-.539l3.835-11.574-7.326 1.854-3.725 16.991z" fill="#1455ac"/></g></g><defs><clipPath id="A"><rect width="150" height="194" rx="5" fill="#fff"/></clipPath><clipPath id="B"><path fill="#fff" transform="matrix(.969452 -.245282 .245282 .969452 -31 180.903)" d="M0 0h76.496v76.496H0z"/></clipPath><clipPath id="C"><path fill="#fff" transform="matrix(.969452 -.245282 .245282 .969452 39 133.903)" d="M0 0h76.496v76.496H0z"/></clipPath><clipPath id="D"><path fill="#fff" transform="matrix(.969452 -.245282 .245282 .969452 118 159.318)" d="M0 0h33.339v33.339H0z"/></clipPath></defs></svg>