<svg width="24" height="24" viewBox="0 0 24 24" fill="none" xmlns="http://www.w3.org/2000/svg">
<path d="M18.535 22.3594H4.465C2.575 22.3594 1 20.7634 1 18.8524V11.1874C1 10.2214 1.42 9.27637 2.155 8.62537L9.19 2.24137C10.555 1.06538 12.445 1.06538 13.81 2.24137L20.845 8.62537C21.58 9.25537 22 10.2214 22 11.1874V18.8524C21.895 20.8684 20.425 22.3594 18.535 22.3594ZM11.5 3.52237C11.185 3.52237 10.87 3.62737 10.555 3.83737L3.52 10.2214C3.205 10.4314 3.1 10.8514 3.1 11.2924V18.9574C3.1 19.6924 3.73 20.3434 4.465 20.3434H18.43C19.165 20.3434 19.795 19.7134 19.795 18.9574V11.2924C19.795 10.8724 19.585 10.5574 19.375 10.2214L12.34 3.83737C12.13 3.62737 11.815 3.52237 11.5 3.52237Z" fill="#BFBFBF"/>
</svg>
