<svg width="24" height="24" viewBox="0 0 24 24" fill="none" xmlns="http://www.w3.org/2000/svg">
<path d="M0 8C0 3.58172 3.58172 0 8 0H16C20.4183 0 24 3.58172 24 8V16C24 20.4183 20.4183 24 16 24H8C3.58172 24 0 20.4183 0 16V8Z" fill="white"/>
<g clip-path="url(#clip0_29212_2802)">
<path d="M8 13.0013C7.90538 13.0016 7.81261 12.9751 7.73247 12.9248C7.65233 12.8745 7.58811 12.8025 7.54727 12.7171C7.50643 12.6318 7.49064 12.5366 7.50175 12.4426C7.51285 12.3487 7.55039 12.2598 7.61 12.1863L12.56 7.0863C12.5971 7.04344 12.6477 7.01448 12.7035 7.00417C12.7592 6.99386 12.8169 7.00281 12.8669 7.02955C12.9169 7.0563 12.9563 7.09925 12.9787 7.15136C13.001 7.20346 13.005 7.26163 12.99 7.3163L12.03 10.3263C12.0017 10.4021 11.9922 10.4836 12.0023 10.5638C12.0124 10.644 12.0418 10.7206 12.088 10.787C12.1343 10.8534 12.1959 10.9076 12.2676 10.9449C12.3394 10.9822 12.4191 11.0016 12.5 11.0013H16C16.0946 11.001 16.1874 11.0275 16.2675 11.0778C16.3477 11.1281 16.4119 11.2001 16.4527 11.2855C16.4936 11.3708 16.5093 11.466 16.4982 11.56C16.4871 11.6539 16.4496 11.7428 16.39 11.8163L11.44 16.9163C11.4029 16.9592 11.3523 16.9881 11.2965 16.9984C11.2407 17.0087 11.1831 16.9998 11.1331 16.9731C11.0831 16.9463 11.0437 16.9034 11.0213 16.8512C10.999 16.7991 10.995 16.741 11.01 16.6863L11.97 13.6763C11.9983 13.6005 12.0078 13.519 11.9977 13.4388C11.9876 13.3586 11.9582 13.282 11.912 13.2156C11.8657 13.1492 11.8041 13.095 11.7324 13.0577C11.6606 13.0204 11.5809 13.001 11.5 13.0013H8Z" stroke="#A7A8A9" stroke-linecap="round" stroke-linejoin="round"/>
</g>
<defs>
<clipPath id="clip0_29212_2802">
<rect width="12" height="12" fill="white" transform="translate(6 6)"/>
</clipPath>
</defs>
</svg>
