<svg width="12" height="12" viewBox="0 0 12 12" fill="none" xmlns="http://www.w3.org/2000/svg">
<g clip-path="url(#clip0_29212_2803)">
<path d="M2 7.0013C1.90538 7.00162 1.81261 6.97509 1.73247 6.92479C1.65233 6.87449 1.58811 6.80248 1.54727 6.71713C1.50643 6.63178 1.49064 6.5366 1.50175 6.44263C1.51285 6.34867 1.55039 6.25978 1.61 6.1863L6.56 1.0863C6.59713 1.04344 6.64773 1.01448 6.70349 1.00417C6.75925 0.993857 6.81686 1.00281 6.86686 1.02955C6.91686 1.0563 6.95629 1.09925 6.97866 1.15136C7.00104 1.20346 7.00503 1.26163 6.99 1.3163L6.03 4.3263C6.00169 4.40206 5.99218 4.48356 6.00229 4.56381C6.0124 4.64405 6.04183 4.72064 6.08804 4.78702C6.13426 4.85339 6.19588 4.90756 6.26763 4.94488C6.33938 4.98221 6.41912 5.00157 6.5 5.0013H10C10.0946 5.00098 10.1874 5.02751 10.2675 5.07781C10.3477 5.12812 10.4119 5.20012 10.4527 5.28547C10.4936 5.37082 10.5093 5.46601 10.4982 5.55997C10.4871 5.65394 10.4496 5.74282 10.39 5.8163L5.44 10.9163C5.40287 10.9592 5.35227 10.9881 5.29651 10.9984C5.24074 11.0087 5.18313 10.9998 5.13313 10.9731C5.08313 10.9463 5.0437 10.9034 5.02133 10.8512C4.99895 10.7991 4.99496 10.741 5.01 10.6863L5.97 7.6763C5.9983 7.60054 6.00781 7.51904 5.9977 7.4388C5.98759 7.35856 5.95817 7.28196 5.91195 7.21559C5.86574 7.14922 5.80411 7.09504 5.73236 7.05772C5.66061 7.0204 5.58087 7.00104 5.5 7.0013H2Z" stroke="#A7A8A9" stroke-linecap="round" stroke-linejoin="round"/>
</g>
<defs>
<clipPath id="clip0_29212_2803">
<rect width="12" height="12" fill="white"/>
</clipPath>
</defs>
</svg>
