<svg width="20" height="20" viewBox="0 0 20 20" fill="none" xmlns="http://www.w3.org/2000/svg">
<path d="M9.84375 -0.32959C9.58496 -0.32959 9.375 -0.119629 9.375 0.13916C9.375 0.397949 9.58496 0.60791 9.84375 0.60791C14.7546 0.60791 18.75 4.60327 18.75 9.51416C18.75 9.77295 18.96 9.98291 19.2188 9.98291C19.4775 9.98291 19.6875 9.77295 19.6875 9.51416C19.6875 4.0863 15.2722 -0.32959 9.84375 -0.32959Z" fill="#AFAFAF"/>
<path d="M9.84375 18.4204C4.93286 18.4204 0.9375 14.425 0.9375 9.51416C0.9375 9.25537 0.727539 9.04541 0.46875 9.04541C0.209961 9.04541 0 9.25537 0 9.51416C0 14.942 4.41528 19.3579 9.84375 19.3579C10.1025 19.3579 10.3125 19.1479 10.3125 18.8892C10.3125 18.6304 10.1025 18.4204 9.84375 18.4204Z" fill="#AFAFAF"/>
<path d="M9.84375 2.17041C5.79468 2.17041 2.5 5.46509 2.5 9.51416C2.5 13.5632 5.79468 16.8579 9.84375 16.8579C13.8928 16.8579 17.1875 13.5632 17.1875 9.51416C17.1875 5.46509 13.8928 2.17041 9.84375 2.17041ZM9.84375 15.9204C6.31104 15.9204 3.4375 13.0469 3.4375 9.51416C3.4375 5.98145 6.31104 3.10791 9.84375 3.10791C13.3765 3.10791 16.25 5.98145 16.25 9.51416C16.25 13.0469 13.3765 15.9204 9.84375 15.9204Z" fill="#AFAFAF"/>
<path d="M13.8538 7.85291L11.3733 7.49219L10.2637 5.24426C10.1074 4.92444 9.58008 4.92444 9.42383 5.24426L8.31421 7.49219L5.83374 7.85291C5.65674 7.87854 5.51026 8.00244 5.45533 8.17212C5.40039 8.3418 5.44556 8.52795 5.57373 8.65247L7.36817 10.4017L6.9458 12.8724C6.91529 13.0482 6.98731 13.2264 7.13135 13.3308C7.27539 13.4358 7.46826 13.4498 7.62574 13.3668L9.84375 12.2004L12.0618 13.3668C12.1301 13.4028 12.2058 13.4205 12.2803 13.4205C12.3779 13.4205 12.4744 13.3906 12.5562 13.3308C12.7002 13.2264 12.7722 13.0482 12.7417 12.8724L12.3193 10.4017L14.1138 8.65247C14.2419 8.52795 14.2871 8.3418 14.2322 8.17212C14.1772 8.00244 14.0308 7.87854 13.8538 7.85291ZM11.488 9.90247C11.377 10.0099 11.3269 10.1655 11.3538 10.3175L11.6577 12.0948L10.0623 11.2556C9.9939 11.2196 9.91822 11.2019 9.84375 11.2019C9.76929 11.2019 9.69361 11.2196 9.62525 11.2556L8.02979 12.0948L8.33374 10.3175C8.3606 10.1655 8.31055 10.0099 8.19947 9.90247L6.90796 8.64392L8.69263 8.38452C8.84522 8.36255 8.97705 8.26672 9.04541 8.12817L9.84375 6.51135L10.6421 8.12817C10.7105 8.26672 10.8423 8.36255 10.9949 8.38452L12.7795 8.64392L11.488 9.90247Z" fill="#AFAFAF"/>
</svg>
