<svg width="24" height="25" viewBox="0 0 24 25" fill="none" xmlns="http://www.w3.org/2000/svg">
<path d="M11.2895 9.82495C11.0903 9.82495 10.8999 9.74583 10.7593 9.6052L9.18015 8.0254C8.8872 7.73245 8.8872 7.25748 9.18015 6.96483C9.4731 6.67188 9.9477 6.67188 10.2407 6.96483L11.2895 8.014L13.7593 5.54463C14.0522 5.25168 14.5268 5.25168 14.8198 5.54463C15.1129 5.83758 15.1128 6.31218 14.8198 6.6052L11.8198 9.6052C11.6792 9.74583 11.4887 9.82495 11.2895 9.82495Z" fill="#BFBFBF"/>
<path d="M12 15.075C7.86473 15.075 4.5 11.7106 4.5 7.57495C4.5 3.4393 7.86473 0.0749512 12 0.0749512C16.1353 0.0749512 19.5 3.4393 19.5 7.57495C19.5 11.7106 16.1353 15.075 12 15.075ZM12 1.57495C8.69168 1.57495 6 4.26663 6 7.57495C6 10.8833 8.69168 13.575 12 13.575C15.3083 13.575 18 10.8833 18 7.57495C18 4.26663 15.3083 1.57495 12 1.57495Z" fill="#BFBFBF"/>
<path d="M12 24.075C10.7593 24.075 9.75 23.0657 9.75 21.825V14.1598C9.75 13.7457 10.0855 13.4098 10.5 13.4098C10.9145 13.4098 11.25 13.7457 11.25 14.1598V21.825C11.25 22.2384 11.5862 22.575 12 22.575C12.4138 22.575 12.75 22.2384 12.75 21.825V14.1598C12.75 13.7457 13.0855 13.4098 13.5 13.4098C13.9145 13.4098 14.25 13.7457 14.25 14.1598V21.825C14.25 23.0657 13.2407 24.075 12 24.075Z" fill="#BFBFBF"/>
<path d="M11.2895 9.82495C11.0903 9.82495 10.8999 9.74583 10.7593 9.6052L9.18015 8.0254C8.8872 7.73245 8.8872 7.25748 9.18015 6.96483C9.4731 6.67188 9.9477 6.67188 10.2407 6.96483L11.2895 8.014L13.7593 5.54463C14.0522 5.25168 14.5268 5.25168 14.8198 5.54463C15.1129 5.83758 15.1128 6.31218 14.8198 6.6052L11.8198 9.6052C11.6792 9.74583 11.4887 9.82495 11.2895 9.82495Z" stroke="#BFBFBF" stroke-width="0.15"/>
<path d="M12 15.075C7.86473 15.075 4.5 11.7106 4.5 7.57495C4.5 3.4393 7.86473 0.0749512 12 0.0749512C16.1353 0.0749512 19.5 3.4393 19.5 7.57495C19.5 11.7106 16.1353 15.075 12 15.075ZM12 1.57495C8.69168 1.57495 6 4.26663 6 7.57495C6 10.8833 8.69168 13.575 12 13.575C15.3083 13.575 18 10.8833 18 7.57495C18 4.26663 15.3083 1.57495 12 1.57495Z" stroke="#BFBFBF" stroke-width="0.15"/>
<path d="M12 24.075C10.7593 24.075 9.75 23.0657 9.75 21.825V14.1598C9.75 13.7457 10.0855 13.4098 10.5 13.4098C10.9145 13.4098 11.25 13.7457 11.25 14.1598V21.825C11.25 22.2384 11.5862 22.575 12 22.575C12.4138 22.575 12.75 22.2384 12.75 21.825V14.1598C12.75 13.7457 13.0855 13.4098 13.5 13.4098C13.9145 13.4098 14.25 13.7457 14.25 14.1598V21.825C14.25 23.0657 13.2407 24.075 12 24.075Z" stroke="#BFBFBF" stroke-width="0.15"/>
</svg>
