<svg width="24" height="24" viewBox="0 0 24 24" fill="none" xmlns="http://www.w3.org/2000/svg">
<path fill-rule="evenodd" clip-rule="evenodd" d="M2.24976 10.1746C2.24976 9.76056 2.58576 9.42456 2.99976 9.42456C3.41376 9.42456 3.74976 9.76056 3.74976 10.1746V18.6746C3.74976 19.9176 4.75676 20.9246 5.99976 20.9246H17.9998C19.2428 20.9246 20.2498 19.9176 20.2498 18.6746V10.1746C20.2498 9.76056 20.5858 9.42456 20.9998 9.42456C21.4138 9.42456 21.7498 9.76056 21.7498 10.1746V18.6746C21.7498 20.7456 20.0708 22.4246 17.9998 22.4246H5.99976C3.92876 22.4246 2.24976 20.7456 2.24976 18.6746V10.1746Z" fill="#BFBFBF"/>
<path fill-rule="evenodd" clip-rule="evenodd" d="M11.9998 13.4246C12.9948 13.4246 13.9478 13.8196 14.6518 14.5226C15.3548 15.2266 15.7498 16.1796 15.7498 17.1746V21.6746C15.7498 22.0886 15.4138 22.4246 14.9998 22.4246C14.5858 22.4246 14.2498 22.0886 14.2498 21.6746V17.1746C14.2498 16.5776 14.0128 16.0056 13.5908 15.5836C13.1688 15.1616 12.5968 14.9246 11.9998 14.9246C11.4028 14.9246 10.8308 15.1616 10.4088 15.5836C9.98676 16.0056 9.74976 16.5776 9.74976 17.1746V21.6746C9.74976 22.0886 9.41376 22.4246 8.99976 22.4246C8.58576 22.4246 8.24976 22.0886 8.24976 21.6746V17.1746C8.24976 16.1796 8.64476 15.2266 9.34776 14.5226C10.0518 13.8196 11.0048 13.4246 11.9998 13.4246Z" fill="#BFBFBF"/>
<path fill-rule="evenodd" clip-rule="evenodd" d="M8.94385 2.32495V7.94995C8.94385 10.062 7.22985 11.775 5.11785 11.775C3.92685 11.775 2.80185 11.226 2.06885 10.288C1.33585 9.34895 1.07685 8.12595 1.36485 6.96995L2.15985 3.79095C2.48585 2.48795 3.65585 1.57495 4.99785 1.57495H8.19385C8.60785 1.57495 8.94385 1.91095 8.94385 2.32495ZM7.44385 3.07495H4.99785C4.34385 3.07495 3.77385 3.51995 3.61585 4.15395L2.82085 7.33395C2.64385 8.04095 2.80285 8.78995 3.25085 9.36495C3.69985 9.93895 4.38885 10.275 5.11785 10.275C6.40185 10.275 7.44385 9.23395 7.44385 7.94995V3.07495Z" fill="#BFBFBF"/>
<path fill-rule="evenodd" clip-rule="evenodd" d="M15.8064 1.57495H19.0024C20.3444 1.57495 21.5144 2.48795 21.8404 3.79095L22.6354 6.96995C22.9234 8.12595 22.6644 9.34895 21.9314 10.288C21.1984 11.226 20.0734 11.775 18.8824 11.775C16.7704 11.775 15.0564 10.062 15.0564 7.94995V2.32495C15.0564 1.91095 15.3924 1.57495 15.8064 1.57495ZM16.5564 3.07495V7.94995C16.5564 9.23395 17.5984 10.275 18.8824 10.275C19.6114 10.275 20.3004 9.93895 20.7494 9.36495C21.1974 8.78995 21.3564 8.04095 21.1794 7.33395L20.3844 4.15395C20.2264 3.51995 19.6564 3.07495 19.0024 3.07495H16.5564Z" fill="#BFBFBF"/>
<path fill-rule="evenodd" clip-rule="evenodd" d="M8.1853 1.57495H15.8053C16.0043 1.57495 16.1953 1.65395 16.3363 1.79495C16.4773 1.93595 16.5553 2.12695 16.5553 2.32595L16.5503 7.76595C16.5483 9.98095 14.7523 11.775 12.5383 11.775H11.4483C9.2323 11.775 7.4353 9.97895 7.4353 7.76295V2.32495C7.4353 1.91095 7.7713 1.57495 8.1853 1.57495ZM8.9353 3.07495V7.76295C8.9353 9.14995 10.0603 10.275 11.4483 10.275H12.5383C13.9253 10.275 15.0493 9.15195 15.0503 7.76495L15.0553 3.07495H8.9353Z" fill="#BFBFBF"/>
<path fill-rule="evenodd" clip-rule="evenodd" d="M2.24976 10.1746C2.24976 9.76056 2.58576 9.42456 2.99976 9.42456C3.41376 9.42456 3.74976 9.76056 3.74976 10.1746V18.6746C3.74976 19.9176 4.75676 20.9246 5.99976 20.9246H17.9998C19.2428 20.9246 20.2498 19.9176 20.2498 18.6746V10.1746C20.2498 9.76056 20.5858 9.42456 20.9998 9.42456C21.4138 9.42456 21.7498 9.76056 21.7498 10.1746V18.6746C21.7498 20.7456 20.0708 22.4246 17.9998 22.4246H5.99976C3.92876 22.4246 2.24976 20.7456 2.24976 18.6746V10.1746Z" stroke="#BFBFBF" stroke-width="0.3"/>
<path fill-rule="evenodd" clip-rule="evenodd" d="M11.9998 13.4246C12.9948 13.4246 13.9478 13.8196 14.6518 14.5226C15.3548 15.2266 15.7498 16.1796 15.7498 17.1746V21.6746C15.7498 22.0886 15.4138 22.4246 14.9998 22.4246C14.5858 22.4246 14.2498 22.0886 14.2498 21.6746V17.1746C14.2498 16.5776 14.0128 16.0056 13.5908 15.5836C13.1688 15.1616 12.5968 14.9246 11.9998 14.9246C11.4028 14.9246 10.8308 15.1616 10.4088 15.5836C9.98676 16.0056 9.74976 16.5776 9.74976 17.1746V21.6746C9.74976 22.0886 9.41376 22.4246 8.99976 22.4246C8.58576 22.4246 8.24976 22.0886 8.24976 21.6746V17.1746C8.24976 16.1796 8.64476 15.2266 9.34776 14.5226C10.0518 13.8196 11.0048 13.4246 11.9998 13.4246Z" stroke="#BFBFBF" stroke-width="0.3"/>
<path fill-rule="evenodd" clip-rule="evenodd" d="M8.94385 2.32495V7.94995C8.94385 10.062 7.22985 11.775 5.11785 11.775C3.92685 11.775 2.80185 11.226 2.06885 10.288C1.33585 9.34895 1.07685 8.12595 1.36485 6.96995L2.15985 3.79095C2.48585 2.48795 3.65585 1.57495 4.99785 1.57495H8.19385C8.60785 1.57495 8.94385 1.91095 8.94385 2.32495ZM7.44385 3.07495H4.99785C4.34385 3.07495 3.77385 3.51995 3.61585 4.15395L2.82085 7.33395C2.64385 8.04095 2.80285 8.78995 3.25085 9.36495C3.69985 9.93895 4.38885 10.275 5.11785 10.275C6.40185 10.275 7.44385 9.23395 7.44385 7.94995V3.07495Z" stroke="#BFBFBF" stroke-width="0.3"/>
<path fill-rule="evenodd" clip-rule="evenodd" d="M15.8064 1.57495H19.0024C20.3444 1.57495 21.5144 2.48795 21.8404 3.79095L22.6354 6.96995C22.9234 8.12595 22.6644 9.34895 21.9314 10.288C21.1984 11.226 20.0734 11.775 18.8824 11.775C16.7704 11.775 15.0564 10.062 15.0564 7.94995V2.32495C15.0564 1.91095 15.3924 1.57495 15.8064 1.57495ZM16.5564 3.07495V7.94995C16.5564 9.23395 17.5984 10.275 18.8824 10.275C19.6114 10.275 20.3004 9.93895 20.7494 9.36495C21.1974 8.78995 21.3564 8.04095 21.1794 7.33395L20.3844 4.15395C20.2264 3.51995 19.6564 3.07495 19.0024 3.07495H16.5564Z" stroke="#BFBFBF" stroke-width="0.3"/>
<path fill-rule="evenodd" clip-rule="evenodd" d="M8.1853 1.57495H15.8053C16.0043 1.57495 16.1953 1.65395 16.3363 1.79495C16.4773 1.93595 16.5553 2.12695 16.5553 2.32595L16.5503 7.76595C16.5483 9.98095 14.7523 11.775 12.5383 11.775H11.4483C9.2323 11.775 7.4353 9.97895 7.4353 7.76295V2.32495C7.4353 1.91095 7.7713 1.57495 8.1853 1.57495ZM8.9353 3.07495V7.76295C8.9353 9.14995 10.0603 10.275 11.4483 10.275H12.5383C13.9253 10.275 15.0493 9.15195 15.0503 7.76495L15.0553 3.07495H8.9353Z" stroke="#BFBFBF" stroke-width="0.3"/>
</svg>
