<svg width="24" height="24" viewBox="0 0 24 24" fill="none" xmlns="http://www.w3.org/2000/svg">
<path d="M6.25714 6.03846C6.25714 5.59262 6.62194 5.23077 7.07143 5.23077H15.7571C16.2066 5.23077 16.5714 5.59262 16.5714 6.03846C16.5714 6.48431 16.2066 6.84615 15.7571 6.84615H7.07143C6.62194 6.84615 6.25714 6.48431 6.25714 6.03846ZM8.15714 11.6923H7.07143C6.62194 11.6923 6.25714 12.0542 6.25714 12.5C6.25714 12.9458 6.62194 13.3077 7.07143 13.3077H8.15714C8.60663 13.3077 8.97143 12.9458 8.97143 12.5C8.97143 12.0542 8.60663 11.6923 8.15714 11.6923ZM7.07143 10.0769H11.4143C11.8638 10.0769 12.2286 9.71508 12.2286 9.26923C12.2286 8.82338 11.8638 8.46154 11.4143 8.46154H7.07143C6.62194 8.46154 6.25714 8.82338 6.25714 9.26923C6.25714 9.71508 6.62194 10.0769 7.07143 10.0769ZM17.8797 16H16.5714V14.6162C16.5714 14.1703 16.2066 13.8085 15.7571 13.8085C15.3077 13.8085 14.9429 14.1703 14.9429 14.6162V16.8077C14.9429 17.2535 15.3077 17.6154 15.7571 17.6154H17.8797C18.3292 17.6154 18.694 17.2535 18.694 16.8077C18.694 16.3618 18.3292 16 17.8797 16ZM22 16.8077C22 20.2215 19.1999 23 15.7571 23C14.4554 23 13.2459 22.6015 12.2449 21.9231H5.98571C4.33869 21.9231 3 20.5952 3 18.9615V4.96154C3 3.32785 4.33869 2 5.98571 2H16.8429C18.4899 2 19.8286 3.32785 19.8286 4.96154V12.1242C21.1553 13.2603 22 14.9371 22 16.8077ZM5.98571 20.3077H10.6119C9.92034 19.3115 9.51429 18.1065 9.51429 16.8077C9.51429 13.3938 12.3143 10.6154 15.7571 10.6154C16.6235 10.6154 17.4498 10.792 18.2 11.1097V4.96154C18.2 4.21954 17.5909 3.61538 16.8429 3.61538H5.98571C5.23766 3.61538 4.62857 4.21954 4.62857 4.96154V18.9615C4.62857 19.7035 5.23766 20.3077 5.98571 20.3077ZM20.3714 16.8077C20.3714 14.2845 18.3021 12.2308 15.7571 12.2308C13.2122 12.2308 11.1429 14.2845 11.1429 16.8077C11.1429 19.3309 13.2122 21.3846 15.7571 21.3846C18.3021 21.3846 20.3714 19.3309 20.3714 16.8077Z" fill="#AFAFAF"/>
</svg>
