<svg width="24" height="24" viewBox="0 0 24 24" fill="none" xmlns="http://www.w3.org/2000/svg">
<path fill-rule="evenodd" clip-rule="evenodd" d="M2.80009 5.30296C2.82111 3.6038 4.22706 2.25757 5.92713 2.25757H17.7817C19.4786 2.25757 20.8826 3.59889 20.9086 5.29366L22.3949 18.5686C22.3982 18.5981 22.3998 18.6279 22.3998 18.6576C22.3998 20.3749 20.9855 21.7416 19.2726 21.7416H4.72713C3.0142 21.7416 1.59985 20.3749 1.59985 18.6576C1.59985 18.6336 1.60093 18.6097 1.60308 18.5858L2.80009 5.30296ZM5.92713 3.85757C5.06942 3.85757 4.39985 4.53607 4.39985 5.34158C4.39985 5.36555 4.39878 5.38951 4.39662 5.41339L3.20021 18.6896C3.21768 19.481 3.88082 20.1416 4.72713 20.1416H19.2726C20.1161 20.1416 20.7777 19.4853 20.7993 18.6974L19.3139 5.4306C19.3106 5.40104 19.3089 5.37132 19.3089 5.34158C19.3089 4.53607 18.6394 3.85757 17.7817 3.85757H5.92713ZM8.39985 7.54161C8.84168 7.54161 9.19985 7.89979 9.19985 8.34161C9.19985 9.88801 10.4535 11.1416 11.9999 11.1416C13.5462 11.1416 14.7999 9.88801 14.7999 8.34161C14.7999 7.89979 15.158 7.54161 15.5999 7.54161C16.0417 7.54161 16.3999 7.89979 16.3999 8.34161C16.3999 10.7717 14.4299 12.7416 11.9999 12.7416C9.5698 12.7416 7.59985 10.7717 7.59985 8.34161C7.59985 7.89979 7.95802 7.54161 8.39985 7.54161Z" fill="#BFBFBF" stroke="#BFBFBF" stroke-width="0.2" stroke-linecap="round"/>
</svg>
