<svg width="24" height="24" viewBox="0 0 24 24" fill="none" xmlns="http://www.w3.org/2000/svg">
<path d="M21.0894 16.9069L15.6094 11.4259L16.4404 10.5949C16.6294 10.6619 16.8254 10.7009 17.0234 10.7009C17.4714 10.7009 17.9194 10.5299 18.2604 10.1889L18.9674 9.48191C19.2984 9.15091 19.4804 8.71091 19.4804 8.24391C19.4804 7.77691 19.2974 7.33691 18.9674 7.00791L14.7254 2.76491C14.0644 2.10591 12.9124 2.10291 12.2504 2.76491L11.5434 3.47191C11.0514 3.96391 10.9204 4.67591 11.1374 5.29191L6.29241 10.1369C5.67741 9.92091 4.96441 10.0519 4.47241 10.5429L3.76541 11.2499C3.08341 11.9329 3.08341 13.0419 3.76541 13.7249L8.00841 17.9679C8.33941 18.2989 8.77841 18.4809 9.24541 18.4809C9.71241 18.4809 10.1524 18.2979 10.4824 17.9679L11.1904 17.2609C11.6814 16.7689 11.8134 16.0559 11.5964 15.4399L12.4274 14.6089L17.9074 20.0889C18.3454 20.5269 18.9224 20.7469 19.4984 20.7469C20.0744 20.7469 20.6514 20.5269 21.0894 20.0889C21.9664 19.2119 21.9664 17.7839 21.0894 16.9069ZM10.6594 14.2549L7.47741 11.0729L12.0734 6.47591L15.2554 9.65791L10.6594 14.2539V14.2549ZM12.6044 4.53191L13.3114 3.82491C13.3754 3.76191 13.4494 3.75191 13.4884 3.75191C13.5274 3.75191 13.6014 3.76191 13.6654 3.82491L17.9084 8.06891C17.9714 8.13091 17.9814 8.20591 17.9814 8.24391C17.9814 8.28291 17.9724 8.35791 17.9084 8.42191L17.2014 9.12891C17.1034 9.22691 16.9454 9.22691 16.8474 9.12891L12.6044 4.88591C12.5074 4.78791 12.5074 4.62991 12.6044 4.53191ZM10.1294 16.1999L9.42141 16.9069C9.29441 17.0339 9.19641 17.0339 9.06841 16.9069L4.82541 12.6639C4.72841 12.5659 4.72841 12.4079 4.82541 12.3099L5.53241 11.6029C5.58141 11.5539 5.64541 11.5299 5.70941 11.5299C5.77341 11.5299 5.83741 11.5539 5.88641 11.6029L10.1284 15.8449C10.2264 15.9429 10.2264 16.1019 10.1284 16.1989L10.1294 16.1999ZM20.0284 19.0279C19.7364 19.3199 19.2604 19.3219 18.9674 19.0279L13.4874 13.5479L14.5484 12.4869L20.0284 17.9679C20.3204 18.2599 20.3204 18.7359 20.0284 19.0279Z" fill="#BFBFBF"/>
<path d="M12 21.75H3C2.586 21.75 2.25 21.414 2.25 21C2.25 20.586 2.586 20.25 3 20.25H12C12.414 20.25 12.75 20.586 12.75 21C12.75 21.414 12.414 21.75 12 21.75Z" fill="#BFBFBF"/>
<path d="M21.0894 16.9069L15.6094 11.4259L16.4404 10.5949C16.6294 10.6619 16.8254 10.7009 17.0234 10.7009C17.4714 10.7009 17.9194 10.5299 18.2604 10.1889L18.9674 9.48191C19.2984 9.15091 19.4804 8.71091 19.4804 8.24391C19.4804 7.77691 19.2974 7.33691 18.9674 7.00791L14.7254 2.76491C14.0644 2.10591 12.9124 2.10291 12.2504 2.76491L11.5434 3.47191C11.0514 3.96391 10.9204 4.67591 11.1374 5.29191L6.29241 10.1369C5.67741 9.92091 4.96441 10.0519 4.47241 10.5429L3.76541 11.2499C3.08341 11.9329 3.08341 13.0419 3.76541 13.7249L8.00841 17.9679C8.33941 18.2989 8.77841 18.4809 9.24541 18.4809C9.71241 18.4809 10.1524 18.2979 10.4824 17.9679L11.1904 17.2609C11.6814 16.7689 11.8134 16.0559 11.5964 15.4399L12.4274 14.6089L17.9074 20.0889C18.3454 20.5269 18.9224 20.7469 19.4984 20.7469C20.0744 20.7469 20.6514 20.5269 21.0894 20.0889C21.9664 19.2119 21.9664 17.7839 21.0894 16.9069ZM10.6594 14.2549L7.47741 11.0729L12.0734 6.47591L15.2554 9.65791L10.6594 14.2539V14.2549ZM12.6044 4.53191L13.3114 3.82491C13.3754 3.76191 13.4494 3.75191 13.4884 3.75191C13.5274 3.75191 13.6014 3.76191 13.6654 3.82491L17.9084 8.06891C17.9714 8.13091 17.9814 8.20591 17.9814 8.24391C17.9814 8.28291 17.9724 8.35791 17.9084 8.42191L17.2014 9.12891C17.1034 9.22691 16.9454 9.22691 16.8474 9.12891L12.6044 4.88591C12.5074 4.78791 12.5074 4.62991 12.6044 4.53191ZM10.1294 16.1999L9.42141 16.9069C9.29441 17.0339 9.19641 17.0339 9.06841 16.9069L4.82541 12.6639C4.72841 12.5659 4.72841 12.4079 4.82541 12.3099L5.53241 11.6029C5.58141 11.5539 5.64541 11.5299 5.70941 11.5299C5.77341 11.5299 5.83741 11.5539 5.88641 11.6029L10.1284 15.8449C10.2264 15.9429 10.2264 16.1019 10.1284 16.1989L10.1294 16.1999ZM20.0284 19.0279C19.7364 19.3199 19.2604 19.3219 18.9674 19.0279L13.4874 13.5479L14.5484 12.4869L20.0284 17.9679C20.3204 18.2599 20.3204 18.7359 20.0284 19.0279Z" stroke="#BFBFBF" stroke-width="0.1"/>
<path d="M12 21.75H3C2.586 21.75 2.25 21.414 2.25 21C2.25 20.586 2.586 20.25 3 20.25H12C12.414 20.25 12.75 20.586 12.75 21C12.75 21.414 12.414 21.75 12 21.75Z" stroke="#BFBFBF" stroke-width="0.1"/>
</svg>
