<svg width="24" height="24" viewBox="0 0 24 24" fill="none" xmlns="http://www.w3.org/2000/svg">
<path fill-rule="evenodd" clip-rule="evenodd" d="M4.40352 1.63867C2.87761 1.63867 1.64062 2.87566 1.64062 4.40156V8.5459C1.64062 10.0718 2.87761 11.3088 4.40352 11.3088H8.54785C10.0738 11.3088 11.3107 10.0718 11.3107 8.5459V4.40156C11.3107 2.87566 10.0738 1.63867 8.54785 1.63867H4.40352ZM3.02207 4.40156C3.02207 3.63861 3.64056 3.02012 4.40352 3.02012H8.54785C9.31079 3.02012 9.9293 3.63861 9.9293 4.40156V8.5459C9.9293 9.30884 9.31079 9.92734 8.54785 9.92734H4.40352C3.64056 9.92734 3.02207 9.30884 3.02207 8.5459V4.40156Z" fill="#BFBFBF"/>
<path fill-rule="evenodd" clip-rule="evenodd" d="M1.58984 4.40151C1.58984 2.848 2.84922 1.58862 4.40273 1.58862H8.54707C10.1006 1.58862 11.36 2.848 11.36 4.40151V8.54585C11.36 10.0994 10.1006 11.3587 8.54707 11.3587H4.40273C2.84922 11.3587 1.58984 10.0994 1.58984 8.54585V4.40151ZM4.40273 1.68862C2.90445 1.68862 1.68984 2.90322 1.68984 4.40151V8.54585C1.68984 10.0441 2.90445 11.2587 4.40273 11.2587H8.54707C10.0454 11.2587 11.26 10.0441 11.26 8.54585V4.40151C11.26 2.90322 10.0454 1.68862 8.54707 1.68862H4.40273ZM4.40273 3.07007C3.6674 3.07007 3.07129 3.66618 3.07129 4.40151V8.54585C3.07129 9.28117 3.6674 9.87729 4.40273 9.87729H8.54707C9.28239 9.87729 9.87852 9.28117 9.87852 8.54585V4.40151C9.87852 3.66618 9.28239 3.07007 8.54707 3.07007H4.40273ZM2.97129 4.40151C2.97129 3.61095 3.61217 2.97007 4.40273 2.97007H8.54707C9.33762 2.97007 9.97852 3.61095 9.97852 4.40151V8.54585C9.97852 9.3364 9.33762 9.97729 8.54707 9.97729H4.40273C3.61217 9.97729 2.97129 9.3364 2.97129 8.54585V4.40151Z" fill="#BFBFBF"/>
<path fill-rule="evenodd" clip-rule="evenodd" d="M18.1999 2.17619C18.1284 1.86175 17.8488 1.63862 17.5264 1.63862C17.2039 1.63862 16.9243 1.86175 16.8528 2.17619L16.4707 3.85686C16.2939 4.63422 15.6869 5.24123 14.9095 5.41798L13.2289 5.80016C12.9145 5.87165 12.6913 6.15122 12.6913 6.47368C12.6913 6.79615 12.9145 7.07572 13.2289 7.1472L14.9095 7.52938C15.6869 7.70614 16.2939 8.31315 16.4707 9.09052L16.8528 10.7712C16.9243 11.0856 17.2039 11.3087 17.5264 11.3087C17.8488 11.3087 18.1284 11.0856 18.1999 10.7712L18.5821 9.09052C18.7588 8.31315 19.3658 7.70614 20.1432 7.52938L21.8239 7.1472C22.1383 7.07572 22.3614 6.79615 22.3614 6.47368C22.3614 6.15122 22.1383 5.87165 21.8239 5.80016L20.1432 5.41798C19.3658 5.24123 18.7588 4.63422 18.5821 3.85686L18.1999 2.17619ZM16.02 6.47368C16.6679 6.14307 17.1958 5.61518 17.5264 4.96735C17.857 5.61518 18.3849 6.14307 19.0327 6.47368C18.3849 6.8043 17.857 7.33218 17.5264 7.98001C17.1958 7.33218 16.6679 6.8043 16.02 6.47368Z" fill="#BFBFBF"/>
<path fill-rule="evenodd" clip-rule="evenodd" d="M1.64062 15.4531C1.64062 13.9272 2.87761 12.6902 4.40352 12.6902H8.54785C10.0738 12.6902 11.3107 13.9272 11.3107 15.4531V19.5974C11.3107 21.1233 10.0738 22.3603 8.54785 22.3603H4.40352C2.87761 22.3603 1.64062 21.1233 1.64062 19.5974V15.4531ZM4.40352 14.0716C3.64056 14.0716 3.02207 14.6901 3.02207 15.4531V19.5974C3.02207 20.3603 3.64056 20.9789 4.40352 20.9789H8.54785C9.31079 20.9789 9.9293 20.3603 9.9293 19.5974V15.4531C9.9293 14.6901 9.31079 14.0716 8.54785 14.0716H4.40352Z" fill="#BFBFBF"/>
<path fill-rule="evenodd" clip-rule="evenodd" d="M4.40273 12.7402C2.90445 12.7402 1.68984 13.9548 1.68984 15.4531V19.5974C1.68984 21.0957 2.90445 22.3103 4.40273 22.3103H8.54707C10.0454 22.3103 11.26 21.0957 11.26 19.5974V15.4531C11.26 13.9548 10.0454 12.7402 8.54707 12.7402H4.40273ZM1.58984 15.4531C1.58984 13.8996 2.84922 12.6402 4.40273 12.6402H8.54707C10.1006 12.6402 11.36 13.8996 11.36 15.4531V19.5974C11.36 21.151 10.1006 22.4103 8.54707 22.4103H4.40273C2.84922 22.4103 1.58984 21.151 1.58984 19.5974V15.4531ZM2.97129 15.4531C2.97129 14.6625 3.61217 14.0217 4.40273 14.0217H8.54707C9.33762 14.0217 9.97852 14.6625 9.97852 15.4531V19.5974C9.97852 20.388 9.33762 21.0289 8.54707 21.0289H4.40273C3.61217 21.0289 2.97129 20.388 2.97129 19.5974V15.4531ZM4.40273 14.1217C3.6674 14.1217 3.07129 14.7178 3.07129 15.4531V19.5974C3.07129 20.3328 3.6674 20.9289 4.40273 20.9289H8.54707C9.28239 20.9289 9.87852 20.3328 9.87852 19.5974V15.4531C9.87852 14.7178 9.28239 14.1217 8.54707 14.1217H4.40273Z" fill="#BFBFBF"/>
<path fill-rule="evenodd" clip-rule="evenodd" d="M15.4542 12.6902C13.9283 12.6902 12.6913 13.9272 12.6913 15.4531V19.5974C12.6913 21.1233 13.9283 22.3603 15.4542 22.3603H19.5985C21.1245 22.3603 22.3614 21.1233 22.3614 19.5974V15.4531C22.3614 13.9272 21.1245 12.6902 19.5985 12.6902H15.4542ZM14.0728 15.4531C14.0728 14.6902 14.6913 14.0717 15.4542 14.0717H19.5985C20.3615 14.0717 20.98 14.6902 20.98 15.4531V19.5974C20.98 20.3604 20.3615 20.9789 19.5985 20.9789H15.4542C14.6913 20.9789 14.0728 20.3604 14.0728 19.5974V15.4531Z" fill="#BFBFBF"/>
<path fill-rule="evenodd" clip-rule="evenodd" d="M12.6406 15.453C12.6406 13.8995 13.9 12.6401 15.4535 12.6401H19.5979C21.1514 12.6401 22.4107 13.8995 22.4107 15.453V19.5974C22.4107 21.1509 21.1514 22.4103 19.5979 22.4103H15.4535C13.9 22.4103 12.6406 21.1509 12.6406 19.5974V15.453ZM15.4535 12.7401C13.9552 12.7401 12.7406 13.9547 12.7406 15.453V19.5974C12.7406 21.0957 13.9552 22.3103 15.4535 22.3103H19.5979C21.0961 22.3103 22.3107 21.0957 22.3107 19.5974V15.453C22.3107 13.9547 21.0961 12.7401 19.5979 12.7401H15.4535ZM15.4535 14.1216C14.7182 14.1216 14.1221 14.7177 14.1221 15.453V19.5974C14.1221 20.3327 14.7182 20.9288 15.4535 20.9288H19.5979C20.3332 20.9288 20.9293 20.3327 20.9293 19.5974V15.453C20.9293 14.7177 20.3332 14.1216 19.5979 14.1216H15.4535ZM14.0221 15.453C14.0221 14.6625 14.663 14.0216 15.4535 14.0216H19.5979C20.3884 14.0216 21.0293 14.6625 21.0293 15.453V19.5974C21.0293 20.3879 20.3884 21.0288 19.5979 21.0288H15.4535C14.663 21.0288 14.0221 20.3879 14.0221 19.5974V15.453Z" fill="#BFBFBF"/>
<path d="M11.21 15.4529C11.2098 13.9823 10.0175 12.7898 8.54688 12.7898H4.40234C2.93192 12.79 1.74035 13.9824 1.74023 15.4529V19.5974C1.74023 21.068 2.93185 22.2603 4.40234 22.2605H8.54688C10.0176 22.2605 11.21 21.0681 11.21 19.5974V15.4529ZM22.2607 15.4529C22.2607 13.9823 21.0683 12.7898 19.5977 12.7898H15.4531C13.9827 12.79 12.7911 13.9824 12.791 15.4529V19.5974C12.791 21.0679 13.9826 22.2603 15.4531 22.2605H19.5977C21.0683 22.2605 22.2607 21.0681 22.2607 19.5974V15.4529ZM9.82812 15.4529C9.82801 14.7453 9.25451 14.1716 8.54688 14.1716H4.40234C3.69487 14.1718 3.12121 14.7454 3.12109 15.4529V19.5974C3.12109 20.305 3.6948 20.8785 4.40234 20.8787H8.54688C9.25458 20.8787 9.82812 20.3051 9.82812 19.5974V15.4529ZM20.8789 15.4529C20.8788 14.7452 20.3053 14.1716 19.5977 14.1716H15.4531C14.7456 14.1718 14.172 14.7454 14.1719 15.4529V19.5974C14.1719 20.305 14.7456 20.8785 15.4531 20.8787H19.5977C20.3053 20.8787 20.8789 20.3051 20.8789 19.5974V15.4529ZM11.21 4.40112C11.2098 2.93063 10.0174 1.73901 8.54688 1.73901H4.40234C2.93198 1.73922 1.74045 2.93076 1.74023 4.40112V8.54565C1.74023 10.0162 2.93185 11.2085 4.40234 11.2087H8.54688C10.0176 11.2087 11.21 10.0163 11.21 8.54565V4.40112ZM22.3115 6.47339C22.3114 6.17439 22.1041 5.91566 21.8125 5.84937L20.1318 5.46655C19.3359 5.28544 18.7142 4.66393 18.5332 3.86792L18.1514 2.18726C18.0851 1.89558 17.8255 1.68823 17.5264 1.68823C17.2272 1.68824 16.9677 1.89558 16.9014 2.18726L16.5195 3.86792C16.3385 4.66394 15.7169 5.28544 14.9209 5.46655L13.2402 5.84937C12.9487 5.91566 12.7413 6.17439 12.7412 6.47339C12.7412 6.77251 12.9486 7.03207 13.2402 7.09839L14.9209 7.48022C15.7169 7.6613 16.3385 8.28376 16.5195 9.07983L16.9014 10.7605C16.9678 11.052 17.2274 11.2585 17.5264 11.2585C17.8254 11.2585 18.0849 11.052 18.1514 10.7605L18.5332 9.07983C18.7142 8.28377 19.3358 7.6613 20.1318 7.48022L21.8125 7.09839C22.1042 7.03207 22.3115 6.77251 22.3115 6.47339ZM9.82812 4.40112C9.82791 3.69358 9.25445 3.11987 8.54688 3.11987H4.40234C3.69493 3.12008 3.1213 3.69371 3.12109 4.40112V8.54565C3.12109 9.25323 3.6948 9.82669 4.40234 9.8269H8.54688C9.25458 9.8269 9.82812 9.25336 9.82812 8.54565V4.40112ZM17.5713 4.94507C17.8971 5.58328 18.4174 6.1037 19.0557 6.42944L19.1426 6.47339L19.0557 6.51831C18.4173 6.8441 17.8971 7.36433 17.5713 8.00269L17.5264 8.0896L17.4814 8.00269C17.1556 7.36433 16.6354 6.8441 15.9971 6.51831L15.9102 6.47339L15.9971 6.42944C16.6353 6.10371 17.1556 5.58328 17.4814 4.94507L17.5264 4.85718L17.5713 4.94507ZM17.5264 5.06909C17.2036 5.663 16.7159 6.15055 16.1221 6.47339C16.7159 6.79615 17.2035 7.2839 17.5264 7.87769C17.8491 7.28415 18.3362 6.79615 18.9297 6.47339C18.3362 6.15054 17.849 5.66275 17.5264 5.06909ZM10.0283 19.5974C10.0283 20.4156 9.36504 21.0789 8.54688 21.0789H4.40234C3.58434 21.0786 2.9209 20.4154 2.9209 19.5974V15.4529C2.92102 14.6349 3.58442 13.9716 4.40234 13.9714H8.54688C9.36497 13.9714 10.0282 14.6348 10.0283 15.4529V19.5974ZM11.4102 19.5974C11.4102 21.1786 10.128 22.4607 8.54688 22.4607H4.40234C2.82139 22.4605 1.54004 21.1784 1.54004 19.5974V15.4529C1.54016 13.872 2.82147 12.5908 4.40234 12.5906H8.54688C10.1279 12.5906 11.41 13.8718 11.4102 15.4529V19.5974ZM21.0791 19.5974C21.0791 20.4156 20.4158 21.0789 19.5977 21.0789H15.4531C14.6352 21.0786 13.9717 20.4154 13.9717 19.5974V15.4529C13.9718 14.6349 14.6352 13.9716 15.4531 13.9714H19.5977C20.4158 13.9714 21.079 14.6348 21.0791 15.4529V19.5974ZM22.4609 19.5974C22.4609 21.1785 21.1788 22.4607 19.5977 22.4607H15.4531C13.8722 22.4605 12.5908 21.1784 12.5908 19.5974V15.4529C12.5909 13.8719 13.8722 12.5908 15.4531 12.5906H19.5977C21.1787 12.5906 22.4609 13.8718 22.4609 15.4529V19.5974ZM22.4111 6.47339C22.4111 6.81919 22.1721 7.11938 21.835 7.19604L20.1543 7.57788C19.3958 7.75035 18.8034 8.34284 18.6309 9.10132L18.249 10.782C18.1724 11.1192 17.8722 11.3591 17.5264 11.3591C17.1806 11.3591 16.8804 11.1192 16.8037 10.782L16.4219 9.10132C16.2493 8.34284 15.657 7.75035 14.8984 7.57788L13.2178 7.19604C12.8806 7.11938 12.6416 6.81919 12.6416 6.47339C12.6417 6.12773 12.8807 5.82838 13.2178 5.75171L14.8984 5.3689C15.657 5.19639 16.2494 4.60404 16.4219 3.84546L16.8037 2.16479C16.8805 1.8277 17.1806 1.58863 17.5264 1.58862C17.8721 1.58862 18.1723 1.8277 18.249 2.16479L18.6309 3.84546C18.8033 4.60404 19.3957 5.19639 20.1543 5.3689L21.835 5.75171C22.172 5.82838 22.411 6.12773 22.4111 6.47339ZM10.0283 8.54565C10.0283 9.36382 9.36504 10.0271 8.54688 10.0271H4.40234C3.58434 10.0269 2.9209 9.36369 2.9209 8.54565V4.40112C2.92111 3.58325 3.58447 2.91989 4.40234 2.91968H8.54688C9.36491 2.91968 10.0281 3.58312 10.0283 4.40112V8.54565ZM11.4102 8.54565C11.4102 10.1268 10.128 11.4089 8.54688 11.4089H4.40234C2.82139 11.4087 1.54004 10.1267 1.54004 8.54565V4.40112C1.54025 2.8203 2.82152 1.53903 4.40234 1.53882H8.54688C10.1279 1.53882 11.4099 2.82017 11.4102 4.40112V8.54565Z" fill="#BFBFBF"/>
</svg>
