<svg width="24" height="24" viewBox="0 0 24 24" fill="none" xmlns="http://www.w3.org/2000/svg">
<path fill-rule="evenodd" clip-rule="evenodd" d="M4.40352 1.63867C2.87761 1.63867 1.64062 2.87566 1.64062 4.40156V8.5459C1.64062 10.0718 2.87761 11.3088 4.40352 11.3088H8.54785C10.0738 11.3088 11.3107 10.0718 11.3107 8.5459V4.40156C11.3107 2.87566 10.0738 1.63867 8.54785 1.63867H4.40352ZM3.02207 4.40156C3.02207 3.63861 3.64056 3.02012 4.40352 3.02012H8.54785C9.31079 3.02012 9.9293 3.63861 9.9293 4.40156V8.5459C9.9293 9.30884 9.31079 9.92734 8.54785 9.92734H4.40352C3.64056 9.92734 3.02207 9.30884 3.02207 8.5459V4.40156Z" fill="#BFBFBF"/>
<path fill-rule="evenodd" clip-rule="evenodd" d="M1.58984 4.40151C1.58984 2.848 2.84922 1.58862 4.40273 1.58862H8.54707C10.1006 1.58862 11.36 2.848 11.36 4.40151V8.54585C11.36 10.0994 10.1006 11.3587 8.54707 11.3587H4.40273C2.84922 11.3587 1.58984 10.0994 1.58984 8.54585V4.40151ZM4.40273 1.68862C2.90445 1.68862 1.68984 2.90322 1.68984 4.40151V8.54585C1.68984 10.0441 2.90445 11.2587 4.40273 11.2587H8.54707C10.0454 11.2587 11.26 10.0441 11.26 8.54585V4.40151C11.26 2.90322 10.0454 1.68862 8.54707 1.68862H4.40273ZM4.40273 3.07007C3.6674 3.07007 3.07129 3.66618 3.07129 4.40151V8.54585C3.07129 9.28117 3.6674 9.87729 4.40273 9.87729H8.54707C9.28239 9.87729 9.87852 9.28117 9.87852 8.54585V4.40151C9.87852 3.66618 9.28239 3.07007 8.54707 3.07007H4.40273ZM2.97129 4.40151C2.97129 3.61095 3.61217 2.97007 4.40273 2.97007H8.54707C9.33762 2.97007 9.97852 3.61095 9.97852 4.40151V8.54585C9.97852 9.3364 9.33762 9.97729 8.54707 9.97729H4.40273C3.61217 9.97729 2.97129 9.3364 2.97129 8.54585V4.40151Z" fill="#BFBFBF"/>
<path fill-rule="evenodd" clip-rule="evenodd" d="M18.1999 2.17619C18.1284 1.86175 17.8488 1.63862 17.5264 1.63862C17.2039 1.63862 16.9243 1.86175 16.8528 2.17619L16.4707 3.85686C16.2939 4.63422 15.6869 5.24123 14.9095 5.41798L13.2289 5.80016C12.9145 5.87165 12.6913 6.15122 12.6913 6.47368C12.6913 6.79615 12.9145 7.07572 13.2289 7.1472L14.9095 7.52938C15.6869 7.70614 16.2939 8.31315 16.4707 9.09052L16.8528 10.7712C16.9243 11.0856 17.2039 11.3087 17.5264 11.3087C17.8488 11.3087 18.1284 11.0856 18.1999 10.7712L18.5821 9.09052C18.7588 8.31315 19.3658 7.70614 20.1432 7.52938L21.8239 7.1472C22.1383 7.07572 22.3614 6.79615 22.3614 6.47368C22.3614 6.15122 22.1383 5.87165 21.8239 5.80016L20.1432 5.41798C19.3658 5.24123 18.7588 4.63422 18.5821 3.85686L18.1999 2.17619ZM16.02 6.47368C16.6679 6.14307 17.1958 5.61518 17.5264 4.96735C17.857 5.61518 18.3849 6.14307 19.0327 6.47368C18.3849 6.8043 17.857 7.33218 17.5264 7.98001C17.1958 7.33218 16.6679 6.8043 16.02 6.47368Z" fill="#BFBFBF"/>
<path fill-rule="evenodd" clip-rule="evenodd" d="M1.64062 15.4531C1.64062 13.9272 2.87761 12.6902 4.40352 12.6902H8.54785C10.0738 12.6902 11.3107 13.9272 11.3107 15.4531V19.5974C11.3107 21.1233 10.0738 22.3603 8.54785 22.3603H4.40352C2.87761 22.3603 1.64062 21.1233 1.64062 19.5974V15.4531ZM4.40352 14.0716C3.64056 14.0716 3.02207 14.6901 3.02207 15.4531V19.5974C3.02207 20.3603 3.64056 20.9789 4.40352 20.9789H8.54785C9.31079 20.9789 9.9293 20.3603 9.9293 19.5974V15.4531C9.9293 14.6901 9.31079 14.0716 8.54785 14.0716H4.40352Z" fill="#BFBFBF"/>
<path fill-rule="evenodd" clip-rule="evenodd" d="M4.40273 12.7402C2.90445 12.7402 1.68984 13.9548 1.68984 15.4531V19.5974C1.68984 21.0957 2.90445 22.3103 4.40273 22.3103H8.54707C10.0454 22.3103 11.26 21.0957 11.26 19.5974V15.4531C11.26 13.9548 10.0454 12.7402 8.54707 12.7402H4.40273ZM1.58984 15.4531C1.58984 13.8996 2.84922 12.6402 4.40273 12.6402H8.54707C10.1006 12.6402 11.36 13.8996 11.36 15.4531V19.5974C11.36 21.151 10.1006 22.4103 8.54707 22.4103H4.40273C2.84922 22.4103 1.58984 21.151 1.58984 19.5974V15.4531ZM2.97129 15.4531C2.97129 14.6625 3.61217 14.0217 4.40273 14.0217H8.54707C9.33762 14.0217 9.97852 14.6625 9.97852 15.4531V19.5974C9.97852 20.388 9.33762 21.0289 8.54707 21.0289H4.40273C3.61217 21.0289 2.97129 20.388 2.97129 19.5974V15.4531ZM4.40273 14.1217C3.6674 14.1217 3.07129 14.7178 3.07129 15.4531V19.5974C3.07129 20.3328 3.6674 20.9289 4.40273 20.9289H8.54707C9.28239 20.9289 9.87852 20.3328 9.87852 19.5974V15.4531C9.87852 14.7178 9.28239 14.1217 8.54707 14.1217H4.40273Z" fill="#BFBFBF"/>
<path fill-rule="evenodd" clip-rule="evenodd" d="M15.4542 12.6902C13.9283 12.6902 12.6913 13.9272 12.6913 15.4531V19.5974C12.6913 21.1233 13.9283 22.3603 15.4542 22.3603H19.5985C21.1245 22.3603 22.3614 21.1233 22.3614 19.5974V15.4531C22.3614 13.9272 21.1245 12.6902 19.5985 12.6902H15.4542ZM14.0728 15.4531C14.0728 14.6902 14.6913 14.0717 15.4542 14.0717H19.5985C20.3615 14.0717 20.98 14.6902 20.98 15.4531V19.5974C20.98 20.3604 20.3615 20.9789 19.5985 20.9789H15.4542C14.6913 20.9789 14.0728 20.3604 14.0728 19.5974V15.4531Z" fill="#BFBFBF"/>
<path fill-rule="evenodd" clip-rule="evenodd" d="M12.6406 15.453C12.6406 13.8995 13.9 12.6401 15.4535 12.6401H19.5979C21.1514 12.6401 22.4107 13.8995 22.4107 15.453V19.5974C22.4107 21.1509 21.1514 22.4103 19.5979 22.4103H15.4535C13.9 22.4103 12.6406 21.1509 12.6406 19.5974V15.453ZM15.4535 12.7401C13.9552 12.7401 12.7406 13.9547 12.7406 15.453V19.5974C12.7406 21.0957 13.9552 22.3103 15.4535 22.3103H19.5979C21.0961 22.3103 22.3107 21.0957 22.3107 19.5974V15.453C22.3107 13.9547 21.0961 12.7401 19.5979 12.7401H15.4535ZM15.4535 14.1216C14.7182 14.1216 14.1221 14.7177 14.1221 15.453V19.5974C14.1221 20.3327 14.7182 20.9288 15.4535 20.9288H19.5979C20.3332 20.9288 20.9293 20.3327 20.9293 19.5974V15.453C20.9293 14.7177 20.3332 14.1216 19.5979 14.1216H15.4535ZM14.0221 15.453C14.0221 14.6625 14.663 14.0216 15.4535 14.0216H19.5979C20.3884 14.0216 21.0293 14.6625 21.0293 15.453V19.5974C21.0293 20.3879 20.3884 21.0288 19.5979 21.0288H15.4535C14.663 21.0288 14.0221 20.3879 14.0221 19.5974V15.453Z" fill="#BFBFBF"/>
<path fill-rule="evenodd" clip-rule="evenodd" d="M4.40352 1.63867C2.87761 1.63867 1.64062 2.87566 1.64062 4.40156V8.5459C1.64062 10.0718 2.87761 11.3088 4.40352 11.3088H8.54785C10.0738 11.3088 11.3107 10.0718 11.3107 8.5459V4.40156C11.3107 2.87566 10.0738 1.63867 8.54785 1.63867H4.40352ZM3.02207 4.40156C3.02207 3.63861 3.64056 3.02012 4.40352 3.02012H8.54785C9.31079 3.02012 9.9293 3.63861 9.9293 4.40156V8.5459C9.9293 9.30884 9.31079 9.92734 8.54785 9.92734H4.40352C3.64056 9.92734 3.02207 9.30884 3.02207 8.5459V4.40156Z" stroke="#BFBFBF" stroke-width="0.2"/>
<path fill-rule="evenodd" clip-rule="evenodd" d="M1.58984 4.40151C1.58984 2.848 2.84922 1.58862 4.40273 1.58862H8.54707C10.1006 1.58862 11.36 2.848 11.36 4.40151V8.54585C11.36 10.0994 10.1006 11.3587 8.54707 11.3587H4.40273C2.84922 11.3587 1.58984 10.0994 1.58984 8.54585V4.40151ZM4.40273 1.68862C2.90445 1.68862 1.68984 2.90322 1.68984 4.40151V8.54585C1.68984 10.0441 2.90445 11.2587 4.40273 11.2587H8.54707C10.0454 11.2587 11.26 10.0441 11.26 8.54585V4.40151C11.26 2.90322 10.0454 1.68862 8.54707 1.68862H4.40273ZM4.40273 3.07007C3.6674 3.07007 3.07129 3.66618 3.07129 4.40151V8.54585C3.07129 9.28117 3.6674 9.87729 4.40273 9.87729H8.54707C9.28239 9.87729 9.87852 9.28117 9.87852 8.54585V4.40151C9.87852 3.66618 9.28239 3.07007 8.54707 3.07007H4.40273ZM2.97129 4.40151C2.97129 3.61095 3.61217 2.97007 4.40273 2.97007H8.54707C9.33762 2.97007 9.97852 3.61095 9.97852 4.40151V8.54585C9.97852 9.3364 9.33762 9.97729 8.54707 9.97729H4.40273C3.61217 9.97729 2.97129 9.3364 2.97129 8.54585V4.40151Z" stroke="#BFBFBF" stroke-width="0.2"/>
<path fill-rule="evenodd" clip-rule="evenodd" d="M18.1999 2.17619C18.1284 1.86175 17.8488 1.63862 17.5264 1.63862C17.2039 1.63862 16.9243 1.86175 16.8528 2.17619L16.4707 3.85686C16.2939 4.63422 15.6869 5.24123 14.9095 5.41798L13.2289 5.80016C12.9145 5.87165 12.6913 6.15122 12.6913 6.47368C12.6913 6.79615 12.9145 7.07572 13.2289 7.1472L14.9095 7.52938C15.6869 7.70614 16.2939 8.31315 16.4707 9.09052L16.8528 10.7712C16.9243 11.0856 17.2039 11.3087 17.5264 11.3087C17.8488 11.3087 18.1284 11.0856 18.1999 10.7712L18.5821 9.09052C18.7588 8.31315 19.3658 7.70614 20.1432 7.52938L21.8239 7.1472C22.1383 7.07572 22.3614 6.79615 22.3614 6.47368C22.3614 6.15122 22.1383 5.87165 21.8239 5.80016L20.1432 5.41798C19.3658 5.24123 18.7588 4.63422 18.5821 3.85686L18.1999 2.17619ZM16.02 6.47368C16.6679 6.14307 17.1958 5.61518 17.5264 4.96735C17.857 5.61518 18.3849 6.14307 19.0327 6.47368C18.3849 6.8043 17.857 7.33218 17.5264 7.98001C17.1958 7.33218 16.6679 6.8043 16.02 6.47368Z" stroke="#BFBFBF" stroke-width="0.2"/>
<path fill-rule="evenodd" clip-rule="evenodd" d="M1.64062 15.4531C1.64062 13.9272 2.87761 12.6902 4.40352 12.6902H8.54785C10.0738 12.6902 11.3107 13.9272 11.3107 15.4531V19.5974C11.3107 21.1233 10.0738 22.3603 8.54785 22.3603H4.40352C2.87761 22.3603 1.64062 21.1233 1.64062 19.5974V15.4531ZM4.40352 14.0716C3.64056 14.0716 3.02207 14.6901 3.02207 15.4531V19.5974C3.02207 20.3603 3.64056 20.9789 4.40352 20.9789H8.54785C9.31079 20.9789 9.9293 20.3603 9.9293 19.5974V15.4531C9.9293 14.6901 9.31079 14.0716 8.54785 14.0716H4.40352Z" stroke="#BFBFBF" stroke-width="0.2"/>
<path fill-rule="evenodd" clip-rule="evenodd" d="M4.40273 12.7402C2.90445 12.7402 1.68984 13.9548 1.68984 15.4531V19.5974C1.68984 21.0957 2.90445 22.3103 4.40273 22.3103H8.54707C10.0454 22.3103 11.26 21.0957 11.26 19.5974V15.4531C11.26 13.9548 10.0454 12.7402 8.54707 12.7402H4.40273ZM1.58984 15.4531C1.58984 13.8996 2.84922 12.6402 4.40273 12.6402H8.54707C10.1006 12.6402 11.36 13.8996 11.36 15.4531V19.5974C11.36 21.151 10.1006 22.4103 8.54707 22.4103H4.40273C2.84922 22.4103 1.58984 21.151 1.58984 19.5974V15.4531ZM2.97129 15.4531C2.97129 14.6625 3.61217 14.0217 4.40273 14.0217H8.54707C9.33762 14.0217 9.97852 14.6625 9.97852 15.4531V19.5974C9.97852 20.388 9.33762 21.0289 8.54707 21.0289H4.40273C3.61217 21.0289 2.97129 20.388 2.97129 19.5974V15.4531ZM4.40273 14.1217C3.6674 14.1217 3.07129 14.7178 3.07129 15.4531V19.5974C3.07129 20.3328 3.6674 20.9289 4.40273 20.9289H8.54707C9.28239 20.9289 9.87852 20.3328 9.87852 19.5974V15.4531C9.87852 14.7178 9.28239 14.1217 8.54707 14.1217H4.40273Z" stroke="#BFBFBF" stroke-width="0.2"/>
<path fill-rule="evenodd" clip-rule="evenodd" d="M15.4542 12.6902C13.9283 12.6902 12.6913 13.9272 12.6913 15.4531V19.5974C12.6913 21.1233 13.9283 22.3603 15.4542 22.3603H19.5985C21.1245 22.3603 22.3614 21.1233 22.3614 19.5974V15.4531C22.3614 13.9272 21.1245 12.6902 19.5985 12.6902H15.4542ZM14.0728 15.4531C14.0728 14.6902 14.6913 14.0717 15.4542 14.0717H19.5985C20.3615 14.0717 20.98 14.6902 20.98 15.4531V19.5974C20.98 20.3604 20.3615 20.9789 19.5985 20.9789H15.4542C14.6913 20.9789 14.0728 20.3604 14.0728 19.5974V15.4531Z" stroke="#BFBFBF" stroke-width="0.2"/>
<path fill-rule="evenodd" clip-rule="evenodd" d="M12.6406 15.453C12.6406 13.8995 13.9 12.6401 15.4535 12.6401H19.5979C21.1514 12.6401 22.4107 13.8995 22.4107 15.453V19.5974C22.4107 21.1509 21.1514 22.4103 19.5979 22.4103H15.4535C13.9 22.4103 12.6406 21.1509 12.6406 19.5974V15.453ZM15.4535 12.7401C13.9552 12.7401 12.7406 13.9547 12.7406 15.453V19.5974C12.7406 21.0957 13.9552 22.3103 15.4535 22.3103H19.5979C21.0961 22.3103 22.3107 21.0957 22.3107 19.5974V15.453C22.3107 13.9547 21.0961 12.7401 19.5979 12.7401H15.4535ZM15.4535 14.1216C14.7182 14.1216 14.1221 14.7177 14.1221 15.453V19.5974C14.1221 20.3327 14.7182 20.9288 15.4535 20.9288H19.5979C20.3332 20.9288 20.9293 20.3327 20.9293 19.5974V15.453C20.9293 14.7177 20.3332 14.1216 19.5979 14.1216H15.4535ZM14.0221 15.453C14.0221 14.6625 14.663 14.0216 15.4535 14.0216H19.5979C20.3884 14.0216 21.0293 14.6625 21.0293 15.453V19.5974C21.0293 20.3879 20.3884 21.0288 19.5979 21.0288H15.4535C14.663 21.0288 14.0221 20.3879 14.0221 19.5974V15.453Z" stroke="#BFBFBF" stroke-width="0.2"/>
</svg>
