<svg width="42" height="15" viewBox="0 0 42 15" fill="none" xmlns="http://www.w3.org/2000/svg">
<path d="M0 0H32C36.714 0 39.0711 0 40.5355 1.46447C42 2.92893 42 5.28595 42 10V15H0V0Z" fill="url(#paint0_linear_25481_1432)"/>
<path d="M11.58 10.3203H10.5V3.62031H11.66L14.66 7.54031L15.53 8.79031H15.61L15.56 7.58031V3.62031H16.64V10.3203H15.48L12.46 6.41031L11.62 5.23031H11.54L11.58 6.39031V10.3203ZM20.1387 10.4203C18.5087 10.4203 17.4387 9.50031 17.4387 7.84031C17.4387 6.29031 18.4987 5.25031 20.1187 5.25031C21.6587 5.25031 22.7087 6.10031 22.7087 7.61031C22.7087 7.79031 22.6987 7.93031 22.6687 8.08031H18.4487C18.4887 9.04031 18.9587 9.55031 20.1087 9.55031C21.1487 9.55031 21.5787 9.21031 21.5787 8.62031V8.54031H22.6587V8.63031C22.6587 9.69031 21.6187 10.4203 20.1387 10.4203ZM20.0987 6.10031C18.9987 6.10031 18.5187 6.59031 18.4587 7.48031H21.6887V7.46031C21.6887 6.54031 21.1587 6.10031 20.0987 6.10031ZM25.8976 10.3203H24.5576L23.0676 5.35031H24.1876L25.0176 8.17031L25.2476 9.45031H25.3276L25.6976 8.07031L26.7376 5.35031H28.1176L29.1676 8.07031L29.5376 9.45031H29.6176L29.8476 8.17031L30.6776 5.35031H31.7776L30.2676 10.3203H28.9276L27.8376 7.46031L27.4576 6.24031H27.3776L26.9976 7.46031L25.8976 10.3203Z" fill="white"/>
<defs>
<linearGradient id="paint0_linear_25481_1432" x1="-2.61032e-07" y1="9.23869" x2="42" y2="9.23869" gradientUnits="userSpaceOnUse">
<stop stop-color="#EF2A16"/>
<stop offset="1" stop-color="#F77C29"/>
</linearGradient>
</defs>
</svg>
