<svg width="20" height="20" viewBox="0 0 20 20" fill="none" xmlns="http://www.w3.org/2000/svg">
<g clip-path="url(#clip0_28546_16682)">
<path d="M16.7797 2.11584L15.3997 0.734177C15.0135 0.346104 14.5543 0.038459 14.0485 -0.170953C13.5427 -0.380365 13.0004 -0.487387 12.453 -0.485823H7.16715C6.06249 -0.4845 5.00345 -0.045088 4.22234 0.736027C3.44122 1.51714 3.00181 2.57618 3.00049 3.68084V15.3475C3.00181 16.4522 3.44122 17.5112 4.22234 18.2923C5.00345 19.0734 6.06249 19.5129 7.16715 19.5142H13.8338C14.9385 19.5129 15.9975 19.0734 16.7786 18.2923C17.5598 17.5112 17.9992 16.4522 18.0005 15.3475V5.06168C18.0018 4.51433 17.8946 3.97215 17.6851 3.4665C17.4755 2.96086 17.1678 2.50178 16.7797 2.11584ZM15.6013 3.29418C15.7195 3.41194 15.8254 3.54151 15.9172 3.68084H13.8338V1.59751C13.9729 1.69028 14.1027 1.79633 14.2213 1.91418L15.6013 3.29418ZM16.3338 15.3475C16.3338 16.0106 16.0704 16.6464 15.6016 17.1153C15.1327 17.5841 14.4969 17.8475 13.8338 17.8475H7.16715C6.50411 17.8475 5.86823 17.5841 5.39939 17.1153C4.93055 16.6464 4.66715 16.0106 4.66715 15.3475V3.68084C4.66715 3.0178 4.93055 2.38192 5.39939 1.91308C5.86823 1.44424 6.50411 1.18084 7.16715 1.18084H12.1672V3.68084C12.1672 4.12287 12.3427 4.54679 12.6553 4.85935C12.9679 5.17192 13.3918 5.34751 13.8338 5.34751H16.3338V15.3475ZM13.8338 7.01418C14.0548 7.01418 14.2668 7.10197 14.4231 7.25825C14.5794 7.41453 14.6672 7.6265 14.6672 7.84751C14.6672 8.06852 14.5794 8.28048 14.4231 8.43676C14.2668 8.59305 14.0548 8.68084 13.8338 8.68084H7.16715C6.94614 8.68084 6.73418 8.59305 6.5779 8.43676C6.42162 8.28048 6.33382 8.06852 6.33382 7.84751C6.33382 7.6265 6.42162 7.41453 6.5779 7.25825C6.73418 7.10197 6.94614 7.01418 7.16715 7.01418H13.8338ZM14.6672 11.1808C14.6672 11.4019 14.5794 11.6138 14.4231 11.7701C14.2668 11.9264 14.0548 12.0142 13.8338 12.0142H7.16715C6.94614 12.0142 6.73418 11.9264 6.5779 11.7701C6.42162 11.6138 6.33382 11.4019 6.33382 11.1808C6.33382 10.9598 6.42162 10.7479 6.5779 10.5916C6.73418 10.4353 6.94614 10.3475 7.16715 10.3475H13.8338C14.0548 10.3475 14.2668 10.4353 14.4231 10.5916C14.5794 10.7479 14.6672 10.9598 14.6672 11.1808ZM14.5072 14.025C14.6367 14.2032 14.6904 14.4255 14.6565 14.6432C14.6226 14.8609 14.5039 15.0563 14.3263 15.1867C13.482 15.7883 12.482 16.1335 11.4463 16.1808C10.8412 16.1779 10.2545 15.9726 9.77965 15.5975C9.50632 15.41 9.40215 15.3475 9.19632 15.3475C8.63918 15.4337 8.1135 15.6616 7.66965 16.0092C7.49361 16.1347 7.27569 16.1868 7.0619 16.1547C6.84811 16.1225 6.6552 16.0085 6.52389 15.8367C6.39259 15.665 6.33317 15.4489 6.35819 15.2342C6.38321 15.0194 6.49071 14.8228 6.65799 14.6858C7.3923 14.1158 8.27405 13.7671 9.19965 13.6808C9.75477 13.6897 10.2914 13.8816 10.7263 14.2267C10.9246 14.405 11.1798 14.5069 11.4463 14.5142C12.1277 14.4631 12.783 14.2303 13.3438 13.84C13.5227 13.7104 13.7456 13.657 13.9638 13.6917C14.1819 13.7264 14.3774 13.8463 14.5072 14.025Z" fill="#AFAFAF"/>
</g>
<defs>
<clipPath id="clip0_28546_16682">
<rect width="20" height="20" fill="white"/>
</clipPath>
</defs>
</svg>
