<svg width="12" height="12" viewBox="0 0 12 12" fill="none" xmlns="http://www.w3.org/2000/svg">
<g clip-path="url(#clip0_24530_155086)">
<path d="M11.5793 2.80087C11.5793 2.74427 11.5672 2.6998 11.5429 2.66745C11.5025 2.57042 11.4338 2.51382 11.3367 2.49765L6.12129 -0.0373001C6.03234 -0.0777302 5.9434 -0.0777302 5.85445 -0.0373001L0.590492 2.52191C0.541976 2.54616 0.501546 2.58255 0.469202 2.63107C0.436859 2.67958 0.420687 2.73214 0.420687 2.78874V9.20495C0.420687 9.26964 0.434837 9.32624 0.463138 9.37476C0.491439 9.42327 0.53389 9.45966 0.590492 9.48392L5.85445 12.031L5.86658 12.0431H5.89084V12.0553H5.92723C5.93531 12.0633 5.9434 12.0674 5.95148 12.0674H6.03639L6.06064 12.0553H6.0849C6.09299 12.0553 6.09703 12.0512 6.09703 12.0431H6.12129L6.13342 12.031L11.4095 9.47179C11.4661 9.44753 11.5086 9.41114 11.5369 9.36263C11.5652 9.31411 11.5793 9.25751 11.5793 9.19282V2.80087ZM5.98787 0.581276L10.5605 2.80087L8.87456 3.61351L4.31408 1.40604L5.98787 0.581276ZM5.98787 5.00834L1.42739 2.80087L3.59847 1.74565L8.17108 3.95312L5.98787 5.00834ZM1.02713 3.29816L5.68465 5.55414V11.2669L1.02713 9.01089V3.29816ZM6.30322 11.2669V5.55414L8.48643 4.48679V5.97865C8.48643 6.0676 8.51676 6.1424 8.5774 6.20304C8.63804 6.26368 8.7088 6.29401 8.78966 6.29401C8.87052 6.29401 8.94127 6.26368 9.00191 6.20304C9.06256 6.1424 9.09288 6.0676 9.09288 5.97865V4.1957L10.9607 3.28603V8.99876L6.30322 11.2669Z" fill="#07A83E"/>
</g>
<defs>
<clipPath id="clip0_24530_155086">
<rect width="12" height="12" fill="white" transform="matrix(1 0 0 -1 0 12)"/>
</clipPath>
</defs>
</svg>
