<svg width="20" height="20" viewBox="0 0 20 20" fill="none" xmlns="http://www.w3.org/2000/svg">
<g clip-path="url(#clip0_24530_152855)">
<path d="M14.2505 -0.48584C10.7455 -0.48584 8.00049 1.16166 8.00049 3.26416V5.41999C7.59799 5.37249 7.17965 5.34749 6.75049 5.34749C3.24549 5.34749 0.500488 6.99499 0.500488 9.09749V15.7642C0.500488 17.8667 3.24549 19.5142 6.75049 19.5142C9.58965 19.5142 11.9305 18.4333 12.7172 16.905C13.2155 16.9775 13.7288 17.0142 14.2505 17.0142C17.7555 17.0142 20.5005 15.3667 20.5005 13.2642V3.26416C20.5005 1.16166 17.7555 -0.48584 14.2505 -0.48584ZM18.8338 9.93083C18.8338 10.9142 16.8738 12.0142 14.2505 12.0142C13.8238 12.0142 13.4055 11.985 13.0005 11.9283V10.275C13.4088 10.3225 13.8272 10.3475 14.2505 10.3475C16.0788 10.3475 17.7005 9.89916 18.8338 9.17166V9.93083ZM2.16715 11.6717C3.30049 12.3992 4.92215 12.8475 6.75049 12.8475C8.57882 12.8475 10.2005 12.3992 11.3338 11.6717V12.4308C11.3338 13.4142 9.37382 14.5142 6.75049 14.5142C4.12715 14.5142 2.16715 13.4142 2.16715 12.4308V11.6717ZM18.8338 6.59749C18.8338 7.58083 16.8738 8.68083 14.2505 8.68083C13.8047 8.68083 13.3672 8.64916 12.9455 8.58749C12.7847 7.84833 12.2788 7.18416 11.5238 6.65166C12.3438 6.88499 13.2672 7.01416 14.2505 7.01416C16.0788 7.01416 17.7005 6.56583 18.8338 5.83833V6.59749ZM14.2505 1.18083C16.8738 1.18083 18.8338 2.28083 18.8338 3.26416C18.8338 4.24749 16.8738 5.34749 14.2505 5.34749C11.6272 5.34749 9.66715 4.24749 9.66715 3.26416C9.66715 2.28083 11.6272 1.18083 14.2505 1.18083ZM6.75049 7.01416C9.37382 7.01416 11.3338 8.11416 11.3338 9.09749C11.3338 10.0808 9.37382 11.1808 6.75049 11.1808C4.12715 11.1808 2.16715 10.0808 2.16715 9.09749C2.16715 8.11416 4.12715 7.01416 6.75049 7.01416ZM6.75049 17.8475C4.12715 17.8475 2.16715 16.7475 2.16715 15.7642V15.005C3.30049 15.7325 4.92215 16.1808 6.75049 16.1808C8.57882 16.1808 10.2005 15.7325 11.3338 15.005V15.7642C11.3338 16.7475 9.37382 17.8475 6.75049 17.8475ZM14.2505 15.3475C13.8238 15.3475 13.4055 15.3183 13.0005 15.2617V13.6083C13.4088 13.6558 13.8272 13.6808 14.2505 13.6808C16.0788 13.6808 17.7005 13.2325 18.8338 12.505V13.2642C18.8338 14.2475 16.8738 15.3475 14.2505 15.3475Z" fill="#AFAFAF"/>
</g>
<defs>
<clipPath id="clip0_24530_152855">
<rect width="20" height="20" fill="white"/>
</clipPath>
</defs>
</svg>
