<svg width="20" height="20" viewBox="0 0 20 20" fill="none" xmlns="http://www.w3.org/2000/svg">
<g clip-path="url(#clip0_28682_17818)">
<path d="M20 10C20 15.5142 15.5142 20 10 20C6.62083 20 3.50417 18.2842 1.67 15.525L1.66667 16.6667C1.66667 17.1275 1.29333 17.5 0.833333 17.5C0.373333 17.5 0 17.1275 0 16.6667V14.1742C0 13.2517 0.750833 12.5 1.67333 12.5H4.16667C4.62667 12.5 5 12.8725 5 13.3333C5 13.7942 4.62667 14.1667 4.16667 14.1667H2.8025C4.2825 16.7167 7.0125 18.3333 10 18.3333C14.595 18.3333 18.3333 14.595 18.3333 10C18.3333 9.53917 18.7058 9.16667 19.1667 9.16667C19.6275 9.16667 20 9.53917 20 10ZM19.1667 2.5C18.7058 2.5 18.3333 2.8725 18.3333 3.33333L18.33 4.4625C16.5058 1.7 13.4225 0 10 0C4.48583 0 0 4.48583 0 10C0 10.4608 0.373333 10.8333 0.833333 10.8333C1.29333 10.8333 1.66667 10.4608 1.66667 10C1.66667 5.405 5.405 1.66667 10 1.66667C13.0333 1.66667 15.75 3.2675 17.2217 5.83333H15.8333C15.3725 5.83333 15 6.20583 15 6.66667C15 7.1275 15.3725 7.5 15.8333 7.5H18.3258C19.2483 7.5 20 6.74917 20 5.82583V3.33333C20 2.8725 19.6275 2.5 19.1667 2.5ZM8.33333 14.1667C6.955 14.1667 5.83333 13.045 5.83333 11.6667V8.33333C5.83333 6.955 6.955 5.83333 8.33333 5.83333H11.6667C13.045 5.83333 14.1667 6.955 14.1667 8.33333V11.6667C14.1667 13.045 13.045 14.1667 11.6667 14.1667H8.33333ZM8.33333 8.33333C8.33333 8.79417 8.70667 9.16667 9.16667 9.16667H10.8333C11.2942 9.16667 11.6667 8.79417 11.6667 8.33333C11.6667 7.8725 11.2942 7.5 10.8333 7.5H9.16667C8.70667 7.5 8.33333 7.8725 8.33333 8.33333Z" fill="#AFAFAF"/>
</g>
<defs>
<clipPath id="clip0_28682_17818">
<rect width="20" height="20" fill="white"/>
</clipPath>
</defs>
</svg>
