<svg width="20" height="20" viewBox="0 0 20 20" fill="none" xmlns="http://www.w3.org/2000/svg">
<path d="M17.6642 5.99085C17.2917 3.67169 15.6508 1.81752 13.485 1.26669C12.3667 0.98252 11.1942 0.836686 9.9975 0.83252C8.805 0.835853 7.63334 0.981686 6.515 1.26669C4.34917 1.81752 2.70834 3.67169 2.33584 5.99085C1.79084 9.38252 1.85334 12.9742 2.5275 16.9709C2.70167 18.0075 3.43834 18.8359 4.46084 19.08C5.72084 19.3809 6.66417 18.8184 7.17417 18.1817C7.70167 17.5234 9.715 14.9584 9.715 14.9584C9.81 14.8375 9.935 14.8192 10 14.8192C10.065 14.8192 10.19 14.8367 10.285 14.9584C10.285 14.9584 12.2992 17.5242 12.8258 18.1817C13.4825 19 14.5217 19.345 15.5392 19.08C16.5567 18.8159 17.2975 18.0075 17.4717 16.9717C18.1458 12.975 18.2092 9.38335 17.6633 5.99169L17.6642 5.99085ZM15.8283 16.6942C15.7325 17.265 15.2617 17.43 15.1192 17.4667C14.9783 17.5042 14.4867 17.5892 14.1258 17.1384C13.6017 16.485 13.0467 15.7775 12.4867 15.0625L11.5933 13.925C11.2058 13.4334 10.625 13.1517 9.99917 13.1517C9.37333 13.1517 8.79334 13.4334 8.405 13.925L7.51167 15.0625C6.95167 15.7767 6.39667 16.485 5.8725 17.1384C5.5125 17.5892 5.02167 17.5042 4.87917 17.4667C4.7375 17.43 4.26667 17.265 4.17 16.6934C3.52667 12.8792 3.46417 9.46419 3.98 6.25502C4.2475 4.59252 5.40334 3.26835 6.925 2.88169C7.91084 2.63085 8.94584 2.50252 9.99667 2.49919C11.0525 2.50252 12.0875 2.63085 13.0733 2.88169C14.595 3.26835 15.7508 4.59252 16.0183 6.25502C16.5342 9.46419 16.4717 12.8792 15.8283 16.6934V16.6942Z" fill="#AFAFAF"/>
</svg>
