<svg width="20" height="20" viewBox="0 0 20 20" fill="none" xmlns="http://www.w3.org/2000/svg">
<path d="M16.875 7.75635C16.875 5.93298 16.1507 4.1843 14.8614 2.89499C13.572 1.60568 11.8234 0.881348 10 0.881348C8.17664 0.881348 6.42795 1.60568 5.13864 2.89499C3.84933 4.1843 3.125 5.93298 3.125 7.75635C2.56698 7.99988 2.09226 8.40112 1.75916 8.91077C1.42607 9.42041 1.2491 10.0163 1.25 10.6251V12.5001C1.25 13.3289 1.57924 14.1238 2.16529 14.7098C2.75134 15.2959 3.5462 15.6251 4.375 15.6251V16.2501C4.375 16.7474 4.57254 17.2243 4.92417 17.5759C5.27581 17.9276 5.75272 18.1251 6.25 18.1251H8.925C9.06258 18.3634 9.27496 18.5496 9.52918 18.6549C9.7834 18.7603 10.0653 18.7787 10.3311 18.7075C10.5968 18.6363 10.8317 18.4794 10.9992 18.261C11.1667 18.0427 11.2575 17.7753 11.2575 17.5001C11.2575 17.2249 11.1667 16.9575 10.9992 16.7391C10.8317 16.5208 10.5968 16.3639 10.3311 16.2927C10.0653 16.2215 9.7834 16.2399 9.52918 16.3452C9.27496 16.4506 9.06258 16.6368 8.925 16.8751H6.25C6.08424 16.8751 5.92527 16.8092 5.80806 16.692C5.69085 16.5748 5.625 16.4159 5.625 16.2501V15.5126C5.98972 15.3837 6.30563 15.1451 6.52941 14.8295C6.7532 14.514 6.87391 14.1369 6.875 13.7501V9.3751C6.875 8.87782 6.67746 8.4009 6.32583 8.04927C5.97419 7.69764 5.49728 7.5001 5 7.5001H4.4125C4.57153 6.12974 5.22861 4.8656 6.2588 3.94805C7.28899 3.0305 8.62044 2.52353 10 2.52353C11.3796 2.52353 12.711 3.0305 13.7412 3.94805C14.7714 4.8656 15.4285 6.12974 15.5875 7.5001H15C14.5027 7.5001 14.0258 7.69764 13.6742 8.04927C13.3225 8.4009 13.125 8.87782 13.125 9.3751V13.7501C13.125 14.2474 13.3225 14.7243 13.6742 15.0759C14.0258 15.4276 14.5027 15.6251 15 15.6251H15.625C16.4538 15.6251 17.2487 15.2959 17.8347 14.7098C18.4208 14.1238 18.75 13.3289 18.75 12.5001V10.6251C18.7509 10.0163 18.5739 9.42041 18.2408 8.91077C17.9077 8.40112 17.433 7.99988 16.875 7.75635ZM5.625 9.3751V13.7501C5.625 13.9159 5.55915 14.0748 5.44194 14.192C5.32473 14.3092 5.16576 14.3751 5 14.3751H4.375C3.87772 14.3751 3.40081 14.1776 3.04917 13.8259C2.69754 13.4743 2.5 12.9974 2.5 12.5001V10.6251C2.5 10.1278 2.69754 9.6509 3.04917 9.29927C3.40081 8.94764 3.87772 8.7501 4.375 8.7501H5C5.16576 8.7501 5.32473 8.81595 5.44194 8.93316C5.55915 9.05037 5.625 9.20934 5.625 9.3751ZM17.5 12.5001C17.5 12.9974 17.3025 13.4743 16.9508 13.8259C16.5992 14.1776 16.1223 14.3751 15.625 14.3751H15C14.8342 14.3751 14.6753 14.3092 14.5581 14.192C14.4408 14.0748 14.375 13.9159 14.375 13.7501V9.3751C14.375 9.20934 14.4408 9.05037 14.5581 8.93316C14.6753 8.81595 14.8342 8.7501 15 8.7501H15.625C16.1223 8.7501 16.5992 8.94764 16.9508 9.29927C17.3025 9.6509 17.5 10.1278 17.5 10.6251V12.5001Z" fill="#AFAFAF"/>
</svg>
