<svg width="104" height="248" viewBox="0 0 104 248" fill="none" xmlns="http://www.w3.org/2000/svg">
<g clip-path="url(#clip0_24530_154870)">
<rect width="104" height="248" rx="5" fill="#7083EA"/>
<rect x="-27.8967" y="-20.8594" width="122.668" height="18.0781" transform="rotate(43.4446 -27.8967 -20.8594)" fill="url(#paint0_linear_24530_154870)" fill-opacity="0.1"/>
<rect x="-8.42795" y="190.516" width="122.668" height="39.8885" transform="rotate(43.4446 -8.42795 190.516)" fill="url(#paint1_linear_24530_154870)" fill-opacity="0.1"/>
<rect x="21.867" y="-29.2031" width="122.668" height="39.8885" transform="rotate(43.4446 21.867 -29.2031)" fill="url(#paint2_linear_24530_154870)" fill-opacity="0.1"/>
<rect x="30.5938" y="260.703" width="122.668" height="18.0781" transform="rotate(-39.8061 30.5938 260.703)" fill="url(#paint3_linear_24530_154870)" fill-opacity="0.1"/>
<rect x="-16.6875" y="148.062" width="122.668" height="18.0781" transform="rotate(-39.8061 -16.6875 148.062)" fill="url(#paint4_linear_24530_154870)" fill-opacity="0.1"/>
<path d="M21.6641 106H18.5431V95.8864H21.8023C22.7834 95.8864 23.6229 96.0888 24.3209 96.4938C25.0188 96.8954 25.5538 97.4732 25.9258 98.2271C26.2978 98.9777 26.4839 99.8765 26.4839 100.923C26.4839 101.977 26.2962 102.884 25.9209 103.644C25.5456 104.402 24.9991 104.984 24.2814 105.393C23.5637 105.798 22.6912 106 21.6641 106ZM19.7678 104.914H21.5851C22.4213 104.914 23.1143 104.752 23.6641 104.43C24.2139 104.107 24.6238 103.648 24.8937 103.052C25.1637 102.456 25.2987 101.746 25.2987 100.923C25.2987 100.107 25.1653 99.4041 24.8987 98.8148C24.632 98.2222 24.2336 97.7679 23.7036 97.4518C23.1735 97.1325 22.5135 96.9728 21.7233 96.9728H19.7678V104.914ZM31.4617 106.158C30.7769 106.158 30.1761 105.995 29.6592 105.669C29.1456 105.343 28.7439 104.887 28.4542 104.301C28.1678 103.715 28.0246 103.03 28.0246 102.247C28.0246 101.457 28.1678 100.767 28.4542 100.178C28.7439 99.5884 29.1456 99.1308 29.6592 98.8049C30.1761 98.479 30.7769 98.316 31.4617 98.316C32.1464 98.316 32.7456 98.479 33.2592 98.8049C33.7761 99.1308 34.1777 99.5884 34.4641 100.178C34.7539 100.767 34.8987 101.457 34.8987 102.247C34.8987 103.03 34.7539 103.715 34.4641 104.301C34.1777 104.887 33.7761 105.343 33.2592 105.669C32.7456 105.995 32.1464 106.158 31.4617 106.158ZM31.4617 105.111C31.9818 105.111 32.4098 104.978 32.7456 104.711C33.0814 104.444 33.33 104.094 33.4913 103.659C33.6526 103.225 33.7333 102.754 33.7333 102.247C33.7333 101.74 33.6526 101.267 33.4913 100.83C33.33 100.392 33.0814 100.038 32.7456 99.7679C32.4098 99.4979 31.9818 99.3629 31.4617 99.3629C30.9415 99.3629 30.5135 99.4979 30.1777 99.7679C29.8419 100.038 29.5933 100.392 29.432 100.83C29.2707 101.267 29.19 101.74 29.19 102.247C29.19 102.754 29.2707 103.225 29.432 103.659C29.5933 104.094 29.8419 104.444 30.1777 104.711C30.5135 104.978 30.9415 105.111 31.4617 105.111ZM37.8432 101.437V106H36.6777V98.4148H37.8037V99.6H37.9024C38.0802 99.2148 38.3502 98.9053 38.7123 98.6716C39.0745 98.4345 39.5419 98.316 40.1148 98.316C40.6284 98.316 41.0778 98.4214 41.4629 98.6321C41.8481 98.8395 42.1477 99.1555 42.3617 99.5802C42.5757 100.002 42.6827 100.535 42.6827 101.18V106H41.5173V101.259C41.5173 100.663 41.3625 100.199 41.0531 99.8666C40.7436 99.5308 40.3189 99.3629 39.779 99.3629C39.407 99.3629 39.0745 99.4436 38.7814 99.6049C38.4917 99.7662 38.2629 100.002 38.095 100.311C37.9271 100.621 37.8432 100.996 37.8432 101.437ZM45.8395 95.8864V96.7753C45.8395 97.0452 45.7901 97.3333 45.6914 97.6395C45.5959 97.9423 45.4543 98.237 45.2667 98.5234C45.0823 98.8065 44.8584 99.0535 44.5951 99.2642L43.963 98.7506C44.1704 98.4543 44.3498 98.1465 44.5012 97.8271C44.656 97.5045 44.7333 97.1604 44.7333 96.795V95.8864H45.8395ZM50.8815 98.4148V99.4024H46.9506V98.4148H50.8815ZM48.0963 96.5975H49.2618V103.827C49.2618 104.156 49.3095 104.403 49.405 104.568C49.5037 104.729 49.6288 104.838 49.7803 104.894C49.935 104.946 50.098 104.973 50.2692 104.973C50.3976 104.973 50.5029 104.966 50.5852 104.953C50.6675 104.937 50.7334 104.923 50.7828 104.914L51.0198 105.96C50.9408 105.99 50.8305 106.02 50.6889 106.049C50.5474 106.082 50.3679 106.099 50.1506 106.099C49.8214 106.099 49.4988 106.028 49.1827 105.886C48.87 105.745 48.6099 105.529 48.4025 105.24C48.1984 104.95 48.0963 104.584 48.0963 104.143V96.5975ZM56.7038 95.8864H58.1655L61.6026 104.281H61.7211L65.1581 95.8864H66.6199V106H65.4742V98.316H65.3754L62.2149 106H61.1087L57.9482 98.316H57.8495V106H56.7038V95.8864ZM68.9174 106V98.4148H70.0829V106H68.9174ZM69.51 97.1506C69.2829 97.1506 69.087 97.0732 68.9224 96.9185C68.761 96.7637 68.6804 96.5777 68.6804 96.3604C68.6804 96.1432 68.761 95.9571 68.9224 95.8024C69.087 95.6477 69.2829 95.5703 69.51 95.5703C69.7372 95.5703 69.9314 95.6477 70.0927 95.8024C70.2573 95.9571 70.3396 96.1432 70.3396 96.3604C70.3396 96.5777 70.2573 96.7637 70.0927 96.9185C69.9314 97.0732 69.7372 97.1506 69.51 97.1506ZM77.5903 100.114L76.5434 100.41C76.4775 100.235 76.3804 100.066 76.252 99.9012C76.1269 99.7333 75.9557 99.595 75.7384 99.4864C75.5212 99.3777 75.243 99.3234 74.9039 99.3234C74.4397 99.3234 74.0528 99.4304 73.7434 99.6444C73.4372 99.8551 73.2841 100.123 73.2841 100.449C73.2841 100.739 73.3895 100.968 73.6002 101.136C73.8109 101.304 74.1401 101.444 74.5878 101.556L75.7138 101.832C76.3919 101.997 76.8973 102.249 77.2298 102.588C77.5623 102.923 77.7286 103.356 77.7286 103.886C77.7286 104.321 77.6035 104.709 77.3533 105.052C77.1064 105.394 76.7607 105.664 76.3162 105.862C75.8718 106.059 75.3549 106.158 74.7656 106.158C73.9919 106.158 73.3516 105.99 72.8446 105.654C72.3376 105.319 72.0166 104.828 71.8816 104.183L72.9878 103.906C73.0932 104.314 73.2923 104.621 73.5853 104.825C73.8816 105.029 74.2685 105.131 74.7458 105.131C75.2891 105.131 75.7203 105.016 76.0397 104.785C76.3623 104.551 76.5236 104.272 76.5236 103.946C76.5236 103.682 76.4315 103.462 76.2471 103.284C76.0627 103.103 75.7796 102.968 75.3977 102.879L74.1335 102.583C73.4388 102.418 72.9286 102.163 72.6026 101.817C72.28 101.468 72.1187 101.032 72.1187 100.509C72.1187 100.081 72.2388 99.702 72.4792 99.3728C72.7228 99.0436 73.0537 98.7851 73.4718 98.5975C73.8932 98.4098 74.3705 98.316 74.9039 98.316C75.6545 98.316 76.2438 98.4806 76.6718 98.8098C77.1031 99.1391 77.4092 99.5736 77.5903 100.114ZM84.8558 100.114L83.8089 100.41C83.743 100.235 83.6459 100.066 83.5175 99.9012C83.3924 99.7333 83.2212 99.595 83.0039 99.4864C82.7866 99.3777 82.5084 99.3234 82.1693 99.3234C81.7051 99.3234 81.3183 99.4304 81.0088 99.6444C80.7027 99.8551 80.5496 100.123 80.5496 100.449C80.5496 100.739 80.6549 100.968 80.8656 101.136C81.0763 101.304 81.4056 101.444 81.8533 101.556L82.9792 101.832C83.6574 101.997 84.1628 102.249 84.4953 102.588C84.8278 102.923 84.9941 103.356 84.9941 103.886C84.9941 104.321 84.8689 104.709 84.6187 105.052C84.3718 105.394 84.0261 105.664 83.5817 105.862C83.1373 106.059 82.6204 106.158 82.0311 106.158C81.2574 106.158 80.6171 105.99 80.1101 105.654C79.6031 105.319 79.2821 104.828 79.1471 104.183L80.2533 103.906C80.3586 104.314 80.5578 104.621 80.8508 104.825C81.1471 105.029 81.5339 105.131 82.0113 105.131C82.5545 105.131 82.9858 105.016 83.3052 104.785C83.6278 104.551 83.7891 104.272 83.7891 103.946C83.7891 103.682 83.6969 103.462 83.5126 103.284C83.3282 103.103 83.0451 102.968 82.6632 102.879L81.399 102.583C80.7043 102.418 80.194 102.163 79.8681 101.817C79.5455 101.468 79.3841 101.032 79.3841 100.509C79.3841 100.081 79.5043 99.702 79.7446 99.3728C79.9883 99.0436 80.3191 98.7851 80.7372 98.5975C81.1586 98.4098 81.636 98.316 82.1693 98.316C82.92 98.316 83.5093 98.4806 83.9373 98.8098C84.3685 99.1391 84.6747 99.5736 84.8558 100.114Z" fill="white"/>
<path d="M22.1776 122.392V120.364H31.7344V122.392H28.1719V132H25.7401V122.392H22.1776ZM35.9404 132.17C35.0578 132.17 34.2945 131.983 33.6506 131.608C33.0105 131.229 32.5161 130.703 32.1677 130.028C31.8192 129.35 31.6449 128.564 31.6449 127.67C31.6449 126.769 31.8192 125.981 32.1677 125.307C32.5161 124.629 33.0105 124.102 33.6506 123.727C34.2945 123.348 35.0578 123.159 35.9404 123.159C36.823 123.159 37.5843 123.348 38.2245 123.727C38.8684 124.102 39.3646 124.629 39.7131 125.307C40.0616 125.981 40.2358 126.769 40.2358 127.67C40.2358 128.564 40.0616 129.35 39.7131 130.028C39.3646 130.703 38.8684 131.229 38.2245 131.608C37.5843 131.983 36.823 132.17 35.9404 132.17ZM35.9517 130.295C36.3533 130.295 36.6885 130.182 36.9574 129.955C37.2264 129.723 37.429 129.409 37.5654 129.011C37.7055 128.614 37.7756 128.161 37.7756 127.653C37.7756 127.146 37.7055 126.693 37.5654 126.295C37.429 125.898 37.2264 125.583 36.9574 125.352C36.6885 125.121 36.3533 125.006 35.9517 125.006C35.5464 125.006 35.2055 125.121 34.929 125.352C34.6563 125.583 34.4498 125.898 34.3097 126.295C34.1733 126.693 34.1052 127.146 34.1052 127.653C34.1052 128.161 34.1733 128.614 34.3097 129.011C34.4498 129.409 34.6563 129.723 34.929 129.955C35.2055 130.182 35.5464 130.295 35.9517 130.295ZM45.0256 132.142C44.3627 132.142 43.7623 131.972 43.2245 131.631C42.6904 131.286 42.2661 130.78 41.9517 130.114C41.6411 129.443 41.4858 128.621 41.4858 127.648C41.4858 126.648 41.6468 125.816 41.9688 125.153C42.2908 124.487 42.7188 123.989 43.2529 123.659C43.7908 123.326 44.3798 123.159 45.0199 123.159C45.5086 123.159 45.9158 123.242 46.2415 123.409C46.5711 123.572 46.8362 123.777 47.037 124.023C47.2415 124.265 47.3968 124.504 47.5029 124.739H47.5767V120.364H49.9915V132H47.6052V130.602H47.5029C47.3892 130.845 47.2283 131.085 47.0199 131.324C46.8154 131.559 46.5483 131.754 46.2188 131.909C45.893 132.064 45.4953 132.142 45.0256 132.142ZM45.7927 130.216C46.1828 130.216 46.5123 130.11 46.7813 129.898C47.054 129.682 47.2623 129.381 47.4063 128.994C47.554 128.608 47.6279 128.155 47.6279 127.636C47.6279 127.117 47.5559 126.667 47.412 126.284C47.268 125.902 47.0597 125.606 46.787 125.398C46.5142 125.189 46.1828 125.085 45.7927 125.085C45.3949 125.085 45.0597 125.193 44.787 125.409C44.5142 125.625 44.3078 125.924 44.1677 126.307C44.0275 126.689 43.9574 127.133 43.9574 127.636C43.9574 128.144 44.0275 128.593 44.1677 128.983C44.3116 129.369 44.518 129.672 44.787 129.892C45.0597 130.108 45.3949 130.216 45.7927 130.216ZM54.4702 132.165C53.9134 132.165 53.4172 132.068 52.9816 131.875C52.546 131.678 52.2013 131.388 51.9475 131.006C51.6975 130.619 51.5725 130.138 51.5725 129.562C51.5725 129.078 51.6615 128.67 51.8395 128.341C52.0176 128.011 52.26 127.746 52.5668 127.545C52.8736 127.345 53.2221 127.193 53.6123 127.091C54.0062 126.989 54.4191 126.917 54.8509 126.875C55.3585 126.822 55.7676 126.773 56.0782 126.727C56.3888 126.678 56.6141 126.606 56.7543 126.511C56.8945 126.417 56.9645 126.277 56.9645 126.091V126.057C56.9645 125.697 56.8509 125.419 56.6236 125.222C56.4001 125.025 56.082 124.926 55.6691 124.926C55.2335 124.926 54.8869 125.023 54.6293 125.216C54.3717 125.405 54.2013 125.644 54.1179 125.932L51.8793 125.75C51.9929 125.22 52.2164 124.761 52.5498 124.375C52.8831 123.985 53.313 123.686 53.8395 123.477C54.3698 123.265 54.9835 123.159 55.6804 123.159C56.1653 123.159 56.6293 123.216 57.0725 123.33C57.5195 123.443 57.9153 123.619 58.26 123.858C58.6085 124.097 58.8831 124.403 59.0838 124.778C59.2846 125.15 59.385 125.595 59.385 126.114V132H57.0895V130.79H57.0213C56.8812 131.062 56.6937 131.303 56.4588 131.511C56.224 131.716 55.9418 131.877 55.6123 131.994C55.2827 132.108 54.902 132.165 54.4702 132.165ZM55.1634 130.494C55.5195 130.494 55.8338 130.424 56.1066 130.284C56.3793 130.14 56.5933 129.947 56.7486 129.705C56.9039 129.462 56.9816 129.187 56.9816 128.881V127.955C56.9058 128.004 56.8016 128.049 56.6691 128.091C56.5403 128.129 56.3945 128.165 56.2316 128.199C56.0687 128.229 55.9058 128.258 55.7429 128.284C55.5801 128.307 55.4323 128.328 55.2998 128.347C55.0157 128.388 54.7676 128.455 54.5554 128.545C54.3433 128.636 54.1785 128.759 54.0611 128.915C53.9437 129.066 53.885 129.256 53.885 129.483C53.885 129.812 54.0043 130.064 54.2429 130.239C54.4854 130.409 54.7922 130.494 55.1634 130.494ZM62.4446 135.273C62.1378 135.273 61.8499 135.248 61.581 135.199C61.3159 135.153 61.0962 135.095 60.9219 135.023L61.4674 133.216C61.7515 133.303 62.0071 133.35 62.2344 133.358C62.4655 133.366 62.6643 133.313 62.831 133.199C63.0015 133.085 63.1397 132.892 63.2458 132.619L63.3878 132.25L60.2571 123.273H62.8026L64.6094 129.682H64.7003L66.5242 123.273H69.0867L65.6946 132.943C65.5318 133.413 65.3102 133.822 65.0299 134.17C64.7534 134.523 64.403 134.794 63.9787 134.983C63.5545 135.176 63.0431 135.273 62.4446 135.273ZM72.8537 120.364V121.591C72.8537 121.939 72.7855 122.295 72.6492 122.659C72.5166 123.019 72.3386 123.36 72.1151 123.682C71.8916 124 71.6473 124.271 71.3821 124.494L70.314 123.864C70.5034 123.564 70.67 123.233 70.814 122.869C70.9617 122.506 71.0355 122.083 71.0355 121.602V120.364H72.8537ZM80.6336 125.761L78.4177 125.898C78.3798 125.708 78.2983 125.538 78.1733 125.386C78.0483 125.231 77.8836 125.108 77.679 125.017C77.4783 124.922 77.2377 124.875 76.9574 124.875C76.5824 124.875 76.2661 124.955 76.0086 125.114C75.751 125.269 75.6222 125.477 75.6222 125.739C75.6222 125.947 75.7055 126.123 75.8722 126.267C76.0389 126.411 76.3248 126.527 76.7302 126.614L78.3097 126.932C79.1582 127.106 79.7908 127.386 80.2074 127.773C80.6241 128.159 80.8324 128.667 80.8324 129.295C80.8324 129.867 80.6639 130.369 80.3267 130.801C79.9934 131.233 79.5351 131.57 78.9517 131.812C78.3722 132.051 77.7036 132.17 76.9461 132.17C75.7908 132.17 74.8703 131.93 74.1847 131.449C73.5029 130.964 73.1033 130.305 72.9858 129.472L75.3665 129.347C75.4385 129.699 75.6127 129.968 75.8892 130.153C76.1658 130.335 76.5199 130.426 76.9517 130.426C77.376 130.426 77.7169 130.345 77.9745 130.182C78.2358 130.015 78.3684 129.801 78.3722 129.54C78.3684 129.32 78.2756 129.14 78.0938 129C77.912 128.856 77.6317 128.746 77.2529 128.67L75.7415 128.369C74.8892 128.199 74.2548 127.903 73.8381 127.483C73.4252 127.062 73.2188 126.527 73.2188 125.875C73.2188 125.314 73.3703 124.831 73.6733 124.426C73.9802 124.021 74.4101 123.708 74.9631 123.489C75.5199 123.269 76.1714 123.159 76.9177 123.159C78.0199 123.159 78.8873 123.392 79.5199 123.858C80.1563 124.324 80.5275 124.958 80.6336 125.761ZM39.2145 152H35.0895V140.364H39.2486C40.4191 140.364 41.4266 140.597 42.2713 141.062C43.116 141.525 43.7657 142.189 44.2202 143.057C44.6785 143.924 44.9077 144.962 44.9077 146.17C44.9077 147.383 44.6785 148.424 44.2202 149.295C43.7657 150.167 43.1123 150.835 42.26 151.301C41.4115 151.767 40.3963 152 39.2145 152ZM37.5498 149.892H39.1123C39.8395 149.892 40.4513 149.763 40.9475 149.506C41.4475 149.244 41.8225 148.841 42.0725 148.295C42.3263 147.746 42.4532 147.038 42.4532 146.17C42.4532 145.311 42.3263 144.608 42.0725 144.062C41.8225 143.517 41.4494 143.116 40.9532 142.858C40.457 142.6 39.8452 142.472 39.1179 142.472H37.5498V149.892ZM50.662 152.17C49.7642 152.17 48.9915 151.989 48.3438 151.625C47.6998 151.258 47.2036 150.739 46.8552 150.068C46.5067 149.394 46.3324 148.597 46.3324 147.676C46.3324 146.778 46.5067 145.991 46.8552 145.312C47.2036 144.634 47.6942 144.106 48.3267 143.727C48.9631 143.348 49.7093 143.159 50.5654 143.159C51.1411 143.159 51.6771 143.252 52.1733 143.438C52.6733 143.619 53.1089 143.894 53.4802 144.261C53.8552 144.629 54.1468 145.091 54.3552 145.648C54.5635 146.201 54.6677 146.848 54.6677 147.591V148.256H47.2983V146.756H52.3892C52.3892 146.407 52.3135 146.098 52.162 145.83C52.0105 145.561 51.8002 145.35 51.5313 145.199C51.2661 145.044 50.9574 144.966 50.6052 144.966C50.2377 144.966 49.912 145.051 49.6279 145.222C49.3476 145.388 49.1279 145.614 48.9688 145.898C48.8097 146.178 48.7283 146.491 48.7245 146.835V148.261C48.7245 148.693 48.804 149.066 48.9631 149.381C49.126 149.695 49.3552 149.938 49.6506 150.108C49.9461 150.278 50.2964 150.364 50.7017 150.364C50.9707 150.364 51.2169 150.326 51.4404 150.25C51.6639 150.174 51.8552 150.061 52.0142 149.909C52.1733 149.758 52.2945 149.572 52.3779 149.352L54.6165 149.5C54.5029 150.038 54.2699 150.508 53.9177 150.909C53.5692 151.307 53.1184 151.617 52.5654 151.841C52.0161 152.061 51.3817 152.17 50.662 152.17ZM58.7358 152.165C58.179 152.165 57.6828 152.068 57.2472 151.875C56.8116 151.678 56.4669 151.388 56.2131 151.006C55.9631 150.619 55.8381 150.138 55.8381 149.562C55.8381 149.078 55.9271 148.67 56.1052 148.341C56.2832 148.011 56.5256 147.746 56.8324 147.545C57.1392 147.345 57.4877 147.193 57.8779 147.091C58.2718 146.989 58.6847 146.917 59.1165 146.875C59.6241 146.822 60.0332 146.773 60.3438 146.727C60.6544 146.678 60.8798 146.606 61.0199 146.511C61.1601 146.417 61.2302 146.277 61.2302 146.091V146.057C61.2302 145.697 61.1165 145.419 60.8892 145.222C60.6658 145.025 60.3476 144.926 59.9347 144.926C59.4991 144.926 59.1525 145.023 58.8949 145.216C58.6373 145.405 58.4669 145.644 58.3836 145.932L56.1449 145.75C56.2586 145.22 56.482 144.761 56.8154 144.375C57.1487 143.985 57.5786 143.686 58.1052 143.477C58.6355 143.265 59.2491 143.159 59.9461 143.159C60.4309 143.159 60.8949 143.216 61.3381 143.33C61.7851 143.443 62.1809 143.619 62.5256 143.858C62.8741 144.097 63.1487 144.403 63.3495 144.778C63.5502 145.15 63.6506 145.595 63.6506 146.114V152H61.3552V150.79H61.287C61.1468 151.062 60.9593 151.303 60.7245 151.511C60.4896 151.716 60.2074 151.877 59.8779 151.994C59.5483 152.108 59.1677 152.165 58.7358 152.165ZM59.429 150.494C59.7851 150.494 60.0995 150.424 60.3722 150.284C60.6449 150.14 60.8589 149.947 61.0142 149.705C61.1695 149.462 61.2472 149.187 61.2472 148.881V147.955C61.1714 148.004 61.0673 148.049 60.9347 148.091C60.8059 148.129 60.6601 148.165 60.4972 148.199C60.3343 148.229 60.1714 148.258 60.0086 148.284C59.8457 148.307 59.698 148.328 59.5654 148.347C59.2813 148.388 59.0332 148.455 58.8211 148.545C58.6089 148.636 58.4442 148.759 58.3267 148.915C58.2093 149.066 58.1506 149.256 58.1506 149.483C58.1506 149.812 58.2699 150.064 58.5086 150.239C58.751 150.409 59.0578 150.494 59.429 150.494ZM67.9489 140.364V152H65.5284V140.364H67.9489Z" fill="white"/>
</g>
<defs>
<linearGradient id="paint0_linear_24530_154870" x1="25.2442" y1="-20.2324" x2="42.8727" y2="-30.0352" gradientUnits="userSpaceOnUse">
<stop stop-color="white"/>
<stop offset="1" stop-color="white" stop-opacity="0"/>
</linearGradient>
<linearGradient id="paint1_linear_24530_154870" x1="44.7129" y1="191.899" x2="66.4142" y2="186.43" gradientUnits="userSpaceOnUse">
<stop stop-color="white"/>
<stop offset="1" stop-color="white" stop-opacity="0"/>
</linearGradient>
<linearGradient id="paint2_linear_24530_154870" x1="75.0079" y1="-27.8198" x2="71.4458" y2="-5.17662" gradientUnits="userSpaceOnUse">
<stop stop-color="white"/>
<stop offset="1" stop-color="white" stop-opacity="0"/>
</linearGradient>
<linearGradient id="paint3_linear_24530_154870" x1="83.7346" y1="261.33" x2="101.363" y2="251.527" gradientUnits="userSpaceOnUse">
<stop stop-color="white"/>
<stop offset="1" stop-color="white" stop-opacity="0"/>
</linearGradient>
<linearGradient id="paint4_linear_24530_154870" x1="36.4534" y1="148.689" x2="54.0819" y2="138.887" gradientUnits="userSpaceOnUse">
<stop stop-color="white"/>
<stop offset="1" stop-color="white" stop-opacity="0"/>
</linearGradient>
<clipPath id="clip0_24530_154870">
<rect width="104" height="248" rx="5" fill="white"/>
</clipPath>
</defs>
</svg>
