<svg width="20" height="20" viewBox="0 0 20 20" fill="none" xmlns="http://www.w3.org/2000/svg">
<g clip-path="url(#clip0_24530_152869)">
<path d="M2.84432 7.61922C3.27581 7.61922 3.6256 7.26942 3.6256 6.83793C3.6256 6.40644 3.27581 6.05664 2.84432 6.05664C2.41282 6.05664 2.06303 6.40644 2.06303 6.83793C2.06303 7.26942 2.41282 7.61922 2.84432 7.61922Z" fill="#AFAFAF"/>
<path d="M2.84432 18.9088C3.27581 18.9088 3.6256 18.559 3.6256 18.1275C3.6256 17.696 3.27581 17.3462 2.84432 17.3462C2.41282 17.3462 2.06303 17.696 2.06303 18.1275C2.06303 18.559 2.41282 18.9088 2.84432 18.9088Z" fill="#AFAFAF"/>
<path d="M2.84432 13.2447C3.27581 13.2447 3.6256 12.8949 3.6256 12.4634C3.6256 12.0319 3.27581 11.6821 2.84432 11.6821C2.41282 11.6821 2.06303 12.0319 2.06303 12.4634C2.06303 12.8949 2.41282 13.2447 2.84432 13.2447Z" fill="#AFAFAF"/>
<path d="M2.84432 10.4322C3.27581 10.4322 3.6256 10.0824 3.6256 9.65092C3.6256 9.21942 3.27581 8.86963 2.84432 8.86963C2.41282 8.86963 2.06303 9.21942 2.06303 9.65092C2.06303 10.0824 2.41282 10.4322 2.84432 10.4322Z" fill="#AFAFAF"/>
<path d="M2.84432 16.0963C3.27581 16.0963 3.6256 15.7465 3.6256 15.315C3.6256 14.8835 3.27581 14.5337 2.84432 14.5337C2.41282 14.5337 2.06303 14.8835 2.06303 15.315C2.06303 15.7465 2.41282 16.0963 2.84432 16.0963Z" fill="#AFAFAF"/>
<path d="M5.73506 18.9088C6.16655 18.9088 6.51634 18.559 6.51634 18.1275C6.51634 17.696 6.16655 17.3462 5.73506 17.3462C5.30356 17.3462 4.95377 17.696 4.95377 18.1275C4.95377 18.559 5.30356 18.9088 5.73506 18.9088Z" fill="#AFAFAF"/>
<path d="M14.133 3.74902C12.6252 3.74902 11.3985 4.9757 11.3985 6.48352C11.3985 7.99133 12.6252 9.21801 14.133 9.21801C15.6408 9.21801 16.8675 7.99133 16.8675 6.48352C16.8675 4.9757 15.6408 3.74902 14.133 3.74902ZM14.133 7.65543C13.4868 7.65543 12.9611 7.12969 12.9611 6.48352C12.9611 5.8373 13.4869 5.3116 14.133 5.3116C14.7792 5.3116 15.3049 5.83734 15.3049 6.48352C15.305 7.12969 14.7792 7.65543 14.133 7.65543Z" fill="#AFAFAF"/>
<path d="M14.1729 18.9088C14.6044 18.9088 14.9542 18.559 14.9542 18.1275C14.9542 17.696 14.6044 17.3462 14.1729 17.3462C13.7414 17.3462 13.3916 17.696 13.3916 18.1275C13.3916 18.559 13.7414 18.9088 14.1729 18.9088Z" fill="#AFAFAF"/>
<path d="M14.133 0.119141C10.622 0.119141 7.76556 2.97414 7.76556 6.4834V6.65438C7.76556 8.42387 8.76998 10.4736 10.7509 12.7466C12.1761 14.3819 13.583 15.5235 13.6422 15.5713L14.133 15.9677L14.6238 15.5713C14.683 15.5235 16.09 14.3819 17.5151 12.7466C19.4961 10.4736 20.5005 8.42387 20.5005 6.65438V6.4834C20.5005 2.9741 17.6441 0.119141 14.133 0.119141ZM18.9379 6.4834V6.65438C18.9379 8.01164 18.0438 9.75727 16.3523 11.7025C15.5062 12.6756 14.6502 13.4759 14.1328 13.9347C13.6194 13.4796 12.7724 12.6878 11.929 11.72C10.2275 9.7677 9.32814 8.01598 9.32814 6.65438V6.4834C9.32814 3.83574 11.4836 1.68172 14.133 1.68172C16.7824 1.68172 18.9379 3.83574 18.9379 6.4834Z" fill="#AFAFAF"/>
<path d="M2.84432 0.119141C1.55193 0.119141 0.500488 1.17059 0.500488 2.46301C0.500488 3.75539 1.55193 4.80684 2.84432 4.80684C4.1367 4.80684 5.18818 3.75539 5.18818 2.46301C5.18818 1.17059 4.13674 0.119141 2.84432 0.119141ZM2.84432 3.24426C2.41354 3.24426 2.06303 2.89379 2.06303 2.46297C2.06303 2.03219 2.4135 1.68168 2.84432 1.68168C3.27514 1.68168 3.62561 2.03215 3.62561 2.46297C3.62561 2.89379 3.27514 3.24426 2.84432 3.24426Z" fill="#AFAFAF"/>
<path d="M8.54768 18.9088C8.97917 18.9088 9.32897 18.559 9.32897 18.1275C9.32897 17.696 8.97917 17.3462 8.54768 17.3462C8.11618 17.3462 7.76639 17.696 7.76639 18.1275C7.76639 18.559 8.11618 18.9088 8.54768 18.9088Z" fill="#AFAFAF"/>
<path d="M11.3603 18.9088C11.7918 18.9088 12.1416 18.559 12.1416 18.1275C12.1416 17.696 11.7918 17.3462 11.3603 17.3462C10.9288 17.3462 10.579 17.696 10.579 18.1275C10.579 18.559 10.9288 18.9088 11.3603 18.9088Z" fill="#AFAFAF"/>
</g>
<defs>
<clipPath id="clip0_24530_152869">
<rect width="20" height="20" fill="white"/>
</clipPath>
</defs>
</svg>
