<svg width="20" height="20" viewBox="0 0 20 20" fill="none" xmlns="http://www.w3.org/2000/svg">
<path d="M15.8333 0.833496H4.16667C1.86917 0.833496 0 2.70266 0 5.00016V15.0002C0 17.2977 1.86917 19.1668 4.16667 19.1668H15.8333C18.1308 19.1668 20 17.2977 20 15.0002V5.00016C20 2.70266 18.1308 0.833496 15.8333 0.833496ZM18.3333 15.0002C18.3333 16.3785 17.2117 17.5002 15.8333 17.5002H4.16667C2.78833 17.5002 1.66667 16.3785 1.66667 15.0002V5.00016C1.66667 3.62183 2.78833 2.50016 4.16667 2.50016H15.8333C17.2117 2.50016 18.3333 3.62183 18.3333 5.00016V15.0002ZM15.8333 5.8335C15.8333 6.2935 15.46 6.66683 15 6.66683H9.16667C8.70667 6.66683 8.33333 6.2935 8.33333 5.8335C8.33333 5.3735 8.70667 5.00016 9.16667 5.00016H15C15.46 5.00016 15.8333 5.3735 15.8333 5.8335ZM6.66667 5.8335C6.66667 6.5235 6.10667 7.0835 5.41667 7.0835C4.72667 7.0835 4.16667 6.5235 4.16667 5.8335C4.16667 5.1435 4.72667 4.5835 5.41667 4.5835C6.10667 4.5835 6.66667 5.1435 6.66667 5.8335ZM15.8333 10.0002C15.8333 10.4602 15.46 10.8335 15 10.8335H9.16667C8.70667 10.8335 8.33333 10.4602 8.33333 10.0002C8.33333 9.54016 8.70667 9.16683 9.16667 9.16683H15C15.46 9.16683 15.8333 9.54016 15.8333 10.0002ZM6.66667 10.0002C6.66667 10.6902 6.10667 11.2502 5.41667 11.2502C4.72667 11.2502 4.16667 10.6902 4.16667 10.0002C4.16667 9.31016 4.72667 8.75016 5.41667 8.75016C6.10667 8.75016 6.66667 9.31016 6.66667 10.0002ZM15.8333 14.1668C15.8333 14.6268 15.46 15.0002 15 15.0002H9.16667C8.70667 15.0002 8.33333 14.6268 8.33333 14.1668C8.33333 13.7068 8.70667 13.3335 9.16667 13.3335H15C15.46 13.3335 15.8333 13.7068 15.8333 14.1668ZM6.66667 14.1668C6.66667 14.8568 6.10667 15.4168 5.41667 15.4168C4.72667 15.4168 4.16667 14.8568 4.16667 14.1668C4.16667 13.4768 4.72667 12.9168 5.41667 12.9168C6.10667 12.9168 6.66667 13.4768 6.66667 14.1668Z" fill="#AFAFAF"/>
</svg>
