<svg width="20" height="20" viewBox="0 0 20 20" fill="none" xmlns="http://www.w3.org/2000/svg">
<g clip-path="url(#clip0_28546_16677)">
<path d="M16.3338 2.03249C16.3338 2.02583 16.3338 2.02083 16.3338 2.01416V0.347493C16.3338 0.12648 16.246 -0.0854819 16.0897 -0.241762C15.9335 -0.398042 15.7215 -0.48584 15.5005 -0.48584C15.2795 -0.48584 15.0675 -0.398042 14.9112 -0.241762C14.755 -0.0854819 14.6672 0.12648 14.6672 0.347493V1.26416C14.3929 1.20847 14.1137 1.18055 13.8338 1.18083H13.0005V0.347493C13.0005 0.12648 12.9127 -0.0854819 12.7564 -0.241762C12.6001 -0.398042 12.3882 -0.48584 12.1672 -0.48584C11.9461 -0.48584 11.7342 -0.398042 11.5779 -0.241762C11.4216 -0.0854819 11.3338 0.12648 11.3338 0.347493V1.18083H9.66715V0.347493C9.66715 0.12648 9.57936 -0.0854819 9.42308 -0.241762C9.2668 -0.398042 9.05484 -0.48584 8.83382 -0.48584C8.61281 -0.48584 8.40085 -0.398042 8.24457 -0.241762C8.08829 -0.0854819 8.00049 0.12648 8.00049 0.347493V1.18083H7.16715C6.88728 1.18055 6.6081 1.20847 6.33382 1.26416V0.347493C6.33382 0.12648 6.24602 -0.0854819 6.08974 -0.241762C5.93346 -0.398042 5.7215 -0.48584 5.50049 -0.48584C5.27947 -0.48584 5.06751 -0.398042 4.91123 -0.241762C4.75495 -0.0854819 4.66715 0.12648 4.66715 0.347493V2.01416V2.03249C4.15114 2.4178 3.7319 2.91794 3.44263 3.49331C3.15335 4.06869 3.00198 4.7035 3.00049 5.34749V15.3475C3.00181 16.4522 3.44122 17.5112 4.22234 18.2923C5.00345 19.0734 6.06249 19.5128 7.16715 19.5142H13.8338C14.9385 19.5128 15.9975 19.0734 16.7786 18.2923C17.5598 17.5112 17.9992 16.4522 18.0005 15.3475V5.34749C17.999 4.7035 17.8476 4.06869 17.5584 3.49331C17.2691 2.91794 16.8498 2.4178 16.3338 2.03249ZM16.3338 15.3475C16.3338 16.0105 16.0704 16.6464 15.6016 17.1153C15.1327 17.5841 14.4969 17.8475 13.8338 17.8475H7.16715C6.50411 17.8475 5.86823 17.5841 5.39939 17.1153C4.93055 16.6464 4.66715 16.0105 4.66715 15.3475V5.34749C4.66715 4.68445 4.93055 4.04857 5.39939 3.57973C5.86823 3.11089 6.50411 2.84749 7.16715 2.84749H13.8338C14.4969 2.84749 15.1327 3.11089 15.6016 3.57973C16.0704 4.04857 16.3338 4.68445 16.3338 5.34749V15.3475ZM14.6672 6.18083C14.6672 6.40184 14.5794 6.6138 14.4231 6.77008C14.2668 6.92636 14.0548 7.01416 13.8338 7.01416H7.16715C6.94614 7.01416 6.73418 6.92636 6.5779 6.77008C6.42162 6.6138 6.33382 6.40184 6.33382 6.18083C6.33382 5.95981 6.42162 5.74785 6.5779 5.59157C6.73418 5.43529 6.94614 5.34749 7.16715 5.34749H13.8338C14.0548 5.34749 14.2668 5.43529 14.4231 5.59157C14.5794 5.74785 14.6672 5.95981 14.6672 6.18083ZM14.6672 9.51416C14.6672 9.73517 14.5794 9.94713 14.4231 10.1034C14.2668 10.2597 14.0548 10.3475 13.8338 10.3475H7.16715C6.94614 10.3475 6.73418 10.2597 6.5779 10.1034C6.42162 9.94713 6.33382 9.73517 6.33382 9.51416C6.33382 9.29315 6.42162 9.08118 6.5779 8.9249C6.73418 8.76862 6.94614 8.68083 7.16715 8.68083H13.8338C14.0548 8.68083 14.2668 8.76862 14.4231 8.9249C14.5794 9.08118 14.6672 9.29315 14.6672 9.51416ZM11.3338 12.8475C11.3338 13.0685 11.246 13.2805 11.0897 13.4367C10.9335 13.593 10.7215 13.6808 10.5005 13.6808H7.16715C6.94614 13.6808 6.73418 13.593 6.5779 13.4367C6.42162 13.2805 6.33382 13.0685 6.33382 12.8475C6.33382 12.6265 6.42162 12.4145 6.5779 12.2582C6.73418 12.102 6.94614 12.0142 7.16715 12.0142H10.5005C10.7215 12.0142 10.9335 12.102 11.0897 12.2582C11.246 12.4145 11.3338 12.6265 11.3338 12.8475Z" fill="#AFAFAF"/>
</g>
<defs>
<clipPath id="clip0_28546_16677">
<rect width="20" height="20" fill="white"/>
</clipPath>
</defs>
</svg>
