<svg width="22" height="22" viewBox="0 0 22 22" fill="none" xmlns="http://www.w3.org/2000/svg">
<path d="M13.3097 21.6562C14.1872 21.6691 15.0573 21.4932 15.861 21.1406C16.7739 20.7596 17.5519 20.114 18.0947 19.2869C18.6374 18.4598 18.9201 17.4892 18.9062 16.5C18.9062 13.4062 18.2188 12.7188 17.1875 10.6562C16.1562 8.59375 17.1875 6.53125 17.1875 6.53125C16.363 6.74024 15.635 7.22554 15.125 7.90625C15.125 0.6875 10.3125 0.34375 10.3125 0.34375C10.5997 1.14105 10.6872 1.99658 10.5674 2.83552C10.4475 3.67446 10.124 4.47126 9.625 5.15625C7.90625 7.5625 6.1875 8.9375 5.5 11.6875C5.5 11.6875 4.125 11 4.46875 9.625C4.46875 9.625 3.09375 12.0312 3.09375 15.8125C3.09375 19.9588 6.41506 21.175 8.04994 21.5222C8.48475 21.6128 8.92784 21.6578 9.372 21.6562H13.3097Z" fill="#FEBD55"/>
<path d="M8.54027 21.6562C8.54027 21.6562 4.99414 20.3266 4.99414 16.3371C4.99414 11.9048 8.07002 10.3125 8.07002 10.3125C8.07002 10.3125 7.21064 11.9048 8.09717 12.3478C8.09717 12.3478 9.58045 7.51713 13.57 6.1875C13.57 6.1875 12.1768 7.65291 13.0633 10.3125C13.9499 12.9721 16.9532 13.5692 17.0075 16.5V16.8438C17.0424 17.8392 16.779 18.8223 16.2513 19.667C15.5679 20.7316 14.779 21.6562 12.9729 21.6562H8.54027Z" fill="#FC9E20"/>
<path d="M8.9375 21.6562C8.12376 21.316 7.42865 20.743 6.93941 20.0091C6.45016 19.2753 6.18858 18.4132 6.1875 17.5312C6.1875 14.0937 7.90625 12.7187 7.90625 12.7187C7.90625 12.7187 7.90625 14.0937 8.59375 14.4375C8.59375 14.4375 9.28125 9.625 12.375 8.59375C12.375 8.59375 11.3438 9.28125 12.0312 11.3437C12.7188 13.4062 15.8125 14.0937 15.8125 17.5312V17.8307C15.8247 18.6361 15.6063 19.4281 15.1831 20.1135C14.8928 20.5956 14.4801 20.9923 13.9869 21.2633C13.4937 21.5342 12.9376 21.6698 12.375 21.6562H8.9375Z" fill="#E03E3E"/>
<g clip-path="url(#clip0_24530_155335)">
<path d="M8.72266 17.2422H6.37891C5.89256 17.2422 5.5 17.6347 5.5 18.1211V18.707C5.5 18.8711 5.62889 19 5.79297 19H9.30859C9.47268 19 9.60156 18.8711 9.60156 18.707V18.1211C9.60156 17.6347 9.209 17.2422 8.72266 17.2422Z" fill="#FFA45C"/>
<path d="M9.60767 13.9363L10.6435 14.9721L10.9874 15.0425L11.5757 14.4542L11.4721 14.1435L10.4363 13.1077L9.60767 13.9363Z" fill="#F39C57"/>
<path d="M10.0215 13.5217L11.2645 14.7647L11.5752 14.454L11.4716 14.1432L10.4358 13.1074L10.0215 13.5217Z" fill="#FF811B"/>
<path d="M9.60156 18.1211V18.707C9.60156 18.8711 9.47268 19 9.30859 19H7.55078V17.2422H8.72266C9.209 17.2422 9.60156 17.6347 9.60156 18.1211Z" fill="#FF9847"/>
<path d="M13.6174 18.6098C14.0151 19.0986 14.7443 19.1318 15.1876 18.6885C15.631 18.2452 15.5978 17.516 15.1089 17.1182L11.4712 14.1434L10.6426 14.9721L13.6174 18.6098Z" fill="#FFAB68"/>
<path d="M11.4729 14.1434L11.0586 14.5577L15.1893 18.6885C15.6327 18.2452 15.5995 17.516 15.1106 17.1182L11.4729 14.1434Z" fill="#FF9542"/>
<path d="M12.3003 12.0718L9.81445 9.58594L6.08565 13.3147L8.57152 15.8006L12.3003 12.0718Z" fill="#FFD419"/>
<path d="M12.3003 12.0718L9.81445 9.58594L7.95004 11.4503L10.4359 13.9362L12.3003 12.0718Z" fill="#FFC024"/>
<path d="M8.98617 16.2147C9.215 15.9859 9.215 15.6149 8.98617 15.3861L6.50025 12.9001C6.27143 12.6713 5.90043 12.6713 5.67162 12.9001C5.44279 13.129 5.44279 13.5 5.67162 13.7288L8.15754 16.2147C8.38637 16.4435 8.75736 16.4435 8.98617 16.2147Z" fill="#FF933D"/>
<path d="M12.7147 12.4862C12.9435 12.2573 12.9435 11.8863 12.7147 11.6575L10.2288 9.17162C9.99994 8.94279 9.62895 8.94279 9.40014 9.17162C9.17131 9.40045 9.17131 9.77145 9.40014 10.0003L11.8861 12.4862C12.1149 12.715 12.4859 12.715 12.7147 12.4862Z" fill="#FF882A"/>
</g>
<defs>
<clipPath id="clip0_24530_155335">
<rect width="10" height="10" fill="white" transform="translate(5.5 9)"/>
</clipPath>
</defs>
</svg>
