<svg width="20" height="20" viewBox="0 0 20 20" fill="none" xmlns="http://www.w3.org/2000/svg">
<g clip-path="url(#clip0_26823_226181)">
<path d="M14.5156 8.87012V9.09648C14.5156 9.37387 14.5604 9.64941 14.648 9.91254L15.1608 11.4507H16.1285V7.90234H15.4834C14.9489 7.90238 14.5156 8.33562 14.5156 8.87012Z" fill="#5A4146"/>
<path d="M18.9338 9.54242L18.3879 11.453L15.8073 9.19492C15.4509 9.19492 15.1621 8.90605 15.1621 8.54977C15.1621 8.01531 15.5954 7.58203 16.1298 7.58203H18.3879C18.7442 7.58203 19.033 7.8709 19.033 8.22719V8.83352C19.0331 9.07324 18.9996 9.31184 18.9338 9.54242Z" fill="#694B4B"/>
<path d="M17.7421 12.418H15.8066V13.8457H17.7421V12.418Z" fill="#E6AF78"/>
<path d="M15.8066 13.0105C16.1058 13.1321 16.4321 13.2005 16.7744 13.2005C17.1167 13.2005 17.4429 13.1321 17.7421 13.0105V12.418H15.8066V13.0105Z" fill="#D29B6E"/>
<path d="M19.2985 13.6478L17.7423 13.2032L16.7746 13.8453L15.8069 13.2031L14.2507 13.6478C13.8352 13.7665 13.5488 14.1462 13.5488 14.5783V16.9367C13.5488 17.1149 13.6932 17.2593 13.8714 17.2593H19.6779C19.856 17.2593 20.0004 17.1149 20.0004 16.9367V14.5783C20.0004 14.1462 19.714 13.7665 19.2985 13.6478Z" fill="#D5DCED"/>
<path d="M17.0963 17.2586H16.4512L16.6125 13.8477H16.935L17.0963 17.2586Z" fill="#AFB9D2"/>
<path d="M16.7734 12.7398C15.7044 12.7398 14.8379 11.8732 14.8379 10.8043V10.4264C14.8379 10.2553 14.9059 10.0912 15.0268 9.97014L15.6118 9.38518C15.7357 9.26131 15.905 9.1901 16.0801 9.19561C17.1113 9.22815 18.024 9.44905 18.523 9.93635C18.6451 10.0556 18.7089 10.2225 18.7089 10.3932V10.8043C18.7089 11.8732 17.8423 12.7398 16.7734 12.7398Z" fill="#F0C087"/>
<path d="M15.8056 10.5064C15.8056 10.1343 16.1181 9.8385 16.4895 9.86217C17.1407 9.90373 18.107 10.0126 18.6999 10.2977C18.6805 10.1616 18.6221 10.0331 18.523 9.93635C18.024 9.44905 17.1113 9.22815 16.0801 9.19561L16.0801 9.19565C15.905 9.19014 15.7356 9.26135 15.6118 9.38518L15.0269 9.9701C14.9059 10.0911 14.8379 10.2552 14.8379 10.4263V10.8042C14.8379 11.6869 15.4293 12.4301 16.2371 12.6628C15.9682 12.3311 15.8057 11.91 15.8057 11.4494L15.8056 10.5064Z" fill="#E6AF78"/>
<path d="M18.709 15.5381C18.709 15.2814 18.8109 15.0353 18.9924 14.8538L19.8228 14.0234C19.9338 14.1821 19.9993 14.373 19.9993 14.5769V16.9354C19.9993 17.1135 19.8549 17.2579 19.6767 17.2579H18.709V15.5381Z" fill="#C7CFE2"/>
<path d="M16.935 14.4928H16.6125C16.5234 14.4928 16.4512 14.4206 16.4512 14.3315V13.8477H17.0963V14.3315C17.0963 14.4206 17.0241 14.4928 16.935 14.4928Z" fill="#959CB5"/>
<path d="M16.7737 13.8437L16.227 14.2613C16.1328 14.3333 15.9966 14.3044 15.9397 14.2004L15.4492 13.3047L15.6466 13.0036C15.6904 12.9368 15.7838 12.9254 15.8423 12.9797L16.7737 13.8437Z" fill="#C7CFE2"/>
<path d="M16.7734 13.8437L17.3202 14.2613C17.4144 14.3333 17.5505 14.3044 17.6075 14.2004L18.0979 13.3047L17.9005 13.0036C17.8567 12.9368 17.7634 12.9254 17.7048 12.9797L16.7734 13.8437Z" fill="#C7CFE2"/>
<path d="M5.77397 12.6087C5.49831 11.8783 5.27968 10.6227 5.23245 9.96898C5.14261 8.725 4.20515 7.71094 2.93788 7.71094C1.67062 7.71094 0.733154 8.72504 0.643311 9.96898C0.596084 10.6227 0.377451 11.8783 0.101787 12.6087C0.0410451 12.7697 0.111162 12.9472 0.269717 13.0191C0.565108 13.153 1.19491 13.4152 1.95448 13.5174H3.92124C4.67726 13.415 5.31147 13.1526 5.60601 13.0191C5.7646 12.9472 5.83472 12.7697 5.77397 12.6087Z" fill="#5A4146"/>
<path d="M5.60656 13.0191C5.76508 12.9472 5.83523 12.7697 5.77445 12.6087C5.49883 11.8783 5.28016 10.6227 5.23297 9.96898C5.14316 8.725 4.20566 7.71094 2.93844 7.71094C2.93523 7.71094 2.93207 7.71094 2.92887 7.71098C1.95648 7.71492 1.61285 9.04105 2.44992 9.53586C2.50019 9.56559 2.53242 9.57988 2.53242 9.57988L3.26559 13.5174H3.9218C4.67781 13.4149 5.31203 13.1525 5.60656 13.0191Z" fill="#694B4B"/>
<path d="M5.27148 14.1645L4.22758 13.6425C4.00898 13.5332 3.8709 13.3098 3.87094 13.0654L3.87102 12.0977H1.93547V13.0655C1.93547 13.3098 1.79742 13.5332 1.57883 13.6425L0.534922 14.1645C0.20707 14.3284 0 14.6634 0 15.03V16.9363C0 17.1144 0.144414 17.2589 0.322578 17.2589H5.48387C5.66203 17.2589 5.80645 17.1144 5.80645 16.9363V15.03C5.80645 14.6634 5.59934 14.3284 5.27148 14.1645Z" fill="#E6AF78"/>
<path d="M2.90316 13.388C3.25051 13.388 3.5832 13.3164 3.8882 13.1889C3.8802 13.1482 3.87086 13.1078 3.87086 13.0654L3.87094 12.0977H1.93539V13.0655C1.93539 13.1081 1.92605 13.1487 1.91797 13.1895C2.22316 13.3163 2.5557 13.388 2.90316 13.388Z" fill="#D29B6E"/>
<path d="M5.27148 14.1648L4.52781 13.793C4.18297 14.3255 3.58488 14.6787 2.90324 14.6787C2.2216 14.6787 1.62348 14.3255 1.27863 13.793L0.534961 14.1648C0.207109 14.3288 0 14.6638 0 15.0304V16.9367C0 17.1148 0.144414 17.2593 0.322578 17.2593H5.48387C5.66203 17.2593 5.80645 17.1148 5.80645 16.9367V15.0304C5.80645 14.6638 5.59934 14.3288 5.27148 14.1648Z" fill="#D5DCED"/>
<path d="M2.90275 12.7432C1.91868 12.7432 1.10618 12.0088 0.983333 11.0582C0.96552 10.9205 1.03173 10.7855 1.15572 10.7229C1.30423 10.648 1.52005 10.5217 1.72669 10.3373C1.95681 10.132 2.09181 9.91547 2.16806 9.75652C2.23372 9.61965 2.38466 9.54222 2.53177 9.57976C3.66755 9.86945 4.44079 10.4603 4.72134 10.7016C4.79665 10.7664 4.84005 10.8619 4.83232 10.9609C4.75415 11.9582 3.92013 12.7432 2.90275 12.7432Z" fill="#F0C087"/>
<path d="M4.72129 10.7016C4.44078 10.4603 3.6675 9.86945 2.53172 9.57976C2.38461 9.54222 2.23367 9.61965 2.16801 9.75652C2.11028 9.87691 2.01485 10.0303 1.87324 10.1868C1.87321 10.1872 1.87309 10.1875 1.87305 10.1879C1.8291 10.2377 1.78231 10.2877 1.72668 10.3373C1.52004 10.5218 1.30422 10.648 1.15571 10.723C1.03172 10.7855 0.965549 10.9206 0.983323 11.0583C1.09367 11.912 1.76172 12.5916 2.6093 12.7212C2.22309 12.4584 1.935 12.0971 1.935 11.453V10.993C2.00828 10.9389 2.08207 10.8849 2.15621 10.8187C2.33551 10.6587 2.49203 10.4737 2.61754 10.2745C3.48641 10.5456 4.07547 10.9972 4.29879 11.1893C4.35992 11.2428 4.51164 11.3827 4.68914 11.5492C4.76551 11.3654 4.81602 11.1682 4.83223 10.961C4.84 10.8619 4.7966 10.7664 4.72129 10.7016Z" fill="#E6AF78"/>
<path d="M0.196641 14.4492C0.0723828 14.6141 0 14.8164 0 15.0307V16.937C0 17.1152 0.144414 17.2596 0.322578 17.2596H1.29031V15.6342C1.29031 15.4382 1.20121 15.2529 1.04816 15.1304L0.196641 14.4492Z" fill="#C7CFE2"/>
<path d="M14.634 13.7237L11.935 12.7422L9.99949 13.3874L8.06402 12.7422L5.365 13.7237C4.85508 13.9091 4.51562 14.3938 4.51562 14.9363V16.9358C4.51562 17.1139 4.66004 17.2584 4.8382 17.2584H15.1608C15.3389 17.2584 15.4834 17.1139 15.4834 16.9358V14.9363C15.4834 14.3937 15.1439 13.9091 14.634 13.7237Z" fill="#FF507D"/>
<path d="M9.6627 14.0312L9.35547 17.257H10.6458L10.3386 14.0312H9.6627Z" fill="#707487"/>
<path d="M10.3387 14.4751H9.66137C9.53664 14.4751 9.43555 14.374 9.43555 14.2493V13.3867H10.5645V14.2493C10.5645 14.3739 10.4634 14.4751 10.3387 14.4751Z" fill="#5B5D6E"/>
<path d="M15.1371 14.0547C15.3549 14.2885 15.4843 14.5998 15.4843 14.9338V16.9333C15.4843 17.1114 15.3399 17.2559 15.1617 17.2559H13.5488V16.1774C13.5488 15.8352 13.6848 15.507 13.9268 15.265L15.1371 14.0547Z" fill="#D23C69"/>
<path d="M13.548 6.08969V3.38734C13.548 3.03102 13.2591 2.74219 12.9028 2.74219H9.03184C7.6066 2.74219 6.45117 3.89758 6.45117 5.32285V6.08969C6.45117 6.43641 6.50707 6.78086 6.61672 7.10977L6.7241 7.43191C6.75699 7.53059 6.77375 7.63391 6.77375 7.73793V7.90348H13.2254V7.73793C13.2254 7.63391 13.2421 7.53059 13.275 7.43191L13.3824 7.10977C13.4921 6.78082 13.548 6.43637 13.548 6.08969Z" fill="#5A4146"/>
<path d="M8.06445 4.05266C8.06445 4.77641 8.65117 5.36313 9.37492 5.36313H9.55637L9.64395 7.90344H13.2257V7.73789C13.2257 7.63387 13.2425 7.53055 13.2754 7.43187L13.3827 7.10973C13.4924 6.78082 13.5483 6.43637 13.5483 6.08965V3.38734C13.5483 3.03102 13.2594 2.74219 12.9031 2.74219H9.37492C8.65117 2.74219 8.06445 3.32891 8.06445 4.05266Z" fill="#694B4B"/>
<path d="M11.9355 10.4844H8.06445V13.3875H11.9355V10.4844Z" fill="#E6AF78"/>
<path d="M8.06449 11.5752C8.63434 11.9053 9.29406 12.0973 9.99996 12.0973C10.7059 12.0973 11.3656 11.9053 11.9354 11.5752V10.4844H8.06445L8.06449 11.5752Z" fill="#D29B6E"/>
<path d="M10.0005 13.3854L8.97172 14.4142C8.83344 14.5525 8.60488 14.5369 8.48668 14.3811L7.41992 12.9755L7.69894 12.3875C7.78129 12.214 7.99605 12.1504 8.15957 12.2512L10.0005 13.3854Z" fill="#D23C69"/>
<path d="M10 13.3854L11.0288 14.4142C11.1671 14.5525 11.3957 14.5369 11.5139 14.3811L12.5806 12.9755L12.3016 12.3875C12.2193 12.214 12.0045 12.1504 11.841 12.2512L10 13.3854Z" fill="#D23C69"/>
<path d="M9.99926 11.4538C8.21769 11.4538 6.77344 10.0095 6.77344 8.22794V7.85001C6.77344 7.67892 6.84141 7.51482 6.96238 7.3938L7.22961 7.12658C7.35059 7.0056 7.41855 6.8415 7.41855 6.67036V5.89708C7.41855 5.74771 7.51887 5.61794 7.66422 5.58361C8.42715 5.40341 10.8012 4.97658 12.4169 6.16486C12.5218 6.24201 12.5798 6.36876 12.5798 6.499V6.67036C12.5798 6.84146 12.6478 7.00556 12.7688 7.12658L13.036 7.3938C13.157 7.51478 13.225 7.67888 13.225 7.85001V8.22794C13.2251 10.0095 11.7808 11.4538 9.99926 11.4538Z" fill="#F0C087"/>
<path d="M12.417 6.16432C11.2806 5.32857 9.77121 5.2924 8.70895 5.40682C8.26086 5.45506 7.89062 5.52963 7.6643 5.58307C7.51895 5.6174 7.41863 5.74717 7.41863 5.89654V6.66978C7.41863 6.84092 7.35066 7.00502 7.22965 7.12603L6.96242 7.39326C6.84141 7.51428 6.77344 7.67838 6.77344 7.84951V8.2274C6.77344 9.87678 8.01211 11.2346 9.60945 11.4274C9.05285 10.8478 8.70891 10.0622 8.70891 9.19514V6.83728C8.70891 6.51037 8.95199 6.23717 9.27633 6.1965C10.0505 6.09943 11.4684 6.04107 12.5798 6.66986V6.49846C12.5799 6.36822 12.5218 6.24143 12.417 6.16432Z" fill="#E6AF78"/>
<path d="M4.86285 14.0547C4.64504 14.2885 4.51562 14.5998 4.51562 14.9338V16.9333C4.51562 17.1114 4.66004 17.2559 4.8382 17.2559H6.45109V16.1774C6.45109 15.8352 6.31516 15.507 6.07316 15.265L4.86285 14.0547Z" fill="#D23C69"/>
</g>
<defs>
<clipPath id="clip0_26823_226181">
<rect width="20" height="20" fill="white"/>
</clipPath>
</defs>
</svg>
