<svg width="18" height="16" viewBox="0 0 18 16" fill="none" xmlns="http://www.w3.org/2000/svg">
<path fill-rule="evenodd" clip-rule="evenodd" d="M4.79167 1.25C4.58813 1.25 4.39498 1.26453 4.21171 1.29273L4.19449 1.29513C3.27172 1.41093 2.54632 1.80601 2.04962 2.38876C1.55164 2.97301 1.25 3.78573 1.25 4.79167V10.625C1.25 11.733 1.61659 12.6078 2.21277 13.2039C2.80896 13.8001 3.6837 14.1667 4.79167 14.1667H12.2917C13.3997 14.1667 14.2744 13.8001 14.8706 13.2039C15.4668 12.6078 15.8333 11.733 15.8333 10.625V10.0417H14.825C13.6503 10.0417 12.5103 9.18275 12.4025 7.91392C12.3352 7.19542 12.6088 6.52417 13.0828 6.05833C13.5091 5.62346 14.0936 5.37501 14.725 5.37501H15.8333V4.79167C15.8333 3.77892 15.5264 2.96113 15.0206 2.37499C14.5159 1.79018 13.7793 1.39618 12.8445 1.28748C12.8343 1.28628 12.8241 1.28484 12.8139 1.28315C12.664 1.25817 12.4955 1.25 12.2917 1.25H4.79167ZM4.03028 0.0559417C4.27761 0.0183667 4.53158 0 4.79167 0H12.2917C12.5164 0 12.759 0.00812506 13.0038 0.0475917C14.2125 0.19145 15.2413 0.717417 15.9669 1.55833C16.6944 2.40136 17.0833 3.52108 17.0833 4.79167V6.00001C17.0833 6.34517 16.8035 6.625 16.4583 6.625H14.725C14.4258 6.625 14.1626 6.741 13.9728 6.936L13.9616 6.94725C13.7398 7.16367 13.616 7.47183 13.6472 7.79908L13.6479 7.80642C13.692 8.33558 14.2008 8.79167 14.825 8.79167H16.4583C16.8035 8.79167 17.0833 9.0715 17.0833 9.41667V10.625C17.0833 12.017 16.6166 13.2256 15.7544 14.0878C14.8923 14.9499 13.6837 15.4167 12.2917 15.4167H4.79167C3.39963 15.4167 2.19104 14.9499 1.32889 14.0878C0.466742 13.2256 0 12.017 0 10.625V4.79167C0 3.53094 0.381692 2.41866 1.0983 1.57791C1.81448 0.737658 2.83177 0.20825 4.03028 0.0559417Z" fill="#AFAFAF"/>
</svg>
