<svg width="20" height="20" viewBox="0 0 20 20" fill="none" xmlns="http://www.w3.org/2000/svg">
<g clip-path="url(#clip0_28546_16657)">
<path d="M14.5833 1.59766C13.645 1.61225 12.727 1.8742 11.9223 2.35705C11.1176 2.8399 10.4545 3.52655 10 4.34766C9.54553 3.52655 8.88244 2.8399 8.0777 2.35705C7.27295 1.8742 6.35504 1.61225 5.41667 1.59766C3.92078 1.66265 2.51142 2.31703 1.49649 3.41785C0.48155 4.51867 -0.0564586 5.97643 2.10013e-07 7.47266C2.10013e-07 11.2618 3.98833 15.4002 7.33333 18.206C8.08018 18.8336 9.02446 19.1777 10 19.1777C10.9755 19.1777 11.9198 18.8336 12.6667 18.206C16.0117 15.4002 20 11.2618 20 7.47266C20.0565 5.97643 19.5184 4.51867 18.5035 3.41785C17.4886 2.31703 16.0792 1.66265 14.5833 1.59766ZM11.5958 16.931C11.1492 17.3071 10.584 17.5134 10 17.5134C9.41604 17.5134 8.85085 17.3071 8.40417 16.931C4.1225 13.3385 1.66667 9.89182 1.66667 7.47266C1.6097 6.41825 1.97197 5.3841 2.67447 4.59574C3.37697 3.80738 4.3627 3.32878 5.41667 3.26432C6.47064 3.32878 7.45637 3.80738 8.15886 4.59574C8.86136 5.3841 9.22363 6.41825 9.16667 7.47266C9.16667 7.69367 9.25446 7.90563 9.41074 8.06191C9.56702 8.21819 9.77899 8.30599 10 8.30599C10.221 8.30599 10.433 8.21819 10.5893 8.06191C10.7455 7.90563 10.8333 7.69367 10.8333 7.47266C10.7764 6.41825 11.1386 5.3841 11.8411 4.59574C12.5436 3.80738 13.5294 3.32878 14.5833 3.26432C15.6373 3.32878 16.623 3.80738 17.3255 4.59574C18.028 5.3841 18.3903 6.41825 18.3333 7.47266C18.3333 9.89182 15.8775 13.3385 11.5958 16.9277V16.931Z" fill="#AFAFAF"/>
</g>
<defs>
<clipPath id="clip0_28546_16657">
<rect width="20" height="20" fill="white"/>
</clipPath>
</defs>
</svg>
